<svg xmlns="http://www.w3.org/2000/svg" xmlns:xlink="http://www.w3.org/1999/xlink" viewBox="0 0 762 616.33"><defs><style>.cls-1{fill:#463768;}.cls-15,.cls-16,.cls-19,.cls-2,.cls-23,.cls-3,.cls-4,.cls-51,.cls-58,.cls-64,.cls-66,.cls-67,.cls-68,.cls-69,.cls-70,.cls-71,.cls-72,.cls-73{opacity:0.5;}.cls-2{fill:url(#linear-gradient);}.cls-3{fill:url(#linear-gradient-2);}.cls-4{fill:url(#linear-gradient-3);}.cls-5{fill:#ffced6;}.cls-6{fill:#fef4f3;}.cls-7{fill:url(#GradientFill_13);}.cls-8{fill:url(#GradientFill_18);}.cls-9{fill:url(#GradientFill_18-2);}.cls-10{fill:url(#GradientFill_13-2);}.cls-11{fill:#ffcfd3;}.cls-12{fill:url(#GradientFill_2);}.cls-13{fill:#a05361;}.cls-14{fill:#fff;}.cls-15{fill:url(#linear-gradient-4);}.cls-16{fill:url(#linear-gradient-5);}.cls-17{fill:#efefef;}.cls-18{fill:#f9f9f9;}.cls-20{fill:url(#linear-gradient-6);}.cls-21{fill:url(#linear-gradient-7);}.cls-22{fill:url(#linear-gradient-8);}.cls-23{fill:url(#linear-gradient-9);}.cls-24{fill:url(#GradientFill_3);}.cls-25{fill:url(#GradientFill_3-2);}.cls-26{fill:url(#GradientFill_3-3);}.cls-27{fill:url(#GradientFill_3-4);}.cls-28{fill:url(#GradientFill_3-5);}.cls-29{fill:url(#GradientFill_3-6);}.cls-30{fill:url(#GradientFill_3-7);}.cls-31{fill:url(#GradientFill_3-8);}.cls-32{fill:url(#GradientFill_3-9);}.cls-33{fill:url(#GradientFill_3-10);}.cls-34{fill:url(#GradientFill_3-11);}.cls-35{fill:url(#GradientFill_3-12);}.cls-36{fill:url(#GradientFill_3-13);}.cls-37{fill:url(#GradientFill_3-14);}.cls-38{fill:url(#GradientFill_3-15);}.cls-39{fill:url(#GradientFill_3-16);}.cls-40{fill:url(#GradientFill_3-17);}.cls-41{fill:url(#GradientFill_20);}.cls-42{fill:url(#GradientFill_18-3);}.cls-43{fill:url(#GradientFill_2-2);}.cls-44{fill:url(#GradientFill_2-3);}.cls-45{fill:url(#Degradado_sin_nombre_57);}.cls-46{fill:url(#Degradado_sin_nombre_57-2);}.cls-47{fill:url(#GradientFill_13-3);}.cls-48{fill:url(#GradientFill_18-4);}.cls-49{fill:url(#GradientFill_2-4);}.cls-50{fill:url(#GradientFill_2-5);}.cls-51{fill:url(#linear-gradient-10);}.cls-52{fill:url(#linear-gradient-11);}.cls-53{fill:url(#linear-gradient-12);}.cls-54{fill:url(#GradientFill_13-4);}.cls-55{fill:url(#GradientFill_18-5);}.cls-56{fill:url(#GradientFill_13-5);}.cls-57{fill:url(#GradientFill_18-6);}.cls-58{fill:url(#linear-gradient-13);}.cls-59{fill:url(#linear-gradient-14);}.cls-60{fill:url(#linear-gradient-15);}.cls-61{fill:url(#linear-gradient-16);}.cls-62{fill:url(#linear-gradient-17);}.cls-63{fill:url(#GradientFill_13-6);}.cls-64{fill:url(#linear-gradient-18);}.cls-65{fill:url(#GradientFill_18-7);}.cls-66{fill:url(#linear-gradient-19);}.cls-67{fill:url(#linear-gradient-20);}.cls-68{fill:url(#linear-gradient-21);}.cls-69{fill:url(#linear-gradient-22);}.cls-70{fill:url(#linear-gradient-23);}.cls-71{fill:url(#linear-gradient-24);}.cls-72{fill:url(#linear-gradient-25);}.cls-73{fill:url(#linear-gradient-26);}.cls-74{fill:url(#GradientFill_18-8);}.cls-75{fill:url(#GradientFill_20-2);}.cls-76{fill:url(#GradientFill_20-3);}.cls-77{fill:url(#GradientFill_20-4);}.cls-78{fill:url(#GradientFill_18-9);}.cls-79{fill:url(#GradientFill_2-6);}.cls-80{fill:url(#GradientFill_2-7);}.cls-81{fill:url(#linear-gradient-27);}.cls-82{fill:#ffac3b;}.cls-82,.cls-83,.cls-84{fill-rule:evenodd;}.cls-83{fill:#fd625b;}.cls-84{fill:#27c941;}</style><linearGradient id="linear-gradient" x1="576.25" y1="374.13" x2="649.19" y2="374.13" gradientUnits="userSpaceOnUse"><stop offset="0.18" stop-color="#703885"/><stop offset="1" stop-color="#654a83" stop-opacity="0"/></linearGradient><linearGradient id="linear-gradient-2" x1="359.59" y1="490.23" x2="709.84" y2="216.49" xlink:href="#linear-gradient"/><linearGradient id="linear-gradient-3" x1="547.49" y1="200.21" x2="614.91" y2="200.21" xlink:href="#linear-gradient"/><linearGradient id="GradientFill_13" x1="584.83" y1="269.33" x2="598.61" y2="269.33" gradientUnits="userSpaceOnUse"><stop offset="0" stop-color="#a774b2"/><stop offset="1" stop-color="#6957a5"/></linearGradient><linearGradient id="GradientFill_18" x1="590.83" y1="341.54" x2="606.42" y2="341.54" gradientUnits="userSpaceOnUse"><stop offset="0" stop-color="#beafd6"/><stop offset="1" stop-color="#9484be"/></linearGradient><linearGradient id="GradientFill_18-2" x1="593.79" y1="340.99" x2="632.33" y2="340.99" xlink:href="#GradientFill_18"/><linearGradient id="GradientFill_13-2" x1="575.37" y1="283.96" x2="611.52" y2="283.96" xlink:href="#GradientFill_13"/><linearGradient id="GradientFill_2" x1="574.22" y1="259.67" x2="581.97" y2="259.67" gradientUnits="userSpaceOnUse"><stop offset="0" stop-color="#763d89"/><stop offset="0.34" stop-color="#7e418e"/><stop offset="0.88" stop-color="#944d9b"/><stop offset="1" stop-color="#9a509f"/></linearGradient><linearGradient id="linear-gradient-4" x1="290.67" y1="477.1" x2="612.01" y2="485.6" xlink:href="#linear-gradient"/><linearGradient id="linear-gradient-5" x1="509.06" y1="280.49" x2="-66.85" y2="276.42" xlink:href="#linear-gradient"/><linearGradient id="linear-gradient-6" x1="261.33" y1="386.07" x2="274.18" y2="386.07" xlink:href="#linear-gradient"/><linearGradient id="linear-gradient-7" x1="228.11" y1="380.68" x2="311.21" y2="380.68" xlink:href="#linear-gradient"/><linearGradient id="linear-gradient-8" x1="382.66" y1="409.48" x2="465.32" y2="409.48" xlink:href="#linear-gradient"/><linearGradient id="linear-gradient-9" x1="647.81" y1="150.9" x2="715.23" y2="150.9" xlink:href="#linear-gradient"/><linearGradient id="GradientFill_3" x1="403.66" y1="420.91" x2="427.91" y2="420.91" gradientTransform="translate(74.64 -62.48) rotate(9.44)" gradientUnits="userSpaceOnUse"><stop offset="0" stop-color="#914f9f"/><stop offset="1" stop-color="#763884"/></linearGradient><linearGradient id="GradientFill_3-2" x1="362.2" y1="420.91" x2="386.46" y2="420.91" gradientTransform="translate(74.08 -55.68) rotate(9.44)" xlink:href="#GradientFill_3"/><linearGradient id="GradientFill_3-3" x1="367.85" y1="381.86" x2="409.68" y2="381.86" gradientTransform="matrix(1, 0, 0, 1, 0, 0)" xlink:href="#GradientFill_3"/><linearGradient id="GradientFill_3-4" x1="370.81" y1="400" x2="412.64" y2="400" gradientTransform="matrix(1, 0, 0, 1, 0, 0)" xlink:href="#GradientFill_3"/><linearGradient id="GradientFill_3-5" x1="373.78" y1="418.14" x2="415.6" y2="418.14" gradientTransform="matrix(1, 0, 0, 1, 0, 0)" xlink:href="#GradientFill_3"/><linearGradient id="GradientFill_3-6" x1="376.74" y1="436.27" x2="418.56" y2="436.27" gradientTransform="matrix(1, 0, 0, 1, 0, 0)" xlink:href="#GradientFill_3"/><linearGradient id="GradientFill_3-7" x1="379.7" y1="454.41" x2="421.52" y2="454.41" gradientTransform="matrix(1, 0, 0, 1, 0, 0)" xlink:href="#GradientFill_3"/><linearGradient id="GradientFill_3-8" x1="382.66" y1="472.54" x2="424.48" y2="472.54" gradientTransform="matrix(1, 0, 0, 1, 0, 0)" xlink:href="#GradientFill_3"/><linearGradient id="GradientFill_3-9" x1="338.4" y1="420.91" x2="362.65" y2="420.91" gradientTransform="translate(708.21 6.06) rotate(80.55)" xlink:href="#GradientFill_3"/><linearGradient id="GradientFill_3-10" x1="379.85" y1="420.91" x2="404.11" y2="420.91" gradientTransform="translate(742.85 -34.83) rotate(80.55)" xlink:href="#GradientFill_3"/><linearGradient id="GradientFill_3-11" x1="356.63" y1="381.86" x2="398.46" y2="381.86" gradientTransform="matrix(1, 0, 0, 1, 0, 0)" xlink:href="#GradientFill_3"/><linearGradient id="GradientFill_3-12" x1="353.67" y1="400" x2="395.5" y2="400" gradientTransform="matrix(1, 0, 0, 1, 0, 0)" xlink:href="#GradientFill_3"/><linearGradient id="GradientFill_3-13" x1="350.71" y1="418.14" x2="392.53" y2="418.14" gradientTransform="matrix(1, 0, 0, 1, 0, 0)" xlink:href="#GradientFill_3"/><linearGradient id="GradientFill_3-14" x1="347.75" y1="436.27" x2="389.57" y2="436.27" gradientTransform="matrix(1, 0, 0, 1, 0, 0)" xlink:href="#GradientFill_3"/><linearGradient id="GradientFill_3-15" x1="344.79" y1="454.41" x2="386.61" y2="454.41" gradientTransform="matrix(1, 0, 0, 1, 0, 0)" xlink:href="#GradientFill_3"/><linearGradient id="GradientFill_3-16" x1="341.83" y1="472.54" x2="383.65" y2="472.54" gradientTransform="matrix(1, 0, 0, 1, 0, 0)" xlink:href="#GradientFill_3"/><linearGradient id="GradientFill_3-17" x1="358.43" y1="353.44" x2="409.44" y2="353.44" gradientTransform="matrix(1, 0, 0, 1, 0, 0)" xlink:href="#GradientFill_3"/><linearGradient id="GradientFill_20" x1="536.38" y1="518.5" x2="576.4" y2="518.5" gradientUnits="userSpaceOnUse"><stop offset="0" stop-color="#7159a6"/><stop offset="0.23" stop-color="#7b5da8"/><stop offset="0.61" stop-color="#9669ac"/><stop offset="1" stop-color="#b777b2"/></linearGradient><linearGradient id="GradientFill_18-3" x1="538.98" y1="547.53" x2="569.98" y2="599.78" xlink:href="#GradientFill_18"/><linearGradient id="GradientFill_2-2" x1="559.92" y1="610.22" x2="572.38" y2="610.22" xlink:href="#GradientFill_2"/><linearGradient id="GradientFill_2-3" x1="540.27" y1="611.41" x2="551.67" y2="611.41" xlink:href="#GradientFill_2"/><linearGradient id="Degradado_sin_nombre_57" x1="572.46" y1="450.89" x2="572.46" y2="503.33" gradientUnits="userSpaceOnUse"><stop offset="0" stop-color="#2688c4" stop-opacity="0.8"/><stop offset="0.99" stop-color="#2688c4" stop-opacity="0"/></linearGradient><linearGradient id="Degradado_sin_nombre_57-2" x1="539.55" y1="450.89" x2="539.55" y2="503.33" xlink:href="#Degradado_sin_nombre_57"/><linearGradient id="GradientFill_13-3" x1="223.8" y1="411.99" x2="263.82" y2="411.99" xlink:href="#GradientFill_13"/><linearGradient id="GradientFill_18-4" x1="231.05" y1="473.12" x2="254.92" y2="473.12" xlink:href="#GradientFill_18"/><linearGradient id="GradientFill_2-4" x1="247.34" y1="503.71" x2="259.79" y2="503.71" xlink:href="#GradientFill_2"/><linearGradient id="GradientFill_2-5" x1="227.69" y1="504.9" x2="239.08" y2="504.9" xlink:href="#GradientFill_2"/><linearGradient id="linear-gradient-10" x1="211.56" y1="470.93" x2="21.62" y2="470.93" xlink:href="#linear-gradient"/><linearGradient id="linear-gradient-11" x1="381.58" y1="244.53" x2="404.38" y2="244.53" xlink:href="#linear-gradient"/><linearGradient id="linear-gradient-12" x1="215.85" y1="207.36" x2="457.94" y2="207.36" xlink:href="#linear-gradient"/><linearGradient id="GradientFill_13-4" x1="325.52" y1="248.33" x2="365.09" y2="248.33" xlink:href="#GradientFill_13"/><linearGradient id="GradientFill_18-5" x1="364.65" y1="316.66" x2="380.24" y2="316.66" xlink:href="#GradientFill_18"/><linearGradient id="GradientFill_13-5" x1="319.67" y1="262.12" x2="382.29" y2="262.12" xlink:href="#GradientFill_13"/><linearGradient id="GradientFill_18-6" x1="364.14" y1="292.49" x2="423.93" y2="292.49" xlink:href="#GradientFill_18"/><linearGradient id="linear-gradient-13" x1="77.52" y1="450.5" x2="119.9" y2="450.5" gradientTransform="translate(197.42 901) rotate(-180)" xlink:href="#linear-gradient"/><linearGradient id="linear-gradient-14" x1="82.13" y1="77.03" x2="136.06" y2="77.03" gradientTransform="translate(218.2 154.05) rotate(-180)" gradientUnits="userSpaceOnUse"><stop offset="0.18" stop-color="#703885"/><stop offset="1" stop-color="#703885"/></linearGradient><linearGradient id="linear-gradient-15" x1="1.09" y1="67.35" x2="55.02" y2="67.35" gradientTransform="translate(56.11 134.7) rotate(-180)" xlink:href="#linear-gradient-14"/><linearGradient id="linear-gradient-16" x1="63.07" y1="466.93" x2="134.35" y2="466.93" gradientTransform="translate(197.42 933.87) rotate(-180)" xlink:href="#linear-gradient-14"/><linearGradient id="linear-gradient-17" x1="88.95" y1="3.43" x2="95.81" y2="3.43" gradientUnits="userSpaceOnUse"><stop offset="0" stop-color="#ed86a0"/><stop offset="1" stop-color="#a658a3"/></linearGradient><linearGradient id="GradientFill_13-6" x1="659.39" y1="275.44" x2="699.41" y2="275.44" xlink:href="#GradientFill_13"/><linearGradient id="linear-gradient-18" x1="640.52" y1="367.26" x2="713.46" y2="367.26" xlink:href="#linear-gradient"/><linearGradient id="GradientFill_18-7" x1="650.61" y1="333.72" x2="694.95" y2="333.72" xlink:href="#GradientFill_18"/><linearGradient id="linear-gradient-19" x1="103.55" y1="546.62" x2="297.23" y2="551.75" xlink:href="#linear-gradient"/><linearGradient id="linear-gradient-20" x1="138.91" y1="597.51" x2="332.58" y2="602.63" xlink:href="#linear-gradient"/><linearGradient id="linear-gradient-21" x1="212.05" y1="505.55" x2="285" y2="505.55" xlink:href="#linear-gradient"/><linearGradient id="linear-gradient-22" x1="-517.11" y1="587.16" x2="-444.16" y2="587.16" gradientTransform="matrix(-1, 0, 0, 1, -120.15, 0)" xlink:href="#linear-gradient"/><linearGradient id="linear-gradient-23" x1="24.19" y1="544.3" x2="272.47" y2="544.3" xlink:href="#linear-gradient"/><linearGradient id="linear-gradient-24" x1="24.19" y1="545.49" x2="272.4" y2="545.49" xlink:href="#linear-gradient"/><linearGradient id="linear-gradient-25" x1="58.87" y1="594.12" x2="307.15" y2="594.12" xlink:href="#linear-gradient"/><linearGradient id="linear-gradient-26" x1="58.87" y1="595.32" x2="307.08" y2="595.32" xlink:href="#linear-gradient"/><linearGradient id="GradientFill_18-8" x1="346.47" y1="552.64" x2="379.74" y2="552.64" xlink:href="#GradientFill_18"/><linearGradient id="GradientFill_20-2" x1="293.34" y1="556.23" x2="322.73" y2="556.23" xlink:href="#GradientFill_20"/><linearGradient id="GradientFill_20-3" x1="299.94" y1="556.61" x2="323" y2="556.61" xlink:href="#GradientFill_20"/><linearGradient id="GradientFill_20-4" x1="314.01" y1="534.48" x2="351.96" y2="534.48" xlink:href="#GradientFill_20"/><linearGradient id="GradientFill_18-9" x1="337.73" y1="554.5" x2="357.05" y2="554.5" xlink:href="#GradientFill_18"/><linearGradient id="GradientFill_2-6" x1="333.24" y1="586.61" x2="348.24" y2="586.61" xlink:href="#GradientFill_2"/><linearGradient id="GradientFill_2-7" x1="367.67" y1="581.37" x2="381.22" y2="581.37" xlink:href="#GradientFill_2"/><linearGradient id="linear-gradient-27" x1="248.9" y1="63.85" x2="261.37" y2="63.85" xlink:href="#linear-gradient-17"/></defs><title>Asset 3</title><g id="Layer_2" data-name="Layer 2"><g id="Layer_1-2" data-name="Layer 1"><path class="cls-1" d="M2,57.61H268.36a1.7,1.7,0,0,0,0-3.4H2a1.7,1.7,0,1,0,0,3.4Z"/><path class="cls-1" d="M97.2,54.78"/><path class="cls-1" d="M108.9,57.17a.85.85,0,0,0,.6-.25l14.2-14.2H253.92l13.35,13.35a.85.85,0,0,0,1.2-1.2L254.62,41H123l-14.7,14.7a.85.85,0,0,0,.6,1.45Z"/><path class="cls-1" d="M.85,57.17a.85.85,0,0,0,.75-.46L15.82,29.56H50.29L63.65,55.85a.85.85,0,1,0,1.52-.77L51.33,27.86H14.79L.1,55.92a.85.85,0,0,0,.75,1.24Z"/><path class="cls-1" d="M218.27,42.7a.85.85,0,0,0,.25-1.66L92.65,2.66a.85.85,0,0,0-.58,0L32.41,27.87a.85.85,0,0,0,.66,1.57L92.44,4.38,218,42.67A.84.84,0,0,0,218.27,42.7Z"/><path class="cls-1" d="M112.2,57.28A1.7,1.7,0,0,0,113.79,55L94,2.82a1.7,1.7,0,0,0-3.26.27L80.47,54a1.7,1.7,0,0,0,3.33.67L92.88,9.54l17.73,46.65A1.7,1.7,0,0,0,112.2,57.28Z"/><path class="cls-1" d="M236.2,57.33a.84.84,0,0,0,.53-.19l16.7-13.49V56.26a.85.85,0,0,0,1.7,0V41.87a.85.85,0,0,0-1.38-.66L235.66,55.82a.85.85,0,0,0,.54,1.51Z"/><path class="cls-1" d="M220.05,57.33a.84.84,0,0,0,.53-.19l16.7-13.49V56.26a.85.85,0,0,0,1.7,0V41.87a.85.85,0,0,0-1.38-.66L219.51,55.82a.85.85,0,0,0,.54,1.51Z"/><path class="cls-1" d="M203.91,57.33a.84.84,0,0,0,.53-.19l16.7-13.49V56.26a.85.85,0,0,0,1.7,0V41.87a.85.85,0,0,0-1.38-.66L203.37,55.82a.85.85,0,0,0,.54,1.51Z"/><path class="cls-1" d="M187.76,57.33a.84.84,0,0,0,.53-.19L205,43.65V56.26a.85.85,0,0,0,1.7,0V41.87a.85.85,0,0,0-1.38-.66L187.23,55.82a.85.85,0,0,0,.54,1.51Z"/><path class="cls-1" d="M171.62,57.33a.84.84,0,0,0,.53-.19l16.7-13.49V56.26a.85.85,0,1,0,1.7,0V41.87a.85.85,0,0,0-1.38-.66L171.08,55.82a.85.85,0,0,0,.54,1.51Z"/><path class="cls-1" d="M155.47,57.33a.84.84,0,0,0,.53-.19l16.7-13.49V56.26a.85.85,0,0,0,1.7,0V41.87A.85.85,0,0,0,173,41.2L154.94,55.82a.85.85,0,0,0,.54,1.51Z"/><path class="cls-1" d="M139.33,57.33a.84.84,0,0,0,.53-.19l16.7-13.49V56.26a.85.85,0,1,0,1.7,0V41.87a.85.85,0,0,0-1.38-.66L138.79,55.82a.85.85,0,0,0,.54,1.51Z"/><path class="cls-1" d="M123.18,57.33a.84.84,0,0,0,.53-.19l16.7-13.49V56.26a.85.85,0,1,0,1.7,0V41.87a.85.85,0,0,0-1.38-.66L122.65,55.82a.85.85,0,0,0,.54,1.51Z"/><path class="cls-1" d="M27.74,57.33a.85.85,0,0,0,.65-.3L50.07,31.44V56.26a.85.85,0,1,0,1.7,0V29.12a.85.85,0,0,0-1.5-.55L27.09,55.93a.85.85,0,0,0,.65,1.4Z"/><path class="cls-1" d="M11.06,57.33a.85.85,0,0,0,.71-.38l16.52-25V56.26a.85.85,0,1,0,1.7,0V29.12a.85.85,0,0,0-1.56-.47L10.35,56a.85.85,0,0,0,.71,1.32Z"/><ellipse class="cls-2" cx="612.72" cy="374.13" rx="36.47" ry="5.04"/><polygon class="cls-3" points="159.62 468.08 489.96 350.77 762 354.17 527.86 468.08 159.62 468.08"/><rect class="cls-4" x="547.49" y="157.18" width="67.42" height="86.07"/><rect class="cls-5" x="544.21" y="157.18" width="67.42" height="86.07"/><path class="cls-6" d="M558.29,166.38l1.08-.46c.4-.16.74-.29,1.06-.41.81.64.68.73.89,1.48l-8.82,4v0l3.8,1.74c1.9.87,3.56,1.64,5,2.27-.21.78,0,.84-.89,1.51a13.32,13.32,0,0,1-1.28-.52c-2.52-1.15-5.76-2.61-9.77-4.45V171c0-.07.13-.16.42-.28l-.31.11v-.13a.36.36,0,0,1,.17-.34Z"/><path class="cls-6" d="M558.29,223.83l1.08-.46c.4-.16.74-.29,1.06-.41.81.64.68.73.89,1.48l-8.82,4v0l3.8,1.74c1.9.87,3.56,1.64,5,2.27-.21.78,0,.84-.89,1.51a13.36,13.36,0,0,1-1.28-.52c-2.52-1.15-5.76-2.61-9.77-4.45v-.6c0-.07.13-.16.42-.28l-.31.11v-.13a.36.36,0,0,1,.17-.34Z"/><rect class="cls-6" x="570.43" y="168.88" width="34.29" height="3.61"/><rect class="cls-6" x="578.09" y="181.51" width="26.63" height="3.61"/><rect class="cls-6" x="590.12" y="192.34" width="14.6" height="3.61"/><rect class="cls-6" x="570.43" y="226.33" width="34.29" height="3.61"/><rect class="cls-6" x="578.09" y="213.69" width="26.63" height="3.61"/><rect class="cls-6" x="590.12" y="202.86" width="14.6" height="3.61"/><polygon class="cls-6" points="566.07 222.2 562.5 235.06 565.06 235.26 568.63 222.4 566.07 222.2"/><polygon class="cls-7" points="589.2 252.02 590.55 263.46 598.61 284.38 591.24 286.64 585.57 264.82 584.83 252.52 589.2 252.02"/><polygon class="cls-8" points="606.42 307.33 602.82 343.74 604.02 375.74 591.62 375.74 590.95 373.36 599.45 372.23 594.92 343.89 590.83 308.65 606.42 307.33"/><polygon class="cls-9" points="610.52 306.93 613.34 337.94 632.33 363.16 630.06 375.06 624.39 375.06 627.79 372.51 628.36 364.86 610.22 344.46 593.79 307.9 610.52 306.93"/><path class="cls-10" d="M576.42,256.89l4,1.31a31.54,31.54,0,0,0,7.83,12.32l7.41,7.2,9.12,6.16L611.52,309l-21.2,2-.7-27.7-7.87-9.84a31.54,31.54,0,0,1-6.38-13.92Z"/><polygon class="cls-11" points="580.79 259.59 575.58 261.44 572.21 243.77 573.22 242.27 580.79 259.59"/><path class="cls-12" d="M582,259.25l-6.56,3.2s-1.35-1.18-1.18-1.85a2.45,2.45,0,0,1,1-1.51c.5-.34,5.55-2.19,5.55-2.19Z"/><polygon class="cls-11" points="584.83 252.52 584.49 243.1 588.19 243.1 589.2 252.02 584.83 252.52"/><path class="cls-11" d="M576.37,242.92a23.65,23.65,0,0,1-2.42-1.47c0-.17-1.69-4.13-1.69-4.13l-2.36.33.67,6.51,3.25.79Z"/><path class="cls-11" d="M610.4,272.85c-1.58,3.62-6.7,7.35-10.33,5.77s-4.37-7.87-2.79-11.49a7.16,7.16,0,0,1,13.12,5.72Z"/><path class="cls-11" d="M599.6,264.91a21.12,21.12,0,0,0-2-1.23c-.48-.27-1.24-.43-1.46.08a1,1,0,0,0,.11.79,5,5,0,0,0,1.52,2.24,2.54,2.54,0,0,0,2.21.33,1.85,1.85,0,0,0,1.37-1.4A4.59,4.59,0,0,1,599.6,264.91Z"/><path class="cls-13" d="M600.88,278.87c3.54.78,8.05-2.66,9.52-6a7.16,7.16,0,0,0-3.7-9.42c-.22-.1-.44-.14-.67-.21a3.88,3.88,0,0,0-.9,1.46,6.73,6.73,0,0,0,1.08,5.83S602.13,278.22,600.88,278.87Z"/><path class="cls-11" d="M606.7,271.66a2.78,2.78,0,0,1,1.19,1.29c.82,1.73-1.13,3.42-2.8,3.2a4.12,4.12,0,0,1-1.52-.56,2.21,2.21,0,0,1-1-1,1.68,1.68,0,0,1,.07-1.33,3.33,3.33,0,0,1,.85-1.06A3.15,3.15,0,0,1,606.7,271.66Z"/><ellipse class="cls-14" cx="601.78" cy="264.31" rx="2.74" ry="2.06" transform="translate(-45.67 377.51) rotate(-33.63)"/><path class="cls-15" d="M615.78,466.38l-87.92,1.7H159.61l170.31,13.61c-12.1,1.81-19.51,4.22-19.51,6.88,0,5.59,32.78,10.12,73.21,10.12,32.87,0,60.68-3,69.93-7.12l89.11,7.12Z"/><rect class="cls-16" x="168.82" y="90.63" width="359.03" height="377.45" rx="8.76" ry="8.76"/><rect class="cls-17" x="159.61" y="90.63" width="359.03" height="377.45" rx="8.16" ry="8.16"/><path class="cls-18" d="M168,90.63H508.46a10.19,10.19,0,0,1,10.19,10.19v17.24a2,2,0,0,1-2,2H161.58a2,2,0,0,1-2-2V99a8.4,8.4,0,0,1,8.4-8.4Z"/><g class="cls-19"><path class="cls-20" d="M269.47,379a6.39,6.39,0,0,0-1.39-.21h-.3a6.34,6.34,0,0,0-1.11.09l-.21,0a6.35,6.35,0,0,0-1.16.37l-.08,0a6.36,6.36,0,0,0-3.61,4.14c-.93,3.41.54,8.88,3.95,9.81a5.64,5.64,0,0,0,4.79-1.33h0a10.56,10.56,0,0,0,1.56-1.47l.05-.06q.31-.36.58-.74l.08-.12c.19-.27.37-.55.53-.83l.06-.11c.13-.24.25-.48.35-.72l.09-.22a7.43,7.43,0,0,0,.29-.82,6.39,6.39,0,0,0-4.48-7.86Z"/><path class="cls-21" d="M249.55,358.4l-.25,0,4.45,38L257.21,432l2.94,36h5.15l1.36-36.44,3.37-.14,2.17,36.59h5.91l2.33-37-.49-33.1,9.39-39-.38-.05a2.93,2.93,0,0,0,.38-1.43h21.89V293.28H228.11v64.16H249A2.94,2.94,0,0,0,249.55,358.4Zm5-1h28.83a3,3,0,0,0,1.85,2.74L273,395l-12.35-1L253,359.13A3,3,0,0,0,254.56,357.44Z"/></g><path class="cls-22" d="M382.66,468.08h1.72l2.13-12.82H420l2.13,12.82h1.72l-2.13-12.82h4.51l-2.13,12.82h1.72L428,455.26h33.5l2.13,12.82h1.72L446.69,356h3.59v-5.1h-51V356h2Zm15.91-85.37H408l2.73,16.44H395.84Zm16.85,34.57-2.73-16.43h22.59l-2.73,16.43Zm16.85,1.7-2.73,16.43h-11.1L415.71,419Zm-19.86-19.84-2.73-16.44H438.3l-2.73,16.44Zm-16.85,1.7H411l2.73,16.43H392.83Zm-3,18.14H414l2.73,16.43h-26.9Zm-5.75,34.57,2.73-16.44H417l2.73,16.44Zm39.73,0h-5.07l-2.73-16.44h10.54Zm34.66,0H428.25L431,437.12h27.47Zm-3-18.14h-26.9L434,419h21.44Zm-3-18.13H434.28L437,400.85h15.41Zm-3-18.14H437.3L440,382.71h9.38ZM445,356l4.16,25h-8.82l4.16-25Zm-2.22,0-4.16,25H409.4l-4.16-25Zm-39.23,0,4.16,25h-8.82L403,356Z"/><rect class="cls-23" x="647.81" y="65.36" width="67.42" height="171.08"/><rect class="cls-5" x="644.52" y="65.36" width="67.42" height="171.08"/><path class="cls-6" d="M660.4,74l1.08-.46c.4-.16.74-.29,1.06-.41.81.64.68.73.89,1.48l-8.82,4v0l3.8,1.74c1.9.87,3.56,1.64,5,2.27-.21.78,0,.84-.89,1.51a13.32,13.32,0,0,1-1.28-.52c-2.52-1.15-5.76-2.61-9.77-4.45v-.6c0-.07.13-.16.42-.28l-.31.11v-.13a.36.36,0,0,1,.17-.34Z"/><path class="cls-6" d="M660.4,131.42l1.08-.46c.4-.16.74-.29,1.06-.41.81.64.68.73.89,1.48l-8.82,4v0l3.8,1.74c1.9.87,3.56,1.64,5,2.27-.21.78,0,.84-.89,1.51a13.32,13.32,0,0,1-1.28-.52c-2.52-1.15-5.76-2.61-9.77-4.45V136c0-.07.13-.16.42-.28l-.31.11v-.13a.36.36,0,0,1,.17-.34Z"/><rect class="cls-6" x="672.54" y="76.47" width="34.29" height="3.61"/><rect class="cls-6" x="680.2" y="89.1" width="26.63" height="3.61"/><rect class="cls-6" x="692.23" y="99.93" width="14.6" height="3.61"/><rect class="cls-6" x="672.54" y="133.92" width="34.29" height="3.61"/><rect class="cls-6" x="680.2" y="121.29" width="26.63" height="3.61"/><rect class="cls-6" x="692.23" y="110.46" width="14.6" height="3.61"/><polygon class="cls-6" points="668.18 129.79 664.61 142.65 667.17 142.86 670.74 130 668.18 129.79"/><path class="cls-6" d="M660.4,152l1.08-.46c.4-.16.74-.29,1.06-.41.81.64.68.73.89,1.48l-8.82,4v0l3.8,1.74c1.9.87,3.56,1.64,5,2.27-.21.78,0,.84-.89,1.51a13.36,13.36,0,0,1-1.28-.52c-2.52-1.15-5.76-2.61-9.77-4.45v-.6c0-.07.13-.16.42-.28l-.31.11v-.13a.36.36,0,0,1,.17-.34Z"/><path class="cls-6" d="M660.4,209.49l1.08-.46c.4-.16.74-.29,1.06-.41.81.64.68.73.89,1.48l-8.82,4v0l3.8,1.74c1.9.87,3.56,1.64,5,2.27-.21.78,0,.84-.89,1.51a13.32,13.32,0,0,1-1.28-.52c-2.52-1.15-5.76-2.61-9.77-4.45v-.6c0-.07.13-.16.42-.28l-.31.11v-.13a.36.36,0,0,1,.17-.34Z"/><rect class="cls-6" x="672.54" y="154.54" width="34.29" height="3.61"/><rect class="cls-6" x="680.2" y="167.17" width="26.63" height="3.61"/><rect class="cls-6" x="692.23" y="178" width="14.6" height="3.61"/><rect class="cls-6" x="672.54" y="211.99" width="34.29" height="3.61"/><rect class="cls-6" x="680.2" y="199.35" width="26.63" height="3.61"/><rect class="cls-6" x="692.23" y="188.53" width="14.6" height="3.61"/><polygon class="cls-6" points="668.18 207.86 664.61 220.72 667.17 220.93 670.74 208.07 668.18 207.86"/><rect class="cls-6" x="202.61" y="310.29" width="83.09" height="64.16"/><rect class="cls-24" x="414.93" y="352.07" width="1.7" height="137.69" transform="translate(-63.39 73.87) rotate(-9.44)"/><rect class="cls-25" x="373.48" y="352.07" width="1.7" height="137.69" transform="matrix(0.99, -0.16, 0.16, 0.99, -63.95, 67.08)"/><rect class="cls-26" x="367.85" y="381.01" width="41.82" height="1.7"/><rect class="cls-27" x="370.81" y="399.15" width="41.82" height="1.7"/><rect class="cls-28" x="373.78" y="417.29" width="41.82" height="1.7"/><rect class="cls-29" x="376.74" y="435.42" width="41.82" height="1.7"/><rect class="cls-30" x="379.7" y="453.56" width="41.82" height="1.7"/><rect class="cls-31" x="382.66" y="471.69" width="41.82" height="1.7"/><rect class="cls-32" x="281.68" y="420.06" width="137.69" height="1.7" transform="translate(-122.2 697.61) rotate(-80.55)"/><rect class="cls-33" x="323.13" y="420.06" width="137.69" height="1.7" transform="matrix(0.16, -0.99, 0.99, 0.16, -87.56, 738.49)"/><rect class="cls-34" x="356.63" y="381.01" width="41.82" height="1.7"/><rect class="cls-35" x="353.67" y="399.15" width="41.82" height="1.7"/><rect class="cls-36" x="350.71" y="417.29" width="41.82" height="1.7"/><rect class="cls-37" x="347.75" y="435.42" width="41.82" height="1.7"/><rect class="cls-38" x="344.79" y="453.56" width="41.82" height="1.7"/><rect class="cls-39" x="341.83" y="471.69" width="41.82" height="1.7"/><rect class="cls-40" x="358.43" y="350.89" width="51.01" height="5.1"/><polygon class="cls-41" points="544.29 555.55 540.83 519.99 536.38 481.95 539.84 481.45 547.75 517.51 560.1 518.5 572.94 481.95 576.4 482.44 567.01 521.47 567.51 554.57 544.29 555.55"/><path class="cls-11" d="M548.68,507c-.93,3.41.54,8.88,3.95,9.81s7.46-3,8.4-6.43A6.4,6.4,0,0,0,548.68,507Z"/><path class="cls-13" d="M553.24,505a3.59,3.59,0,0,1-2-1.33,1,1,0,0,1-.07-.18,6.37,6.37,0,0,1,9.9,6.85,10.15,10.15,0,0,1-5.4,6.15,10.89,10.89,0,0,1,.39-2q1.06-4,2.36-8A34.31,34.31,0,0,1,553.24,505Z"/><path class="cls-11" d="M557.22,510.2a1.69,1.69,0,0,1,1.62-.26,1,1,0,0,1,.33.22,1.26,1.26,0,0,1,.3,1,2.58,2.58,0,0,1-1.85,2.11,1.89,1.89,0,0,1-.83.09,1.06,1.06,0,0,1-.71-.41C555.48,512.1,556.56,510.69,557.22,510.2Z"/><polygon class="cls-42" points="567.51 554.57 564.08 609.12 560.3 609.12 557.1 555.01 553.73 555.15 551.67 610.46 548.76 610.39 544.29 555.55 543.63 548.8 567.42 549.11 567.51 554.57"/><polygon class="cls-43" points="564.08 609.12 572.38 610.04 572.08 611.32 559.92 611.32 560.3 609.12 564.08 609.12"/><polygon class="cls-44" points="551.67 610.46 551.67 612.01 540.27 612.44 540.27 611.01 548.76 610.39 551.67 610.46"/><path class="cls-13" d="M554.8,511.58c-2.08.23-3.73-1.87-5.8-2.13a.7.7,0,0,0-.39,0,.78.78,0,0,0-.32.38l-.79,1.53a6.47,6.47,0,0,0-.66,1.63,7.72,7.72,0,0,0,.51,3.7,4,4,0,0,0,2.22,1.89,6.84,6.84,0,0,0,2.95.31,5.4,5.4,0,0,0,2-.49,3.69,3.69,0,0,0,1.93-3.76,4.29,4.29,0,0,1-.13-1.1,2.69,2.69,0,0,1,.4-1c.2-.36,1.57-2.16.5-2.17-.33,0-.8.55-1.08.72A3.37,3.37,0,0,1,554.8,511.58Z"/><polygon class="cls-45" points="568.51 494.55 573.49 494.55 576.4 482.44 572.94 481.95 568.51 494.55"/><polygon class="cls-46" points="539.84 481.45 536.38 481.95 537.86 494.55 542.71 494.55 539.84 481.45"/><circle class="cls-11" cx="538.85" cy="479.97" r="2.96"/><circle class="cls-11" cx="573.43" cy="480.96" r="2.96"/><polygon class="cls-47" points="231.7 449.04 228.25 413.48 223.8 375.44 227.26 374.94 235.16 411 247.51 411.99 260.36 375.44 263.81 375.93 254.43 414.96 254.92 448.06 231.7 449.04"/><circle class="cls-11" cx="226.27" cy="373.46" r="2.96"/><circle class="cls-11" cx="260.85" cy="374.45" r="2.96"/><path class="cls-13" d="M247,406.65l.08-.11c.19-.27.37-.55.53-.83l.06-.11c.13-.24.25-.48.36-.72l.09-.22a7.35,7.35,0,0,0,.29-.83,6.11,6.11,0,0,0-2.81-7.1c-.15-.1-.3-.21-.46-.29A6.43,6.43,0,0,0,244,396h0a6.39,6.39,0,0,0-1.39-.21h-.3a6.34,6.34,0,0,0-1.11.09l-.21,0a6.36,6.36,0,0,0-1.16.37l-.08,0a6.36,6.36,0,0,0-3.61,4.14c-.93,3.41.54,8.88,3.95,9.81a5.64,5.64,0,0,0,4.79-1.33h0a10.56,10.56,0,0,0,1.56-1.47l.05-.06Q246.77,407,247,406.65Z"/><polygon class="cls-48" points="254.92 448.06 251.5 502.61 247.72 502.61 244.52 448.5 241.15 448.64 239.09 503.95 236.17 503.88 231.7 449.04 231.05 442.29 254.84 442.6 254.92 448.06"/><polygon class="cls-49" points="251.5 502.61 259.79 503.53 259.49 504.81 247.34 504.81 247.72 502.61 251.5 502.61"/><polygon class="cls-50" points="239.09 503.95 239.09 505.5 227.69 505.93 227.69 504.5 236.17 503.88 239.09 503.95"/><rect class="cls-5" x="484.73" y="395.18" width="142.82" height="85.01" transform="translate(1112.29 875.37) rotate(180)"/><rect class="cls-6" x="556.2" y="405.92" width="63.71" height="63.12" transform="translate(1176.12 874.96) rotate(180)"/><rect class="cls-6" x="492.82" y="406.52" width="55.64" height="5.36" transform="translate(1041.28 818.39) rotate(180)"/><rect class="cls-6" x="492.82" y="419.62" width="55.64" height="5.36" transform="translate(1041.28 844.59) rotate(180)"/><rect class="cls-6" x="492.82" y="432.72" width="55.64" height="5.36" transform="translate(1041.28 870.79) rotate(180)"/><rect class="cls-6" x="492.82" y="445.82" width="55.64" height="5.36" transform="translate(1041.28 896.99) rotate(180)"/><rect class="cls-6" x="492.82" y="458.92" width="55.64" height="5.36" transform="translate(1041.28 923.19) rotate(180)"/><ellipse class="cls-51" cx="99.97" cy="470.93" rx="77.42" ry="10.7"/><g class="cls-19"><path class="cls-52" d="M382.06,242.66a5.72,5.72,0,0,0,2.09,1.19c0,.21,0,.42,0,.63.3,3.94,3.9,9.15,7.84,8.86a4.35,4.35,0,0,0,.83-.15h0a6,6,0,0,0,2.84-1.89l.07-.08c.13-.15.25-.31.37-.47l.12-.16c.11-.15.21-.3.31-.46l.14-.22.26-.45.14-.26.22-.45.14-.31.18-.43.13-.35.14-.42c0-.13.08-.26.11-.39s.07-.26.11-.39.06-.28.09-.42.05-.24.07-.36,0-.3.06-.45,0-.22,0-.33,0-.33,0-.49,0-.18,0-.27,0-.19,0-.29a4.25,4.25,0,1,0-2.32-5.16c-.06-.05-.1-.12-.16-.17a7.19,7.19,0,0,0-1.12-.79,7.12,7.12,0,0,0-2.63-.88,7.14,7.14,0,0,0-7.58,4.56c-.58-.06-1.17-.12-1.75-.13s-1.3.2-1.25.75A1,1,0,0,0,382.06,242.66Z"/><path class="cls-53" d="M454.44,299.61l-22.8,1L416,275.1l.33-.22-17.74-19.06-3.88-.42L371,243.69l-8.52-7.75-2.42,2.65L365,185.28l-70.93-6.56a5.34,5.34,0,0,0-4.08-7.36V63.85h-1.7V171.36a5.31,5.31,0,0,0-4.37,6.42l-61.29-5.66-6.78,73.36,142.36,13.16,1.12-12.07c4.76,4.42,10.9,9.44,14,10.8l11.56,5,13.31,23.71-.09.06.21.17.13.23.09-.06.43.34L402.75,319l4.53,28.34-8.5,1.13.67,2.38h12.4l-1.2-32,2.11-21.29,15.43,12.06,25.32-5.8,2.45,6.42,2-.85Zm-94.47-60,3.47,3.54c-1.28-.93-2.48-1.83-3.55-2.67Z"/></g><rect class="cls-6" x="184.93" y="178.54" width="142.97" height="73.68" transform="translate(491.92 453.45) rotate(-174.72)"/><polygon class="cls-54" points="328.49 235.94 337.01 243.69 365.09 257.59 352.74 260.73 334.15 247.98 325.51 239.19 328.49 235.94"/><path class="cls-11" d="M364.39,243.41c.3,3.94-2.49,9.63-6.43,9.93s-7.55-4.91-7.84-8.86a7.16,7.16,0,1,1,14.27-1.07Z"/><path class="cls-11" d="M322.48,234.49s-1.22-.61-1.22-.61l-1.15,1.88-5.82-3.26-1.93,2.15,8.21,6.2,1.79-2.25-.93-1.27.38-1.39Z"/><polygon class="cls-55" points="380.24 282.46 376.64 318.86 377.84 350.87 365.44 350.87 364.77 348.48 373.27 347.35 368.74 319.01 364.65 283.77 380.24 282.46"/><path class="cls-56" d="M322.47,237.68c3.6,3.37,16.48,12.66,21.21,14.05l9.92,2.9,10.95,1.18,17.74,19.06-17.81,11.68-13.57-24.17-11.56-5c-4.75-2.06-16.47-12.55-19.69-16.6Z"/><path class="cls-11" d="M351.14,241.44a21.06,21.06,0,0,0-2.3-.18c-.55,0-1.3.2-1.25.75a1,1,0,0,0,.47.64,5,5,0,0,0,2.39,1.27,2.54,2.54,0,0,0,2.1-.74,1.85,1.85,0,0,0,.56-1.88A4.59,4.59,0,0,1,351.14,241.44Z"/><path class="cls-13" d="M358.79,253.18c3.49-1,5.88-6.12,5.6-9.77a7.16,7.16,0,0,0-7.67-6.6c-.24,0-.46.08-.69.12a3.88,3.88,0,0,0-.11,1.71,6.73,6.73,0,0,0,3.68,4.65S359.59,252,358.79,253.18Z"/><path class="cls-11" d="M360.56,244.09a2.78,2.78,0,0,1,1.65.58c1.53,1.14.6,3.55-1,4.13a4.12,4.12,0,0,1-1.61.21,2.21,2.21,0,0,1-1.33-.41,1.68,1.68,0,0,1-.56-1.21,3.33,3.33,0,0,1,.25-1.33A3.15,3.15,0,0,1,360.56,244.09Z"/><polygon class="cls-57" points="420.43 299.61 397.63 300.64 381.74 274.74 364.14 286.16 394.18 309.63 419.49 303.82 421.95 310.24 423.93 309.39 420.43 299.61"/><circle class="cls-13" cx="366.12" cy="239.97" r="4.25"/><rect class="cls-58" x="77.52" y="435.32" width="42.37" height="30.37" transform="translate(197.42 901) rotate(180)"/><path class="cls-1" d="M83.6,439.45h29.47a1.7,1.7,0,0,0,1.25-2.86L86,406l-2.5,2.31,25.69,27.75H83.6Z"/><path class="cls-1" d="M82.08,88.22h33.27v365H82.08Zm29.87,3.4H85.48V449.81h26.47Z"/><path class="cls-1" d="M83.6,313.78h29.47a1.7,1.7,0,0,0,1.25-2.86L86,280.33l-2.5,2.31,25.69,27.75H83.6Z"/><path class="cls-1" d="M83.6,345.2h29.47a1.7,1.7,0,0,0,1.25-2.86L86,311.74l-2.5,2.31,25.69,27.75H83.6Z"/><path class="cls-1" d="M83.6,376.62h29.47a1.7,1.7,0,0,0,1.25-2.86L86,343.16l-2.5,2.31,25.69,27.75H83.6Z"/><path class="cls-1" d="M83.6,408h29.47a1.7,1.7,0,0,0,1.25-2.86L86,374.58l-2.5,2.31,25.69,27.75H83.6Z"/><path class="cls-1" d="M83.6,283.12h29.47a1.7,1.7,0,0,0,1.25-2.86L86,249.66,83.48,252l25.69,27.75H83.6Z"/><path class="cls-1" d="M83.6,252.46h29.47a1.7,1.7,0,0,0,1.25-2.86L86,219l-2.5,2.31,25.69,27.75H83.6Z"/><path class="cls-1" d="M83.6,221.8h29.47a1.7,1.7,0,0,0,1.25-2.86L86,188.34l-2.5,2.31,25.69,27.75H83.6Z"/><path class="cls-1" d="M83.6,191.14h29.47a1.7,1.7,0,0,0,1.25-2.86L86,157.68,83.48,160l25.69,27.75H83.6Z"/><path class="cls-1" d="M83.6,160.47h29.47a1.7,1.7,0,0,0,1.25-2.86L86,127l-2.5,2.31,25.69,27.75H83.6Z"/><path class="cls-1" d="M83.6,129.81h29.47a1.7,1.7,0,0,0,1.25-2.86L86,96.35l-2.5,2.31,25.69,27.75H83.6Z"/><path class="cls-1" d="M83.6,99.15h29.47a1.7,1.7,0,0,0,1.25-2.86L86,65.69,83.48,68l25.69,27.75H83.6Z"/><rect class="cls-59" x="82.13" y="54.29" width="53.93" height="45.47" transform="translate(218.2 154.05) rotate(180)"/><rect class="cls-60" x="1.09" y="54.29" width="53.93" height="26.11" transform="translate(56.11 134.7) rotate(180)"/><rect class="cls-61" x="63.07" y="460.25" width="71.28" height="13.36" transform="translate(197.42 933.87) rotate(180)"/><circle class="cls-62" cx="92.38" cy="3.43" r="3.43"/><rect class="cls-1" x="254.28" y="63.85" width="1.7" height="110.52"/><circle class="cls-1" cx="255.13" cy="176.63" r="5.35"/><polygon class="cls-63" points="691.5 312.49 690.14 293.64 692.25 279.77 699.41 238.88 695.95 238.39 688.04 274.45 675.69 275.44 662.85 238.88 659.39 239.38 668.78 278.4 672.07 293.32 671.68 311.5 691.5 312.49"/><path class="cls-11" d="M674.23,265c0,3.53,2.87,8.42,6.4,8.42s6.4-4.89,6.4-8.42a6.4,6.4,0,1,0-12.8,0Z"/><ellipse class="cls-64" cx="676.99" cy="367.26" rx="36.47" ry="5.04"/><path class="cls-11" d="M683.33,265.92a1.69,1.69,0,0,1,1.49-.68,1,1,0,0,1,.38.12,1.26,1.26,0,0,1,.55.89,2.58,2.58,0,0,1-1.22,2.53,1.89,1.89,0,0,1-.78.3,1.06,1.06,0,0,1-.8-.21C682.15,268.2,682.81,266.56,683.33,265.92Z"/><path class="cls-13" d="M683.32,265.56a.6.6,0,0,0,.46.08c.15-.06.23-.22.33-.35a1.16,1.16,0,0,1,1.67-.06A1.5,1.5,0,0,1,686,267a2.12,2.12,0,0,1-1.54,1,14,14,0,0,0-.5,4.52l3.05.23a.83.83,0,0,0,.57-.1.81.81,0,0,0,.24-.49,24.79,24.79,0,0,0,.57-5.32,9.73,9.73,0,0,0-1.11-5c-1.08-1.79-5.49-4.72-7.64-3.08C677.23,260.52,681.68,264.77,683.32,265.56Z"/><path class="cls-13" d="M677.92,263a7.28,7.28,0,0,1-4.06,3.16,6.61,6.61,0,0,1,1.12-5.57c.67-.88,3.08-3,4.37-2.52S678.58,262,677.92,263Z"/><polygon class="cls-65" points="690.78 299.12 671.89 298.24 657.35 363.34 650.61 359.23 658.82 369.2 678.17 315.54 677.88 339.88 691 357.27 691.84 363.54 692.18 366.21 694.52 365.93 694.95 356.37 684.79 339.85 691.96 312.51 690.78 299.12"/><polygon class="cls-11" points="691.97 256.52 696.07 257.95 699.41 238.88 695.95 238.39 691.97 256.52"/><polygon class="cls-11" points="668.15 253.98 663.36 255.87 659.39 239.38 662.85 238.88 668.15 253.98"/><polygon class="cls-11" points="684.18 274.76 680.63 281.06 678.85 275.19 684.18 274.76"/><circle class="cls-11" cx="660.81" cy="236.91" r="2.96"/><circle class="cls-11" cx="698.02" cy="237.46" r="2.96"/><polygon class="cls-66" points="24.19 555.31 231.88 565.45 299.59 536.48 272.4 535.67 24.19 555.31"/><polygon class="cls-67" points="59.55 606.2 267.24 616.33 334.95 587.36 307.76 586.55 59.55 606.2"/><ellipse class="cls-68" cx="248.52" cy="505.55" rx="36.47" ry="5.04"/><ellipse class="cls-69" cx="360.49" cy="587.16" rx="36.47" ry="5.04"/><polygon class="cls-70" points="24.26 550.21 24.19 555.31 228.2 558.03 272.4 535.67 272.47 530.57 24.26 550.21"/><polygon class="cls-71" points="228.2 558.03 24.19 555.31 68.39 532.95 272.4 535.67 228.2 558.03"/><polygon class="cls-5" points="228.27 552.93 24.26 550.21 68.45 527.85 272.47 530.57 228.27 552.93"/><polygon class="cls-6" points="180.88 533.28 68.78 531.79 72.13 530.1 184.23 531.59 180.88 533.28"/><polygon class="cls-6" points="172.53 537.5 60.43 536.01 63.77 534.32 175.87 535.81 172.53 537.5"/><polygon class="cls-6" points="164.51 541.56 52.41 540.07 55.75 538.38 167.85 539.87 164.51 541.56"/><polygon class="cls-6" points="156.82 545.45 44.72 543.96 48.07 542.27 160.16 543.76 156.82 545.45"/><polygon class="cls-6" points="228.12 549.7 155.62 548.73 189.37 531.65 261.87 532.62 228.12 549.7"/><polygon class="cls-72" points="58.94 600.04 58.87 605.14 262.88 607.85 307.08 585.49 307.14 580.39 58.94 600.04"/><polygon class="cls-73" points="262.88 607.85 58.87 605.14 103.06 582.78 307.08 585.49 262.88 607.85"/><polygon class="cls-5" points="262.95 602.75 58.94 600.04 103.13 577.68 307.14 580.39 262.95 602.75"/><polygon class="cls-6" points="215.56 583.1 103.46 581.61 106.81 579.92 218.91 581.41 215.56 583.1"/><polygon class="cls-6" points="207.21 587.33 95.11 585.84 98.45 584.15 210.55 585.64 207.21 587.33"/><polygon class="cls-6" points="199.19 591.39 87.09 589.9 90.43 588.21 202.53 589.7 199.19 591.39"/><polygon class="cls-6" points="191.5 595.28 79.4 593.79 82.74 592.1 194.84 593.59 191.5 595.28"/><polygon class="cls-6" points="262.8 599.52 190.29 598.56 224.05 581.48 296.55 582.45 262.8 599.52"/><rect class="cls-6" x="379.44" y="141.63" width="127.52" height="13.6"/><rect class="cls-6" x="379.44" y="167.14" width="127.52" height="57.15"/><polygon class="cls-74" points="350.88 525 356.75 534.18 362.46 551.78 379.74 579.55 377.1 580.27 356.51 557.25 346.46 537.82 350.88 525"/><polygon class="cls-75" points="315.31 537.4 293.34 574.04 296.19 575.06 322.73 541.17 315.31 537.4"/><path class="cls-11" d="M306.22,529.37c3.9.64,8.77,4.69,8.13,8.59s-6.55,6.18-10.45,5.54a7.16,7.16,0,1,1,2.32-14.13Z"/><path class="cls-11" d="M301.19,541.79a21,21,0,0,0-.71,2.2c-.14.53-.11,1.31.43,1.39a1,1,0,0,0,.74-.3,5,5,0,0,0,1.8-2,2.54,2.54,0,0,0-.23-2.22,1.85,1.85,0,0,0-1.7-1A4.59,4.59,0,0,1,301.19,541.79Z"/><path class="cls-13" d="M314.4,537.12c-.11-3.62-4.56-7.15-8.18-7.75a7.16,7.16,0,0,0-8.22,5.9c0,.24,0,.47,0,.7a3.88,3.88,0,0,0,1.63.51A6.73,6.73,0,0,0,305,534S313.47,536.07,314.4,537.12Z"/><path class="cls-11" d="M306,533.25a2.78,2.78,0,0,1,1-1.47c1.47-1.22,3.59.26,3.79,1.93a4.12,4.12,0,0,1-.17,1.61,2.21,2.21,0,0,1-.71,1.19,1.68,1.68,0,0,1-1.3.26,3.33,3.33,0,0,1-1.24-.56A3.15,3.15,0,0,1,306,533.25Z"/><path class="cls-76" d="M313.63,556.14l-13.69,23.78,3.12.24,17.54-17.78,2.4-22.82s0-7-3.12-6.49-4.56,4.32-4.56,4.32Z"/><path class="cls-77" d="M314,533.3c14.14-7,30.25-9.18,30.25-9.18L352,539.19l-34.73,5.66Z"/><path class="cls-78" d="M344.26,524.12l2.16-.07a10.29,10.29,0,0,1,10.64,10.3l-11.48,20.77L347.67,585h-3.12l-6.81-28.19Z"/><ellipse class="cls-11" cx="293.85" cy="576.77" rx="3.5" ry="3.67"/><ellipse class="cls-11" cx="301.81" cy="580.45" rx="3.5" ry="3.67"/><path class="cls-79" d="M347.67,585l.57,3-15,.33s.83-2.17,1.33-2,10-1.3,10-1.3Z"/><polygon class="cls-80" points="379.74 579.55 381.22 582.87 367.67 583.2 368.01 581.53 377.1 580.27 379.74 579.55"/><circle class="cls-81" cx="255.13" cy="63.85" r="6.23"/><path class="cls-82" d="M198.73,111.28a6,6,0,1,0-6-6A6,6,0,0,0,198.73,111.28Z"/><path class="cls-83" d="M176.72,111.28a6,6,0,1,0-6-6A6,6,0,0,0,176.72,111.28Z"/><path class="cls-84" d="M220.74,111.28a6,6,0,1,0-6-6A6,6,0,0,0,220.74,111.28Z"/></g></g></svg>