<svg id="phone" xmlns="http://www.w3.org/2000/svg" xmlns:xlink="http://www.w3.org/1999/xlink" viewBox="0 0 446.56 768.18"><defs><style>.cls-1{isolation:isolate;}.cls-2{fill:url(#GradientFill_24);}.cls-3{fill:url(#GradientFill_24-2);}.cls-4{fill:url(#GradientFill_24-3);}.cls-5{fill:url(#GradientFill_24-4);}.cls-6{fill:url(#GradientFill_24-5);}.cls-7{fill:url(#GradientFill_24-6);}.cls-8{fill:url(#GradientFill_24-7);}.cls-9{fill:url(#GradientFill_24-8);}.cls-10{fill:url(#GradientFill_24-9);}.cls-11{fill:url(#GradientFill_24-10);}.cls-12{fill:#a18ad9;}.cls-13{fill:#868686;}.cls-14{fill:#575756;}.cls-15{fill:url(#linear-gradient);}.cls-16,.cls-32{opacity:0.5;}.cls-17{fill:url(#linear-gradient-2);}.cls-18{fill:url(#linear-gradient-3);}.cls-19{fill:url(#linear-gradient-4);}.cls-20{fill:url(#linear-gradient-5);}.cls-21{fill:url(#GradientFill_24-11);}.cls-22{fill:url(#GradientFill_24-12);}.cls-23{fill:url(#GradientFill_24-13);}.cls-24{fill:url(#GradientFill_24-14);}.cls-25{fill:url(#GradientFill_24-15);}.cls-26{fill:url(#GradientFill_24-16);}.cls-27{fill:url(#GradientFill_24-17);}.cls-28{fill:url(#GradientFill_24-18);}.cls-29{fill:url(#GradientFill_24-19);}.cls-30{fill:url(#GradientFill_24-20);}.cls-31{fill:#fef4f3;}.cls-32{fill:url(#linear-gradient-6);}.cls-33{fill:#fff;}.cls-34{fill:#cc8a68;}.cls-35{fill:#e3b8a0;}.cls-36{fill:url(#GradientFill_9);}.cls-37{fill:url(#GradientFill_2);}.cls-38{fill:url(#GradientFill_4);}.cls-39{fill:#1a1a1a;}.cls-40{fill:#42210b;}.cls-41{fill:#333;}.cls-42{fill:url(#GradientFill_9-2);}.cls-43{fill:url(#GradientFill_9-3);}.cls-44{fill:url(#GradientFill_2-2);}.cls-45{fill:url(#GradientFill_4-2);}.cls-46,.cls-51{fill:none;}.cls-47{fill:url(#GradientFill_4-3);}.cls-48{fill:url(#GradientFill_9-4);}.cls-49{fill:url(#GradientFill_9-5);}.cls-50{fill:url(#GradientFill_3);}.cls-51{stroke:#fff;stroke-miterlimit:10;stroke-width:0.29px;}.cls-52{fill:url(#GradientFill_7);}.cls-53{fill:url(#GradientFill_3-2);}.cls-54{fill:url(#GradientFill_9-6);}.cls-55{fill:url(#GradientFill_2-3);}.cls-56{fill:url(#GradientFill_2-4);}.cls-57{fill:url(#GradientFill_2-5);}.cls-58{fill:url(#GradientFill_7-2);}.cls-59{fill:url(#GradientFill_9-7);}.cls-60{fill:url(#GradientFill_7-3);}.cls-61,.cls-68{fill-rule:evenodd;}.cls-62{fill:url(#GradientFill_7-4);}.cls-63{fill:url(#GradientFill_3-3);}.cls-64{fill:url(#GradientFill_9-8);}.cls-65{fill:url(#GradientFill_2-6);}.cls-66{fill:url(#GradientFill_2-7);}.cls-67{fill:url(#GradientFill_9-9);}.cls-68{fill:url(#GradientFill_2-8);}.cls-69{fill:url(#GradientFill_9-10);}.cls-70{fill:url(#GradientFill_3-4);}.cls-71{fill:url(#GradientFill_3-5);}.cls-72{fill:url(#GradientFill_3-6);}</style><linearGradient id="GradientFill_24" x1="0.02" y1="93.46" x2="446.52" y2="93.46" gradientUnits="userSpaceOnUse"><stop offset="0" stop-color="#895ea7"/><stop offset="0.52" stop-color="#8c5fa7"/><stop offset="0.84" stop-color="#9461a8"/><stop offset="1" stop-color="#9c64a9"/></linearGradient><linearGradient id="GradientFill_24-2" x1="352.71" y1="41.72" x2="377.15" y2="41.72" xlink:href="#GradientFill_24"/><linearGradient id="GradientFill_24-3" x1="63.23" y1="148.19" x2="91.82" y2="148.19" xlink:href="#GradientFill_24"/><linearGradient id="GradientFill_24-4" x1="30.62" y1="94.99" x2="407.54" y2="94.99" xlink:href="#GradientFill_24"/><linearGradient id="GradientFill_24-5" x1="0.02" y1="118.83" x2="446.52" y2="118.83" xlink:href="#GradientFill_24"/><linearGradient id="GradientFill_24-6" x1="352.71" y1="67.08" x2="377.15" y2="67.08" xlink:href="#GradientFill_24"/><linearGradient id="GradientFill_24-7" x1="63.23" y1="173.56" x2="91.82" y2="173.56" xlink:href="#GradientFill_24"/><linearGradient id="GradientFill_24-8" x1="30.62" y1="120.35" x2="407.54" y2="120.35" xlink:href="#GradientFill_24"/><linearGradient id="GradientFill_24-9" x1="453.88" y1="111.21" x2="425.88" y2="74.96" xlink:href="#GradientFill_24"/><linearGradient id="GradientFill_24-10" x1="0" y1="129.16" x2="28.41" y2="129.16" xlink:href="#GradientFill_24"/><linearGradient id="linear-gradient" x1="30.62" y1="120.35" x2="407.54" y2="120.35" gradientUnits="userSpaceOnUse"><stop offset="0" stop-color="#ff95ac"/><stop offset="1" stop-color="#fff"/></linearGradient><linearGradient id="linear-gradient-2" x1="0.04" y1="674.72" x2="446.54" y2="674.72" gradientUnits="userSpaceOnUse"><stop offset="0.18" stop-color="#a658a3"/><stop offset="1" stop-color="#654a83" stop-opacity="0"/></linearGradient><linearGradient id="linear-gradient-3" x1="69.41" y1="726.47" x2="93.85" y2="726.47" xlink:href="#linear-gradient-2"/><linearGradient id="linear-gradient-4" x1="354.74" y1="619.99" x2="383.33" y2="619.99" xlink:href="#linear-gradient-2"/><linearGradient id="linear-gradient-5" x1="39.02" y1="673.19" x2="415.93" y2="673.19" xlink:href="#linear-gradient-2"/><linearGradient id="GradientFill_24-11" x1="0.04" y1="617.52" x2="446.54" y2="617.52" xlink:href="#GradientFill_24"/><linearGradient id="GradientFill_24-12" x1="69.41" y1="669.27" x2="93.85" y2="669.27" xlink:href="#GradientFill_24"/><linearGradient id="GradientFill_24-13" x1="354.74" y1="562.79" x2="383.33" y2="562.79" xlink:href="#GradientFill_24"/><linearGradient id="GradientFill_24-14" x1="39.02" y1="615.99" x2="415.93" y2="615.99" xlink:href="#GradientFill_24"/><linearGradient id="GradientFill_24-15" x1="0.04" y1="592.16" x2="446.54" y2="592.16" xlink:href="#GradientFill_24"/><linearGradient id="GradientFill_24-16" x1="69.41" y1="643.9" x2="93.85" y2="643.9" xlink:href="#GradientFill_24"/><linearGradient id="GradientFill_24-17" x1="354.74" y1="537.43" x2="383.33" y2="537.43" xlink:href="#GradientFill_24"/><linearGradient id="GradientFill_24-18" x1="39.02" y1="590.63" x2="415.93" y2="590.63" xlink:href="#GradientFill_24"/><linearGradient id="GradientFill_24-19" x1="0.07" y1="627.75" x2="28.48" y2="627.75" xlink:href="#GradientFill_24"/><linearGradient id="GradientFill_24-20" x1="418.15" y1="581.82" x2="446.56" y2="581.82" xlink:href="#GradientFill_24"/><linearGradient id="linear-gradient-6" x1="223.28" y1="542.16" x2="223.28" y2="83.48" xlink:href="#linear-gradient-2"/><linearGradient id="GradientFill_9" x1="146.35" y1="461.92" x2="223.44" y2="461.92" gradientUnits="userSpaceOnUse"><stop offset="0" stop-color="#ed86a0"/><stop offset="1" stop-color="#facddb"/></linearGradient><linearGradient id="GradientFill_2" x1="101.51" y1="353.51" x2="231.88" y2="353.51" gradientUnits="userSpaceOnUse"><stop offset="0" stop-color="#763d89"/><stop offset="0.34" stop-color="#7e418e"/><stop offset="0.88" stop-color="#944d9b"/><stop offset="1" stop-color="#9a509f"/></linearGradient><linearGradient id="GradientFill_4" x1="153.31" y1="317.77" x2="194.69" y2="317.77" gradientUnits="userSpaceOnUse"><stop offset="0" stop-color="#a658a3"/><stop offset="1" stop-color="#703885"/></linearGradient><linearGradient id="GradientFill_9-2" x1="263.15" y1="291.24" x2="327.95" y2="291.24" xlink:href="#GradientFill_9"/><linearGradient id="GradientFill_9-3" x1="306.28" y1="308.26" x2="327.95" y2="308.26" xlink:href="#GradientFill_9"/><linearGradient id="GradientFill_2-2" x1="269.92" y1="201.82" x2="321.8" y2="201.82" xlink:href="#GradientFill_2"/><linearGradient id="GradientFill_4-2" x1="272.25" y1="209.47" x2="291.98" y2="209.47" xlink:href="#GradientFill_4"/><linearGradient id="GradientFill_4-3" x1="249.37" y1="207.25" x2="279.5" y2="207.25" xlink:href="#GradientFill_4"/><linearGradient id="GradientFill_9-4" x1="273.88" y1="314.83" x2="321.8" y2="314.83" xlink:href="#GradientFill_9"/><linearGradient id="GradientFill_9-5" x1="279.29" y1="362.09" x2="303.63" y2="362.09" xlink:href="#GradientFill_9"/><linearGradient id="GradientFill_3" x1="253.73" y1="216.19" x2="287.13" y2="216.19" gradientUnits="userSpaceOnUse"><stop offset="0" stop-color="#914f9f"/><stop offset="1" stop-color="#763884"/></linearGradient><linearGradient id="GradientFill_7" x1="378.14" y1="303.53" x2="403.66" y2="303.53" gradientUnits="userSpaceOnUse"><stop offset="0" stop-color="#f9c1cf"/><stop offset="1" stop-color="#f497b3"/></linearGradient><linearGradient id="GradientFill_3-2" x1="387.39" y1="303.91" x2="394.41" y2="303.91" xlink:href="#GradientFill_3"/><linearGradient id="GradientFill_9-6" x1="65.35" y1="331.86" x2="90.87" y2="331.86" gradientTransform="translate(359.99 140.08) rotate(69.01)" xlink:href="#GradientFill_9"/><linearGradient id="GradientFill_2-3" x1="70.54" y1="333.67" x2="78.41" y2="333.67" xlink:href="#GradientFill_2"/><linearGradient id="GradientFill_2-4" x1="80.37" y1="325.37" x2="84.25" y2="325.37" xlink:href="#GradientFill_2"/><linearGradient id="GradientFill_2-5" x1="78.78" y1="331.75" x2="85.69" y2="331.75" xlink:href="#GradientFill_2"/><linearGradient id="GradientFill_7-2" x1="224.55" y1="327.98" x2="250.06" y2="327.98" gradientTransform="translate(148.11 -66.9) rotate(23.16)" xlink:href="#GradientFill_7"/><linearGradient id="GradientFill_9-7" x1="90.5" y1="541.58" x2="116.01" y2="541.58" xlink:href="#GradientFill_9"/><linearGradient id="GradientFill_7-3" x1="321.28" y1="514.88" x2="346.79" y2="514.88" xlink:href="#GradientFill_7"/><linearGradient id="GradientFill_7-4" x1="271.27" y1="468.21" x2="296.78" y2="468.21" xlink:href="#GradientFill_7"/><linearGradient id="GradientFill_3-3" x1="276.15" y1="467.74" x2="291.9" y2="467.74" xlink:href="#GradientFill_3"/><linearGradient id="GradientFill_9-8" x1="168.94" y1="181.69" x2="194.45" y2="181.69" xlink:href="#GradientFill_9"/><linearGradient id="GradientFill_2-6" x1="173.59" y1="182.87" x2="183.7" y2="182.87" xlink:href="#GradientFill_2"/><linearGradient id="GradientFill_2-7" x1="185.38" y1="179.34" x2="189.8" y2="179.34" xlink:href="#GradientFill_2"/><linearGradient id="GradientFill_9-9" x1="96.55" y1="420.5" x2="122.06" y2="420.5" xlink:href="#GradientFill_9"/><linearGradient id="GradientFill_2-8" x1="102.22" y1="420.32" x2="116.4" y2="420.32" xlink:href="#GradientFill_2"/><linearGradient id="GradientFill_9-10" x1="112.01" y1="242.36" x2="137.53" y2="242.36" xlink:href="#GradientFill_9"/><linearGradient id="GradientFill_3-4" x1="116.97" y1="242.37" x2="132.57" y2="242.37" xlink:href="#GradientFill_3"/><linearGradient id="GradientFill_3-5" x1="120.76" y1="242.38" x2="128.77" y2="242.38" xlink:href="#GradientFill_3"/><linearGradient id="GradientFill_3-6" x1="127.99" y1="239.09" x2="129.87" y2="239.09" xlink:href="#GradientFill_3"/></defs><title>Asset 1</title><g id="Layer_2" data-name="Layer 2"><g id="Layer_1-2" data-name="Layer 1"><g class="cls-1"><path class="cls-2" d="M374.39,38.26c4.28,2.33,3.48,5.77-1.75,7.68s-12.89,1.56-17.17-.77-3.51-5.77,1.7-7.67,13-1.57,17.22.76m33.15,44.27L154.38,175,30.62,107.45,283.78,15,407.54,82.53M90.74,152c1.67.92,1.37,2.28-.66,3a9.44,9.44,0,0,1-6.77-.3l-19-10.37c-1.68-.92-1.37-2.28.68-3a9.45,9.45,0,0,1,6.75.31l19,10.37M8,126.58l99.88,54.52c12.44,6.79,35,7.79,50.19,2.24L433.46,82.76c15.19-5.55,17.48-15.63,5-22.42L338.62,5.82C326.2-1,303.61-2,288.42,3.58L13.07,104.17c-15.19,5.55-17.45,15.63-5,22.41"/><path class="cls-3" d="M355.47,45.17c4.28,2.33,12,2.68,17.17.77s6-5.35,1.75-7.68-12-2.67-17.22-.76-6,5.34-1.7,7.67"/><path class="cls-4" d="M64.31,144.37l19,10.37a9.44,9.44,0,0,0,6.77.3c2-.74,2.33-2.1.66-3l-19-10.37a9.45,9.45,0,0,0-6.75-.31c-2,.75-2.36,2.11-.68,3"/><polyline class="cls-5" points="30.62 107.45 154.38 175.01 407.54 82.53 283.78 14.97 30.62 107.45"/></g><g class="cls-1"><path class="cls-6" d="M374.39,63.62c4.28,2.34,3.48,5.78-1.75,7.69s-12.89,1.56-17.17-.78-3.51-5.77,1.7-7.67,13-1.56,17.22.76m33.15,44.27L154.38,200.37,30.62,132.81,283.78,40.34l123.76,67.55M90.74,177.38c1.67.92,1.37,2.28-.66,3a9.44,9.44,0,0,1-6.77-.3l-19-10.37c-1.68-.92-1.37-2.28.68-3a9.45,9.45,0,0,1,6.75.31l19,10.37M8,151.94l99.88,54.52c12.44,6.79,35,7.79,50.19,2.24L433.46,108.12c15.19-5.55,17.48-15.62,5-22.41L338.62,31.19c-12.42-6.79-35-7.79-50.2-2.24L13.07,129.53c-15.19,5.55-17.45,15.63-5,22.41"/><path class="cls-7" d="M355.47,70.53c4.28,2.34,12,2.68,17.17.78s6-5.35,1.75-7.69-12-2.67-17.22-.76-6,5.35-1.7,7.67"/><path class="cls-8" d="M64.31,169.73l19,10.37a9.44,9.44,0,0,0,6.77.3c2-.74,2.33-2.1.66-3L71.74,167A9.45,9.45,0,0,0,65,166.7c-2,.75-2.36,2.11-.68,3"/><polyline class="cls-9" points="30.62 132.81 154.38 200.37 407.54 107.89 283.78 40.34 30.62 132.81"/></g><rect class="cls-10" x="418.07" y="70.07" width="28.41" height="26.33"/><rect class="cls-11" y="116" width="28.41" height="26.33"/><path class="cls-12" d="M374.39,63.62c4.28,2.34,3.48,5.78-1.75,7.69s-12.89,1.56-17.17-.78-3.51-5.77,1.7-7.67,13-1.56,17.22.76m33.15,44.27L154.38,200.37,30.62,132.81,283.78,40.34l123.76,67.55M90.74,177.38c1.67.92,1.37,2.28-.66,3a9.44,9.44,0,0,1-6.77-.3l-19-10.37c-1.68-.92-1.37-2.28.68-3a9.45,9.45,0,0,1,6.75.31l19,10.37M8,151.94l99.88,54.52c12.44,6.79,35,7.79,50.19,2.24L433.46,108.12c15.19-5.55,17.48-15.62,5-22.41L338.62,31.19c-12.42-6.79-35-7.79-50.2-2.24L13.07,129.53c-15.19,5.55-17.45,15.63-5,22.41"/><path class="cls-13" d="M355.47,70.53c4.28,2.34,12,2.68,17.17.78s6-5.35,1.75-7.69-12-2.67-17.22-.76-6,5.35-1.7,7.67"/><path class="cls-14" d="M64.31,169.73l19,10.37a9.44,9.44,0,0,0,6.77.3c2-.74,2.33-2.1.66-3L71.74,167A9.45,9.45,0,0,0,65,166.7c-2,.75-2.36,2.11-.68,3"/><polyline class="cls-15" points="30.62 132.81 283.78 40.34 407.54 107.89 154.38 200.37 30.62 132.81"/><g class="cls-16"><g class="cls-1"><path class="cls-17" d="M72.17,729.93c-4.28-2.34-3.49-5.78,1.74-7.69s12.9-1.56,17.18.77,3.5,5.77-1.71,7.67-12.95,1.57-17.21-.75M39,685.65l253.16-92.47,123.75,67.55L162.77,753.21,39,685.65m316.8-69.49c-1.68-.91-1.37-2.28.66-3a9.44,9.44,0,0,1,6.77.31l19,10.37c1.68.91,1.37,2.27-.68,3a9.39,9.39,0,0,1-6.75-.31l-19-10.37m82.7,25.44-99.88-54.52c-12.44-6.79-35-7.78-50.19-2.24L13.1,685.43c-15.19,5.55-17.48,15.62-5,22.41l99.88,54.52c12.42,6.78,35,7.79,50.19,2.24L433.48,664c15.2-5.55,17.46-15.63,5-22.42"/><path class="cls-18" d="M91.09,723c-4.28-2.33-12-2.67-17.18-.77s-6,5.35-1.74,7.69,12,2.67,17.21.75,6-5.34,1.71-7.67"/><path class="cls-19" d="M382.25,623.82l-19-10.37a9.44,9.44,0,0,0-6.77-.31c-2,.74-2.34,2.11-.66,3l19,10.37a9.39,9.39,0,0,0,6.75.31c2.05-.75,2.36-2.11.68-3"/><polyline class="cls-20" points="415.93 660.73 292.18 593.18 39.02 685.65 162.77 753.21 415.93 660.73"/></g></g><g class="cls-1"><path class="cls-21" d="M72.17,672.73c-4.28-2.34-3.49-5.78,1.74-7.69s12.9-1.56,17.18.78,3.5,5.76-1.71,7.66-12.95,1.57-17.21-.75M39,628.45,292.18,536l123.75,67.55L162.77,696,39,628.45M355.82,559c-1.68-.91-1.37-2.27.66-3a9.44,9.44,0,0,1,6.77.31l19,10.37c1.68.91,1.37,2.27-.68,3a9.39,9.39,0,0,1-6.75-.31l-19-10.37m82.7,25.44-99.88-54.52c-12.44-6.79-35-7.78-50.19-2.23L13.1,628.23c-15.19,5.55-17.48,15.62-5,22.41l99.88,54.52c12.42,6.78,35,7.79,50.19,2.24L433.48,606.82c15.2-5.55,17.46-15.63,5-22.42"/><path class="cls-22" d="M91.09,665.82c-4.28-2.34-12-2.68-17.18-.78s-6,5.35-1.74,7.69,12,2.67,17.21.75,6-5.34,1.71-7.66"/><path class="cls-23" d="M382.25,566.62l-19-10.37a9.44,9.44,0,0,0-6.77-.31c-2,.75-2.34,2.11-.66,3l19,10.37a9.39,9.39,0,0,0,6.75.31c2.05-.75,2.36-2.11.68-3"/><polyline class="cls-24" points="415.93 603.53 292.18 535.98 39.02 628.45 162.77 696.01 415.93 603.53"/></g><g class="cls-1"><path class="cls-25" d="M72.17,647.36c-4.28-2.33-3.49-5.77,1.74-7.68s12.9-1.56,17.18.77,3.5,5.77-1.71,7.67-12.95,1.57-17.21-.76M39,603.09l253.16-92.47,123.75,67.55L162.77,670.65,39,603.09m316.8-69.49c-1.68-.91-1.37-2.28.66-3a9.44,9.44,0,0,1,6.77.3l19,10.38c1.68.91,1.37,2.27-.68,3a9.45,9.45,0,0,1-6.75-.31l-19-10.37M438.52,559l-99.88-54.52c-12.44-6.79-35-7.79-50.19-2.24L13.1,602.86c-15.19,5.55-17.48,15.63-5,22.42l99.88,54.52c12.42,6.78,35,7.79,50.19,2.24L433.48,581.46c15.2-5.55,17.46-15.64,5-22.42"/><path class="cls-26" d="M91.09,640.45c-4.28-2.33-12-2.67-17.18-.77s-6,5.35-1.74,7.68,12,2.67,17.21.76,6-5.34,1.71-7.67"/><path class="cls-27" d="M382.25,541.26l-19-10.38a9.44,9.44,0,0,0-6.77-.3c-2,.74-2.34,2.11-.66,3l19,10.37a9.45,9.45,0,0,0,6.75.31c2.05-.75,2.36-2.11.68-3"/><polyline class="cls-28" points="415.93 578.17 292.18 510.62 39.02 603.09 162.77 670.65 415.93 578.17"/></g><rect class="cls-29" x="0.07" y="614.58" width="28.41" height="26.33"/><rect class="cls-30" x="418.15" y="568.66" width="28.41" height="26.33"/><path class="cls-12" d="M72.17,647.36c-4.28-2.33-3.49-5.77,1.74-7.68s12.9-1.56,17.18.77,3.5,5.77-1.71,7.67-12.95,1.57-17.21-.76M39,603.09l253.16-92.47,123.75,67.55L162.77,670.65,39,603.09m316.8-69.49c-1.68-.91-1.37-2.28.66-3a9.44,9.44,0,0,1,6.77.3l19,10.38c1.68.91,1.37,2.27-.68,3a9.45,9.45,0,0,1-6.75-.31l-19-10.37M438.52,559l-99.88-54.52c-12.44-6.79-35-7.79-50.19-2.24L13.1,602.86c-15.19,5.55-17.48,15.63-5,22.42l99.88,54.52c12.42,6.78,35,7.79,50.19,2.24L433.48,581.46c15.2-5.55,17.46-15.64,5-22.42"/><path class="cls-13" d="M91.09,640.45c-4.28-2.33-12-2.67-17.18-.77s-6,5.35-1.74,7.68,12,2.67,17.21.76,6-5.34,1.71-7.67"/><path class="cls-14" d="M382.25,541.26l-19-10.38a9.44,9.44,0,0,0-6.77-.3c-2,.74-2.34,2.11-.66,3l19,10.37a9.45,9.45,0,0,0,6.75.31c2.05-.75,2.36-2.11.68-3"/><polyline class="cls-31" points="415.93 578.17 292.18 510.62 39.02 603.09 162.77 670.65 415.93 578.17"/><polygon class="cls-32" points="30.62 132.81 39.02 603.09 162.77 670.65 415.93 578.17 407.54 107.89 283.78 40.34 30.62 132.81"/><path class="cls-35" d="M229.09,381.55c2.56-1.9,8.71.1,11.67,1a7.87,7.87,0,0,1-3.88,1c.7.46,9.08,5,9.12,5-2.24,1.27-4.83-.77-7.22-.85a17.31,17.31,0,0,1,5.3,5c-2.34-1.15-5.17-3.27-7.59-4.09,1.2,2.27,3.48,4.06,4.65,6.42-2.2-1.15-4-3.48-6-4.75a45.14,45.14,0,0,1,2.37,5.4c-.37-1-4.71-4-5.8-5.24C229.45,387.94,225.39,384.31,229.09,381.55Z"/><path class="cls-35" d="M104.92,382c-2.68-1.73-8.68.69-11.57,1.81a7.86,7.86,0,0,0,3.94.75c-.67.51-8.72,5.61-8.76,5.59,2.33,1.11,4.77-1.1,7.15-1.35a17.4,17.4,0,0,0-5,5.38c2.26-1.31,4.94-3.62,7.3-4.61-1,2.35-3.2,4.3-4.2,6.73,2.12-1.3,3.71-3.75,5.63-5.15a47.84,47.84,0,0,0-2,5.55c.31-1,4.42-4.34,5.43-5.62C105,388.42,108.8,384.52,104.92,382Z"/><path class="cls-36" d="M191.49,396.06h0c5.72,18.71,21.18,40.82,26.22,55,5.89,16.6-2.57,57.42-2.57,57.42s9.48,6.57,8.17,9.33-21.28-8-21.28-8,7.89-36.91.2-53.38-22.66-36-22.66-36c14.41,37.76-1.14,94.39-1.14,94.39s8.75,12.47,6,13-16.78-11-16.78-11,.94-24.68.13-45.07-6.51-35.94-17.53-61a62.86,62.86,0,0,1-3.86-12.27C165.85,409.68,191.49,396.06,191.49,396.06Z"/><path class="cls-37" d="M106.67,387.23l-5.16-6.63c27.38-17.94,45.68-67.34,45.68-67.34,35.26-22.24,50.75,3.17,50.75,3.17,4.19,33.12,33.94,63.62,33.94,63.62l-4.07,5.42c-26.88-21.08-36.6-48.87-36.6-48.87s-3.89,30.26-1.68,50.4a49.89,49.89,0,0,0,2,9.06h0s-25.64,13.62-45.14,2.37c-5-23.49.41-50.54.41-50.54C136,366.06,106.67,387.23,106.67,387.23Z"/><path class="cls-38" d="M174.17,331.28c-11.69-.77-16.09-12-20.86-21.52,22.34-11.4,35.69-2.86,41.38,2.77-.55.28-1.1.58-1.64.87C186.38,318.87,184.65,332.79,174.17,331.28Z"/><path class="cls-34" d="M165.63,310.31a42.3,42.3,0,0,1-3.89-4.09c11.34-3.69,19.83-1.94,25.74,1.08C183.07,315.06,173.52,317,165.63,310.31Z"/><path class="cls-35" d="M182.16,307.93l.48-.39a16.41,16.41,0,0,0,3.38-4.37c2.81-5.37,1.18-11.87-1.16-17.08-7.18-16-15.55-21.66-27.06-14.93s-4.77,20.94-.36,26.38c3.86,4.76,9.72,10.68,16.07,11.68C176.27,309.66,179.81,309.62,182.16,307.93Z"/><path class="cls-39" d="M157.8,271.16c7.26-4.24,13.27-3.54,18.53,1.57-1.38,0-2.72.36-3.11,1.14-.71,1.44.23,2.63-1.46,3.61a8.65,8.65,0,0,1-5.45.8c-3.3-.62-6.08-1.06-8.71,1.25s-2.61,5.55-2.53,8.8a27.28,27.28,0,0,0,2,8.76C152.69,291.36,146.59,277.72,157.8,271.16Z"/><ellipse class="cls-35" cx="157.22" cy="300.58" rx="2.88" ry="4.41" transform="translate(-171.59 217.21) rotate(-48.16)"/><path class="cls-40" d="M185.86,293s-13.7,1-17.78,8.37c0,0,5.52,7.68,13.62,3.77S185.86,293,185.86,293Z"/><path class="cls-33" d="M174.74,305.94a9.9,9.9,0,0,0,7-.8,10.14,10.14,0,0,0,2.85-2C181.78,302.83,177.57,303.05,174.74,305.94Zm-5.53-6.19a8.42,8.42,0,0,0,5.6-.22c4.16-1.36,10.05-4,10.05-4l.08-2.47C182.09,293.44,173.38,294.87,169.21,299.75Z"/><path class="cls-41" d="M164.62,289.83c.4,1.18,1.29,1.95,2,1.72s1-1.39.57-2.58-1.29-2-2-1.72S164.23,288.64,164.62,289.83Z"/><path class="cls-41" d="M177.94,284.81c.62,1.09,1.65,1.67,2.3,1.3s.68-1.56,0-2.64-1.65-1.66-2.29-1.29S177.32,283.73,177.94,284.81Z"/><path class="cls-34" d="M177.77,289.54s-3.34-2.91-4.46,1.7A6.18,6.18,0,0,0,177.77,289.54Z"/><path class="cls-41" d="M166.09,282.55s-4,.63-4.43,3.21A8.92,8.92,0,0,1,166.09,282.55Z"/><path class="cls-41" d="M179.52,279.35s-3.85-1.4-5.43.68A8.89,8.89,0,0,1,179.52,279.35Z"/><path class="cls-33" d="M167.61,516.75s14,11.53,16.78,11-6-13-6-13,6.46,9.56,4.71,10.74S167.61,516.75,167.61,516.75Zm53.7-.34c-1.49.4-19.28-6.61-19.28-6.61s20,10.8,21.28,8c.72-1.53-1.84-4.21-4.29-6.31C219.05,511.57,222.79,516,221.31,516.41Z"/><path class="cls-33" d="M229.37,383.4l-1.56,2.07a120.61,120.61,0,0,1-36-47.39C208.82,370.22,229.37,383.4,229.37,383.4Z"/><path class="cls-33" d="M229.37,383.4c.21,2.42,4.66,7.79,7.84,11.49.11.27.23.55.33.82-.37-1-4.71-4-5.8-5.24-2-2.25-5.43-5.35-3.61-7.94C228.9,383.09,229.37,383.4,229.37,383.4Z"/><path class="cls-33" d="M97.46,396.73a47.84,47.84,0,0,1,2-5.55c-1.92,1.4-3.51,3.85-5.63,5.15a15.45,15.45,0,0,1,1.88-3.1,113.88,113.88,0,0,0,10.82-7.92c-.36,2-2.33,4.12-3.64,5.8C101.88,392.39,97.77,395.69,97.46,396.73Z"/><path class="cls-33" d="M105.7,386c17.82-14.26,41.06-38.09,41.06-38.09-10.76,18.17-40.09,39.34-40.09,39.34Z"/><path class="cls-35" d="M275.73,160.67s3.42-7.11-1.85-9.83-15.73-5.65-9.45-15.28,18.21-18.41,23.65-18,19,8.79,15.9,20.3-16.9,10.12-13.79,16.26C290.19,154.12,287.45,158.79,275.73,160.67Z"/><path class="cls-39" d="M288.08,117.56c-1.83-.14-4.39.76-7.22,2.38a8.58,8.58,0,0,0,.31,4.59c1.89,5.17,1.46,9.57-1.67,10.82,0,0,6.07-2.09,6.7,1.05s-2.72,5.86-5.86,5c0,0,3.12,1.67,3.13,4s1,6.34,6.66,5.78h0c2-3.15,11.33-4.11,13.84-13.32C307.12,126.35,293.52,118,288.08,117.56Z"/><path class="cls-34" d="M299.62,123.93c1.09,9.32-4.45,17.25-13.4,17.25-8.37.83-14.23,3.34-22.6,2.51h-.46c1.89,3.6,7.36,5.42,10.72,7.16,5.27,2.72,1.85,9.83,1.85,9.83,11.72-1.88,14.46-6.55,14.46-6.55-3.11-6.14,10.65-4.75,13.79-16.26C305.5,132.3,303.11,127.48,299.62,123.93Z"/><path class="hair" d="M299.62,123.93c1.09,9.32-4.45,17.25-13.4,17.25-1.81.18-3.5.44-5.12.72.92.66,2.36,1.93,2.37,3.5,0,2.3,1,6.34,6.66,5.78h0c2-3.15,11.33-4.11,13.84-13.32C305.5,132.3,303.11,127.48,299.62,123.93Z"/><path class="cls-42" d="M285.78,244.27l-21.35,48.27s-4.23,10.63,2.71,11.67,50.63,9.68,51.87,13.89,2.79,20.11,2.79,20.11L328,304.45s-30.28-5.95-34.25-8.18-6.7-14.37-1.49-23.2S285.78,244.27,285.78,244.27Z"/><path class="cls-43" d="M306.28,299.84c2.08,6.72,9,12.4,15.1,15.44a16,16,0,0,0,4.34,1.39L328,304.45S316.12,302.13,306.28,299.84Z"/><path class="cls-35" d="M256.83,281.27c-.19-1.14,2.32-5.79,2.71-7.4.82-3.37,2.74-8.51-2.27-9.69-3.47-.82-8.26,3.58-10.59,5.65a8.48,8.48,0,0,0,4.25-.56c-.42.72-6,8.46-6,8.46,2.83.33,4.2-2.68,6.44-3.72a15.77,15.77,0,0,0-2.36,7c1.62-2.06,3.17-5.24,5-7,.08,2.67-1.13,5.32-1,8.07,1.47-2,1.9-5,3.13-7A45.91,45.91,0,0,0,256.83,281.27Z"/><path class="cls-44" d="M269.92,167.28s15.86,49.23,15.86,63.77v13.22s8.59,9.66,21.15,4.5,14.87-10.45,14.87-10.45a193.49,193.49,0,0,0-1.37-20.12c-1.8-15.87-4.82-32.58-12.49-46.78-3.41-6.3-8-12.36-14.43-15.81-4.51-2.42-8.38-3.18-13-.82-3.07,1.55-4.51,3.21-6.32,6.09C273.66,161.69,269.85,167,269.92,167.28Z"/><path class="cls-45" d="M287.06,183c-2.54-7-8.45-9.63-14.81-8.31,4.41,14.33,13.53,45.3,13.53,56.33v13.22l.26.27c.06-.14.13-.27.18-.41C293.76,224.88,293.76,203.12,287.06,183Z"/><path class="cls-46" d="M295.43,169.63c3.87,1.72,7.07-.09,9.5-3.17a33,33,0,0,0-11.42-10.85c-4.51-2.42-8.38-3.18-13-.82-3.07,1.55-4.51,3.21-6.32,6.09-.12.2-.46.68-.88,1.29C280.48,161,288.17,166.61,295.43,169.63Z"/><path class="cls-35" d="M243.26,238.75c.48-1.05,5.16-3.5,6.38-4.62,2.57-2.34,7-5.52,3.53-9.31-2.42-2.62-8.85-1.64-11.94-1.22a8.47,8.47,0,0,0,3.85,1.9c-.76.37-9.69,3.69-9.73,3.65,2.16,1.86,5,.13,7.41.52a15.64,15.64,0,0,0-5.85,4.47c2.48-.8,5.55-2.57,8.08-3-1.42,2.26-3.91,3.78-5.31,6.15,2.34-.83,4.34-3.05,6.5-4.05A47.27,47.27,0,0,0,243.26,238.75Z"/><path class="cls-47" d="M274.93,183.59s-4.36,28.07-25.56,38.67l4.36,8.65s19.07-7.81,24.1-18.41S274.93,183.59,274.93,183.59Z"/><path class="cls-48" d="M285.78,244.27S275.09,300,274.34,303.71a29.36,29.36,0,0,0,1.24,14.89c2,5.71,15.89,51.87,13.16,56.58s-10.81,16.88-9.25,16.13,24.14-14.89,24.14-14.89-5.71-24.07-9.19-36.73-6.2-28.29,3-44.17,22.45-42.44,24.38-57.2Z"/><path class="cls-49" d="M279.93,332.84c4.58,15.82,10.7,39.07,8.81,42.34-2.73,4.72-10.81,16.88-9.25,16.13s24.14-14.89,24.14-14.89-4.88-20.55-8.36-33.66A40.2,40.2,0,0,1,279.93,332.84Z"/><path class="cls-50" d="M269.92,167.28s9.91,59.47-16.19,96.81l7.27,3s23.46-33,25.77-57.5S279.83,157.69,269.92,167.28Z"/><path class="cls-33" d="M279.77,391.35s16.57-12.43,23.86-14.93C303.63,376.42,295.73,383.72,279.77,391.35Z"/><path class="cls-33" d="M321.8,334.18s-.56-12.15-1.72-16.38S296,310.13,295.55,310h0c11.82,2.8,22.85,6,23.46,8.06,1.24,4.22,2.79,20.11,2.79,20.11l2.54-13.95Z"/><line class="cls-51" x1="99.41" y1="201.82" x2="99.41" y2="273.07"/><line class="cls-51" x1="126.23" y1="254.77" x2="126.23" y2="306.25"/><line class="cls-51" x1="77.52" y1="276.27" x2="77.52" y2="331.4"/><line class="cls-51" x1="93.83" y1="317.77" x2="93.83" y2="347.89"/><line class="cls-51" x1="121.57" y1="402.88" x2="121.57" y2="505.47"/><line class="cls-51" x1="109.12" y1="436.43" x2="109.12" y2="459.07"/><line class="cls-51" x1="77.52" y1="451.71" x2="77.52" y2="518.79"/><line class="cls-51" x1="219.08" y1="225.9" x2="219.08" y2="296.94"/><line class="cls-51" x1="199.67" y1="207.25" x2="199.67" y2="238.75"/><line class="cls-51" x1="199.67" y1="259.29" x2="199.67" y2="278.89"/><line class="cls-51" x1="180.74" y1="257.03" x2="180.74" y2="237.45"/><line class="cls-51" x1="153.41" y1="223" x2="153.41" y2="234.96"/><line class="cls-51" x1="264.26" y1="335.69" x2="264.26" y2="474.91"/><line class="cls-51" x1="210.57" y1="306.81" x2="210.57" y2="446.03"/><line class="cls-51" x1="244.73" y1="428.51" x2="244.73" y2="447.75"/><line class="cls-51" x1="249.2" y1="474.91" x2="249.2" y2="495.29"/><line class="cls-51" x1="350.77" y1="254.77" x2="350.77" y2="304.13"/><line class="cls-51" x1="269.75" y1="230.08" x2="269.75" y2="279.45"/><line class="cls-51" x1="343.41" y1="358.33" x2="343.41" y2="451.71"/><line class="cls-51" x1="364.35" y1="320.41" x2="364.35" y2="367.56"/><line class="cls-51" x1="306.11" y1="414.36" x2="306.11" y2="447.75"/><line class="cls-51" x1="161.66" y1="388.33" x2="161.66" y2="421.72"/><line class="cls-51" x1="368.31" y1="216.19" x2="368.31" y2="134.39"/><line class="cls-51" x1="346.24" y1="99.7" x2="346.24" y2="166.23"/><line class="cls-51" x1="324.17" y1="155.52" x2="324.17" y2="180.89"/><line class="cls-51" x1="240.41" y1="102.53" x2="240.41" y2="181.76"/><line class="cls-51" x1="306.11" y1="147.31" x2="306.11" y2="226.54"/><line class="cls-51" x1="177.49" y1="120.35" x2="177.49" y2="189.68"/><line class="cls-51" x1="143.08" y1="142.14" x2="143.08" y2="157.99"/><line class="cls-51" x1="66.53" y1="227.04" x2="66.53" y2="234.78"/><line class="cls-51" x1="63.23" y1="230.91" x2="69.83" y2="230.91"/><line class="cls-51" x1="150.06" y1="250.89" x2="150.06" y2="258.64"/><line class="cls-51" x1="146.76" y1="254.77" x2="153.36" y2="254.77"/><line class="cls-51" x1="256.86" y1="192.63" x2="256.86" y2="200.37"/><line class="cls-51" x1="253.56" y1="196.5" x2="260.16" y2="196.5"/><line class="cls-51" x1="340.11" y1="194.08" x2="340.11" y2="201.82"/><line class="cls-51" x1="336.81" y1="197.95" x2="343.41" y2="197.95"/><line class="cls-51" x1="279.33" y1="79.37" x2="279.33" y2="87.11"/><line class="cls-51" x1="276.03" y1="83.24" x2="282.63" y2="83.24"/><line class="cls-51" x1="286.96" y1="421.72" x2="286.96" y2="429.46"/><line class="cls-51" x1="283.66" y1="425.59" x2="290.26" y2="425.59"/><line class="cls-51" x1="195.52" y1="466.08" x2="195.52" y2="473.82"/><line class="cls-51" x1="192.22" y1="469.95" x2="198.83" y2="469.95"/><line class="cls-51" x1="66.53" y1="367.56" x2="66.53" y2="375.3"/><line class="cls-51" x1="63.23" y1="371.43" x2="69.83" y2="371.43"/><line class="cls-51" x1="358.04" y1="406.62" x2="358.04" y2="414.36"/><line class="cls-51" x1="354.74" y1="410.49" x2="361.34" y2="410.49"/><line class="cls-51" x1="375.87" y1="247.02" x2="375.87" y2="254.77"/><line class="cls-51" x1="372.57" y1="250.89" x2="379.17" y2="250.89"/><line class="cls-51" x1="207.27" y1="143.44" x2="207.27" y2="151.19"/><line class="cls-51" x1="203.97" y1="147.31" x2="210.57" y2="147.31"/><line class="cls-51" x1="143.05" y1="454.18" x2="143.05" y2="461.92"/><line class="cls-51" x1="139.75" y1="458.05" x2="146.35" y2="458.05"/><path class="cls-52" d="M378.14,296.82c0-9.26,5.71-13.77,12.76-10.06s12.76,14.21,12.76,23.48S398,324,390.9,320.3,378.14,306.08,378.14,296.82Z"/><path class="cls-53" d="M394.13,305.23,392,304.12V314l-3.13-1.64v-9.92l-1.5-.78v-3.5l1.5.78v-2.26c0-1.62.58-3.85,3.16-2.5l2.32,1.23v3.4l-1.69-.88c-.27-.15-.66-.17-.66.6v2.06l2.39,1.26Z"/><ellipse class="cls-54" cx="78.11" cy="331.86" rx="18.22" ry="11.74" transform="translate(-259.71 285.94) rotate(-69.01)"/><path class="cls-55" d="M76.65,331.78a3.14,3.14,0,0,0,1.43-2.92c0-2.21-1.17-2.82-2.65-2.23l-4.89,1.95v12.35L75.43,339a5,5,0,0,0,3-4.84S78.54,331,76.65,331.78Zm-4-1.86,2.74-1.1s.66-.26.66,1-.39,1.63-.83,1.81l-2.57,1Zm2.61,6.91-2.61,1v-3.3l2.74-1.09s1-.41,1,1.31A2,2,0,0,1,75.3,336.83Z"/><polygon class="cls-56" points="84.25 323.84 80.37 325.38 80.37 326.91 84.25 325.36 84.25 323.84"/><path class="cls-57" d="M82.39,327c-3.61,1.44-3.61,6.19-3.61,6.19s-.25,4.82,3.61,3.28a4.86,4.86,0,0,0,3.22-4.57l-1.66.66a2.11,2.11,0,0,1-1.5,1.93s-1.66.81-1.66-1.49l4.87-1.94S86.19,325.48,82.39,327Zm-1.62,4.36s.21-2,1.66-2.56,1.43,1.33,1.43,1.33Z"/><ellipse class="cls-58" cx="237.31" cy="327.98" rx="11.23" ry="19.05" transform="translate(-109.87 119.76) rotate(-23.16)"/><path class="skype" d="M243.7,332.66a10.34,10.34,0,0,0,.08-1.28c0-4.7-2.9-10-6.47-11.91a7.1,7.1,0,0,0-1-.43,6.23,6.23,0,0,0-2.06-1.84c-2.16-1.14-3.91.24-3.91,3.08a8.64,8.64,0,0,0,.58,3,10.34,10.34,0,0,0-.08,1.28c0,4.7,2.9,10,6.48,11.91a5.77,5.77,0,0,0,1,.43,6.35,6.35,0,0,0,2.05,1.85c2.16,1.13,3.91-.25,3.91-3.09a8.64,8.64,0,0,0-.58-3Zm-3.32.8a1.42,1.42,0,0,1-1.2.58,3.82,3.82,0,0,1-1.87-.54,6.88,6.88,0,0,1-2.14-1.72,6.58,6.58,0,0,1-1-1.67,4.32,4.32,0,0,1-.38-1.6.68.68,0,0,1,.23-.58.55.55,0,0,1,.59,0,1.28,1.28,0,0,1,.49.49,3.25,3.25,0,0,1,.34.83,9.44,9.44,0,0,0,.35,1,3.67,3.67,0,0,0,.54.83,3,3,0,0,0,.9.69,1.59,1.59,0,0,0,1.26.22.78.78,0,0,0,.47-.83,1.91,1.91,0,0,0-.25-1,3.59,3.59,0,0,0-.67-.85c-.28-.26-.65-.58-1.12-.95a14.3,14.3,0,0,1-1.57-1.46,5.63,5.63,0,0,1-1-1.52,4.21,4.21,0,0,1-.37-1.76,2.1,2.1,0,0,1,.39-1.36,1.32,1.32,0,0,1,1.15-.46,4.34,4.34,0,0,1,1.76.55,6.62,6.62,0,0,1,1.39,1,6.21,6.21,0,0,1,1,1.17,5.1,5.1,0,0,1,.57,1.15,3.14,3.14,0,0,1,.18,1,.75.75,0,0,1-.23.6.49.49,0,0,1-.58,0,1.2,1.2,0,0,1-.47-.45,4.24,4.24,0,0,1-.35-.8,6,6,0,0,0-.56-1.22,2.84,2.84,0,0,0-1.05-.87,1.44,1.44,0,0,0-1.09-.22.61.61,0,0,0-.4.64,1.37,1.37,0,0,0,.13.59,2.32,2.32,0,0,0,.39.59,5,5,0,0,0,.49.52l.85.72c.48.4.93.79,1.33,1.16a8.23,8.23,0,0,1,1,1.16,5,5,0,0,1,.66,1.28,4.54,4.54,0,0,1,.24,1.5,2.55,2.55,0,0,1-.41,1.53Z"/><path class="cls-59" d="M90.5,546.67c0-9.26,5.71-19,12.76-21.86S116,527.23,116,536.49s-5.71,19-12.75,21.86S90.5,555.93,90.5,546.67Z"/><path class = "linkedin" d="M110.59,540v6.68l-3,1.17v-6.22c0-1.57-.42-2.47-1.49-2a3,3,0,0,0-1.51,2,4.25,4.25,0,0,0-.09,1v6.5l-3,1.17s0-10.56,0-11.64l3-1.17v1.65l0,0h0v0a5,5,0,0,1,2.65-3c1.94-.78,3.39.31,3.39,3.88Zm-12.07-5.76a2.88,2.88,0,0,0-1.66,2.68c0,1.11.63,1.75,1.62,1.36h0a2.89,2.89,0,0,0,1.67-2.67c0-1.14-.64-1.76-1.65-1.36ZM97,552.08,100,550.9V539.26L97,540.44Z"/><path class="cls-60" d="M321.28,520c0-9.26,5.71-19,12.75-21.86s12.76,2.42,12.76,11.69-5.71,19-12.76,21.86S321.28,529.24,321.28,520Z"/><path class="cls-61" d="M341.66,507.82c0-1.65-1-2.59-2.28-2.08L328.69,510a4.38,4.38,0,0,0-2.28,3.91v8c0,1.65,1,2.59,2.28,2.08l10.69-4.26a4.38,4.38,0,0,0,2.28-3.91Zm-9.15,11.06v-7.55l4.35,2Z"/><path class="cls-62" d="M271.27,473.3c0-9.26,5.71-19,12.75-21.86s12.76,2.42,12.76,11.69-5.71,19-12.76,21.86S271.27,482.57,271.27,473.3Z"/><path class="cls-63" d="M291.9,458.65a8.46,8.46,0,0,1-1.86,1.41,6.9,6.9,0,0,0,1.42-2.91,9.55,9.55,0,0,1-2,1.84,2.09,2.09,0,0,0-2.36-.4c-1.78.72-3.23,3.2-3.23,5.54a4.69,4.69,0,0,0,.09.94,5.81,5.81,0,0,1-6.66-1.79,6.62,6.62,0,0,0-.44,2.31,3.11,3.11,0,0,0,1.44,3,2.33,2.33,0,0,1-1.47.05v.05c0,2.06,1.12,3.33,2.59,3.13a3.47,3.47,0,0,1-.85.49,3,3,0,0,1-.61.17,2.21,2.21,0,0,0,3,1.74,9.32,9.32,0,0,1-4,3.42,4.92,4.92,0,0,1-.77.25,6.26,6.26,0,0,0,5-.07c5.95-2.37,9.2-10.14,9.2-15.75,0-.18,0-.37,0-.54a13.9,13.9,0,0,0,1.61-2.85Z"/><path class="cls-64" d="M168.94,186.78c0-9.26,5.71-19.05,12.76-21.86s12.75,2.42,12.75,11.69-5.71,19-12.75,21.86S168.94,196.05,168.94,186.78Z"/><path class="cls-65" d="M178.75,181.9v2.33l2.92-1.17a5.17,5.17,0,0,1-2.92,4.09c-1.76.7-3.2-.64-3.2-3s1.44-4.86,3.2-5.56a1.86,1.86,0,0,1,2.05.23l1.4-2.34a3.22,3.22,0,0,0-3.45-.39c-2.85,1.14-5.16,5.09-5.16,8.84s2.31,5.86,5.16,4.72,4.95-4.73,4.95-8.6a8,8,0,0,0-.08-1.09l-4.87,1.94Z"/><path class="cls-66" d="M189.8,177.49l-1.47.59v-1.94l-1.48.59v1.94l-1.47.59v1.93l1.47-.58v1.93l1.48-.58V180l1.47-.59Z"/><path class="cls-67" d="M96.55,413.79c0-9.26,5.71-13.77,12.76-10.06s12.75,14.21,12.75,23.47-5.71,13.77-12.75,10.07S96.55,423.05,96.55,413.79Z"/><path class="cls-68" d="M112.7,424.12c-.18-.22-1-1.28-1.19-1.45s-.28-.28-.41-.11a5.16,5.16,0,0,1-.59.57c-.1.1-.21.06-.38-.16a10.72,10.72,0,0,1-1.4-2,14.05,14.05,0,0,1-.94-2.16c-.1-.29,0-.37.09-.43s.19-.17.28-.25a1,1,0,0,0,.19-.28.53.53,0,0,0,0-.41c0-.14-.36-1.48-.49-2s-.29-.56-.39-.62l-.34-.21a.42.42,0,0,0-.48,0,1.71,1.71,0,0,0-.68,1.56,8.28,8.28,0,0,0,.65,2.8,18.07,18.07,0,0,0,2.94,5.22c1.78,2,1.79,1.65,2.11,1.8s1.07.05,1.24-.41a2.17,2.17,0,0,0,.13-1,1.94,1.94,0,0,0-.33-.46Zm-3.27,3.82a9.56,9.56,0,0,1-3.18-2.94l-2.23-.23.72-2.45a13.12,13.12,0,0,1-1.1-5c0-4.2,2.6-6.25,5.79-4.58s5.8,6.47,5.8,10.67-2.6,6.25-5.8,4.57Zm0-16.77c-3.84-2-7,.44-7,5.49a15.41,15.41,0,0,0,1,5.25l-1.25,4.25,3.85.4a11,11,0,0,0,3.36,2.91c3.85,2,7-.44,7-5.49s-3.12-10.79-7-12.81Z"/><path class="cls-69" d="M112,235.65c0-9.26,5.71-13.76,12.76-10.06s12.76,14.22,12.76,23.48-5.71,13.77-12.76,10.06S112,244.92,112,235.65Z"/><path class="cls-70" d="M124.78,232.11c1,.57,2.1,1.14,3.15,1.73a8.13,8.13,0,0,1,2.58,2.23,9.66,9.66,0,0,1,1.87,4.6,26.58,26.58,0,0,1,.17,2.93c0,2,0,4.08,0,6.1a11,11,0,0,1-.3,3c-.53,1.72-1.59,2.37-3.15,1.94a12,12,0,0,1-2.16-.9c-1.54-.78-3.08-1.61-4.63-2.44a10,10,0,0,1-2.41-1.67,9.33,9.33,0,0,1-2.74-5.57,22.43,22.43,0,0,1-.18-2.92c0-2.05,0-4.08,0-6.11a10.72,10.72,0,0,1,.3-3c.52-1.72,1.59-2.37,3.15-1.94a15.52,15.52,0,0,1,2.16.9c.72.35,1.45.76,2.18,1.14Zm6.41,13.47h0c0-.81,0-1.62,0-2.43s0-1.58-.1-2.38a6.06,6.06,0,0,0-2.21-4.42,14.75,14.75,0,0,0-2.09-1.31c-1.32-.73-2.64-1.42-4-2.09a14,14,0,0,0-2-.86c-1.13-.36-1.9.08-2.21,1.39a6.58,6.58,0,0,0-.17,1.37c0,1.84-.05,3.68-.05,5.54,0,1.19,0,2.38.11,3.6a6,6,0,0,0,2.25,4.46,16,16,0,0,0,2.07,1.29c1.31.72,2.61,1.39,3.92,2.06a16.72,16.72,0,0,0,1.79.81,1.8,1.8,0,0,0,1.52,0c.72-.38,1-1.28,1.05-2.41C131.14,248.69,131.16,247.13,131.19,245.58Z"/><path class="cls-71" d="M128.77,244.48c0,2.92-1.78,4.32-4,3.15s-4-4.45-4-7.41,1.81-4.27,4-3.09S128.77,241.58,128.77,244.48Zm-4,1.31c1.42.75,2.6-.18,2.6-2a5.86,5.86,0,0,0-2.6-4.78c-1.43-.75-2.6.17-2.6,2A5.84,5.84,0,0,0,124.77,245.79Z"/><path class="cls-72" d="M129.87,239.58c0,.69-.42,1-.94.75a2.12,2.12,0,0,1-.94-1.74c0-.68.42-1,.93-.73A2,2,0,0,1,129.87,239.58Z"/></g></g>
        <style>
            .cls-34, .cls-35, .cls-39, .cls-44, .cls-44,
            .cls-45, .cls-47, .cls-50, .hair, .cls-48,
            .cls-42, .cls-49, .cls-43, .cls-40, .cls-41,
            .cls-37, .cls-38, .cls-33, .cls-36 {
                animation-name: floating-up;
                animation-duration: 2s;
                animation-iteration-count: infinite;
            }
            .cls-52, .cls-53, .cls-54, .cls-55, .cls-56,
            .cls-57, .skype, .cls-58, .cls-59, .linkedin, 
            .cls-60, .cls-61, .cls-62, .cls-63, .cls-64,
            .cls-65, .cls-66, .cls-67, .cls-68, .cls-69,
            .cls-70, .cls-71, .cls-72 {
                animation-name: floating-down;
                animation-duration: 2s;
                animation-iteration-count: infinite;
            }
            @keyframes floating-up {
                0% {
                    transform: translateY(0px);
                }
                50% {
                    transform: translateY(20px);
                }
                100% {
                    transform: translateY(0px);
                    opacity(0);
                }
            }
            @keyframes floating-down {
                0% {
                    transform: translateY(0px);
                }
                50% {
                    transform: translateY(-20px);
                }
                100% {
                    transform: translateY(0px);
                }
            }
        </style>
        </svg>