<svg xmlns="http://www.w3.org/2000/svg" xmlns:xlink="http://www.w3.org/1999/xlink" viewBox="0 0 1920 1080"><defs><style>.cls-1{fill:url(#linear-gradient);}.cls-2{fill:url(#linear-gradient-2);}.cls-3{fill:url(#linear-gradient-3);}.cls-4{fill:url(#linear-gradient-4);}.cls-10,.cls-11,.cls-12,.cls-13,.cls-14,.cls-15,.cls-16,.cls-17,.cls-18,.cls-19,.cls-20,.cls-21,.cls-22,.cls-23,.cls-24,.cls-25,.cls-26,.cls-27,.cls-28,.cls-29,.cls-30,.cls-31,.cls-32,.cls-33,.cls-34,.cls-35,.cls-36,.cls-5,.cls-6,.cls-7,.cls-8,.cls-9{fill:none;stroke-miterlimit:10;}.cls-5{stroke:url(#linear-gradient-5);}.cls-6{stroke:url(#linear-gradient-6);}.cls-7{stroke:url(#linear-gradient-7);}.cls-8{stroke:url(#linear-gradient-8);}.cls-9{stroke:url(#linear-gradient-9);}.cls-10{stroke:url(#linear-gradient-10);}.cls-11{stroke:url(#linear-gradient-11);}.cls-12{stroke:url(#linear-gradient-12);}.cls-13{stroke:url(#linear-gradient-13);}.cls-14{stroke:url(#linear-gradient-14);}.cls-15{stroke:url(#linear-gradient-15);}.cls-16{stroke:url(#linear-gradient-16);}.cls-17{stroke:url(#linear-gradient-17);}.cls-18{stroke:url(#linear-gradient-18);}.cls-19{stroke:url(#linear-gradient-19);}.cls-20{stroke:url(#linear-gradient-20);}.cls-21{stroke:url(#linear-gradient-21);}.cls-22{stroke:url(#linear-gradient-22);}.cls-23{stroke:url(#linear-gradient-23);}.cls-24{stroke:url(#linear-gradient-24);}.cls-25{stroke:url(#linear-gradient-25);}.cls-26{stroke:url(#linear-gradient-26);}.cls-27{stroke:url(#linear-gradient-27);}.cls-28{stroke:url(#linear-gradient-28);}.cls-29{stroke:url(#linear-gradient-29);}.cls-30{stroke:url(#linear-gradient-31);}.cls-31{stroke:url(#linear-gradient-32);}.cls-32{stroke:url(#linear-gradient-33);}.cls-33{stroke:url(#linear-gradient-34);}.cls-34{stroke:url(#linear-gradient-35);}.cls-35{stroke:url(#linear-gradient-36);}.cls-36{stroke:url(#linear-gradient-37);}</style><linearGradient id="linear-gradient" x1="715.96" y1="-605.75" x2="920.38" y2="-110.23" gradientUnits="userSpaceOnUse"><stop offset="0" stop-color="#fff"/><stop offset="0.81" stop-color="#fff0f0"/><stop offset="1" stop-color="#ffeded"/></linearGradient><linearGradient id="linear-gradient-2" x1="1350.23" y1="-656.4" x2="1023.32" y2="613.08" gradientUnits="userSpaceOnUse"><stop offset="0" stop-color="#fff"/><stop offset="1" stop-color="#ffeded"/></linearGradient><linearGradient id="linear-gradient-3" x1="554.08" y1="591.66" x2="740.96" y2="-86.65" xlink:href="#linear-gradient-2"/><linearGradient id="linear-gradient-4" x1="1883.46" y1="128.84" x2="1043.46" y2="1228.84" xlink:href="#linear-gradient-2"/><linearGradient id="linear-gradient-5" x1="1196.93" y1="72.66" x2="1237.07" y2="72.66" gradientTransform="translate(26.26 -189.08) rotate(8.98)" gradientUnits="userSpaceOnUse"><stop offset="0" stop-color="#ed86a0"/><stop offset="1" stop-color="#a658a3"/></linearGradient><linearGradient id="linear-gradient-6" x1="1208.88" y1="70.76" x2="1223.58" y2="70.76" gradientTransform="matrix(1, 0, 0, 1, 0, 0)" xlink:href="#linear-gradient-5"/><linearGradient id="linear-gradient-7" x1="1203.84" y1="52.87" x2="1224.46" y2="52.87" gradientTransform="matrix(1, 0, 0, 1, 0, 0)" xlink:href="#linear-gradient-5"/><linearGradient id="linear-gradient-8" x1="811.91" y1="625.84" x2="856.15" y2="625.84" gradientTransform="matrix(1, 0, 0, 1, 0, 0)" xlink:href="#linear-gradient-5"/><linearGradient id="linear-gradient-9" x1="814.25" y1="633.73" x2="849.56" y2="633.73" gradientTransform="matrix(1, 0, 0, 1, 0, 0)" xlink:href="#linear-gradient-5"/><linearGradient id="linear-gradient-10" x1="816.6" y1="641.61" x2="842.99" y2="641.61" gradientTransform="matrix(1, 0, 0, 1, 0, 0)" xlink:href="#linear-gradient-5"/><linearGradient id="linear-gradient-11" x1="819.82" y1="653.53" x2="833.28" y2="653.53" gradientTransform="translate(1237.96 -316.54) rotate(74.65)" xlink:href="#linear-gradient-5"/><linearGradient id="linear-gradient-12" x1="627.82" y1="280.59" x2="661.62" y2="280.59" gradientTransform="matrix(1, 0, 0, 1, 0, 0)" xlink:href="#linear-gradient-5"/><linearGradient id="linear-gradient-13" x1="53.25" y1="665.84" x2="69.47" y2="665.84" gradientTransform="matrix(1, 0, 0, 1, 0, 0)" xlink:href="#linear-gradient-5"/><linearGradient id="linear-gradient-14" x1="61.36" y1="670.11" x2="67.18" y2="670.11" gradientTransform="matrix(1, 0, 0, 1, 0, 0)" xlink:href="#linear-gradient-5"/><linearGradient id="linear-gradient-15" x1="569.13" y1="733.6" x2="603.72" y2="733.6" gradientTransform="translate(-277.19 364.51) rotate(-28.22)" xlink:href="#linear-gradient-5"/><linearGradient id="linear-gradient-16" x1="570.29" y1="733.6" x2="602.57" y2="733.6" gradientTransform="translate(217.34 1597.22) rotate(-118.22)" xlink:href="#linear-gradient-5"/><linearGradient id="linear-gradient-17" x1="575.23" y1="744.33" x2="586.1" y2="744.33" gradientTransform="matrix(1, 0, 0, 1, 0, 0)" xlink:href="#linear-gradient-5"/><linearGradient id="linear-gradient-18" x1="970.43" y1="211.54" x2="1002.68" y2="211.54" gradientTransform="matrix(1, 0, 0, 1, 0, 0)" xlink:href="#linear-gradient-5"/><linearGradient id="linear-gradient-19" x1="972.93" y1="211.41" x2="1000.18" y2="211.41" gradientTransform="matrix(1, 0, 0, 1, 0, 0)" xlink:href="#linear-gradient-5"/><linearGradient id="linear-gradient-20" x1="75.73" y1="71.02" x2="99.71" y2="71.02" gradientTransform="matrix(1, 0, 0, 1, 0, 0)" xlink:href="#linear-gradient-5"/><linearGradient id="linear-gradient-21" x1="80.75" y1="64.82" x2="94.7" y2="64.82" gradientTransform="matrix(1, 0, 0, 1, 0, 0)" xlink:href="#linear-gradient-5"/><linearGradient id="linear-gradient-22" x1="64.96" y1="85.14" x2="113.76" y2="85.14" gradientTransform="matrix(1, 0, 0, 1, 0, 0)" xlink:href="#linear-gradient-5"/><linearGradient id="linear-gradient-23" x1="110.92" y1="77.3" x2="117.64" y2="77.3" gradientTransform="matrix(1, 0, 0, 1, 0, 0)" xlink:href="#linear-gradient-5"/><linearGradient id="linear-gradient-24" x1="109.93" y1="77.38" x2="119.47" y2="77.38" gradientTransform="matrix(1, 0, 0, 1, 0, 0)" xlink:href="#linear-gradient-5"/><linearGradient id="linear-gradient-25" x1="934.15" y1="352.12" x2="971.5" y2="352.12" gradientTransform="matrix(1, 0, 0, 1, 0, 0)" xlink:href="#linear-gradient-5"/><linearGradient id="linear-gradient-26" x1="944.51" y1="356.73" x2="962.17" y2="356.73" gradientTransform="matrix(1, 0, 0, 1, 0, 0)" xlink:href="#linear-gradient-5"/><linearGradient id="linear-gradient-27" x1="701.34" y1="397.4" x2="702.34" y2="397.4" gradientTransform="matrix(1, 0, 0, 1, 0, 0)" xlink:href="#linear-gradient-5"/><linearGradient id="linear-gradient-28" x1="692.07" y1="397.16" x2="711.13" y2="397.16" gradientTransform="matrix(1, 0, 0, 1, 0, 0)" xlink:href="#linear-gradient-5"/><linearGradient id="linear-gradient-29" x1="696.6" y1="397.16" x2="707.07" y2="397.16" gradientTransform="matrix(1, 0, 0, 1, 0, 0)" xlink:href="#linear-gradient-5"/><linearGradient id="linear-gradient-31" x1="152" y1="1040.06" x2="173.38" y2="1040.06" gradientTransform="matrix(1, 0, 0, 1, 0, 0)" xlink:href="#linear-gradient-5"/><linearGradient id="linear-gradient-32" x1="172.32" y1="1023.95" x2="180.12" y2="1023.95" gradientTransform="matrix(1, 0, 0, 1, 0, 0)" xlink:href="#linear-gradient-5"/><linearGradient id="linear-gradient-33" x1="172.32" y1="1034.5" x2="180.12" y2="1034.5" gradientTransform="matrix(1, 0, 0, 1, 0, 0)" xlink:href="#linear-gradient-5"/><linearGradient id="linear-gradient-34" x1="175.72" y1="1023.95" x2="176.72" y2="1023.95" gradientTransform="matrix(1, 0, 0, 1, 0, 0)" xlink:href="#linear-gradient-5"/><linearGradient id="linear-gradient-35" x1="204.25" y1="812.88" x2="236.75" y2="812.88" gradientTransform="matrix(1, 0, 0, 1, 0, 0)" xlink:href="#linear-gradient-5"/><linearGradient id="linear-gradient-36" x1="220" y1="808.04" x2="227.56" y2="808.04" gradientTransform="matrix(1, 0, 0, 1, 0, 0)" xlink:href="#linear-gradient-5"/><linearGradient id="linear-gradient-37" x1="206.5" y1="812.88" x2="234.5" y2="812.88" gradientTransform="matrix(1, 0, 0, 1, 0, 0)" xlink:href="#linear-gradient-5"/></defs><title>Section 2</title><g id="Background"><path class="cls-1" d="M2089.63.09H-157.84V-321.6H730a2073.51,2073.51,0,0,1,608.06,91.21L2089.63.09Z"/><path class="cls-2" d="M2089.63-210.81s-534.72-152.79-1065,29.06S272.72.09,272.72.09H2089.63Z"/><path class="cls-3" d="M-157.84-243.5s527.46-72.65,1065,61.75C1451.08-45.78,1659.07.09,1659.07.09H-157.84Z"/><path class="cls-4" d="M1920,0V1080H528.88c-13.22-19.55-34.78-61.33-23.93-114.45,15.21-74.4,92.66-151.81,163.66-186.45s157.21-63.28,247.45-93.75,106.49-40.24,130.35-53.07,101.65-56,135.54-104.08,50.48-92,54.63-125.08-4.15-161.65,42.18-235.24S1406.7,48.75,1431.14,37.63c18.81-8.56,55.94-24,94.35-37.63Z"/></g><g id="Layer_1" data-name="Layer 1"><rect class="cls-5" x="1198.61" y="57.97" width="36.79" height="29.38" rx="6.2" ry="6.2" transform="translate(3.58 190.86) rotate(-8.98)"/><path class="cls-6" d="M1223,66.72a6.85,6.85,0,1,0-10.08,7.06l.51,3.24a4.21,4.21,0,0,0,4.81,3.5h0a4.21,4.21,0,0,0,3.5-4.81l-.51-3.24A6.83,6.83,0,0,0,1223,66.72Z"/><path class="cls-7" d="M1224,57.22l-1.22-7.75a4.06,4.06,0,0,0-4.64-3.38l-10.33,1.63a4.06,4.06,0,0,0-3.38,4.64l1.22,7.75"/><path class="cls-8" d="M812,620.7a44.53,44.53,0,0,1,43.75,12"/><path class="cls-9" d="M814.38,629.67a35.27,35.27,0,0,1,34.81,9.56"/><path class="cls-10" d="M816.73,638.62a26.15,26.15,0,0,1,25.89,7.11"/><circle class="cls-11" cx="826.55" cy="653.53" r="6.23" transform="translate(-22.47 1277.59) rotate(-74.65)"/><polygon class="cls-12" points="646.05 264.74 659 268.97 645.25 277.43 660.22 282.31 631.16 294.96 645.42 283.71 632.47 279.49 646.88 270.72 639 268.01 646.05 264.74"/><path class="cls-13" d="M69,669.15c0,5.37-3.41,7.61-7.61,7.61s-7.61-2.24-7.61-7.61,7.61-14,7.61-14S69,663.77,69,669.15Z"/><path class="cls-14" d="M65.93,665c1.41,4.32,1.32,9.92-4.57,9.92"/><rect class="cls-15" x="570.19" y="723.61" width="32.47" height="19.98" rx="6.31" ry="6.31" transform="translate(416.61 -190.1) rotate(28.22)"/><rect class="cls-16" x="577.81" y="718.74" width="17.23" height="29.72" rx="4.31" ry="4.31" transform="translate(1510.13 563.78) rotate(118.22)"/><line class="cls-17" x1="575.47" y1="741.54" x2="585.87" y2="747.12"/><path class="cls-18" d="M1002.18,202.14v14.48c0,8.63-15.63,15.63-15.63,15.63s-15.63-7-15.63-15.63V202.14a16,16,0,0,0,10.46-11.36h10.34A16,16,0,0,0,1002.18,202.14Z"/><path class="cls-19" d="M986.56,229.48c-4.28-2.14-13.13-7.62-13.13-12.86V203.84a18.73,18.73,0,0,0,9.8-10.56h6.65a18.72,18.72,0,0,0,9.8,10.56v12.78C999.68,221.88,990.84,227.35,986.56,229.48Z"/><path class="cls-20" d="M99.21,66.74c0,6.35-11.49,19.77-11.49,19.77S76.23,73.09,76.23,66.74a11.49,11.49,0,1,1,23,0Z"/><circle class="cls-21" cx="87.72" cy="64.82" r="6.47"/><path class="cls-22" d="M65.16,87.83c3.54-1.54,7.56-1.58,11.39-1.07s7.56,1.56,11.38,2.13a45.81,45.81,0,0,0,8.13.47,26.42,26.42,0,0,0,9.93-2,14.39,14.39,0,0,0,7.31-6.78"/><line class="cls-23" x1="111.33" y1="72.8" x2="117.22" y2="81.8"/><line class="cls-24" x1="119.2" y1="74.44" x2="110.2" y2="80.33"/><path class="cls-25" d="M959.94,358l7.92-2.75a4.66,4.66,0,0,0-2.67-8.93,7.51,7.51,0,0,0-12.09-4.48,10.4,10.4,0,0,0-15.23,13.92l-.07,0a4.68,4.68,0,0,0,3.07,8.83l8.58-3"/><polygon class="cls-26" points="961.09 353.79 949.31 345.4 945.26 359.28 949.42 357.83 953.04 368.24 960.54 365.64 956.92 355.23 961.09 353.79"/><line class="cls-27" x1="701.84" y1="387.87" x2="701.84" y2="406.93"/><line class="cls-28" x1="711.13" y1="397.16" x2="692.07" y2="397.16"/><line class="cls-29" x1="696.95" y1="392.28" x2="706.72" y2="402.05"/><line class="cls-29" x1="706.72" y1="392.28" x2="696.95" y2="402.05"/><path class="cls-30" d="M166.46,1042.38v-20.52a3.77,3.77,0,1,0-7.54,0v20.52a10.19,10.19,0,1,0,7.54,0Z"/><line class="cls-31" x1="172.32" y1="1023.95" x2="180.12" y2="1023.95"/><line class="cls-32" x1="172.32" y1="1034.5" x2="180.12" y2="1034.5"/><line class="cls-33" x1="176.22" y1="1020.04" x2="176.22" y2="1027.85"/><circle class="cls-34" cx="220.5" cy="812.88" r="15.75"/><polyline class="cls-35" points="220.5 802 220.5 812.88 227.51 813.58"/><circle class="cls-36" cx="220.5" cy="812.88" r="13.5"/></g>
<style>
	.cls-13, .cls-14 {
		animation: fall 2s infinite;
	}
	.cls-29, .cls-8, .cls-9, .cls-10{
		animation: appear 1s infinite;
	}
	.cls-27{
		animation: disappear 1s infinite;
	}
	.cls-26, .cls-5, .cls-6{
		animation: floating-up 1s infinite;
	}
	.cls-25, .cls-7{
		animation: floating-down 1s infinite;
	}
	.cls-35, .cls-36, .cls-34{
		animation: rotateshake 10s infinite;
	}
	.cls-15, .cls-6, .cls-21{
		animation: filled 10s infinite;
	}
	.cls-16{
		animation: unfilled 10s infinite;
	}
	@keyframes filled{
		form{
			fill: none;
		}
		to{
			fill: #f5c3d0;
		}
	}
	@keyframes unfilled{
		form{
			fill: none;
		}
		to{
			fill: white;
		}
	}
	@keyframes fall {
      	0% {
        	transform: translateY(-100); opacity: 1; }
      	20% {
       		transform: translateY(-50px); opacity: 0.9; }
      	40% {
        	transform: translateY(0px); opacity: 0.8; }
      	100% {
        	transform: translateY(30px); opacity: 0.2; } 
    }
    @keyframes appear {
      	from {
        	opacity: 0 }
      	to {
        	opacity: 1 }
    }
    @keyframes disappear {
      	from {
        	opacity: 1 }
      	to {
        	opacity: 0 }
    }
	@keyframes rotateshake {
		0% {
			transform: rotate(0deg);
		}
		25% {
			transform: rotate(2deg);
		}
		50% {
			transform: rotate(0deg);
		}
		75%{
			transform: rotate(-2deg);
		}
		100% {
			transform: rotate(0deg);
		}
	}
	@keyframes floating-up {
		0% {
			transform: translateY(0px);
		}
		50% {
			transform: translateY(5px);
		}
		100% {
			transform: translateY(0px);
		}
	}
	@keyframes floating-down {
		0% {
			transform: translateY(0px);
		}
		50% {
			transform: translateY(-5px);
		}
		100% {
			transform: translateY(0px);
		}
	}
}
}
</style>
</svg>