<svg id="gs" xmlns="http://www.w3.org/2000/svg" xmlns:xlink="http://www.w3.org/1999/xlink" viewBox="0 0 1748.82 739.92">
  <defs>
    <style>
      .a,
      .b,
      .c,
      .d,
      .e,
      .f,
      .g,
      .h,
      .i,
      .j,
      .k,
      .l,
      .m,
      .n,
      .o,
      .p,
      .q,
      .r,
      .s,
      .t,
      .u,
      .v,
      .w,
      .x {
        fill: none;
        stroke-miterlimit: 10;
      }

      .a {
        stroke: url(#a);
      }

      .b {
        stroke: url(#b);
      }

      .c {
        stroke: url(#c);
      }

      .d {
        stroke: url(#d);
      }

      .e {
        stroke: url(#e);
      }

      .f {
        stroke: url(#f);
      }

      .g {
        stroke: url(#g);
      }

      .h {
        stroke: url(#h);
      }

      .i {
        stroke: url(#i);
      }

      .j {
        stroke: url(#j);
      }

      .k {
        stroke: url(#k);
      }

      .l {
        stroke: url(#l);
      }

      .m {
        stroke: url(#m);
      }

      .n {
        stroke: url(#n);
      }

      .o {
        stroke: url(#o);
      }

      .p {
        stroke: url(#p);
      }

      .q {
        stroke: url(#q);
      }

      .r {
        stroke: url(#r);
      }

      .s {
        stroke: url(#s);
      }

      .t {
        stroke: url(#u);
      }

      .u {
        stroke: url(#v);
      }

      .v {
        stroke: url(#w);
      }

      .w {
        stroke: url(#x);
      }

      .x {
        stroke: url(#y);
      }
    </style>
    <linearGradient id="a" x1="1708.68" y1="671.45" x2="1748.82" y2="671.45" gradientTransform="translate(126 -261.62) rotate(8.98)"
      gradientUnits="userSpaceOnUse">
      <stop offset="0" stop-color="#ed86a0" />
      <stop offset="1" stop-color="#a658a3" />
    </linearGradient>
    <linearGradient id="b" x1="1720.63" y1="669.55" x2="1735.33" y2="669.55" gradientTransform="matrix(1, 0, 0, 1, 0, 0)"
      xlink:href="#a" />
    <linearGradient id="c" x1="1715.59" y1="651.66" x2="1736.21" y2="651.66" gradientTransform="matrix(1, 0, 0, 1, 0, 0)"
      xlink:href="#a" />
    <linearGradient id="d" x1="1117.25" y1="567.22" x2="1161.49" y2="567.22" gradientTransform="matrix(1, 0, 0, 1, 0, 0)"
      xlink:href="#a" />
    <linearGradient id="e" x1="1119.59" y1="575.11" x2="1154.89" y2="575.11" gradientTransform="matrix(1, 0, 0, 1, 0, 0)"
      xlink:href="#a" />
    <linearGradient id="f" x1="1121.94" y1="583" x2="1148.32" y2="583" gradientTransform="matrix(1, 0, 0, 1, 0, 0)" xlink:href="#a"
    />
    <linearGradient id="g" x1="1125.16" y1="594.91" x2="1138.62" y2="594.91" gradientTransform="matrix(1, 0, 0, 1, 0, 0)"
      xlink:href="#a" />
    <linearGradient id="h" x1="305.05" y1="468.24" x2="337.3" y2="468.24" gradientTransform="translate(-143.8 -28.14) rotate(17.97)"
      xlink:href="#a" />
    <linearGradient id="i" x1="307.55" y1="468.11" x2="334.8" y2="468.11" gradientTransform="translate(-143.8 -28.14) rotate(17.97)"
      xlink:href="#a" />
    <linearGradient id="j" x1="407" y1="723.68" x2="439.5" y2="723.68" gradientTransform="matrix(1, 0, 0, 1, 0, 0)" xlink:href="#a"
    />
    <linearGradient id="k" x1="422.75" y1="718.83" x2="430.31" y2="718.83" gradientTransform="matrix(1, 0, 0, 1, 0, 0)" xlink:href="#a"
    />
    <linearGradient id="l" x1="409.25" y1="723.68" x2="437.25" y2="723.68" gradientTransform="matrix(1, 0, 0, 1, 0, 0)" xlink:href="#a"
    />
    <linearGradient id="m" x1="1667.57" y1="16.38" x2="1701.37" y2="16.38" gradientTransform="matrix(1, 0, 0, 1, 0, 0)" xlink:href="#a"
    />
    <linearGradient id="n" x1="1548.74" y1="279.93" x2="1583.32" y2="279.93" gradientTransform="translate(53.78 773.81) rotate(-28.22)"
      xlink:href="#a" />
    <linearGradient id="o" x1="1549.89" y1="279.93" x2="1582.17" y2="279.93" gradientTransform="translate(2059.92 1792.18) rotate(-118.22)"
      xlink:href="#a" />
    <linearGradient id="p" x1="1554.84" y1="290.66" x2="1565.71" y2="290.66" gradientTransform="matrix(1, 0, 0, 1, 0, 0)"
      xlink:href="#a" />
    <linearGradient id="q" x1="1214.67" y1="94.78" x2="1215.67" y2="94.78" gradientTransform="matrix(1, 0, 0, 1, 0, 0)" xlink:href="#a"
    />
    <linearGradient id="r" x1="1205.41" y1="94.55" x2="1224.47" y2="94.55" gradientTransform="matrix(1, 0, 0, 1, 0, 0)" xlink:href="#a"
    />
    <linearGradient id="s" x1="1209.94" y1="94.55" x2="1220.41" y2="94.55" gradientTransform="matrix(1, 0, 0, 1, 0, 0)" xlink:href="#a"
    />
    <linearGradient id="u" x1="217" y1="306.84" x2="240.98" y2="306.84" gradientTransform="matrix(1, 0, 0, 1, 0, 0)" xlink:href="#a"
    />
    <linearGradient id="v" x1="222.02" y1="300.64" x2="235.97" y2="300.64" gradientTransform="matrix(1, 0, 0, 1, 0, 0)" xlink:href="#a"
    />
    <linearGradient id="w" x1="206.23" y1="320.96" x2="255.03" y2="320.96" gradientTransform="matrix(1, 0, 0, 1, 0, 0)" xlink:href="#a"
    />
    <linearGradient id="x" x1="252.19" y1="313.12" x2="258.91" y2="313.12" gradientTransform="matrix(1, 0, 0, 1, 0, 0)" xlink:href="#a"
    />
    <linearGradient id="y" x1="251.2" y1="313.21" x2="260.74" y2="313.21" gradientTransform="matrix(1, 0, 0, 1, 0, 0)" xlink:href="#a"
    />
  </defs>
  <title>Asset 2</title>
  <rect class="a" x="1710.36" y="656.76" width="36.79" height="29.38" rx="6.2" ry="6.2" transform="translate(-83.62 278.08) rotate(-8.98)"
  />
  <path class="b" d="M1734.75,665.51a6.85,6.85,0,1,0-10.08,7.06l.51,3.24a4.2,4.2,0,0,0,4.81,3.5h0a4.19,4.19,0,0,0,3.5-4.81l-.51-3.24A6.86,6.86,0,0,0,1734.75,665.51Z"
  />
  <path class="c" d="M1735.71,656l-1.22-7.75a4.06,4.06,0,0,0-4.64-3.37l-10.33,1.63a4.06,4.06,0,0,0-3.38,4.64l1.23,7.75" />
  <path class="d" d="M1117.38,562.08a44.54,44.54,0,0,1,43.75,12" />
  <path class="e" d="M1119.72,571.05a35.29,35.29,0,0,1,34.81,9.55" />
  <path class="f" d="M1122.07,580a26.15,26.15,0,0,1,25.89,7.11" />
  <path class="g" d="M1137.9,596.56a6.23,6.23,0,1,1-4.36-7.65A6.23,6.23,0,0,1,1137.9,596.56Z" />
  <path class="h" d="M35.06,512.21,30.6,526c-2.67,8.2-19.69,10-19.69,10s-12.7-11.48-10-19.68l4.46-13.78A16,16,0,0,0,18.78,495l9.84,3.2A16,16,0,0,0,35.06,512.21Z"
  />
  <path class="i" d="M11.77,533.4c-3.42-3.35-10.14-11.3-8.53-16.28l4-12.16a18.71,18.71,0,0,0,12.58-7L26.09,500a18.77,18.77,0,0,0,6.07,13.07l-3.94,12.16C26.6,530.21,16.5,532.7,11.77,533.4Z"
  />
  <circle class="j" cx="423.25" cy="723.68" r="15.75" />
  <polyline class="k" points="423.25 712.79 423.25 723.68 430.26 724.38" />
  <circle class="l" cx="423.25" cy="723.68" r="13.5" />
  <polygon class="m" points="1685.8 0.54 1698.75 4.76 1685 13.22 1699.97 18.11 1670.91 30.76 1685.17 19.51 1672.22 15.28 1686.63 6.51 1678.74 3.8 1685.8 0.54"
  />
  <rect class="n" x="1549.8" y="269.94" width="32.47" height="19.98" rx="6.31" ry="6.31" transform="translate(318.53 -707.26) rotate(28.22)"
  />
  <rect class="o" x="1557.42" y="265.07" width="17.23" height="29.72" rx="4.31" ry="4.31" transform="translate(2553.22 -967.58) rotate(118.22)"
  />
  <line class="p" x1="1555.07" y1="287.87" x2="1565.47" y2="293.45" />
  <line class="q" x1="1215.17" y1="85.25" x2="1215.17" y2="104.31" />
  <line class="r" x1="1224.47" y1="94.55" x2="1205.41" y2="94.55" />
  <line class="s" x1="1210.29" y1="89.66" x2="1220.06" y2="99.43" />
  <line class="s" x1="1220.06" y1="89.66" x2="1210.29" y2="99.43" />
  <path class="t" d="M240.48,302.57c0,6.34-11.49,19.77-11.49,19.77s-11.49-13.43-11.49-19.77a11.49,11.49,0,1,1,23,0Z" />
  <circle class="u" cx="228.99" cy="300.64" r="6.47" />
  <path class="v" d="M206.43,323.66c3.54-1.54,7.56-1.59,11.39-1.07s7.56,1.56,11.38,2.13a45.18,45.18,0,0,0,8.13.47,26.26,26.26,0,0,0,9.93-2,14.4,14.4,0,0,0,7.31-6.78"
  />
  <line class="w" x1="252.6" y1="308.62" x2="258.49" y2="317.62" />
  <line class="x" x1="260.47" y1="310.27" x2="251.47" y2="316.15" />
  <style>
    polygon.m {
      animation: filledyellow 2s infinite; }

    circle.u, path.t {
      animation: up 2s infinite; }

    path.d, path.e, path.f {
      animation: fade 2s infinite; }

    circle.j, circle.l, polyline.k {
      animation: shake 2s infinite; }

    rect.a, path.b, path.c {
      animation: shake 2s infinite; }

    path.h, path.i {
      animation: fade 2s infinite; }

    rect.n {
      animation: filledwhite 2s infinite; }

    @keyframes filledyellow {
      from {
        fill: none; }
      to {
        fill: yellow; } }
    @keyframes filledwhite {
      from {
        fill: none; }
      to {
        fill: white; } }
    @keyframes shake {
      10%, 90% {
        transform: translate3d(-1px, 0, 0); }
      20%, 80% {
        transform: translate3d(2px, 0, 0); }
      30%, 50%, 70% {
        transform: translate3d(-4px, 0, 0); }
      40%, 60% {
        transform: translate3d(4px, 0, 0); } }
    @keyframes up {
      0% {
        transform: translateY(0); }
      20% {
        transform: translateY(0); }
      40% {
        transform: translateY(-20px); }
      100% {
        transform: translateY(0); } }
    @keyframes fade {
      from {
        opacity: 0; }
      to {
        opacity: 1; } }
    @keyframes rotate {
      from {
        transform: rotate(0deg); }
      to {
        transform: rotate(360deg); } }
  </style>
</svg>