<svg xmlns="http://www.w3.org/2000/svg" xmlns:xlink="http://www.w3.org/1999/xlink" viewBox="0 0 1920 1080"><defs><style>.cls-1{fill:url(#linear-gradient);}.cls-2{fill:url(#linear-gradient-2);}.cls-3{fill:url(#linear-gradient-3);}.cls-10,.cls-11,.cls-12,.cls-13,.cls-4,.cls-5,.cls-6,.cls-7,.cls-8,.cls-9{opacity:0.5;}.cls-4{fill:url(#linear-gradient-4);}.cls-5{fill:url(#linear-gradient-5);}.cls-6{fill:url(#linear-gradient-6);}.cls-7{fill:url(#linear-gradient-7);}.cls-8{fill:url(#linear-gradient-8);}.cls-9{fill:url(#linear-gradient-9);}.cls-10{fill:url(#linear-gradient-10);}.cls-11{fill:url(#linear-gradient-11);}.cls-12{fill:url(#linear-gradient-12);}.cls-13{fill:url(#linear-gradient-13);}</style><linearGradient id="linear-gradient" x1="715.96" y1="474.25" x2="920.38" y2="969.77" gradientUnits="userSpaceOnUse"><stop offset="0" stop-color="#fff"/><stop offset="0.81" stop-color="#fff0f0"/><stop offset="1" stop-color="#ffeded"/></linearGradient><linearGradient id="linear-gradient-2" x1="1350.23" y1="423.6" x2="1023.32" y2="1693.08" gradientUnits="userSpaceOnUse"><stop offset="0" stop-color="#fff"/><stop offset="1" stop-color="#ffeded"/></linearGradient><linearGradient id="linear-gradient-3" x1="554.08" y1="1671.66" x2="740.96" y2="993.35" xlink:href="#linear-gradient-2"/><linearGradient id="linear-gradient-4" x1="1656.32" y1="82.63" x2="1821.57" y2="82.63" gradientUnits="userSpaceOnUse"><stop offset="0.18" stop-color="#a658a3"/><stop offset="1" stop-color="#654a83" stop-opacity="0"/></linearGradient><linearGradient id="linear-gradient-5" x1="127.63" y1="223.09" x2="177.75" y2="223.09" xlink:href="#linear-gradient-4"/><linearGradient id="linear-gradient-6" x1="781.85" y1="151.84" x2="872.76" y2="151.84" xlink:href="#linear-gradient-4"/><linearGradient id="linear-gradient-7" x1="93.85" y1="571.84" x2="184.76" y2="571.84" xlink:href="#linear-gradient-4"/><linearGradient id="linear-gradient-8" x1="310.76" y1="247.58" x2="353.88" y2="247.58" xlink:href="#linear-gradient-4"/><linearGradient id="linear-gradient-9" x1="1181.32" y1="178.37" x2="1224.45" y2="178.37" xlink:href="#linear-gradient-4"/><linearGradient id="linear-gradient-10" x1="766.16" y1="332.09" x2="809.28" y2="332.09" xlink:href="#linear-gradient-4"/><linearGradient id="linear-gradient-11" x1="938.16" y1="576.37" x2="981.28" y2="576.37" xlink:href="#linear-gradient-4"/><linearGradient id="linear-gradient-12" x1="985.75" y1="216.27" x2="1128.18" y2="216.27" xlink:href="#linear-gradient-4"/><linearGradient id="linear-gradient-13" x1="1016.69" y1="216.27" x2="1097.24" y2="216.27" xlink:href="#linear-gradient-4"/></defs><title>Section 1</title><g id="Background"><path class="cls-1" d="M2089.63,1080.09H-157.84V758.4H730a2073.51,2073.51,0,0,1,608.06,91.21l751.53,230.48Z"/><path class="cls-2" d="M2089.63,869.19s-534.72-152.79-1065,29.06-751.88,181.85-751.88,181.85H2089.63Z"/><path class="cls-3" d="M-157.84,836.5s527.46-72.65,1065,61.75c543.89,136,751.88,181.85,751.88,181.85H-157.84Z"/></g><g id="Layer_1" data-name="Layer 1"><path id="_Path_" data-name="&lt;Path&gt;" class="cls-4" d="M1821.57,104.94a30,30,0,0,0-51.76-20.69,40.84,40.84,0,0,0-80.46,8.57,22.09,22.09,0,0,0-33,19.19h164.41A30.08,30.08,0,0,0,1821.57,104.94Z"/><path id="_Path_2" data-name="&lt;Path&gt;" class="cls-5" d="M177.75,229.86a9.1,9.1,0,0,0-15.7-6.28,12.39,12.39,0,0,0-24.4,2.6,6.7,6.7,0,0,0-10,5.82h49.87A9.13,9.13,0,0,0,177.75,229.86Z"/><path id="_Path_3" data-name="&lt;Path&gt;" class="cls-6" d="M781.85,164.11a16.51,16.51,0,0,1,28.47-11.38,22.47,22.47,0,0,1,44.26,4.71A12.15,12.15,0,0,1,872.76,168H782.32A16.55,16.55,0,0,1,781.85,164.11Z"/><path id="_Path_4" data-name="&lt;Path&gt;" class="cls-7" d="M93.85,584.11a16.51,16.51,0,0,1,28.47-11.38,22.47,22.47,0,0,1,44.26,4.71A12.15,12.15,0,0,1,184.76,588H94.32A16.55,16.55,0,0,1,93.85,584.11Z"/><path id="_Path_5" data-name="&lt;Path&gt;" class="cls-8" d="M353.88,257.21a21.7,21.7,0,0,0-43.12,0Z"/><path id="_Path_6" data-name="&lt;Path&gt;" class="cls-9" d="M1224.45,188a21.7,21.7,0,0,0-43.12,0Z"/><path id="_Path_7" data-name="&lt;Path&gt;" class="cls-10" d="M809.28,341.72a21.7,21.7,0,0,0-43.12,0Z"/><path id="_Path_8" data-name="&lt;Path&gt;" class="cls-11" d="M981.28,586a21.7,21.7,0,0,0-43.12,0Z"/><circle id="_Path_9" data-name="&lt;Path&gt;" class="cls-12" cx="1056.96" cy="216.27" r="71.21"/><circle id="_Path_10" data-name="&lt;Path&gt;" class="cls-13" cx="1056.96" cy="216.27" r="40.28"/></g>
<style>
	.cls-5, .cls-9, .cls-10, .cls-4{
		animation: slideA 5s linear infinite;
	}
	.cls-7, .cls-8, .cls-6, .cls-11{
		animation: slideB 5s infinite;
	}
	@keyframes slideA {
		0% {
			transform: translateX(0px);
		}
		50% {
			transform: translateX(-20px);
		}
		100% {
			transform: translateX(0px);
		}
	}
	@keyframes slideB {
		0% {
			transform: translateX(0px);
		}
		50% {
			transform: translateX(20px);
		}
		100% {
			transform: translateX(0px);
		}
	}
</style>
</svg>