<svg id="tp" xmlns="http://www.w3.org/2000/svg" xmlns:xlink="http://www.w3.org/1999/xlink" viewBox="0 0 1448.03 1106.96">
  <defs>
    <style>
      .cls-1,
      .cls-15,
      .cls-2,
      .cls-5 {
        fill: none;
      }

      .cls-2 {
        stroke: #cfdbcf;
      }

      .cls-15,
      .cls-2,
      .cls-5 {
        stroke-miterlimit: 10;
      }

      .cls-3 {
        fill: url(#linear-gradient);
      }

      .cls-4 {
        fill: url(#linear-gradient-2);
      }

      .cls-15,
      .cls-5 {
        stroke: #d585ff;
      }

      .cls-6 {
        fill: #fee;
      }

      .cls-7 {
        clip-path: url(#clip-path);
      }

      .cls-8 {
        fill: #ffced6;
      }

      .cls-9 {
        fill: #ffe7e7;
      }

      .cls-10 {
        fill: #cb7efc;
      }

      .cls-11 {
        fill: #d585ff;
      }

      .cls-12 {
        fill: #f9e1de;
      }

      .cls-13 {
        fill: #ffb4c0;
      }

      .cls-14 {
        clip-path: url(#clip-path-2);
      }

      .cls-15 {
        stroke-width: 3px;
      }

      .cls-16 {
        fill: url(#linear-gradient-3);
      }

      .cls-17 {
        fill: #864fca;
      }

      .cls-18 {
        fill: #fef1ef;
      }

      .cls-19 {
        fill: #f9c5cf;
      }

      .cls-20 {
        fill: #1f747b;
      }

      .cls-21 {
        fill: #ff6900;
      }

      .cls-22 {
        fill: #d15a09;
      }

      .cls-23 {
        clip-path: url(#clip-path-3);
      }

      .cls-24 {
        fill: #fff;
      }

      .cls-25 {
        clip-path: url(#clip-path-4);
      }

      .cls-26 {
        clip-path: url(#clip-path-5);
      }
    </style>
    <linearGradient id="linear-gradient" x1="1138.9" y1="500.82" x2="1190.35" y2="500.82" gradientUnits="userSpaceOnUse">
      <stop offset="0" stop-color="#ffb4c0" />
      <stop offset="0.25" stop-color="#ffbec8" />
      <stop offset="0.68" stop-color="#fed9dc" />
      <stop offset="1" stop-color="#fef1ef" />
    </linearGradient>
    <linearGradient id="linear-gradient-2" x1="1169.69" y1="511.69" x2="1199.42" y2="511.69" xlink:href="#linear-gradient"
    />
    <clipPath id="clip-path">
      <polygon class="cls-1" points="726.03 18.63 726.03 827.01 0.65 827.01 0.65 350.62 726.03 18.63" />
    </clipPath>
    <clipPath id="clip-path-2">
      <path class="cls-1" d="M823,86.81S863.51,59.71,987.5,63.1s152.4,74.52,152.4,74.52l42.43,666.47h-367Z" />
    </clipPath>
    <linearGradient id="linear-gradient-3" x1="763.78" y1="441.54" x2="555.44" y2="338.22" xlink:href="#linear-gradient"
    />
    <clipPath id="clip-path-3">
      <polygon class="cls-1" points="91.29 398.79 53.98 401.65 58.6 319.58 96.55 305.59 91.29 398.79" />
    </clipPath>
    <clipPath id="clip-path-4">
      <path class="cls-1" d="M725.61,227.4,753.56,216V115s4.23-30.77,50.81-24,150.33,89.35,250.27,246S1172.36,605.54,1186.75,714s12.71,114.33,12.71,114.33H726Z"
      />
    </clipPath>
    <clipPath id="clip-path-5">
      <polygon class="cls-1" points="1417.54 674.57 1417.54 817.46 1199.42 649.43 1195.23 373.96 1195.65 373.91 1417.54 674.57"
      />
    </clipPath>
  </defs>
  <title>Asset 4</title>
  <g id="Layer_2" data-name="Layer 2">
    <g id="Layer_1-2" data-name="Layer 1">
      <line class="cls-2" x1="1447.73" y1="606.54" x2="1445.69" y2="604.95" />
      <polygon class="cls-3" points="1190.35 650.6 1169.79 636.11 1138.9 351.05 1169.69 376 1190.35 650.6" />
      <polygon class="cls-4" points="1199.42 649.43 1189.69 641.95 1169.69 376 1170.24 376.45 1195.23 373.96 1199.42 649.43"
      />
      <polyline class="cls-5" points="1138.48 366.71 1171.65 402.12 1195.6 398.05" />
      <polyline class="cls-5" points="1143.99 395.51 1173.96 430.92 1195.6 426.85" />
      <polyline class="cls-5" points="1149.07 426 1176.09 461.41 1195.6 457.34" />
      <polyline class="cls-5" points="1150.76 456.06 1178.31 491.05 1198.19 487.03" />
      <polyline class="cls-5" points="1197.34 517.04 1180.67 521.99 1150.34 491.21" />
      <polygon class="cls-6" points="726.03 18.63 726.03 827.01 0.65 827.01 0.65 350.62 726.03 18.63" />
      <g class="cls-7">
        <line class="cls-5" x1="753.56" y1="225.7" x2="0.23" y2="542.45" />
        <line class="cls-5" x1="753.56" y1="256.19" x2="0.23" y2="572.94" />
        <line class="cls-5" x1="753.56" y1="284.99" x2="0.23" y2="601.73" />
        <line class="cls-5" x1="753.56" y1="314.63" x2="0.23" y2="631.38" />
        <line class="cls-5" x1="753.56" y1="345.12" x2="0.23" y2="661.86" />
        <line class="cls-5" x1="753.56" y1="374.76" x2="0.23" y2="691.51" />
        <line class="cls-5" x1="753.56" y1="404.4" x2="0.23" y2="721.15" />
        <line class="cls-5" x1="753.56" y1="434.89" x2="0.23" y2="751.64" />
        <line class="cls-5" x1="753.56" y1="465.38" x2="0.23" y2="782.13" />
        <line class="cls-5" x1="753.56" y1="497.56" x2="0.23" y2="814.31" />
        <line class="cls-5" x1="753.56" y1="529.75" x2="0.23" y2="846.49" />
        <line class="cls-5" x1="753.56" y1="562.78" x2="0.23" y2="879.52" />
        <line class="cls-5" x1="753.56" y1="595.81" x2="0.23" y2="912.55" />
        <line class="cls-5" x1="753.56" y1="628.84" x2="0.23" y2="945.58" />
        <line class="cls-5" x1="753.56" y1="661.86" x2="0.23" y2="978.61" />
        <line class="cls-5" x1="753.56" y1="695.74" x2="0.23" y2="1012.49" />
        <line class="cls-5" x1="753.56" y1="727.92" x2="0.23" y2="1044.67" />
        <line class="cls-5" x1="753.56" y1="762.65" x2="0.23" y2="1079.39" />
        <line class="cls-5" x1="753.56" y1="789.75" x2="0.23" y2="1106.5" />
      </g>
      <line class="cls-5" x1="690.46" y1="253.23" x2="690.46" y2="827.44" />
      <line class="cls-5" x1="658.28" y1="269.74" x2="658.28" y2="827.86" />
      <line class="cls-5" x1="626.94" y1="284.14" x2="626.94" y2="827.86" />
      <line class="cls-5" x1="598.15" y1="296.84" x2="598.15" y2="827.86" />
      <line class="cls-5" x1="571.89" y1="313.78" x2="571.89" y2="827.48" />
      <line class="cls-5" x1="539.71" y1="328.56" x2="539.71" y2="827.86" />
      <line class="cls-5" x1="508.38" y1="341.44" x2="508.38" y2="827.86" />
      <line class="cls-5" x1="479.58" y1="352.8" x2="479.58" y2="827.86" />
      <line class="cls-5" x1="450.79" y1="363.75" x2="450.79" y2="827.52" />
      <line class="cls-5" x1="418.6" y1="377.09" x2="418.6" y2="827.86" />
      <line class="cls-5" x1="387.27" y1="388.72" x2="387.27" y2="827.86" />
      <line class="cls-5" x1="358.47" y1="398.98" x2="358.47" y2="827.86" />
      <line class="cls-5" x1="332.22" y1="412.66" x2="332.22" y2="827.55" />
      <line class="cls-5" x1="300.03" y1="424.59" x2="300.03" y2="827.86" />
      <line class="cls-5" x1="268.7" y1="434.99" x2="268.7" y2="827.86" />
      <line class="cls-5" x1="239.9" y1="444.17" x2="239.9" y2="827.86" />
      <line class="cls-5" x1="210.26" y1="456.06" x2="210.26" y2="827.86" />
      <line class="cls-5" x1="178.93" y1="465.66" x2="178.93" y2="827.86" />
      <line class="cls-5" x1="150.13" y1="474.12" x2="150.13" y2="827.86" />
      <line class="cls-5" x1="123.88" y1="485.4" x2="123.88" y2="827.61" />
      <line class="cls-5" x1="91.69" y1="495.24" x2="91.69" y2="827.86" />
      <line class="cls-5" x1="60.36" y1="503.82" x2="60.36" y2="827.86" />
      <line class="cls-5" x1="31.56" y1="511.4" x2="31.56" y2="827.86" />
      <polygon class="cls-8" points="636.68 373.91 619.64 827.86 617.63 827.86 634.33 374.68 636.68 373.91" />
      <polygon class="cls-8" points="680.72 358.67 663.68 827.86 661.67 827.86 678.37 359.46 680.72 358.67" />
      <polygon class="cls-8" points="595.18 387.46 578.14 827.86 576.13 827.86 592.83 388.2 595.18 387.46" />
      <polygon class="cls-8" points="557.07 387.46 540.03 827.86 538.02 827.86 554.72 388.2 557.07 387.46" />
      <polygon class="cls-8" points="515.57 423.03 498.53 827.86 496.52 827.86 513.22 423.71 515.57 423.03" />
      <polygon class="cls-8" points="475.77 429.81 458.73 827.86 456.71 827.86 473.42 430.48 475.77 429.81" />
      <polygon class="cls-8" points="441.05 440.82 424.01 827.86 421.99 827.86 438.69 441.47 441.05 440.82" />
      <polygon class="cls-8" points="369.9 474.7 352.87 827.86 350.85 827.86 367.55 475.29 369.9 474.7" />
      <polygon class="cls-8" points="336.03 487.4 318.99 827.86 316.97 827.86 333.67 487.97 336.03 487.4" />
      <polygon class="cls-8" points="305.54 499.26 288.5 827.86 286.48 827.86 303.19 499.81 305.54 499.26" />
      <polygon class="cls-8" points="242.87 529.75 225.83 827.86 223.81 827.86 240.51 530.25 242.87 529.75" />
      <polygon class="cls-8" points="125.15 567.01 108.11 827.86 106.09 827.86 122.79 567.45 125.15 567.01" />
      <polygon class="cls-8" points="209.84 529.75 192.8 827.86 190.78 827.86 207.48 530.25 209.84 529.75" />
      <polygon class="cls-8" points="183.58 522.12 166.54 827.86 164.53 827.86 181.23 522.64 183.58 522.12" />
      <polygon class="cls-8" points="407.17 357.82 390.13 827.86 388.11 827.86 404.81 358.61 407.17 357.82" />
      <polygon class="cls-8" points="720.53 223.16 703.49 827.86 701.47 827.86 718.17 224.18 720.53 223.16" />
      <polygon class="cls-8" points="276.74 414.56 259.7 827.86 257.69 827.86 274.39 415.26 276.74 414.56" />
      <polygon class="cls-8" points="158.18 462.84 141.14 827.86 139.12 827.86 155.82 463.45 158.18 462.84" />
      <polygon class="cls-9" points="634.33 374.68 617.63 827.86 606.62 827.86 623.66 378.15 634.33 374.68" />
      <polygon class="cls-9" points="678.37 359.46 661.67 827.86 650.66 827.86 667.7 363.05 678.37 359.46" />
      <polygon class="cls-9" points="592.83 388.2 576.13 827.86 565.12 827.86 582.16 391.57 592.83 388.2" />
      <polygon class="cls-9" points="554.72 388.2 538.02 827.86 527.01 827.86 544.05 391.57 554.72 388.2" />
      <polygon class="cls-9" points="513.22 423.71 496.52 827.86 485.51 827.86 502.55 426.81 513.22 423.71" />
      <polygon class="cls-9" points="473.42 430.48 456.71 827.86 445.7 827.86 462.74 433.52 473.42 430.48" />
      <polygon class="cls-9" points="438.69 441.47 421.99 827.86 410.98 827.86 428.02 444.43 438.69 441.47" />
      <polygon class="cls-9" points="366.99 475.29 350.28 827.86 339.27 827.86 356.31 477.99 366.99 475.29" />
      <polygon class="cls-9" points="333.11 487.97 316.41 827.86 305.4 827.86 322.44 490.58 333.11 487.97" />
      <polygon class="cls-9" points="302.62 499.81 285.92 827.86 274.91 827.86 291.95 502.32 302.62 499.81" />
      <polygon class="cls-9" points="239.95 530.25 223.25 827.86 212.24 827.86 229.28 532.53 239.95 530.25" />
      <polygon class="cls-9" points="122.23 567.45 105.53 827.86 94.52 827.86 111.56 569.44 122.23 567.45" />
      <polygon class="cls-9" points="206.92 530.25 190.22 827.86 179.21 827.86 196.25 532.53 206.92 530.25" />
      <polygon class="cls-9" points="180.66 522.64 163.96 827.86 152.95 827.86 169.99 524.98 180.66 522.64" />
      <polygon class="cls-9" points="404.81 358.61 388.11 827.86 377.1 827.86 394.14 362.21 404.81 358.61" />
      <polygon class="cls-9" points="718.17 224.18 701.47 827.86 690.46 827.86 707.5 228.8 718.17 224.18" />
      <polygon class="cls-9" points="273.82 415.26 257.12 827.86 246.11 827.86 263.15 418.42 273.82 415.26" />
      <polygon class="cls-9" points="155.26 463.45 138.56 827.86 127.55 827.86 144.59 466.25 155.26 463.45" />
      <path class="cls-10" d="M386.84,509.42l-.23,5.14C377.81,518,342,529.75,342,529.75l-5,87.17-2.58.91,4.24-90.62Z" />
      <path class="cls-11" d="M386.61,514.56l-4,86.33-45.7,16,5-87.17S377.81,518,386.61,514.56Z" />
      <path class="cls-10" d="M319.94,533.13l-.24,5.14c-8.8,3.46-44.65,15.19-44.65,15.19L270,640.63l-2.57.91,4.23-90.62Z"
      />
      <path class="cls-11" d="M319.7,538.27l-4,86.33-45.7,16,5.05-87.17S310.9,541.73,319.7,538.27Z" />
      <polygon class="cls-12" points="1417.48 827.86 1190.57 827.86 1169.79 636.11 1190.35 650.6 1190.37 650.98 1417.48 827.86"
      />
      <path class="cls-13" d="M855.19,166.42s87.23-19.48,198.18,11c0,0,50,13.55,77.06,27.1l32.19,408.21H870.43Z" />
      <g class="cls-14">
        <path class="cls-15" d="M825.62,86.81s68.19-27.1,157.5-22.87S1108.93,79.19,1155,108c0,0,21.13,14.4,35.53,29.64" />
        <path class="cls-5" d="M825.62,96.12S893.81,69,983.12,73.26s125.81,15.24,171.91,44c0,0,21.13,14.4,35.53,29.64" />
        <path class="cls-5" d="M825.62,104.59s68.19-27.1,157.5-22.86S1108.93,97,1155,125.77c0,0,21.13,14.39,35.53,29.64"
        />
        <path class="cls-5" d="M825.62,115.6s68.19-27.1,157.5-22.86,125.81,15.24,171.91,44c0,0,21.13,14.39,35.53,29.64" />
        <path class="cls-5" d="M825.62,124.07s68.19-27.1,157.5-22.86,125.81,15.24,171.91,44c0,0,21.13,14.39,35.53,29.64"
        />
        <path class="cls-5" d="M825.62,133.39s68.19-27.1,157.5-22.87,125.81,15.25,171.91,44c0,0,21.13,14.4,35.53,29.64" />
        <path class="cls-5" d="M825.62,141.86s68.19-27.1,157.5-22.87,125.81,15.25,171.91,44c0,0,21.13,14.4,35.53,29.64" />
        <path class="cls-5" d="M825.62,152.87s68.19-27.1,157.5-22.87,125.81,15.25,171.91,44c0,0,21.13,14.4,35.53,29.64" />
        <path class="cls-5" d="M825.62,161.34s68.19-27.1,157.5-22.87,125.81,15.25,171.91,44c0,0,21.13,14.4,35.53,29.64" />
        <path class="cls-5" d="M825.62,170.65s68.19-27.1,157.5-22.86,125.81,15.24,171.91,44c0,0,21.13,14.39,35.53,29.64"
        />
        <path class="cls-5" d="M825.62,179.12s68.19-27.1,157.5-22.86,125.81,15.24,171.91,44c0,0,21.13,14.39,35.53,29.64"
        />
        <path class="cls-5" d="M825.62,190.13s68.19-27.1,157.5-22.86,125.81,15.24,171.91,44c0,0,21.13,14.39,35.53,29.64"
        />
        <path class="cls-5" d="M825.62,198.6s68.19-27.1,157.5-22.86,125.81,15.24,171.91,44c0,0,21.13,14.4,35.53,29.65" />
        <path class="cls-5" d="M825.62,207.92s68.19-27.1,157.5-22.87,125.81,15.25,171.91,44c0,0,21.13,14.4,35.53,29.64" />
        <path class="cls-5" d="M825.62,216.39s68.19-27.1,157.5-22.87,125.81,15.24,171.91,44c0,0,21.13,14.4,35.53,29.64" />
        <path class="cls-5" d="M825.62,227.4s68.19-27.1,157.5-22.87,125.81,15.24,171.91,44c0,0,21.13,14.4,35.53,29.64" />
        <path class="cls-5" d="M825.62,235.87s68.19-27.11,157.5-22.87,125.81,15.24,171.91,44c0,0,21.13,14.4,35.53,29.64"
        />
        <path class="cls-5" d="M825.62,245.18s68.19-27.1,157.5-22.86,125.81,15.24,171.91,44c0,0,21.13,14.39,35.53,29.64"
        />
        <path class="cls-5" d="M825.62,253.65s68.19-27.1,157.5-22.87,125.81,15.25,171.91,44c0,0,21.13,14.4,35.53,29.65" />
        <path class="cls-5" d="M825.62,264.66s68.19-27.1,157.5-22.87,125.81,15.25,171.91,44c0,0,21.13,14.4,35.53,29.65" />
        <path class="cls-5" d="M825.62,273.13s68.19-27.1,157.5-22.87,125.81,15.25,171.91,44c0,0,21.13,14.4,35.53,29.65" />
        <path class="cls-5" d="M825.62,282.45s68.19-27.1,157.5-22.87,125.81,15.24,171.91,44c0,0,21.13,14.4,35.53,29.64" />
        <path class="cls-5" d="M825.62,290.92s68.19-27.11,157.5-22.87,125.81,15.24,171.91,44c0,0,21.13,14.4,35.53,29.64"
        />
        <path class="cls-5" d="M825.62,301.93s68.19-27.11,157.5-22.87,125.81,15.24,171.91,44c0,0,21.13,14.4,35.53,29.64"
        />
        <path class="cls-5" d="M825.62,310.39s68.19-27.1,157.5-22.86,125.81,15.24,171.91,44c0,0,21.13,14.4,35.53,29.64" />
        <path class="cls-5" d="M825.62,319.71s68.19-27.1,157.5-22.87,125.81,15.25,171.91,44c0,0,21.13,14.4,35.53,29.65" />
        <path class="cls-5" d="M825.62,328.18s68.19-27.1,157.5-22.87,125.81,15.25,171.91,44c0,0,21.13,14.4,35.53,29.64" />
        <path class="cls-5" d="M825.62,339.19s68.19-27.1,157.5-22.87,125.81,15.25,171.91,44c0,0,21.13,14.4,35.53,29.64" />
        <path class="cls-5" d="M825.62,347.66s68.19-27.1,157.5-22.87,125.81,15.25,171.91,44c0,0,21.13,14.4,35.53,29.64" />
        <path class="cls-5" d="M825.62,357s68.19-27.11,157.5-22.87,125.81,15.24,171.91,44c0,0,21.13,14.4,35.53,29.64" />
        <path class="cls-5" d="M825.62,365.44s68.19-27.1,157.5-22.86,125.81,15.24,171.91,44c0,0,21.13,14.39,35.53,29.64"
        />
        <path class="cls-5" d="M825.62,376.45s68.19-27.1,157.5-22.86,125.81,15.24,171.91,44c0,0,21.13,14.39,35.53,29.64"
        />
        <path class="cls-5" d="M825.62,384.92s68.19-27.1,157.5-22.86,125.81,15.24,171.91,44c0,0,21.13,14.39,35.53,29.64"
        />
        <path class="cls-5" d="M825.62,394.24s68.19-27.1,157.5-22.87,125.81,15.25,171.91,44c0,0,21.13,14.4,35.53,29.64" />
        <path class="cls-5" d="M825.62,402.71s68.19-27.1,157.5-22.87,125.81,15.25,171.91,44c0,0,21.13,14.4,35.53,29.64" />
        <path class="cls-5" d="M825.62,413.72s68.19-27.1,157.5-22.87,125.81,15.25,171.91,44c0,0,21.13,14.4,35.53,29.64" />
        <path class="cls-5" d="M825.62,422.19s68.19-27.1,157.5-22.87,125.81,15.25,171.91,44c0,0,21.13,14.4,35.53,29.64" />
        <path class="cls-5" d="M825.62,431.5s68.19-27.1,157.5-22.86,125.81,15.24,171.91,44c0,0,21.13,14.39,35.53,29.64" />
        <path class="cls-5" d="M825.62,440s68.19-27.1,157.5-22.86,125.81,15.24,171.91,44c0,0,21.13,14.39,35.53,29.64" />
        <path class="cls-5" d="M825.62,451s68.19-27.1,157.5-22.86,125.81,15.24,171.91,44c0,0,21.13,14.39,35.53,29.64" />
        <path class="cls-5" d="M825.62,459.45s68.19-27.1,157.5-22.86,125.81,15.24,171.91,44c0,0,21.13,14.4,35.53,29.65" />
        <path class="cls-5" d="M825.62,468.77s68.19-27.1,157.5-22.87,125.81,15.25,171.91,44c0,0,21.13,14.4,35.53,29.64" />
        <path class="cls-5" d="M825.62,477.24s68.19-27.1,157.5-22.87,125.81,15.24,171.91,44c0,0,21.13,14.4,35.53,29.64" />
        <path class="cls-5" d="M825.62,488.25s68.19-27.1,157.5-22.87,125.81,15.24,171.91,44c0,0,21.13,14.4,35.53,29.64" />
        <path class="cls-5" d="M825.62,496.72s68.19-27.11,157.5-22.87,125.81,15.24,171.91,44c0,0,21.13,14.4,35.53,29.64"
        />
        <path class="cls-5" d="M825.62,506s68.19-27.1,157.5-22.86,125.81,15.24,171.91,44c0,0,21.13,14.39,35.53,29.64" />
        <path class="cls-5" d="M825.62,514.5s68.19-27.1,157.5-22.87,125.81,15.25,171.91,44c0,0,21.13,14.4,35.53,29.65" />
        <path class="cls-5" d="M825.62,525.51s68.19-27.1,157.5-22.87,125.81,15.25,171.91,44c0,0,21.13,14.4,35.53,29.65" />
        <path class="cls-5" d="M825.62,534s68.19-27.1,157.5-22.87,125.81,15.25,171.91,44c0,0,21.13,14.4,35.53,29.65" />
        <path class="cls-5" d="M825.62,543.3s68.19-27.1,157.5-22.87,125.81,15.24,171.91,44c0,0,21.13,14.4,35.53,29.64" />
        <path class="cls-5" d="M825.62,551.77s68.19-27.11,157.5-22.87,125.81,15.24,171.91,44c0,0,21.13,14.4,35.53,29.64"
        />
        <path class="cls-5" d="M825.62,562.78s68.19-27.11,157.5-22.87,125.81,15.24,171.91,44c0,0,21.13,14.4,35.53,29.64"
        />
        <path class="cls-5" d="M825.62,571.24s68.19-27.1,157.5-22.86,125.81,15.24,171.91,44c0,0,21.13,14.4,35.53,29.64" />
        <path class="cls-5" d="M825.62,580.56s68.19-27.1,157.5-22.87,125.81,15.25,171.91,44c0,0,21.13,14.4,35.53,29.65" />
        <path class="cls-5" d="M825.62,589s68.19-27.1,157.5-22.87,125.81,15.25,171.91,44c0,0,21.13,14.4,35.53,29.64" />
        <path class="cls-5" d="M825.62,600s68.19-27.1,157.5-22.87,125.81,15.25,171.91,44c0,0,21.13,14.4,35.53,29.64" />
        <path class="cls-5" d="M825.62,608.51s68.19-27.1,157.5-22.87,125.81,15.25,171.91,44c0,0,21.13,14.4,35.53,29.64" />
        <path class="cls-5" d="M825.62,617.83s68.19-27.11,157.5-22.87S1108.93,610.2,1155,639c0,0,21.13,14.4,35.53,29.64"
        />
        <path class="cls-5" d="M825.62,626.29s68.19-27.1,157.5-22.86,125.81,15.24,171.91,44c0,0,21.13,14.39,35.53,29.64"
        />
        <path class="cls-5" d="M825.62,637.3s68.19-27.1,157.5-22.86,125.81,15.24,171.91,44c0,0,21.13,14.39,35.53,29.64" />
        <path class="cls-5" d="M825.62,645.77s68.19-27.1,157.5-22.86,125.81,15.24,171.91,44c0,0,21.13,14.39,35.53,29.64"
        />
        <path class="cls-5" d="M825.62,655.09s68.19-27.1,157.5-22.87,125.81,15.25,171.91,44c0,0,21.13,14.4,35.53,29.64" />
        <path class="cls-5" d="M825.62,663.56s68.19-27.1,157.5-22.87,125.81,15.25,171.91,44c0,0,21.13,14.4,35.53,29.64" />
        <path class="cls-5" d="M825.62,674.57s68.19-27.1,157.5-22.87,125.81,15.25,171.91,44c0,0,21.13,14.4,35.53,29.64" />
        <line class="cls-15" x1="850.59" y1="78.34" x2="850.59" y2="666.95" />
        <line class="cls-15" x1="908.21" y1="67.33" x2="908.21" y2="655.09" />
        <line class="cls-15" x1="982.16" y1="63.1" x2="982.16" y2="651.7" />
        <line class="cls-15" x1="1051.31" y1="69.87" x2="1051.31" y2="657.63" />
        <line class="cls-15" x1="1112.77" y1="85.12" x2="1112.77" y2="673.72" />
        <line class="cls-15" x1="1150.23" y1="104.59" x2="1150.23" y2="693.2" />
      </g>
      <path class="cls-15" d="M828.93,86.81s39.81-27.1,161.76-23.71,149.91,74.52,149.91,74.52l41.73,666.47h-361Z" />
      <polygon class="cls-16" points="753.56 34.3 753.56 827.01 726.03 827.01 726.03 18.63 753.56 34.3" />
      <polygon class="cls-17" points="790.4 5.72 790.4 204.38 737.47 226.55 737.47 32.61 790.4 5.72" />
      <polygon class="cls-11" points="831.47 28.37 831.47 187.17 790.4 204.38 790.4 5.72 790.82 5.5 831.47 28.37" />
      <polyline class="cls-5" points="737.47 61.4 790.4 33.66 831.47 56.11" />
      <polyline class="cls-5" points="737.47 86.81 790.4 59.07 831.47 81.52" />
      <polyline class="cls-5" points="737.47 114.76 790.4 87.02 831.47 109.46" />
      <path class="cls-18" d="M725.61,227.4,753.56,216V115s4.23-30.77,50.81-24,150.33,89.35,250.27,246S1172.36,605.54,1186.75,714s12.71,114.33,12.71,114.33H726Z"
      />
      <polygon class="cls-13" points="0.23 463.26 693.85 143.98 717.56 154.99 717.56 161.76 0.23 491.21 0.23 463.26" />
      <polygon class="cls-19" points="717.56 155.14 717.56 161.76 693.85 150.75 0.23 467.5 0.23 463.08 693.85 143.98 717.56 155.14"
      />
      <polygon class="cls-8" points="717.56 20.33 717.56 155.14 693.85 143.98 0.23 463.08 0.23 346.39 686.23 0 717.56 20.33"
      />
      <polyline class="cls-5" points="0.23 381.54 685.38 34.72 717.56 49.07" />
      <polyline class="cls-5" points="0.23 410.33 685.38 63.52 717.56 77.86" />
      <polyline class="cls-5" points="0.23 437.43 685.38 90.62 717.56 104.96" />
      <polyline class="cls-5" points="0.65 456.91 685.4 117.72 717.56 131.75" />
      <path class="cls-20" d="M136.89,315.57l-.27.15v-1c0-5-1.06-7.64-2.73-6.76l-3.6,2.16v47.53c0,2.78.78,4.66,1.71,4.23l.34-.16v.81l-8,3.73v-.8l.33-.15c.89-.42,1.62-2.94,1.66-5.69V312.52l-3.48,2.08c-1.56,1.06-2.54,4.78-2.54,9.59v.93l-.26.16V311.52a3.61,3.61,0,0,0,3-.4l10.58-6.44a12,12,0,0,0,3.23-3.46Z"
      />
      <path class="cls-20" d="M157.33,297.55v.76l-.44.26c-.74.44-1.35,2.29-1.4,4.41v29.54c0,12.47-2.83,21.61-7.48,23.77-5.4,2.5-8.16-3.7-8.16-15.63V312.24c0-2.1-.59-3.28-1.29-2.86l-.4.23v-.72l7.14-4.22v.74l-.41.24c-.71.42-1.29,2.24-1.32,4.32v28.15c0,10.49,1.87,16.13,4.91,14.7s5.13-8.73,5.14-18.88v-29.8c0-2.1-.64-3.26-1.38-2.83l-.42.25v-.75Z"
      />
      <path class="cls-20" d="M181.37,283.33v.81l-.55.32c-1,.59-1.79,3.19-1.82,5.87v41.36c0,6,.34,10.06.34,10.06l-.27.12-14.41-30.6V342c0,2.58.78,4.31,1.71,3.87l.51-.24v.78l-8.3,3.87v-.77l.5-.23c.9-.42,1.64-2.85,1.66-5.43V304c0-5.71-.31-9.41-.31-9.41l.26-.16,14.13,29.76V292.8c0-2.65-.81-4.33-1.78-3.76l-.53.31v-.78Z"
      />
      <path class="cls-20" d="M192.91,276.51v.82l-.39.24c-1.09.64-2,3.45-2,6.32v49c0,12.11-3.94,21.68-8.13,22.43v-.73c2.55-4,3.53-12.26,3.53-19.76V286.57c0-2.82-.89-4.59-1.94-4l-.38.23V282Z"
      />
      <path class="cls-20" d="M220.26,260.34v.87l-.58.34c-1,.58-1.78,2.76-1.84,5.19v33.87c0,14.29-3.72,25-9.8,27.81-7,3.27-10.64-3.6-10.64-17.2V278.81c0-2.38-.76-3.67-1.68-3.13l-.52.3v-.83l9.29-5.49v.85l-.53.31c-.93.55-1.69,2.68-1.73,5.06V308c0,12,2.44,18.27,6.41,16.4,4.13-1.95,6.73-10.4,6.74-22V268.25c0-2.4-.83-3.67-1.81-3.1l-.55.33v-.86Z"
      />
      <path class="cls-20" d="M252.15,241.47v.94l-.73.43c-1.33.78-2.4,3.88-2.44,7v47.81c0,7,.45,11.59.45,11.59l-.35.17-19.16-34v35.37c0,3,1,4.9,2.27,4.32l.68-.32v.89l-11,5.12v-.88l.65-.31c1.2-.56,2.17-3.4,2.2-6.37V267.37c0-6.56-.42-10.77-.42-10.77l.35-.21,18.72,32.9V253.1c0-3.06-1.08-4.91-2.37-4.15l-.7.41v-.9Z"
      />
      <path class="cls-20" d="M286.81,258.16c-1.46.77-2.28,2.81-2.24,5.66v16.34c-2.11,7-7.59,16.26-14.5,19.46-9.5,4.42-15.64-5.83-15.64-26.88,0-20.85,6-37.49,15.89-43.35,4.73-2.81,9.41-3.22,12-1.81l.09,16.85-.37.2c-1.67-12.4-5.84-14.64-10.45-11.95-6.92,4.06-10.55,17.89-10.55,37.12,0,18.29,3.35,28.42,9.57,25.51,3.16-1.5,6.3-6.45,7.33-13.12V267.26c0-2.86-.84-4-2.24-3.28l-.69.36v-1l12.46-6.56v1Z"
      />
      <path class="cls-20" d="M318.87,268.36c1.1,3.78,2.85,4.76,4.36,4.05l.43-.2v1.05l-16,7.45v-1l.43-.2c1.26-.59,2.64-3.59,1.89-7.38l-2.41-11.57-11.21,5.63L294,279.79c-.76,4.38.57,6,1.78,5.48l.41-.19v1l-9.86,4.6v-1l.4-.19c1.29-.61,2.87-3,3.84-7.43l10.82-58.42c.34-1.75,2.23-11.7,2.35-14.75l.43-.25ZM306.8,256.62,302.08,234l-4.85,27.51Z"
      />
      <path class="cls-20" d="M368.25,172.81V174l-1.09.64c-2,1.17-3.58,5.11-3.64,8.9v58.34a128.78,128.78,0,0,0,.68,14.09l-.53.25-28.3-38.78v42.82c0,3.59,1.5,5.8,3.32,4.95l1-.46v1.08l-16,7.48V272.2l.95-.44c1.75-.82,3.18-4.37,3.21-8V208.44a119,119,0,0,0-.61-12.95l.52-.31,27.53,37.25V188.36c0-3.72-1.6-5.81-3.51-4.68l-1,.61v-1.1Z"
      />
      <path class="cls-21" d="M410.38,153.92c10.92-6.36,15.76.32,16,12.79.41,19.67-11.55,36.83-20.5,30.88v-1.05c0-.06,7.55-2.59,9.75-18a46.47,46.47,0,0,0,.4-7c-.18-9.59-3.1-14.23-8.12-11.34l-4.13,2.38v65.27c0,3.87,1.79,6.18,4,5.16l.79-.37v1.12l-18.46,8.61v-1.1l.75-.35c2.08-1,3.78-4.85,3.82-8.7v-61.6c0-3.71-1.83-5.28-3.81-4.13l-.74.43v-1.08Z"
      />
      <path class="cls-21" d="M460.67,209.32,430.51,223.4v-1l.71-.33c2-.92,3.56-4.42,3.6-7.85V160c0-3.39-1.64-5.24-3.6-4.14l-.71.4v-1l17.39-9.8v1l-.74.42c-2,1.15-3.7,4.86-3.73,8.33v57.93l7.68-3.64c6-2.81,9.88-11,11.77-22l.61-.31Z"
      />
      <path class="cls-21" d="M506.39,180.65c1.48,3.71,3.85,4.45,5.89,3.49l.58-.27V185L491.26,195v-1l.58-.27c1.71-.8,3.58-4.09,2.56-7.86l-3.26-11.52L476,181.83l-3.22,14.34c-1,4.62.78,6.12,2.41,5.36l.55-.26v1l-13.32,6.22v-1l.55-.25c1.74-.82,3.86-3.51,5.18-8.21l14.62-61.62c.46-1.84,3-12.35,3.18-15.5l.59-.33ZM490,170.44l-6.38-22.52-6.56,29Z"
      />
      <path class="cls-21" d="M557.35,141.07l-2.82,24.44-40.6,19v-1l26.5-85.51-17.68,9.87c-4.38,2.53-7.13,8.45-7.12,15.11v1.29l-.71.4v-19c1.33.12,5.55-1.14,8.6-2.88L547,89.46c3.07-1.72,7.22-4.83,8.13-6.06v1l-27.76,89.16,15.48-7.32c6.63-3.14,11.69-12.69,13.73-24.78Z"
      />
      <path class="cls-21" d="M613.88,129.46c1.93,4.12,5,4.79,7.65,3.54l.76-.35v1.24l-27.95,13v-1.19l.74-.35c2.21-1,4.62-4.9,3.31-9.12l-4.21-12.82-19.48,9.62-4.13,16.47c-1.32,5.29,1,6.86,3.08,5.89l.71-.34v1.17l-17,8v-1.15l.71-.33c2.22-1,4.93-4.23,6.61-9.63l18.74-70.88c.59-2.13,3.89-14.27,4.09-17.85l.75-.43ZM592.76,119.1l-8.2-25-8.43,33.36Z"
      />
      <polygon class="cls-22" points="109.9 301.08 103.13 392.55 59.51 414.99 51.24 410.03 91.42 389.9 97.39 301.08 109.9 301.08"
      />
      <polygon class="cls-21" points="97.39 301.08 91.42 389.9 51.24 410.03 51.04 409.91 55.7 323.1 97.2 301.08 97.39 301.08"
      />
      <g class="cls-23">
        <polygon class="cls-24" points="74 328.8 67.96 322.78 68.79 320.57 74.86 326.55 74 328.8" />
        <polygon class="cls-24" points="72.73 331.96 66.75 325.9 67.57 323.7 73.59 329.73 72.73 331.96" />
        <polygon class="cls-24" points="71.47 335.05 65.54 328.93 66.36 326.75 72.33 332.83 71.47 335.05" />
        <polygon class="cls-24" points="70.22 338.38 64.33 332.22 65.14 330.06 71.06 336.19 70.22 338.38" />
        <polygon class="cls-24" points="86.45 341.46 79.67 334.69 80.57 332.41 87.39 339.14 86.45 341.46" />
        <polygon class="cls-24" points="85.08 344.71 78.36 337.89 79.25 335.63 86.01 342.42 85.08 344.71" />
        <polygon class="cls-24" points="83.72 347.88 77.06 341.02 77.94 338.77 84.64 345.6 83.72 347.88" />
        <polygon class="cls-24" points="82.36 351.32 75.75 344.4 76.63 342.18 83.27 349.06 82.36 351.32" />
        <polygon class="cls-24" points="75.8 367.97 69.46 360.79 70.31 358.64 76.68 365.79 75.8 367.97" />
        <polygon class="cls-24" points="74.51 371.02 68.22 363.8 69.06 361.67 75.38 368.86 74.51 371.02" />
        <polygon class="cls-24" points="73.23 374 67 366.74 67.83 364.62 74.1 371.85 73.23 374" />
        <polygon class="cls-24" points="71.94 377.24 65.77 369.93 66.59 367.83 72.81 375.11 71.94 377.24" />
        <polygon class="cls-24" points="75.17 330.09 74.38 329.3 75.23 327.08 76.03 327.87 75.17 330.09" />
        <polygon class="cls-24" points="76.46 331.37 75.66 330.57 76.52 328.35 77.32 329.14 76.46 331.37" />
        <polygon class="cls-24" points="77.79 332.7 76.98 331.89 77.85 329.66 78.66 330.46 77.79 332.7" />
        <polygon class="cls-24" points="79.17 334.08 78.35 333.26 79.23 331.02 80.05 331.83 79.17 334.08" />
        <polygon class="cls-24" points="73.91 333.32 73.12 332.52 73.97 330.32 74.76 331.12 73.91 333.32" />
        <polygon class="cls-24" points="75.19 334.62 74.39 333.81 75.25 331.6 76.05 332.4 75.19 334.62" />
        <polygon class="cls-24" points="76.51 335.95 75.7 335.14 76.57 332.93 77.37 333.74 76.51 335.95" />
        <polygon class="cls-24" points="77.87 337.34 77.06 336.52 77.93 334.3 78.75 335.12 77.87 337.34" />
        <polygon class="cls-24" points="72.73 336.43 71.95 335.63 72.79 333.44 73.58 334.24 72.73 336.43" />
        <polygon class="cls-24" points="74 337.74 73.21 336.93 74.06 334.73 74.85 335.54 74 337.74" />
        <polygon class="cls-24" points="75.31 339.09 74.51 338.27 75.37 336.07 76.17 336.88 75.31 339.09" />
        <polygon class="cls-24" points="76.67 340.48 75.86 339.66 76.72 337.45 77.53 338.27 76.67 340.48" />
        <polygon class="cls-24" points="71.49 339.62 70.71 338.81 71.55 336.64 72.33 337.45 71.49 339.62" />
        <polygon class="cls-24" points="72.74 340.93 71.96 340.12 72.8 337.94 73.59 338.75 72.74 340.93" />
        <polygon class="cls-24" points="74.04 342.29 73.25 341.47 74.1 339.28 74.9 340.11 74.04 342.29" />
        <polygon class="cls-24" points="75.39 343.7 74.59 342.87 75.45 340.68 76.25 341.51 75.39 343.7" />
        <polygon class="cls-24" points="68.64 357.59 73.92 344.07 74.95 345.15 69.63 358.7 68.64 357.59" />
        <polygon class="cls-24" points="67.26 355.93 72.5 342.45 73.51 343.52 68.24 357.03 67.26 355.93" />
        <polygon class="cls-24" points="65.93 354.27 71.12 340.84 72.12 341.9 66.9 355.36 65.93 354.27" />
        <polygon class="cls-24" points="64.47 352.68 69.6 339.29 70.59 340.34 65.43 353.75 64.47 352.68" />
        <polygon class="cls-24" points="82.02 370.5 87.79 356.52 88.92 357.7 83.11 371.72 82.02 370.5" />
        <polygon class="cls-24" points="80.5 368.69 86.22 354.75 87.34 355.92 81.59 369.89 80.5 368.69" />
        <polygon class="cls-24" points="79.04 366.89 84.7 353 85.81 354.15 80.11 368.08 79.04 366.89" />
        <polygon class="cls-24" points="77.43 365.14 83.03 351.3 84.12 352.45 78.48 366.32 77.43 365.14" />
        <polygon class="cls-24" points="93.13 343.82 99.28 328.93 100.5 330.04 94.3 344.98 93.13 343.82" />
        <polygon class="cls-24" points="91.5 342.1 97.59 327.26 98.8 328.36 92.66 343.24 91.5 342.1" />
        <polygon class="cls-24" points="89.93 340.39 95.96 325.6 97.15 326.69 91.08 341.51 89.93 340.39" />
        <polygon class="cls-24" points="88.2 338.75 94.17 324.02 95.34 325.09 89.34 339.86 88.2 338.75" />
        <polygon class="cls-24" points="59.26 381.4 64.07 369.1 65.03 370.24 60.19 382.57 59.26 381.4" />
        <polygon class="cls-24" points="57.97 379.67 62.73 367.4 63.68 368.53 58.89 380.82 57.97 379.67" />
        <polygon class="cls-24" points="56.72 377.95 61.44 365.72 62.38 366.84 57.63 379.1 56.72 377.95" />
        <polygon class="cls-24" points="55.34 376.27 60.02 364.08 60.95 365.19 56.24 377.4 55.34 376.27" />
        <polygon class="cls-24" points="67.62 360.07 68.26 358.42 69.24 359.52 68.59 361.17 67.62 360.07" />
        <polygon class="cls-24" points="66.59 362.71 67.23 361.07 68.19 362.17 67.55 363.81 66.59 362.71" />
        <polygon class="cls-24" points="65.53 365.4 66.17 363.77 67.13 364.88 66.49 366.51 65.53 365.4" />
        <polygon class="cls-24" points="64.46 368.14 65.1 366.52 66.05 367.64 65.41 369.26 64.46 368.14" />
        <polygon class="cls-24" points="66.21 358.44 66.85 356.79 67.82 357.88 67.17 359.53 66.21 358.44" />
        <polygon class="cls-24" points="65.19 361.07 65.83 359.43 66.78 360.53 66.14 362.17 65.19 361.07" />
        <polygon class="cls-24" points="64.15 363.75 64.78 362.13 65.73 363.23 65.1 364.85 64.15 363.75" />
        <polygon class="cls-24" points="63.09 366.48 63.72 364.87 64.66 365.98 64.03 367.59 63.09 366.48" />
        <polygon class="cls-24" points="64.86 356.94 65.49 355.31 66.44 356.38 65.81 358.03 64.86 356.94" />
        <polygon class="cls-24" points="63.84 359.56 64.47 357.94 65.42 359.02 64.79 360.65 63.84 359.56" />
        <polygon class="cls-24" points="62.81 362.24 63.44 360.62 64.38 361.71 63.75 363.33 62.81 362.24" />
        <polygon class="cls-24" points="61.76 364.96 62.38 363.35 63.32 364.45 62.69 366.06 61.76 364.96" />
        <polygon class="cls-24" points="63.48 355.35 64.11 353.71 65.05 354.78 64.42 356.42 63.48 355.35" />
        <polygon class="cls-24" points="62.48 357.96 63.1 356.34 64.04 357.41 63.41 359.04 62.48 357.96" />
        <polygon class="cls-24" points="61.46 360.63 62.08 359.01 63.01 360.09 62.38 361.71 61.46 360.63" />
        <polygon class="cls-24" points="60.41 363.34 61.03 361.74 61.95 362.82 61.34 364.43 60.41 363.34" />
        <polygon class="cls-24" points="88.44 382.44 81.71 374.82 82.63 372.61 89.39 380.2 88.44 382.44" />
        <polygon class="cls-24" points="87.04 385.58 80.37 377.92 81.28 375.73 87.99 383.36 87.04 385.58" />
        <polygon class="cls-24" points="85.65 388.64 79.05 380.93 79.94 378.76 86.59 386.43 85.65 388.64" />
        <polygon class="cls-24" points="84.26 391.96 77.71 384.21 78.61 382.06 85.19 389.78 84.26 391.96" />
        <polygon class="cls-24" points="77.12 369.5 76.31 368.58 77.18 366.44 77.99 367.35 77.12 369.5" />
        <polygon class="cls-24" points="78.43 370.99 77.61 370.06 78.49 367.91 79.31 368.83 78.43 370.99" />
        <polygon class="cls-24" points="79.79 372.53 78.97 371.6 79.85 369.43 80.68 370.37 79.79 372.53" />
        <polygon class="cls-24" points="81.2 374.13 80.37 373.18 81.26 371.01 82.1 371.96 81.2 374.13" />
        <polygon class="cls-24" points="75.83 372.63 75.03 371.71 75.89 369.58 76.7 370.5 75.83 372.63" />
        <polygon class="cls-24" points="77.13 374.13 76.32 373.2 77.19 371.06 78.01 371.99 77.13 374.13" />
        <polygon class="cls-24" points="78.48 375.68 77.66 374.74 78.54 372.59 79.36 373.53 78.48 375.68" />
        <polygon class="cls-24" points="79.88 377.29 79.05 376.34 79.94 374.18 80.77 375.13 79.88 377.29" />
        <polygon class="cls-24" points="74.63 375.65 73.83 374.72 74.69 372.6 75.49 373.53 74.63 375.65" />
        <polygon class="cls-24" points="75.92 377.16 75.11 376.22 75.98 374.09 76.79 375.03 75.92 377.16" />
        <polygon class="cls-24" points="77.26 378.72 76.44 377.77 77.32 375.64 78.14 376.58 77.26 378.72" />
        <polygon class="cls-24" points="78.64 380.33 77.82 379.38 78.7 377.24 79.53 378.19 78.64 380.33" />
        <polygon class="cls-24" points="73.36 378.74 72.57 377.8 73.42 375.7 74.22 376.63 73.36 378.74" />
        <polygon class="cls-24" points="74.64 380.25 73.84 379.31 74.7 377.2 75.5 378.14 74.64 380.25" />
        <polygon class="cls-24" points="75.97 381.82 75.16 380.87 76.03 378.75 76.84 379.7 75.97 381.82" />
        <polygon class="cls-24" points="77.34 383.44 76.53 382.48 77.4 380.36 78.22 381.32 77.34 383.44" />
        <polygon class="cls-24" points="85.28 349.82 84.57 351.59 83.48 350.46 84.2 348.7 85.28 349.82" />
        <polygon class="cls-24" points="86.44 346.98 85.72 348.75 84.63 347.63 85.35 345.86 86.44 346.98" />
        <polygon class="cls-24" points="87.64 344.03 86.91 345.82 85.81 344.71 86.53 342.93 87.64 344.03" />
        <polygon class="cls-24" points="88.87 341 88.14 342.8 87.03 341.69 87.76 339.9 88.87 341" />
        <polygon class="cls-24" points="86.89 351.51 86.16 353.28 85.07 352.14 85.79 350.38 86.89 351.51" />
        <polygon class="cls-24" points="88.06 348.65 87.33 350.43 86.22 349.3 86.95 347.52 88.06 348.65" />
        <polygon class="cls-24" points="89.27 345.7 88.53 347.49 87.42 346.37 88.15 344.58 89.27 345.7" />
        <polygon class="cls-24" points="90.51 342.65 89.77 344.46 88.65 343.34 89.39 341.54 90.51 342.65" />
        <polygon class="cls-24" points="88.47 353.09 87.74 354.87 86.63 353.72 87.36 351.94 88.47 353.09" />
        <polygon class="cls-24" points="89.65 350.22 88.92 352.01 87.8 350.87 88.53 349.08 89.65 350.22" />
        <polygon class="cls-24" points="90.87 347.26 90.13 349.06 89.01 347.92 89.74 346.13 90.87 347.26" />
        <polygon class="cls-24" points="92.13 344.2 91.39 346.01 90.25 344.88 91 343.07 92.13 344.2" />
        <polygon class="cls-24" points="90.11 354.82 89.37 356.6 88.25 355.43 88.98 353.66 90.11 354.82" />
        <polygon class="cls-24" points="91.3 351.94 90.56 353.73 89.43 352.57 90.17 350.78 91.3 351.94" />
        <polygon class="cls-24" points="92.54 348.96 91.79 350.77 90.65 349.62 91.39 347.82 92.54 348.96" />
        <polygon class="cls-24" points="93.81 345.89 93.06 347.71 91.91 346.57 92.66 344.75 93.81 345.89" />
      </g>
      <g class="cls-25">
        <path class="cls-5" d="M726,236.92l27.53-12.74c1.64-.76,3.63-4.4,4.84-5.73a146.34,146.34,0,0,1,14.47-13.81c31.48-26.32,73.33-36.74,113.15-42a249.48,249.48,0,0,1,25.91-2.11"
        />
        <path class="cls-5" d="M726,267.77l27.53-12.42s29.22-34.3,74.1-49.55,110.1-19.48,110.1-19.48" />
        <path class="cls-5" d="M725.36,296.84l28.2-12.7S776,252.38,831.9,233.75,962.32,216,962.32,216" />
        <path class="cls-5" d="M726,326.2l27.53-11.57s36.84-41.92,102.05-55.47,136.35-11,136.35-11" />
        <path class="cls-5" d="M726,356.69l27.53-11.85s27.52-34.87,97-52.65,168.54-8.47,168.54-8.47" />
        <path class="cls-5" d="M725.36,386.62l28.2-12.71s43.61-37.68,87.65-51.24,195.64-9.31,195.64-9.31" />
        <path class="cls-5" d="M725.36,416.26l28.2-11.86s36-36.84,124.07-54.62,181.24,0,181.24,0" />
        <path class="cls-5" d="M725.36,446.75l28.2-11.86s63.09-57.17,172.34-60.55,161.77,16.09,161.77,16.09" />
        <path class="cls-5" d="M725.36,477.24l28.2-11.86s40.23-45.31,165.57-55.47,190.56,18.63,190.56,18.63" />
        <path class="cls-5" d="M726,509.14l27.53-11.58s55.47-45.31,174-55.47,199.87,25.41,199.87,25.41" />
        <path class="cls-5" d="M726,540.33l27.53-12.56s38.53-38.25,173.19-50.11,216,27.95,216,27.95" />
        <path class="cls-5" d="M726,574.35,753.56,560S837,506.46,962.32,509s193.1,35.57,193.1,35.57" />
        <path class="cls-5" d="M726,607.38l27.53-11.57s70.71-45.31,219.77-47,190.56,29.64,190.56,29.64" />
        <path class="cls-5" d="M726,640.41l27.53-11.57s69.87-44.47,204.53-47,214.27,36.42,214.27,36.42" />
        <path class="cls-5" d="M1181.67,656.36s-57.59-30.49-204.1-38.11-224,43.61-224,43.61L726,673.44" />
        <path class="cls-5" d="M726,707.31l27.53-11.57s52.08-45.31,207.92-40.23,220.19,37.27,220.19,37.27" />
        <path class="cls-5" d="M726,739.5l27.53-11.58s92.73-37.68,223.16-39.38,227.82,50.82,227.82,50.82" />
        <path class="cls-5" d="M726,774.22l27.53-11.57s157.1-49.55,298.54-35.15,173.61,62.67,173.61,62.67" />
        <path class="cls-5" d="M726,801.32l27.53-11.15s132.54-26.25,244.33-22.86,247.3,59.28,247.3,59.28" />
        <line class="cls-5" x1="813.27" y1="94.01" x2="813.27" y2="828.28" />
        <line class="cls-5" x1="872.55" y1="127.04" x2="872.55" y2="828.28" />
        <line class="cls-5" x1="948.77" y1="199.03" x2="948.77" y2="828.28" />
        <line class="cls-5" x1="1019.07" y1="270.17" x2="1019.07" y2="828.28" />
        <line class="cls-5" x1="1087.67" y1="374.34" x2="1087.67" y2="828.28" />
        <line class="cls-5" x1="1136.79" y1="475.12" x2="1136.79" y2="828.28" />
        <path class="cls-5" d="M753.56,194.08s30.06-29.21,59.71-44.32,66.05-19.33,66.05-19.33" />
        <path class="cls-5" d="M753.56,163.67s30.06-26.47,51.24-38.33,56.74-16.93,56.74-16.93" />
        <path class="cls-5" d="M753.56,137.84s10.58-13.34,30.06-27.74,55.9-21.17,55.9-21.17" />
      </g>
      <polygon class="cls-13" points="1417.54 817.46 1417.54 827.86 1417.48 827.86 1190.37 650.98 1189.69 641.95 1417.54 817.46"
      />
      <polygon class="cls-18" points="1417.54 674.57 1417.54 817.46 1199.42 649.43 1195.23 373.96 1195.65 373.91 1417.54 674.57"
      />
      <line class="cls-2" x1="1195.23" y1="373.96" x2="1195.22" y2="373.49" />
      <g class="cls-26">
        <polygon class="cls-13" points="1209.33 351.05 1216.16 362.03 1216.16 671.19 1209.7 665.39 1209.33 351.05" />
        <polygon class="cls-13" points="1227.12 379.29 1233.95 389.85 1233.95 687.27 1227.48 681.69 1227.12 379.29" />
        <polygon class="cls-13" points="1247.45 409.98 1254.27 420.07 1254.27 704.21 1247.81 698.88 1247.45 409.98" />
        <polygon class="cls-13" points="1266.92 439.88 1273.75 449.31 1273.75 714.64 1267.29 709.66 1266.92 439.88" />
        <polygon class="cls-13" points="1284.71 469.78 1291.54 478.64 1291.54 728.1 1285.07 723.42 1284.71 469.78" />
        <polygon class="cls-13" points="1305.04 498.04 1311.87 506.47 1311.87 743.71 1305.4 739.26 1305.04 498.04" />
        <polygon class="cls-13" points="1326.21 534.41 1333.04 542.57 1333.04 772.32 1326.57 768 1326.21 534.41" />
        <polygon class="cls-13" points="1346.54 565.27 1353.36 572.88 1353.36 786.95 1346.9 782.93 1346.54 565.27" />
        <polygon class="cls-13" points="1366.01 596.14 1372.84 603.33 1372.84 805.78 1366.38 801.98 1366.01 596.14" />
        <polygon class="cls-13" points="1383.8 622.18 1390.63 628.85 1390.63 816.79 1384.16 813.26 1383.8 622.18" />
        <polygon class="cls-13" points="1404.13 628.61 1410.95 635.5 1410.95 829.55 1404.49 825.91 1404.13 628.61" />
      </g>
    </g>
  </g>
</svg>