<?xml version="1.0" encoding="UTF-8" standalone="no"?>
<!-- Creator: CorelDRAW 2017 -->

<svg
   xmlns:dc="http://purl.org/dc/elements/1.1/"
   xmlns:cc="http://creativecommons.org/ns#"
   xmlns:rdf="http://www.w3.org/1999/02/22-rdf-syntax-ns#"
   xmlns:svg="http://www.w3.org/2000/svg"
   xmlns="http://www.w3.org/2000/svg"
   xmlns:sodipodi="http://sodipodi.sourceforge.net/DTD/sodipodi-0.dtd"
   xmlns:inkscape="http://www.inkscape.org/namespaces/inkscape"
   xml:space="preserve"
   width="210mm"
   height="187mm"
   version="1.1"
   style="clip-rule:evenodd;fill-rule:evenodd;image-rendering:optimizeQuality;shape-rendering:geometricPrecision;text-rendering:geometricPrecision"
   viewBox="0 0 21000 18700"
   id="svg111"
   sodipodi:docname="bionix.svg"
   inkscape:version="0.92.4 (5da689c313, 2019-01-14)"><metadata
   id="metadata115"><rdf:RDF><cc:Work
       rdf:about=""><dc:format>image/svg+xml</dc:format><dc:type
         rdf:resource="http://purl.org/dc/dcmitype/StillImage" /><dc:title></dc:title></cc:Work></rdf:RDF></metadata><sodipodi:namedview
   pagecolor="#ffffff"
   bordercolor="#666666"
   borderopacity="1"
   objecttolerance="10"
   gridtolerance="10"
   guidetolerance="10"
   inkscape:pageopacity="0"
   inkscape:pageshadow="2"
   inkscape:window-width="1301"
   inkscape:window-height="744"
   id="namedview113"
   showgrid="false"
   inkscape:zoom="0.2102413"
   inkscape:cx="396.85039"
   inkscape:cy="561.25984"
   inkscape:window-x="65"
   inkscape:window-y="24"
   inkscape:window-maximized="1"
   inkscape:current-layer="svg111" />
 <defs
   id="defs7">
  <style
   type="text/css"
   id="style2">
   <![CDATA[
    .fil5 {fill:#682F4A}
    .fil3 {fill:#23103C}
    .fil8 {fill:#2F2E41}
    .fil1 {fill:#3F3D56}
    .fil0 {fill:#E6D5E2}
    .fil7 {fill:#E73273}
    .fil6 {fill:#F2F2F2}
    .fil9 {fill:#FBBEBE}
    .fil2 {fill:black;fill-opacity:0.101961}
    .fil4 {fill:#23103C;fill-opacity:0.101961}
   ]]>
   .bg {
    animation: move 3s linear infinite, fade 0.5s linear infinite;
   }
   .illustration {

   }
   <!-- Animations-->
   @keyframes fade {
    0% {
        opacity: 1;
    }
    100% {
        opacity: 0.8;
    }
   }
   @keyframes move {
	0% {
        transform: rotate(0deg) translateX(500px) rotate(0deg); 
    }
	100% {
        transform: rotate(360deg) translateX(500px) rotate(-360deg);
    }
   }
  </style>
     <clipPath
   id="id0">
      <path
   d="M 3017.39,6502.53 H 16533.97 V 18191.42 H 3017.39 Z"
   id="path4"
   inkscape:connector-curvature="0" />
     </clipPath>
 </defs>
 <g
   id="Layer_x0020_1"
   transform="translate(0,-4200.217)">
  <metadata
   id="CorelCorpID_0Corel-Layer" />
   <path
   class="bg fil0"
   d="m 10597.37,17130.01 c -3095.46,-235.57 -6786.94,-2634.05 -6599,-5103.67 187.94,-2469.63 3763.18,-4768.64 6858.64,-4533.08 3095.46,235.56 4877.31,4850.88 4689.37,7320.51 -187.94,2469.62 -1853.55,2551.8 -4949.01,2316.24 z"
   id="path10"
   inkscape:connector-curvature="0"
   style="fill:#e6d5e2" />
   <g
   class="illustration"
   id="g108">
    <ellipse
   class="fil1"
   cx="10856.98"
   cy="17130.801"
   rx="6461.6699"
   ry="395.87"
   id="ellipse12"
   style="fill:#3f3d56" />
    <path
   class="fil2"
   d="m 16360.9,17124.41 c 0,-144.57 -2464.19,-261.78 -5503.92,-261.78 -3039.73,0 -5503.92,117.21 -5503.92,261.78 0,144.58 2464.19,261.79 5503.92,261.79 3039.73,0 5503.92,-117.21 5503.92,-261.79 z"
   id="path14"
   inkscape:connector-curvature="0"
   style="fill:#000000;fill-opacity:0.10196102" />
    <ellipse
   class="fil3"
   cx="6349.1201"
   cy="18158.801"
   rx="2709.73"
   ry="236.25"
   id="ellipse16"
   style="fill:#23103c" />
    <path
   class="fil4"
   d="m 8657.22,18154.98 c 0,-86.28 -1033.37,-156.23 -2308.1,-156.23 -1274.72,0 -2308.09,69.95 -2308.09,156.23 0,86.29 1033.37,156.23 2308.09,156.23 1274.73,0 2308.1,-69.94 2308.1,-156.23 z"
   id="path18"
   inkscape:connector-curvature="0"
   style="fill:#23103c;fill-opacity:0.10196102" />
    <rect
   class="fil5"
   x="6144.7998"
   y="9545.3496"
   width="9603.1299"
   height="7534.3701"
   id="rect20"
   style="fill:#682f4a" />
    <path
   class="fil6"
   d="M 10837.11,10575 H 8468.03 c -0.01,0 -0.03,0 -0.05,0 -15.87,0 -28.75,-12.88 -28.75,-28.75 0,-15.88 12.88,-28.75 28.75,-28.75 0.02,0 0.04,0 0.06,0 h 2369.07 c 15.85,0.03 28.69,12.89 28.69,28.75 0,15.85 -12.84,28.71 -28.69,28.75 z"
   id="path22"
   inkscape:connector-curvature="0"
   style="fill:#f2f2f2" />
    <path
   class="fil6"
   d="M 13430.45,10891.25 H 9704.32 c -15.86,0.01 -28.74,-12.87 -28.74,-28.74 0,-15.88 12.88,-28.75 28.75,-28.75 h 3726.12 c 15.88,0 28.75,12.87 28.75,28.75 0,15.87 -12.87,28.75 -28.75,28.75 z"
   id="path24"
   inkscape:connector-curvature="0"
   style="fill:#f2f2f2" />
    <path
   class="fil6"
   d="M 10848.61,11207.52 H 8479.53 c -15.86,0 -28.74,-12.88 -28.74,-28.75 0,-15.88 12.88,-28.75 28.75,-28.75 h 2369.07 c 15.88,0 28.75,12.87 28.75,28.75 0,15.87 -12.87,28.75 -28.75,28.75 z"
   id="path26"
   inkscape:connector-curvature="0"
   style="fill:#f2f2f2" />
    <path
   class="fil6"
   d="m 13430.45,11213.27 h -2369.08 c -15.87,0 -28.75,-12.88 -28.75,-28.75 0,-15.88 12.88,-28.75 28.75,-28.75 h 2369.08 c 15.88,0 28.75,12.87 28.75,28.75 0,15.87 -12.87,28.75 -28.75,28.75 z"
   id="path28"
   inkscape:connector-curvature="0"
   style="fill:#f2f2f2" />
    <path
   class="fil6"
   d="M 10854.36,11523.78 H 8485.28 c -15.87,0 -28.74,-12.88 -28.74,-28.75 0,-15.87 12.87,-28.75 28.75,-28.75 h 2369.07 c 15.88,0 28.75,12.88 28.75,28.75 0,15.87 -12.87,28.75 -28.75,28.75 z"
   id="path30"
   inkscape:connector-curvature="0"
   style="fill:#f2f2f2" />
    <path
   class="fil6"
   d="M 10860.11,11840.04 H 8491.03 c -15.86,0 -28.74,-12.87 -28.74,-28.75 0,-15.87 12.88,-28.75 28.75,-28.75 h 2369.07 c 15.88,0 28.76,12.88 28.76,28.75 0,15.88 -12.88,28.75 -28.76,28.75 z"
   id="path32"
   inkscape:connector-curvature="0"
   style="fill:#f2f2f2" />
    <path
   class="fil6"
   d="m 11935.4,10580.75 h -678.52 c -15.88,0 -28.75,-12.88 -28.75,-28.76 0,-15.87 12.87,-28.75 28.75,-28.75 h 678.52 c 15.88,0 28.75,12.88 28.75,28.75 0,15.88 -12.87,28.76 -28.75,28.76 z"
   id="path34"
   inkscape:connector-curvature="0"
   style="fill:#f2f2f2" />
    <path
   class="fil6"
   d="m 11935.4,11523.78 h -678.52 c -15.88,0 -28.75,-12.88 -28.75,-28.75 0,-15.87 12.87,-28.75 28.75,-28.75 h 678.52 c 15.88,0 28.75,12.88 28.75,28.75 0,15.87 -12.87,28.75 -28.75,28.75 z"
   id="path36"
   inkscape:connector-curvature="0"
   style="fill:#f2f2f2" />
    <path
   class="fil6"
   d="m 11935.4,11834.29 h -678.52 c -0.02,0 -0.05,0 -0.07,0 -15.87,0 -28.75,-12.88 -28.75,-28.75 0,-15.88 12.88,-28.75 28.75,-28.75 0.02,0 0.05,0 0.06,0 h 678.53 c 0.02,0 0.04,0 0.06,0 15.87,0 28.75,12.87 28.75,28.75 0,15.87 -12.88,28.75 -28.75,28.75 -0.02,0 -0.04,0 -0.06,0 z"
   id="path38"
   inkscape:connector-curvature="0"
   style="fill:#f2f2f2" />
    <path
   class="fil6"
   d="m 13073.94,11834.29 h -678.53 c -15.85,-0.03 -28.68,-12.9 -28.68,-28.75 0,-15.86 12.83,-28.72 28.69,-28.75 h 678.52 c 0.02,0 0.04,0 0.06,0 15.88,0 28.75,12.87 28.75,28.75 0,15.87 -12.87,28.75 -28.75,28.75 -0.02,0 -0.04,0 -0.06,0 z"
   id="path40"
   inkscape:connector-curvature="0"
   style="fill:#f2f2f2" />
    <path
   class="fil6"
   d="m 9140.8,10891.25 h -678.52 c -15.86,0.01 -28.74,-12.87 -28.74,-28.74 0,-15.88 12.88,-28.75 28.75,-28.75 h 678.51 c 15.89,0 28.77,12.87 28.77,28.75 0,15.87 -12.88,28.75 -28.76,28.75 z"
   id="path42"
   inkscape:connector-curvature="0"
   style="fill:#f2f2f2" />
    <path
   class="fil6"
   d="M 10839.99,15232.66 H 8470.91 c -15.87,-0.01 -28.75,-12.89 -28.75,-28.76 0,-15.88 12.88,-28.76 28.76,-28.76 l 2369.07,0.01 c 15.87,-0.01 28.75,12.87 28.75,28.75 0,15.87 -12.88,28.75 -28.75,28.75 z"
   id="path44"
   inkscape:connector-curvature="0"
   style="fill:#f2f2f2" />
    <path
   class="fil6"
   d="M 10828.49,15865.18 H 8459.4 c -15.86,-0.01 -28.74,-12.89 -28.74,-28.76 0,-15.88 12.88,-28.75 28.75,-28.75 l 2369.08,0.01 c 15.87,-0.01 28.75,12.86 28.75,28.74 0,15.87 -12.88,28.75 -28.75,28.75 z"
   id="path46"
   inkscape:connector-curvature="0"
   style="fill:#f2f2f2" />
    <path
   class="fil6"
   d="M 10834.24,16181.44 H 8465.16 c -0.01,-0.01 -0.04,-0.01 -0.06,-0.01 -15.87,0 -28.75,-12.88 -28.75,-28.75 0,-15.87 12.88,-28.75 28.75,-28.75 0.02,0 0.05,0 0.06,0 l 2369.08,0.01 c 0.01,-0.01 0.04,-0.01 0.06,-0.01 15.87,0 28.75,12.88 28.75,28.75 0,15.87 -12.88,28.75 -28.75,28.75 -0.02,0 -0.05,0 -0.06,0 z"
   id="path48"
   inkscape:connector-curvature="0"
   style="fill:#f2f2f2" />
    <path
   class="fil6"
   d="m 11846.27,15870.93 h -678.52 c -15.88,-0.01 -28.76,-12.88 -28.76,-28.76 0,-15.87 12.88,-28.75 28.76,-28.75 l 678.52,0.01 c 15.87,-0.01 28.75,12.87 28.75,28.74 0,15.88 -12.88,28.75 -28.75,28.75 z"
   id="path50"
   inkscape:connector-curvature="0"
   style="fill:#f2f2f2" />
    <path
   class="fil6"
   d="m 11846.27,16181.44 h -678.52 c -15.88,-0.01 -28.76,-12.89 -28.76,-28.76 0,-15.87 12.88,-28.75 28.76,-28.75 l 678.52,0.01 c 15.87,-0.01 28.75,12.87 28.75,28.74 0,15.87 -12.88,28.75 -28.75,28.75 z"
   id="path52"
   inkscape:connector-curvature="0"
   style="fill:#f2f2f2" />
    <path
   class="fil6"
   d="m 12984.81,15870.93 h -678.52 c -15.88,-0.01 -28.75,-12.88 -28.75,-28.76 0,-15.87 12.87,-28.75 28.75,-28.75 l 678.52,0.01 c 15.88,-0.01 28.75,12.87 28.75,28.74 0,15.88 -12.87,28.75 -28.75,28.75 z"
   id="path54"
   inkscape:connector-curvature="0"
   style="fill:#f2f2f2" />
    <path
   class="fil6"
   d="M 13433.33,15548.92 H 9707.2 c -15.87,-0.01 -28.74,-12.89 -28.74,-28.76 0,-15.88 12.87,-28.75 28.75,-28.75 l 3726.12,0.01 c 15.87,-0.01 28.75,12.86 28.75,28.74 0,15.87 -12.88,28.75 -28.75,28.75 z"
   id="path56"
   inkscape:connector-curvature="0"
   style="fill:#f2f2f2" />
    <path
   class="fil6"
   d="m 9143.68,15548.92 h -678.52 c -15.87,-0.01 -28.75,-12.89 -28.75,-28.76 0,-15.88 12.88,-28.75 28.75,-28.75 l 678.52,0.01 c 15.88,-0.01 28.76,12.86 28.76,28.74 0,15.87 -12.88,28.75 -28.75,28.75 z"
   id="path58"
   inkscape:connector-curvature="0"
   style="fill:#f2f2f2" />
    <path
   class="fil6"
   d="M 13433.33,16503.45 H 9707.2 c -0.01,0 -0.03,0 -0.05,0 -15.88,0 -28.76,-12.88 -28.76,-28.76 0,-15.87 12.88,-28.75 28.76,-28.75 0.02,0 0.04,0 0.05,0 l 3726.13,0.01 c 15.87,-0.01 28.75,12.87 28.75,28.74 0,15.88 -12.88,28.76 -28.75,28.76 z"
   id="path60"
   inkscape:connector-curvature="0"
   style="fill:#f2f2f2" />
    <path
   class="fil6"
   d="m 9143.68,16503.45 h -678.52 c -0.01,0 -0.04,0 -0.06,0 -15.87,0 -28.75,-12.88 -28.75,-28.76 0,-15.87 12.88,-28.75 28.75,-28.75 0.02,0 0.05,0 0.06,0 l 678.52,0.01 c 0.03,-0.01 0.05,-0.01 0.07,-0.01 15.87,0 28.75,12.88 28.75,28.75 0,15.88 -12.88,28.76 -28.75,28.76 -0.02,0 -0.04,0 -0.06,0 z"
   id="path62"
   inkscape:connector-curvature="0"
   style="fill:#f2f2f2" />
    <polygon
   class="fil7"
   points="10480.6,12811.82 10267.85,12599.07 9347.81,13507.6 10267.85,14416.13 10474.85,14209.13 9779.08,13513.35 "
   id="polygon64"
   style="fill:#e73273" />
    <polygon
   class="fil7"
   points="11412.14,12811.82 11624.89,12599.07 12544.92,13507.6 11624.89,14416.13 11417.88,14209.13 12113.66,13513.35 "
   id="polygon66"
   style="fill:#e73273" />
    <circle
   class="fil7"
   cx="6400.21"
   cy="9736.9102"
   r="114.93"
   id="circle68"
   style="fill:#e73273" />
    <circle
   class="fil7"
   cx="6706.6899"
   cy="9736.9102"
   r="114.93"
   id="circle70"
   style="fill:#e73273" />
    <circle
   class="fil7"
   cx="7013.1699"
   cy="9736.9102"
   r="114.93"
   id="circle72"
   style="fill:#e73273" />
    <polygon
   class="fil2"
   points="15747.93,9966.77 15747.93,9928.45 6144.8,9928.45 6144.8,9966.77 "
   id="polygon74"
   style="fill:#000000;fill-opacity:0.10196102" />
    <path
   class="fil6"
   d="m 18021.01,15233.84 c 0,814.37 -484.13,1098.71 -1081.33,1098.71 -597.2,0 -1081.33,-284.34 -1081.33,-1098.71 0,-814.36 1081.33,-1850.36 1081.33,-1850.36 0,0 1081.33,1036 1081.33,1850.36 z"
   id="path76"
   inkscape:connector-curvature="0"
   style="fill:#f2f2f2" />
    <polygon
   class="fil1"
   points="17235.72,14503.05 16919.4,15031.97 16919.4,15031.97 16928.35,14480.8 17268.49,13995.14 16929.76,14394.13 16935.35,13383.49 16900.19,14721.4 16903.08,14666.2 16557.27,14136.87 16897.54,14772.16 16865.32,15387.72 16864.36,15371.37 16465.69,14814.33 16863.15,15429.09 16859.13,15506.07 16858.4,15507.23 16858.73,15513.55 16776.98,17075.29 16886.2,17075.29 16899.3,16268.63 17295.8,15655.35 16900.3,16207.98 16911.37,15526.43 17372.26,14683.26 16913.11,15419.52 16918.09,15113.06 "
   id="polygon78"
   style="fill:#3f3d56" />
    <path
   class="fil8"
   d="m 5205.28,17068.12 c -33.08,18.43 -68.25,33.49 -104.43,44.72 -64.85,17.72 -134.17,11.22 -199.68,26.34 -26.82,6.2 -56.01,19.15 -64.55,45.32 -6.25,19.2 0.55,39.93 7.07,59.04 72.39,212.24 116.02,437.58 231.46,629.83 48.42,80.67 108.81,153.98 178.63,216.94 26.25,23.65 55.99,46.79 91.12,50.5 3.28,0.34 6.54,0.5 9.78,0.5 51.11,0 92.55,-41.44 92.55,-92.55 0,-13.08 -2.79,-26.07 -8.15,-37.99 -10.36,-23 -29.59,-40.82 -42,-62.77 -13.41,-27.95 -21.37,-58.31 -23.24,-89.28 -11.4,-90.77 -22.39,-185.64 9.06,-271.56 21.1,-57.62 59.79,-106.74 92.03,-158.95 32.23,-52.21 59.02,-112.02 51.84,-172.96 -4.89,-41.58 -25.18,-79.65 -46.61,-115.62 -21.47,-36.04 -63.91,-132.92 -107.05,-144.94 -44.78,-12.48 -128.78,53.41 -167.83,73.43 z"
   id="path80"
   inkscape:connector-curvature="0"
   style="fill:#2f2e41" />
    <path
   class="fil8"
   d="m 6385.69,17801.23 c 0.06,1.92 0.1,3.93 0.1,5.88 0,18.56 -2.91,37.04 -8.57,54.7 -13.5,35.66 -47,60.1 -64.31,94.07 -24.07,47.26 -13.16,104.38 2.78,154.96 10.01,31.71 23.12,64.71 49.97,84.32 22.97,14.25 49.08,22.63 76.03,24.38 230.33,31.88 464.3,13.58 696.72,20.26 42.36,1.22 87.21,2.71 124.19,-18 36.98,-20.7 59.84,-72.75 34.69,-106.86 -22.58,-30.63 -67.24,-30.34 -105.25,-32.15 -98.94,-5.05 -193.32,-43.9 -267.07,-109.99 -14.52,-12.44 -27.19,-27 -37.44,-43.14 -7.88,-14.31 -14.48,-29.42 -19.59,-44.92 -32.55,-88.07 -71.42,-174.36 -115.91,-256.98 -12.5,-23.18 -26.65,-47.32 -49.88,-59.72 -17.1,-7.67 -35.57,-11.71 -54.24,-11.76 -57.93,-3.75 -207.94,-23.47 -252.73,21.58 -41.4,41.63 -8.57,170.51 -9.49,223.37 z"
   id="path82"
   inkscape:connector-curvature="0"
   style="fill:#2f2e41" />
    <circle
   class="fil9"
   cx="6742.1499"
   cy="12287.35"
   r="370.01001"
   id="circle84"
   style="fill:#fbbebe" />
    <path
   class="fil9"
   d="m 6408.03,12592.89 c -22.01,58.92 -59.34,114.25 -113.66,145.96 l 511.75,104.39 c -10.57,-42.73 -15.99,-86.74 -15.99,-130.75 0,-32.64 2.98,-65.39 8.8,-97.43 3.18,-11.43 4.8,-23.27 4.8,-35.13 0,-7.08 -0.58,-14.2 -1.72,-21.18 -9.62,-37.13 -51.41,-55 -88.81,-63.53 -93.4,-21.29 -176,-32.71 -262.79,-73.96 -26.54,45.42 -22.83,119.26 -42.38,171.63 z"
   id="path86"
   inkscape:connector-curvature="0"
   style="fill:#fbbebe" />
    <path
   class="fil8"
   d="m 6290.09,12600.31 c 51.79,-23.42 108.13,-35.59 165,-35.59 63.95,0 127.03,15.34 183.8,44.7 65.61,34.58 119.94,86.77 173.31,138.26 49.2,47.46 101.68,101.81 105.18,170.08 1.69,33.07 -8.63,65.42 -13.85,98.12 -2.07,14.88 -3.11,30.07 -3.11,45.13 0,123.48 69.17,236.65 179.07,292.88 40.66,67.72 49.05,149.78 49.67,228.77 2.36,299.28 -92.06,602.25 -24.65,893.84 15.82,68.47 40.37,134.78 54.05,203.7 17.7,89.28 16.83,181.08 26.1,271.62 10,97.86 31.98,194.7 65.25,287.24 -22.27,35.42 -68.62,49 -110.36,46.13 -41.74,-2.87 -80.77,-20.98 -118.02,-40.04 -180.36,-92.29 -345.55,-213.99 -532.35,-292.43 -123.58,-51.89 -255.24,-84.22 -375.14,-144.15 -119.89,-59.94 -231.39,-155.06 -268.05,-283.98 -15.85,-55.75 -16.82,-114.49 -17.69,-172.44 -3.64,-244.09 -7.03,-490.84 46.1,-729.1 46.85,-210.11 137.17,-411.11 156.87,-625.49 6.41,-69.77 6.55,-144.47 45.54,-202.7 55.15,-82.26 174.14,-103.57 213.28,-194.55 z"
   id="path88"
   inkscape:connector-curvature="0"
   style="fill:#2f2e41" />
    <path
   class="fil8"
   d="m 6531.71,12292.58 c 21.81,-28.44 63.86,-32.31 98.69,-23.9 34.83,8.41 66.95,26.36 102.13,33.18 5.3,1.5 10.8,2.27 16.31,2.27 11.13,0 22.04,-3.11 31.5,-8.98 12.29,-12.11 19.66,-28.37 20.63,-45.59 7.99,-47.47 12.03,-96.04 12.03,-144.28 0,-25.93 -1.27,-51.86 -3.51,-77.68 -0.62,-3.75 -0.96,-7.59 -0.96,-11.41 0,-6.68 1.03,-13.34 3.03,-19.72 8.71,-20.98 35.28,-25.98 56.98,-32.71 69.07,-23.33 115.6,-88.18 115.6,-161.09 0,-4.34 -0.19,-8.68 -0.5,-13 -0.54,-18.07 -8.14,-35.23 -21.16,-47.77 -15,-12.23 -36.01,-12.98 -55.37,-13.14 -99.47,-0.8 -198.94,-0.77 -298.4,0.08 -36.82,0.31 -75.48,1.22 -107.39,19.57 -23.6,13.57 -41.14,35.41 -62.33,52.5 -55.24,44.58 -129.97,53.65 -197.18,76.5 -32.78,9.33 -62.61,27.14 -86.4,51.56 -22.36,25.53 -33.1,63.5 -19.06,94.4 7.14,12.83 15.28,25.27 24.08,37.06 39.65,63.39 13.25,145.62 19.17,220.15 7.4,93.08 145.13,244.06 238.53,266.08 150.78,35.57 63.67,-192.99 113.58,-254.08 z"
   id="path90"
   inkscape:connector-curvature="0"
   style="fill:#2f2e41" />
    <path
   class="fil8"
   d="m 6322.83,16373.31 c 9.51,67.96 21.72,136.15 18.45,204.7 -4.55,95.69 -39.06,187.89 -45.44,283.49 -4.77,71.39 6.25,143.56 -3.66,214.42 -6.35,45.38 -21.15,89.12 -30.31,134.01 -6.98,35.39 -10.57,71.65 -10.57,107.78 0,113.32 34.84,224.14 99.66,317.03 6.22,10.45 15.16,19.1 25.81,25.03 8.11,3 16.69,4.54 25.34,4.54 2.23,0 4.47,-0.11 6.68,-0.31 107.27,-2.04 215.28,-12.15 321.32,-29.26 7.89,-0.26 15.27,-3.52 20.75,-9.05 2.4,-3.67 3.94,-7.84 4.49,-12.19 19.71,-101.34 -25.25,-202.96 -36.68,-305.56 -12.21,-109.56 14.08,-219.36 40.17,-326.47 11.69,-52.57 26.74,-105.14 44.26,-156.13 12.62,-34.44 27.85,-67.94 38.78,-102.96 15.48,-54.95 24.97,-111.58 28.13,-168.6 7.59,-90.04 11.62,-180.28 12.06,-270.73 0.25,-11.28 0.53,-22.79 0.53,-34.16 0,-74.2 -7.35,-148.68 -21.78,-221.35 -23.98,-106.48 -73.09,-205.35 -121.77,-303.04 -26.01,6.22 -50.49,17.84 -71.74,34.08 -62.5,40.46 -128.38,77.01 -196.01,108.28 -45.55,21.16 -134.37,36.19 -163.27,80.27 -28.51,43.48 -10.12,132.19 -7.94,180.13 3.72,82.32 11.3,164.34 22.74,246.05 z"
   id="path92"
   inkscape:connector-curvature="0"
   style="fill:#2f2e41" />
    <path
   class="fil2"
   d="m 6322.83,16373.31 c 9.51,67.96 21.72,136.15 18.45,204.7 -4.55,95.69 -39.06,187.89 -45.44,283.49 -4.77,71.39 6.25,143.56 -3.66,214.42 -6.35,45.38 -21.15,89.12 -30.31,134.01 -6.98,35.39 -10.57,71.65 -10.57,107.78 0,113.32 34.84,224.14 99.66,317.03 6.22,10.45 15.16,19.1 25.81,25.03 8.11,3 16.69,4.54 25.34,4.54 2.23,0 4.47,-0.11 6.68,-0.31 107.27,-2.04 215.28,-12.15 321.32,-29.26 7.89,-0.26 15.27,-3.52 20.75,-9.05 2.4,-3.67 3.94,-7.84 4.49,-12.19 19.71,-101.34 -25.25,-202.96 -36.68,-305.56 -12.21,-109.56 14.08,-219.36 40.17,-326.47 11.69,-52.57 26.74,-105.14 44.26,-156.13 12.62,-34.44 27.85,-67.94 38.78,-102.96 15.48,-54.95 24.97,-111.58 28.13,-168.6 7.59,-90.04 11.62,-180.28 12.06,-270.73 0.25,-11.28 0.53,-22.79 0.53,-34.16 0,-74.2 -7.35,-148.68 -21.78,-221.35 -23.98,-106.48 -73.09,-205.35 -121.77,-303.04 -26.01,6.22 -50.49,17.84 -71.74,34.08 -62.5,40.46 -128.38,77.01 -196.01,108.28 -45.55,21.16 -134.37,36.19 -163.27,80.27 -28.51,43.48 -10.12,132.19 -7.94,180.13 3.72,82.32 11.3,164.34 22.74,246.05 z"
   id="path94"
   inkscape:connector-curvature="0"
   style="fill:#000000;fill-opacity:0.10196102" />
    <path
   class="fil8"
   d="m 5822.58,14921.8 c -49.14,132.29 23.09,275.25 85.84,401.65 154.59,311.41 261.95,643.71 368.73,974.58 8,24.78 15.99,51.82 7.08,76.29 -7.68,17.36 -20.2,32.22 -36.02,42.74 -73.63,55.93 -167.38,75.84 -255.08,105.1 -84.65,28.21 -166.06,66.45 -241.84,113.42 -63.55,39.38 -123.09,84.84 -182.51,130.22 l -189.15,144.46 c -12.29,8.23 -23.02,18.61 -31.68,30.58 -18.25,28.62 -10.78,65.99 -1.69,98.7 24.01,86.4 55.16,171.44 92.65,252.78 6.14,17.84 17.92,33.28 33.54,43.97 29.52,15.87 65.63,-5.17 88.18,-29.97 22.54,-24.8 42.04,-55.66 73.82,-66.31 31.75,-10.63 66.68,2.24 99.83,-2.41 53.62,-7.53 89.22,-56.92 127.87,-94.84 157.91,-154.91 421.54,-143.68 595.25,-280.65 25.03,-22.36 51.81,-43.32 79.6,-62.16 29.37,-17.35 62.67,-26.88 93.14,-42.22 92.67,-46.67 150.92,-143.14 182.13,-242.09 31.21,-98.95 40.11,-203.4 62.53,-304.7 11.59,-52.37 26.86,-104.17 32.01,-157.56 1.23,-18.65 1.85,-37.51 1.85,-56.26 0,-30.92 -1.85,-62.03 -5.16,-92.74 l -62.63,-775.32 c -5.11,-63.13 -10.22,-126.33 -20.13,-188.88 -186.14,6.65 -372.15,14.14 -558.4,16.34 -148.21,1.76 -299.13,12.11 -439.76,-34.72 z"
   id="path96"
   inkscape:connector-curvature="0"
   style="fill:#2f2e41" />
    <path
   class="fil8"
   d="m 5754.15,15103.17 c 25.25,40.61 86.71,39.77 129.03,17.51 42.32,-22.27 75.2,-59.67 117.62,-81.74 57.01,-29.67 124.47,-28.55 188.7,-26.74 101.69,2.87 204.63,5.93 302.48,33.8 101.2,28.83 199.72,84.33 304.37,73.25 18.21,-1.92 38.12,-7.14 48.02,-22.54 5.26,-10.1 8.02,-21.32 8.02,-32.7 0,-1.17 -0.04,-2.36 -0.09,-3.52 l 3.42,-91.42 c 0.48,-3.59 0.72,-7.23 0.72,-10.86 0,-12.25 -2.74,-24.38 -8,-35.44 -8.78,-11.99 -20.83,-21.21 -34.68,-26.55 -148.94,-72.11 -318.8,-85.53 -484.18,-91.2 -84.07,-2.87 -168.18,-4.05 -252.31,-3.54 -71.4,0.43 -157.12,-9.9 -226.53,9.18 -93.16,25.61 -143.85,216.5 -96.59,292.51 z"
   id="path98"
   inkscape:connector-curvature="0"
   style="fill:#2f2e41" />
    <path
   class="fil7"
   d="m 6689.4,12708.84 c -195.16,-1.73 -372.01,-130.55 -567.15,-133.68 -3.35,-0.21 -6.76,-0.35 -10.14,-0.35 -20.19,0 -40.21,4.17 -58.72,12.23 -27.19,13.69 -45.07,40.18 -65.72,62.55 -57.7,62.48 -141.26,95.84 -200.54,156.83 -55.58,57.18 -86.49,142.38 -64.54,219.05 21.94,76.66 104.75,135.47 182.34,117.04 31.22,-101.12 95.83,-188.84 183.09,-248.74 45.38,-29.04 93.44,-54.38 143.1,-75.18 87.71,-39.73 185.78,-80.23 277.34,-50.44 33.73,12.74 65.69,30.17 94.63,51.62 l 152.66,102.54 c -17.82,-70.14 -33.82,-148.82 -66.35,-213.47 z"
   id="path100"
   inkscape:connector-curvature="0"
   style="fill:#e73273" />
    <path
   class="fil7"
   d="m 5882.45,13074.68 c -25.91,32.33 11.41,79.17 5.7,120.21 -3.79,27.26 -26.23,48.09 -35.57,73.98 -9.68,26.82 -4.55,56.53 -8.22,84.81 -3.62,20.5 -9.17,40.79 -16.28,60.38 -16.31,58.48 -27.97,118.76 -34.33,179.17 l -34.16,255.09 c -5.86,38.28 -9.64,77.22 -10.82,115.92 0.44,6.72 0.66,13.65 0.66,20.46 0,22.19 -2.16,44.42 -6.39,66.18 -7.56,27.88 -24.31,52.27 -35.58,78.86 -11.27,26.59 -16.48,58.77 -1.27,83.31 -50.97,42.46 -66.12,125.84 -30.48,181.79 6.78,8.68 12.1,18.49 15.71,28.91 0.43,3.28 0.66,6.62 0.66,9.94 0,11.33 -2.6,22.54 -7.59,32.71 l -34.53,92.03 c -8.85,23.56 -11.64,59.42 12.94,64.8 -20.32,21.14 -36.23,46.2 -46.63,73.64 -3.53,9.67 -5.35,19.88 -5.35,30.16 0,19.1 6.25,37.69 17.78,52.92 8.56,7.52 15.89,16.41 21.63,26.26 1.34,5.44 2.02,11.07 2.02,16.69 0,8.44 -1.53,16.84 -4.52,24.73 -3.17,12.33 -4.79,25.08 -4.79,37.83 0,28.79 8.21,57.04 23.6,81.36 19.81,29.78 53.23,47.68 89.01,47.68 6.19,0 12.4,-0.55 18.49,-1.61 69.09,-15.59 131.18,-40.19 200.84,-27.4 150,27.52 300.48,55.16 445.76,101.55 165.81,52.93 326.35,130.56 499.64,146.86 3.19,0.65 6.46,0.99 9.72,0.99 8.3,0 16.46,-2.14 23.7,-6.19 8.82,-8.35 14.33,-19.65 15.46,-31.75 17.84,-83.71 35.69,-167.42 53.54,-251.12 21.46,-92.38 38.18,-187.34 49.22,-281.35 6.1,-61.06 7.84,-122.46 9.57,-183.8 l 13.81,-488.21 c 1.26,-14.44 1.97,-29.09 1.97,-43.62 0,-57.47 -10.24,-114.7 -30.07,-168.59 l -79.4,-253.46 c -45.31,-144.65 -149.25,-272.92 -186.26,-419.9 -23.42,-93.03 -40.72,-192.87 -103.54,-265.38 -89.55,-103.37 -244.48,-119.45 -380.08,-101.68 -61.27,8.03 -123.05,21.89 -176.04,53.66 -61.27,36.74 -106.42,94.61 -150.09,151.15 -35.98,46.62 -72.62,84.09 -109.44,130.03 z"
   id="path102"
   inkscape:connector-curvature="0"
   style="fill:#e73273" />
    <path
   class="fil9"
   d="m 6199.08,14510.67 c 11.17,48.18 34.64,92.6 49,139.92 24.07,79.29 22.02,164.68 46.04,243.98 10.08,33.28 24.69,65.25 31.92,99.26 16.87,79.31 -7.76,161.36 -38.35,236.45 -30.6,75.09 -67.86,149.13 -77.79,229.6 -6.99,56.68 3.06,120.68 46.74,157.46 45.36,38.19 111.27,35.6 170.34,30.52 21.19,-0.59 42.19,-4.95 61.83,-12.87 45.18,-21.37 64.2,-74.83 74.76,-123.67 35.39,-163.7 25.29,-333.39 15,-500.55 l -26.89,-437.18 c -5.18,-84.16 -10.73,-170.07 -36.67,-250.88 -9.43,-29.4 -25.88,-88.8 -52.72,-107.58 -26.6,-18.59 -102.55,-19.41 -135.48,-20.96 -154.5,-7.26 -152.76,208.37 -127.73,316.5 z"
   id="path104"
   inkscape:connector-curvature="0"
   style="fill:#fbbebe" />
    <path
   class="fil8"
   d="m 6370.25,12896.53 c -31.55,-16.52 -71.3,-9.4 -101.8,9 -29.41,20.15 -55.27,45.24 -76.26,74.04 -68.18,83.22 -140.35,178.71 -130.24,285.82 3.79,40.16 19.17,78.17 29.59,117.13 45.71,170.86 -4.83,351.56 0.97,528.34 3.35,102.14 25.57,202.61 47.71,302.39 4.52,20.36 11.75,43.93 31.45,50.79 14.8,5.15 30.78,-1.48 45.43,-7.05 40.12,-14.81 82.76,-22.46 125.58,-22.46 73.56,0 145.48,22.46 205.98,64.27 36.59,-19.53 22.88,-81.25 14.68,-121.91 -24.37,-120.77 8.71,-245.37 48.89,-361.84 40.17,-116.47 88.24,-232.8 94.9,-355.83 7.54,-139.4 -38.68,-275.46 -84.28,-407.41 -9.95,-28.8 -20.83,-59 -43.91,-78.9 -19.72,-14.7 -42.44,-25.07 -66.44,-30.38 -48.46,-14.3 -97.5,-22.57 -142.25,-46 z"
   id="path106"
   inkscape:connector-curvature="0"
   style="fill:#2f2e41" />
   </g>
 </g>
</svg>