<?xml version="1.0" encoding="UTF-8" standalone="no"?>
<!-- Creator: CorelDRAW 2017 -->

<svg
   xmlns:dc="http://purl.org/dc/elements/1.1/"
   xmlns:cc="http://creativecommons.org/ns#"
   xmlns:rdf="http://www.w3.org/1999/02/22-rdf-syntax-ns#"
   xmlns:svg="http://www.w3.org/2000/svg"
   xmlns="http://www.w3.org/2000/svg"
   xmlns:sodipodi="http://sodipodi.sourceforge.net/DTD/sodipodi-0.dtd"
   xmlns:inkscape="http://www.inkscape.org/namespaces/inkscape"
   xml:space="preserve"
   width="210mm"
   height="207mm"
   version="1.1"
   style="clip-rule:evenodd;fill-rule:evenodd;image-rendering:optimizeQuality;shape-rendering:geometricPrecision;text-rendering:geometricPrecision"
   viewBox="0 0 21000 20700"
   data-name="Layer 1"
   id="svg94"
   sodipodi:docname="icon.svg"
   inkscape:version="0.92.4 (5da689c313, 2019-01-14)"><metadata
   id="metadata98"><rdf:RDF><cc:Work
       rdf:about=""><dc:format>image/svg+xml</dc:format><dc:type
         rdf:resource="http://purl.org/dc/dcmitype/StillImage" /><dc:title></dc:title></cc:Work></rdf:RDF></metadata><sodipodi:namedview
   pagecolor="#ffffff"
   bordercolor="#666666"
   borderopacity="1"
   objecttolerance="10"
   gridtolerance="10"
   guidetolerance="10"
   inkscape:pageopacity="0"
   inkscape:pageshadow="2"
   inkscape:window-width="1301"
   inkscape:window-height="744"
   id="namedview96"
   showgrid="false"
   units="mm"
   height="227mm"
   inkscape:zoom="0.2102413"
   inkscape:cx="1191.1758"
   inkscape:cy="561.25984"
   inkscape:window-x="65"
   inkscape:window-y="24"
   inkscape:window-maximized="1"
   inkscape:current-layer="svg94" />
 <defs
   id="defs7">
  <style
   type="text/css"
   id="style2">
   <![CDATA[
    .fil1 {fill:#682F4A}
    .fil3 {fill:#2F2E41}
    .fil4 {fill:#3F3D56}
    .fil7 {fill:#8985A8}
    .fil0 {fill:#E6D5E2}
    .fil2 {fill:#E73273}
    .fil5 {fill:#F2F2F2}
    .fil6 {fill:#FFB8B8}
   ]]>
   .bg {
    animation: move 3s linear infinite, fade 0.5s linear infinite;
   }
   .illustration {

   }
   <!-- Animations-->
   @keyframes fade {
    0% {
      opacity: 1;
    }
    100% {
      opacity: 0.8;
    }
   }
   @keyframes move {
    0% {
        transform: rotate(0deg) translateX(500px) rotate(0deg); 
      }
    100% {
        transform: rotate(360deg) translateX(500px) rotate(-360deg);
      }
   }
  </style>
    <clipPath
   id="id0">
     <path
   d="m 1753.61,7148.5 h 17560.7 V 21255.86 H 1753.61 Z"
   id="path4"
   inkscape:connector-curvature="0" />
    </clipPath>
 </defs>
 <g
   id="Layer_x0020_1"
   transform="translate(0,-3963.0649)">
  <metadata
   id="CorelCorpID_0Corel-Layer" />
  <path
   class="bg fil0"
   d="m 15510.51,10219.75 c 0,1221.82 -154.24,2531.15 877.17,3432.57 662.53,579 2580.15,4451.65 1345.8,5012.09 -1281.38,581.75 -999.43,280.36 -2333.09,557 -1330.18,275.94 -2885.89,-525.6 -3945.9,344 -636.63,522.3 -2003.02,760.02 -2621.88,165.53 C 6975.28,17946.79 7162.91,18081.85 4526.6,16903.47 3387.32,16394.23 3348.53,15774.36 3000.5,14536.76 c -243.99,-867.54 142.55,-2230.74 1095.86,-2244.91 3785.64,-56.31 4131.05,-3438.67 6304.55,-3859.08 1529.81,-295.91 1243.68,106.35 2490.04,106.35 1248.49,0 2619.56,-711.09 2619.56,1680.63 z"
   id="path10"
   inkscape:connector-curvature="0"
   style="fill:#e6d5e2" />
  <g
   id="_1975567455472">
   <path
   class="fil1"
   d="m 6264.19,17765.88 c 115.3,426.18 510.19,690.13 510.19,690.13 0,0 207.98,-427.04 92.69,-853.22 -115.29,-426.19 -510.19,-690.14 -510.19,-690.14 0,0 -207.98,427.04 -92.69,853.23 z"
   id="path12"
   inkscape:connector-curvature="0"
   style="fill:#682f4a" />
   <path
   class="fil2"
   d="m 6433.61,17674.29 c 316.36,307.96 355,781.38 355,781.38 0,0 -474.29,-25.9 -790.64,-333.86 -316.36,-307.97 -355.01,-781.38 -355.01,-781.38 0,0 474.28,25.89 790.65,333.86 z"
   id="path14"
   inkscape:connector-curvature="0"
   style="fill:#e73273" />
   <rect
   class="fil3"
   x="5621.3501"
   y="18861.359"
   width="11140.04"
   height="34.380001"
   id="rect16"
   style="fill:#2f2e41" />
   <path
   class="fil4"
   d="m 6930.52,18878.55 h -446.98 v -446.98 h 446.98 z m -412.6,-34.39 h 378.21 v -378.21 h -378.21 z"
   id="path18"
   inkscape:connector-curvature="0"
   style="fill:#3f3d56" />
   <rect
   class="fil1"
   x="4093.9299"
   y="10640.87"
   width="3788.0801"
   height="3788.0801"
   id="rect20"
   style="fill:#682f4a" />
   <path
   class="fil2"
   d="m 7882.01,11583.33 v 86.95 c -57.69,-38.23 -104.38,-91.12 -135.1,-153.12 -50.43,-103.15 -48.83,-222.04 -47.23,-337.05 1.82,-136.69 3.65,-265.62 -83.07,-349.6 -95.38,-92.19 -248.05,-79.18 -395.69,-66.63 -17.34,1.37 -34.69,2.96 -51.8,4.33 -148.1,11.18 -313.09,-26.24 -393.18,-127.33 h 99.94 c 73.25,49.29 185.3,66.63 288.22,58.87 16.66,-1.14 33.77,-2.74 50.89,-4.11 155.4,-13.23 331.57,-28.29 449.09,85.58 108.16,104.52 106.11,254.67 104.06,399.8 -1.6,107.03 -2.97,217.48 40.39,306.02 17.98,36.54 43,69.32 73.49,96.29 z"
   id="path22"
   inkscape:connector-curvature="0"
   style="fill:#e73273" />
   <path
   class="fil2"
   d="m 7882.01,12184.63 v 101.77 c -16.57,-21.65 -35.34,-41.84 -55.68,-60.02 -117.74,-103.83 -286.84,-126.65 -450.23,-149.01 -21.22,-2.74 -41.98,-5.7 -62.75,-8.67 -264.94,-38.12 -429.24,-129.17 -502.04,-277.72 -50.43,-103.14 -48.83,-222.04 -47.23,-337.04 1.82,-136.69 3.65,-265.63 -83.07,-349.6 -95.38,-92.2 -248.05,-79.19 -395.69,-66.64 -17.34,1.37 -34.69,2.97 -51.8,4.33 -190.32,14.38 -408.7,-51.57 -438.59,-229.79 -10.27,-61.16 5.02,-117.29 27.61,-171.38 l 74.84,0.01 c -25.1,54.31 -43.82,106.8 -34.92,159.97 22.59,136 205.61,184.84 366.03,172.74 16.66,-1.14 33.77,-2.73 50.89,-4.1 155.4,-13.24 331.57,-28.3 449.09,85.57 108.16,104.52 106.11,254.67 104.06,399.81 -1.6,107.02 -2.97,217.47 40.39,306.01 62.07,126.88 209.26,205.37 450.23,240.06 20.54,2.97 41.3,5.93 62.07,8.67 173.43,23.5 353.02,47.92 486.51,165.44 3.43,2.97 6.85,6.16 10.28,9.59 z"
   id="path24"
   inkscape:connector-curvature="0"
   style="fill:#e73273" />
   <path
   class="fil2"
   d="m 7882.01,13900.22 v 140.57 c -82.38,-87.63 -151.3,-207.89 -204.01,-358.27 -11.18,-31.95 -21.91,-64.58 -32.63,-97.21 -59.11,-178.68 -120.26,-363.29 -265.85,-481.27 -155.63,-125.97 -378.58,-153.8 -594.23,-180.73 -27.61,-3.43 -55.22,-6.85 -82.6,-10.5 -349.6,-46.32 -566.16,-156.54 -662.23,-336.82 -66.64,-125.28 -64.58,-269.5 -62.53,-408.93 2.51,-165.67 5.02,-322.21 -109.53,-423.99 -125.74,-111.82 -327.24,-96.07 -521.89,-80.78 -23.05,1.83 -45.87,3.66 -68.23,5.25 -251.25,17.35 -539.46,-62.52 -578.71,-278.63 -19.4,-105.88 30.12,-199.67 77.82,-290.49 27.38,-52.03 53.39,-101.55 66.63,-152.44 27.84,-104.74 -6.62,-222.72 -83.06,-305.1 h 111.81 c 46.13,67.01 70.92,146.62 70.92,228.01 0,32.59 -4.03,65.08 -11.83,96.7 -15.75,59.55 -44.96,115.24 -73.25,169.09 -43.59,82.61 -84.43,160.65 -70.06,240.52 30.13,164.76 271.33,224.09 482.87,209.49 22.14,-1.6 44.73,-3.42 67.32,-5.02 204.92,-16.21 437.22,-34.23 592.4,103.83 142.62,126.65 139.88,308.75 137.14,484.69 -1.82,129.84 -3.88,263.8 53.17,371.28 81.93,153.57 276.35,248.96 594.23,291.18 26.93,3.65 54.31,7.07 81.69,10.5 229.11,28.52 465.76,57.96 641.7,200.58 164.98,133.72 230.02,329.74 292.55,519.37 10.72,32.41 21.44,64.35 32.4,96.07 28.89,85.47 68.77,167.34 118.02,243 z"
   id="path26"
   inkscape:connector-curvature="0"
   style="fill:#e73273" />
   <path
   class="fil2"
   d="m 4093.93,12170.48 c 104.06,125.97 324.72,172.52 522.58,158.83 22.36,-1.6 45.18,-3.43 68.23,-5.25 194.65,-15.29 396.15,-31.04 521.89,80.78 114.55,101.77 112.04,258.32 109.53,423.99 -2.06,139.43 -4.11,283.65 62.52,408.93 96.08,180.27 312.63,290.49 662.23,336.82 27.39,3.65 55,7.07 82.61,10.49 215.65,26.93 438.59,54.77 594.23,180.74 145.58,117.98 206.74,302.58 265.85,481.27 10.72,32.63 21.44,65.26 32.63,97.21 10.26,29.43 21.22,57.5 32.63,84.66 h 97.67 c -17.12,-37.2 -31.72,-74.4 -44.27,-109.99 -10.96,-31.72 -21.68,-63.67 -32.41,-96.07 -62.52,-189.64 -127.56,-385.66 -292.55,-519.38 -175.94,-142.62 -412.57,-172.06 -641.69,-200.58 -27.38,-3.43 -54.76,-6.85 -81.69,-10.5 -317.88,-42.21 -512.3,-137.6 -594.23,-291.18 -57.05,-107.48 -54.99,-241.43 -53.17,-371.28 2.74,-175.94 5.48,-358.04 -137.15,-484.69 -155.17,-138.06 -387.47,-120.03 -592.39,-103.83 -22.6,1.6 -45.19,3.42 -67.32,5.02 -211.54,14.61 -452.75,-44.73 -482.87,-209.49 -14.38,-79.86 26.47,-157.91 70.06,-240.52 28.29,-53.85 57.5,-109.53 73.25,-169.09 42.9,-162.93 -29.44,-343.43 -176.17,-442.02 v 111.82 c 80.09,82.61 116.61,203.33 88.31,310.58 -13.24,50.89 -39.25,100.4 -66.64,152.43 -7.3,13.92 -14.6,27.61 -21.67,41.76 z"
   id="path28"
   inkscape:connector-curvature="0"
   style="fill:#e73273" />
   <path
   class="fil2"
   d="m 5769.58,14428.95 h -94.7 c -5.02,-14.84 -9.81,-29.9 -14.83,-44.96 -59.11,-178.68 -120.27,-363.29 -265.85,-481.27 -155.63,-125.96 -378.58,-153.8 -594.23,-180.73 -27.61,-3.43 -55.22,-6.85 -82.61,-10.5 -308.51,-40.84 -513.67,-131.67 -623.43,-276.34 v -227.06 c 7.03,45.29 21.33,89.25 42.2,130.05 81.93,153.57 276.35,248.96 594.23,291.18 26.93,3.65 54.31,7.07 81.69,10.5 229.11,28.52 465.75,57.96 641.69,200.58 164.99,133.72 230.02,329.74 292.55,519.38 7.78,23.3 15.31,46.35 23.29,69.17 z"
   id="path30"
   inkscape:connector-curvature="0"
   style="fill:#e73273" />
   <rect
   class="fil1"
   x="9228.3701"
   y="10640.87"
   width="3788.0801"
   height="3788.0801"
   id="rect32"
   style="fill:#682f4a" />
   <path
   class="fil2"
   d="m 11053.95,10914.71 c 0,667.95 -541.64,1209.45 -1209.53,1209.45 -216.62,0 -429.71,-58.33 -616.06,-168.64 l 0.01,-1314.65 h 1794.32 c 20.69,89.07 31.26,180.8 31.26,272.38 0,0.44 0,1.03 0,1.47 z"
   id="path34"
   inkscape:connector-curvature="0"
   style="fill:#e73273" />
   <circle
   class="fil2"
   cx="12035.2"
   cy="11667.76"
   r="730.22998"
   id="circle36"
   style="fill:#e73273" />
   <circle
   class="fil2"
   cx="10392.18"
   cy="13219.5"
   r="524.84998"
   id="circle38"
   style="fill:#e73273" />
   <path
   class="fil2"
   d="m 13016.44,13808.25 v 620.7 h -750.99 c -16.5,-51.53 -24.89,-105.55 -24.89,-159.7 0,-289.85 235.05,-524.9 524.89,-524.9 87.67,0 174.05,21.98 251.01,63.89 z"
   id="path40"
   inkscape:connector-curvature="0"
   style="fill:#e73273" />
   <circle
   class="fil2"
   cx="11715.72"
   cy="13196.68"
   r="136.92"
   id="circle42"
   style="fill:#e73273" />
   <rect
   class="fil1"
   x="14385.63"
   y="10640.87"
   width="3788.0801"
   height="3788.0801"
   id="rect44"
   style="fill:#682f4a" />
   <polygon
   class="fil2"
   points="16325.3,10640.87 16234.03,10640.87 16234.03,12192.62 14385.63,12192.62 14385.63,12283.89 16325.3,12283.89 "
   id="polygon46"
   style="fill:#e73273" />
   <path
   class="fil2"
   d="M 18016.93,14428.95 18173.7,14206 v -158.6 l -268.36,381.55 z m -636.67,-1633.43 -839.99,1194.61 624.12,438.82 h 158.59 l -655.61,-460.96 735.02,-1045.37 771.31,542.43 v -111.59 z"
   id="path48"
   inkscape:connector-curvature="0"
   style="fill:#e73273" />
   <path
   class="fil2"
   d="m 15983.01,12644.22 -484.01,484.01 484.01,484 484.01,-484 z m -355.07,484.01 355.07,-355.08 355.07,355.08 -355.07,355.07 z"
   id="path50"
   inkscape:connector-curvature="0"
   style="fill:#e73273" />
   <circle
   class="fil5"
   cx="5950.6099"
   cy="10643.86"
   r="343.82999"
   id="circle52"
   style="fill:#f2f2f2" />
   <circle
   class="fil5"
   cx="11262.75"
   cy="10643.86"
   r="343.82999"
   id="circle54"
   style="fill:#f2f2f2" />
   <circle
   class="fil5"
   cx="16334.22"
   cy="10643.86"
   r="343.82999"
   id="circle56"
   style="fill:#f2f2f2" />
   <circle
   class="fil6"
   cx="10910.33"
   cy="12320.02"
   r="326.64001"
   id="circle58"
   style="fill:#ffb8b8" />
   <path
   class="fil6"
   d="m 10738.41,12474.74 c 0,0 85.96,446.98 51.58,532.93 -34.38,85.96 481.36,-34.38 481.36,-34.38 0,0 -103.15,-446.97 -85.96,-550.12 17.19,-103.15 -446.98,51.57 -446.98,51.57 z"
   id="path60"
   inkscape:connector-curvature="0"
   style="fill:#ffb8b8" />
   <polygon
   class="fil6"
   points="10428.97,15414.47 10514.93,15105.03 10428.97,14400.18 10399.77,14082.84 10171.1,14021.98 10205.48,14486.14 10376.12,15215.11 "
   id="polygon62"
   style="fill:#ffb8b8" />
   <path
   class="fil6"
   d="m 11976.19,13953.2 v 481.36 c 0,0 -51.57,618.89 -154.72,773.62 -103.15,154.72 -137.53,-618.89 -137.53,-618.89 l 80.82,-567.32 z"
   id="path64"
   inkscape:connector-curvature="0"
   style="fill:#ffb8b8" />
   <path
   class="fil3"
   d="m 10446.16,15448.86 c 0,0 -85.96,103.15 -17.19,1151.82 68.77,1048.68 -34.38,1805.1 189.11,1805.1 0,0 -68.77,223.49 120.33,240.68 189.11,17.19 275.07,34.38 292.26,-17.19 17.19,-51.57 51.58,-292.25 0,-292.25 0,0 0,68.76 34.38,-206.3 34.38,-275.06 34.38,-1581.61 120.34,-1753.53 l 275.06,636.09 c 0,0 0,292.25 51.58,429.78 51.58,137.53 137.53,928.34 137.53,928.34 l -17.19,120.34 c 0,0 412.59,68.76 429.78,0 17.19,-68.77 17.19,-171.92 0,-206.3 -17.19,-34.38 -17.19,-34.38 17.19,-103.15 34.38,-68.77 34.38,-120.34 17.19,-171.91 -17.19,-51.58 -17.19,-1169.02 -17.19,-1169.02 0,0 -34.38,-1358.13 -240.68,-1426.89 -206.29,-68.76 -1392.5,34.39 -1392.5,34.39 z"
   id="path66"
   inkscape:connector-curvature="0"
   style="fill:#2f2e41" />
   <path
   class="fil3"
   d="m 10669.65,18508.93 -137.53,240.68 c 0,0 -214.9,-77.36 -171.92,120.34 369.62,25.79 627.49,-8.6 627.49,-8.6 0,0 85.96,34.38 103.15,-17.19 17.19,-51.57 -42.98,-232.09 -94.55,-232.09 -51.57,0 -326.64,-103.14 -326.64,-103.14 z"
   id="path68"
   inkscape:connector-curvature="0"
   style="fill:#2f2e41" />
   <path
   class="fil3"
   d="m 11666.75,18440.16 c 0,0 -137.53,309.45 -85.96,326.64 51.57,17.19 515.74,85.96 550.12,103.15 34.39,17.19 206.3,34.38 223.49,-68.77 17.19,-103.15 -85.96,-137.53 -85.96,-137.53 0,0 -189.1,-34.38 -240.67,-206.3 -51.58,-171.91 -361.02,-17.19 -361.02,-17.19 z"
   id="path70"
   inkscape:connector-curvature="0"
   style="fill:#2f2e41" />
   <path
   class="fil7"
   d="m 11305.73,12921.72 c 0,0 -464.17,-85.96 -567.32,0 -103.14,85.96 -532.93,257.87 -532.93,343.83 0,85.95 223.49,928.33 223.49,928.33 0,0 -120.34,1272.17 0,1306.55 120.34,34.38 326.63,-68.77 567.32,51.58 240.68,120.34 928.33,-103.15 928.33,-103.15 0,0 -257.87,-1100.25 -189.1,-1306.55 68.76,-206.3 120.34,-911.14 120.34,-911.14 0,0 -292.26,-309.45 -550.13,-309.45 z"
   id="path72"
   inkscape:connector-curvature="0"
   style="fill:#8985a8" />
   <path
   class="fil7"
   d="m 10325.82,13213.97 -120.34,34.39 c 0,0 -257.87,807.99 -154.72,842.37 103.15,34.38 395.4,103.15 429.78,103.15 34.38,0 -154.72,-979.91 -154.72,-979.91 z"
   id="path74"
   inkscape:connector-curvature="0"
   style="fill:#8985a8" />
   <path
   class="fil7"
   d="m 11580.79,13128.02 275.07,103.15 c 0,0 361.02,670.46 275.06,756.42 -85.96,85.96 -464.17,171.92 -464.17,171.92 z"
   id="path76"
   inkscape:connector-curvature="0"
   style="fill:#8985a8" />
   <path
   class="fil3"
   d="m 10900.41,11916.57 c -10.85,-1.96 -21.89,-2.95 -32.92,-2.95 -16.47,0 -32.9,2.21 -48.8,6.56 -21.25,9.41 -40.94,22.34 -58.06,38.1 -31.02,24.75 -64.46,46.82 -99.31,65.74 -27.86,15.12 -57.8,29.12 -77.24,54.15 -9.17,12.67 -16.52,26.6 -21.78,41.3 -22.46,57.34 -34.05,118.68 -34.05,180.33 0,29.76 2.71,59.59 8.02,88.82 1.87,12.85 5.75,25.34 11.47,36.97 17.87,32.92 57.33,45.89 90.58,63.15 63.11,32.76 110.96,87.93 162.73,136.69 19.18,19.15 40.89,35.89 64.31,49.56 73.85,40.27 164.12,27.13 247.03,12.89 24.53,-0.05 44.41,-19.97 44.41,-44.53 0,-0.14 0,-0.28 0,-0.42 l 65.44,-294.32 c 11.14,-41.04 16.83,-83.48 16.83,-126.04 0,-2.58 -0.06,-5.28 -0.06,-7.8 -4.56,-71.45 -43.25,-170.42 -95.68,-221.17 -61.09,-59.16 -163.06,-68.57 -242.92,-77.03 z"
   id="path78"
   inkscape:connector-curvature="0"
   style="fill:#2f2e41" />
   <circle
   class="fil2"
   cx="8688.1699"
   cy="18483.65"
   r="135.66"
   id="circle80"
   style="fill:#e73273" />
   <path
   class="fil1"
   d="m 8688.17,18875.56 c -216.41,-0.01 -391.92,-175.51 -391.92,-391.92 0,-216.42 175.51,-391.92 391.92,-391.92 216.42,0 391.92,175.5 391.92,391.92 -0.19,216.31 -175.6,391.72 -391.92,391.91 z m 391.91,-1145.61 c -199.76,-0.01 -361.76,162 -361.76,361.76 0,199.77 162,361.77 361.77,361.77 199.76,0 361.77,-162 361.77,-361.77 -8.08,-202.2 -174.44,-362.07 -376.85,-362.07 -208.25,0 -377.14,168.89 -377.14,377.15 0,5.02 0.14,10.08 0.32,15.06 z"
   id="path82"
   inkscape:connector-curvature="0"
   style="fill:#682f4a" />
   <circle
   class="fil2"
   cx="15289.67"
   cy="18500.84"
   r="135.66"
   id="circle84"
   style="fill:#e73273" />
   <path
   class="fil1"
   d="m 15289.67,18892.76 c -216.42,-0.02 -391.92,-175.52 -391.92,-391.93 0,-216.42 175.5,-391.92 391.91,-391.92 216.42,0 391.92,175.5 391.92,391.92 -0.19,216.31 -175.6,391.72 -391.92,391.91 z m 391.92,-1145.62 c -199.77,0 -361.78,162 -361.78,361.77 0,199.76 162.01,361.77 361.77,361.77 199.77,0 361.77,-162.01 361.77,-361.77 -8.08,-202.21 -174.43,-362.07 -376.84,-362.07 -208.26,0 -377.15,168.89 -377.15,377.14 0,5.02 0.14,10.09 0.33,15.06 z"
   id="path86"
   inkscape:connector-curvature="0"
   style="fill:#682f4a" />
   <circle
   class="fil2"
   cx="15289.67"
   cy="17744.41"
   r="135.66"
   id="circle88"
   style="fill:#e73273" />
   <path
   class="fil1"
   d="m 15289.67,18136.33 c -216.42,-0.01 -391.92,-175.51 -391.92,-391.93 0,-216.41 175.5,-391.92 391.91,-391.92 216.42,0 391.92,175.51 391.92,391.92 -0.19,216.32 -175.6,391.73 -391.92,391.92 z m 391.92,-1145.6 c -199.77,-0.02 -361.78,161.99 -361.78,361.75 0,199.77 162.01,361.77 361.77,361.77 199.77,0 361.77,-162 361.77,-361.77 -8.08,-202.2 -174.43,-362.07 -376.84,-362.07 -208.26,0 -377.15,168.89 -377.15,377.15 0,5.02 0.14,10.08 0.33,15.06 z"
   id="path90"
   inkscape:connector-curvature="0"
   style="fill:#682f4a" />
  </g>
 </g>
</svg>