<?xml version="1.0" encoding="UTF-8"?>
<!DOCTYPE svg PUBLIC "-//W3C//DTD SVG 1.1//EN" "http://www.w3.org/Graphics/SVG/1.1/DTD/svg11.dtd">
<!-- Creator: CorelDRAW 2017 -->
<svg xmlns="http://www.w3.org/2000/svg" xml:space="preserve" width="400mm" height="400mm" version="1.1" style="shape-rendering:geometricPrecision; text-rendering:geometricPrecision; image-rendering:optimizeQuality; fill-rule:evenodd; clip-rule:evenodd"
viewBox="0 0 40000 40000"
 xmlns:xlink="http://www.w3.org/1999/xlink">
 <defs>
  <style type="text/css">
   <![CDATA[
    .fil0 {fill:white}
   ]]>
   .i, .s, .e, .ex-mark1, .ex-mark2, .top, .bottom {
    fill: rgba(255, 255, 255, 0);
    stroke: #FFFFFF;
    stroke-width: 200;
    animation: animate 4s 0.5s forwards, fade 1s 4s forwards alternate infinite;
   }
   .i {
    stroke-dasharray: 24250;
    stroke-dashoffset: 24250;
   }
   .s {
    stroke-dasharray: 45209;
    stroke-dashoffset: 45209;
   }
   .e {
    stroke-dasharray: 46694;
    stroke-dashoffset: 46694;
   }
   .ex-mark1 {
    stroke-dasharray: 16999;
    stroke-dashoffset: 16999;
   }
   .ex-mark2 {
    stroke-dasharray: 10728;
    stroke-dashoffset: 10728;
   }
   .top {
    stroke-dasharray: 45256;
    stroke-dashoffset: 45256;
   }
   .bottom {
    stroke-dasharray: 87438;
    stroke-dashoffset: 87438;
   }
   <!-- Animations-->
   @keyframes fade {
    0% {
        opacity: 1;
    }
    100% {
        opacity: 0.3;
    }
   }
   @keyframes animate {
    50% {
        stroke-dashoffset: 0;
        fill: rgba(255, 255, 255, 0);
    }
    100% {
        stroke-dashoffset: 0;
        fill: rgba(255, 255, 255, 1);
    }
   }
  </style>
 </defs>
 <g id="Layer_x0020_1">
  <metadata id="CorelCorpID_0Corel-Layer"/>
  <polygon class="i fil0" points="8824.51,27295.51 11488.82,26800.43 11478.31,17389.36 9084.66,17818.87 8838.88,17845.65 "/>
  <path class="s fil0" d="M16478.39 22563.15c288.23,30.43 778.34,62.5 993.92,266.52 336.81,318.53 41.17,833.78 -331.51,1022.83 -650.15,331.26 -1347.36,121.35 -1963.2,-218.17 -257.21,-183.87 -228.43,-128.07 -446.72,-357.34l-2433.75 1107.02c204.24,809.96 1515.28,1397.27 2271.35,1541.73 1633.24,313.45 4101.89,-51.43 5153.5,-1401.74 449.9,-577.75 744.96,-1490.43 638.82,-2252.01 -48.57,-349.09 -65.56,-490.5 -179.72,-776.36 -160.15,-400.5 -488.7,-720.68 -840.39,-955.84 -185.38,-124.29 -311.44,-184.68 -530.79,-272.53 -391.3,-155.56 -846.27,-265 -1326.85,-316.42 -542.49,-58.01 -1997.3,-149.53 -1945.64,-876.81 14.39,-202.49 213.57,-332.1 362.17,-438.47 688.83,-494.38 1682.52,203.9 1889.15,512.88 265.57,-61.79 2081.49,-953.6 2254.49,-994.51 -31.95,-384.23 -853.83,-1022.12 -1186.75,-1220.96 -287.28,-171.94 -507.46,-265.69 -843.09,-380.45 -239.76,-81.01 -785.66,-119.81 -1103.48,-118.99 -1485.83,5.19 -3358.81,487.54 -4013.81,1986.81 -400.37,917.15 -389.99,2002.59 115.57,2716.43 463.12,654.41 1367.07,1037.79 2132.56,1231.31 467.83,117.58 886.62,147.42 1334.17,195.07z"/>
  <polygon class="e fil0" points="21299.77,25085.23 28067.64,23886.7 28067.64,21672.06 27052.37,21841.06 24017.28,22397.82 24017.28,20754.19 27188.45,20189.9 27189.04,18115.94 25364.3,18430 24019.05,18668.22 24015.99,17926.07 24017.28,17183.93 27768.92,16519.03 27768.92,14492.03 21304.63,15636.91 "/>
  <polygon class="ex-mark1 fil0" points="31646.86,15100.9 31660.31,13802.61 28870.17,14296.26 28870.17,15593.04 29672.7,20410.19 31316.3,20104.27 "/>
  <polygon class="ex-mark2 fil0" points="29176.78,21044.42 29172.43,23690.92 31850.9,23216.02 31850.9,20571.05 30825.7,20752.67 "/>
  <polygon class="top fil0" points="11984.07,16791.02 13952.34,16442.16 19885.41,8304.48 24472.44,14578.5 26031,14302.21 19885.41,5921.23 "/>
  <polygon class="bottom fil0" points="3594.56,28294.69 36291.54,28294.69 36170.24,28147.32 35784.74,27610.63 35277.35,26926.45 32176.23,22682.49 32180.03,23606.9 31200.24,23780.5 33602.12,27064.94 12660.2,27064.94 8320.55,27833.68 8320.55,27064.94 6207.28,27064.94 8024.1,24576.85 8243.59,24181.76 8243.59,21990.82 7919.52,22319.52 4445.23,27070.16 "/>
 </g>
</svg>
