<?xml version="1.0" encoding="UTF-8" standalone="no"?>
<!-- Creator: CorelDRAW 2017 -->

<svg
   xmlns:dc="http://purl.org/dc/elements/1.1/"
   xmlns:cc="http://creativecommons.org/ns#"
   xmlns:rdf="http://www.w3.org/1999/02/22-rdf-syntax-ns#"
   xmlns:svg="http://www.w3.org/2000/svg"
   xmlns="http://www.w3.org/2000/svg"
   xmlns:sodipodi="http://sodipodi.sourceforge.net/DTD/sodipodi-0.dtd"
   xmlns:inkscape="http://www.inkscape.org/namespaces/inkscape"
   xml:space="preserve"
   width="210mm"
   height="177mm"
   version="1.1"
   style="clip-rule:evenodd;fill-rule:evenodd;image-rendering:optimizeQuality;shape-rendering:geometricPrecision;text-rendering:geometricPrecision"
   viewBox="0 0 21000 17700"
   id="svg265"
   sodipodi:docname="paradigm.svg"
   inkscape:version="0.92.4 (5da689c313, 2019-01-14)"><metadata
   id="metadata269"><rdf:RDF><cc:Work
       rdf:about=""><dc:format>image/svg+xml</dc:format><dc:type
         rdf:resource="http://purl.org/dc/dcmitype/StillImage" /><dc:title></dc:title></cc:Work></rdf:RDF></metadata><sodipodi:namedview
   pagecolor="#ffffff"
   bordercolor="#666666"
   borderopacity="1"
   objecttolerance="10"
   gridtolerance="10"
   guidetolerance="10"
   inkscape:pageopacity="0"
   inkscape:pageshadow="2"
   inkscape:window-width="1301"
   inkscape:window-height="744"
   id="namedview267"
   showgrid="false"
   inkscape:zoom="0.2102413"
   inkscape:cx="396.85039"
   inkscape:cy="561.25984"
   inkscape:window-x="65"
   inkscape:window-y="24"
   inkscape:window-maximized="1"
   inkscape:current-layer="svg265" />
 <defs
   id="defs7">
  <style
   type="text/css"
   id="style2">
   <![CDATA[
    .fil0 {fill:#2F2E41}
    .fil2 {fill:#3F3D56}
    .fil8 {fill:#575A89}
    .fil7 {fill:#E6D5E2}
    .fil3 {fill:#E73273}
    .fil1 {fill:#F2F2F2}
    .fil5 {fill:#FF6584}
    .fil9 {fill:#FFB8B8}
    .fil6 {fill:black;fill-opacity:0.101961}
    .fil4 {fill:#F2F2F2;fill-opacity:0.101961}
   ]]>
   .bg {
    animation: fade 5s 0.5s infinite;
    opacity: 0;
   }
   .moon {
    animation: move 5s 0.5s infinite;
   }
   .moonlight {
    animation: appear 5s infinite;
    transform: translateX(500px);
   }
   .tune1 {
    animation: shake 1s 1s linear infinite;
   }
   .tune2 {
    animation: shake 1s 2s linear infinite;
   }
   .tune3 {
    animation: shake 1s 3s linear infinite;
   }
   .tune4 {
    animation: shake 1s 4s linear infinite;
   }
   <!-- Animations-->
   @keyframes fade {
    70% {
      opacity: 0;
    }
    90% {
      opacity: 1;
    }
    100% {
      opacity: 0;
    }
   }
   @keyframes move {
    0% {
      transform: rotate(5deg) translateX(50px) rotate(5deg);
      opacity: 0;
    }
    10% {
      transform: rotate(5deg) translateX(50px) rotate(5deg);
      opacity: 1;
    }
    90% {
      transform: rotate(0deg) translateX(500px) rotate(0deg);
      opacity: 1;
    }
    100% {
      transform: rotate(0deg) translateX(500px) rotate(0deg);
      opacity: 0;
    }
   }
   @keyframes appear {
    0% {
        opacity: 0;
    }
    80% {
        opacity: 0;
    }
    100% {
        opacity: 1;
    }
   }
  @keyframes shake {
    10%, 90% {
      transform: translate3d(-10px, 0, 0);
    }
    20%, 80% {
      transform: translate3d(20px, 0, 0);
    }
    30%, 50%, 70% {
      transform: translate3d(-40px, 0, 0);
    }
    40%, 60% {
      transform: translate3d(40px, 0, 0);
    }
  </style>
    <clipPath
   id="id0">
     <path
   d="m 9096.77,12588.88 h 8244.77 v 5801.05 H 9096.77 Z"
   id="path4"
   inkscape:connector-curvature="0" />
    </clipPath>
 </defs>
 <g
   id="Layer_x0020_1"
   transform="translate(0,-4856.2506)">
  <metadata
   id="CorelCorpID_0Corel-Layer" />
  <path
   class="fil0"
   d="m 10423.75,8327.52 c -5306.97,0 -9613.72,4281.68 -9654.68,9578.99 H 20078.43 C 20037.47,12609.2 15730.72,8327.52 10423.75,8327.52 Z"
   id="path10"
   inkscape:connector-curvature="0" />
  <circle
   class="fil1"
   cx="9925.0498"
   cy="9328.1504"
   r="95.220001"
   id="circle12" />
  <circle
   class="fil1"
   cx="6935.1899"
   cy="12470.37"
   r="38.080002"
   id="circle14" />
  <circle
   class="fil1"
   cx="12553.08"
   cy="14260.48"
   r="38.080002"
   id="circle16" />
  <circle
   class="fil1"
   cx="2631.3101"
   cy="13784.38"
   r="38.080002"
   id="circle18" />
  <circle
   class="fil1"
   cx="17485.4"
   cy="12432.28"
   r="38.080002"
   id="circle20" />
  <circle
   class="fil1"
   cx="5259.3398"
   cy="12832.2"
   r="38.080002"
   id="circle22" />
  <circle
   class="fil1"
   cx="11505.67"
   cy="12070.45"
   r="38.080002"
   id="circle24" />
  <circle
   class="fil1"
   cx="12762.56"
   cy="9328.1504"
   r="38.080002"
   id="circle26" />
  <rect
   class="fil1"
   x="4802.29"
   y="13822.47"
   width="38.09"
   height="19.040001"
   id="rect28" />
  <rect
   class="fil1"
   x="5925.8701"
   y="10908.79"
   width="38.09"
   height="19.040001"
   id="rect30" />
  <rect
   class="fil1"
   x="15942.86"
   y="13917.69"
   width="38.09"
   height="19.040001"
   id="rect32" />
  <rect
   class="fil1"
   x="13676.66"
   y="11004"
   width="38.09"
   height="19.040001"
   id="rect34" />
  <rect
   class="fil2"
   x="5055.6099"
   y="15253.34"
   width="67.019997"
   height="2647.1399"
   id="rect36" />
  <path
   class="fil2"
   d="m 5741.1,14790.85 c 4.27,925.64 -646.97,1679.04 -646.97,1679.04 0,0 -658.15,-747.36 -662.42,-1673 -4.27,-925.65 646.98,-1679.04 646.98,-1679.04 0,0 658.15,747.37 662.41,1673 z"
   id="path38"
   inkscape:connector-curvature="0" />
  <rect
   class="fil2"
   x="4208.5498"
   y="14468.59"
   width="86.879997"
   height="3431.8899"
   id="rect40" />
  <path
   class="fil2"
   d="m 5097.27,14106.11 c 5.53,1200.04 -838.77,2176.79 -838.77,2176.79 0,0 -853.26,-968.92 -858.8,-2168.97 -5.53,-1200.05 838.77,-2176.78 838.77,-2176.78 0,0 853.26,968.91 858.8,2168.96 z"
   id="path42"
   inkscape:connector-curvature="0" />
  <rect
   class="fil3"
   x="14329.9"
   y="15253.34"
   width="67.019997"
   height="2647.1399"
   id="rect44" />
  <path
   class="fil2"
   d="m 15015.4,15590.69 c 4.26,925.64 -646.98,1679.03 -646.98,1679.03 0,0 -658.15,-747.35 -662.42,-1673 -4.27,-925.64 646.98,-1679.03 646.98,-1679.03 0,0 658.15,747.36 662.42,1673 z"
   id="path46"
   inkscape:connector-curvature="0" />
  <rect
   class="fil2"
   x="3455.9299"
   y="15253.34"
   width="67.019997"
   height="2647.1399"
   id="rect48" />
  <path
   class="fil2"
   d="m 4141.43,14790.85 c 4.27,925.64 -646.97,1679.04 -646.97,1679.04 0,0 -658.15,-747.36 -662.42,-1673 -4.27,-925.65 646.97,-1679.04 646.97,-1679.04 0,0 658.15,747.37 662.42,1673 z"
   id="path50"
   inkscape:connector-curvature="0" />
  <path
   class="fil3"
   d="m 14830.22,16486.1 -1119.83,-1029.66 c -3.03,46.27 -4.6,93.04 -4.39,140.29 4.27,925.64 662.42,1673 662.42,1673 191.37,-236.88 347.32,-501.48 461.64,-783.49 z"
   id="path52"
   inkscape:connector-curvature="0" />
  <path
   class="fil2"
   d="m 6494.44,17664.35 c 38.37,141.83 169.8,229.67 169.8,229.67 0,0 69.21,-142.11 30.84,-283.94 -38.37,-141.83 -169.79,-229.68 -169.79,-229.68 0,0 -69.22,142.12 -30.85,283.95 z"
   id="path54"
   inkscape:connector-curvature="0" />
  <path
   class="fil2"
   d="m 6550.82,17633.87 c 105.28,102.49 118.14,260.04 118.14,260.04 0,0 -157.83,-8.62 -263.12,-111.11 -105.29,-102.5 -118.14,-260.04 -118.14,-260.04 0,0 157.84,8.62 263.12,111.11 z"
   id="path56"
   inkscape:connector-curvature="0" />
  <path
   class="fil3"
   d="m 11902.85,17664.35 c 38.37,141.83 169.8,229.67 169.8,229.67 0,0 69.21,-142.11 30.84,-283.94 -38.37,-141.83 -169.79,-229.68 -169.79,-229.68 0,0 -69.21,142.12 -30.85,283.95 z"
   id="path58"
   inkscape:connector-curvature="0" />
  <path
   class="fil3"
   d="m 11959.24,17633.87 c 105.28,102.49 118.14,260.04 118.14,260.04 0,0 -157.83,-8.62 -263.12,-111.11 -105.29,-102.5 -118.14,-260.04 -118.14,-260.04 0,0 157.83,8.62 263.12,111.11 z"
   id="path60"
   inkscape:connector-curvature="0" />
  <path
   class="fil2"
   d="m 2228.65,17664.35 c 38.37,141.83 169.79,229.67 169.79,229.67 0,0 69.21,-142.11 30.84,-283.94 -38.37,-141.83 -169.79,-229.68 -169.79,-229.68 0,0 -69.21,142.12 -30.84,283.95 z"
   id="path62"
   inkscape:connector-curvature="0" />
  <path
   class="fil2"
   d="m 2285.03,17633.87 c 105.28,102.49 118.14,260.04 118.14,260.04 0,0 -157.84,-8.62 -263.12,-111.11 -105.29,-102.5 -118.15,-260.04 -118.15,-260.04 0,0 157.85,8.62 263.13,111.11 z"
   id="path64"
   inkscape:connector-curvature="0" />
  <path
   class="fil4"
   d="m 18720.01,17788.23 c 30.25,0 54.8,-24.55 54.8,-54.81 0,-30.26 -24.55,-54.8 -54.8,-54.8 l -450.58,0.01 c 8.5,16.99 12.94,35.78 12.94,54.79 0,46.41 -26.24,88.85 -67.74,109.59 0,30.27 24.55,54.81 54.8,54.81 h 450.58 c 30.25,0 54.8,-24.54 54.8,-54.8 0,-30.26 -24.55,-54.8 -54.8,-54.8 z"
   id="path66"
   inkscape:connector-curvature="0" />
  <path
   class="fil2"
   d="m 17649.1,17675.16 c 7.7,298.84 -173.07,222.67 -392.22,222.67 -219.15,0 -399.92,38.09 -401.4,-222.67 -0.72,-128.41 178.96,-156.34 398.12,-156.34 219.15,0 392.2,27.97 395.5,156.34 z"
   id="path68"
   inkscape:connector-curvature="0" />
  <path
   class="fil5"
   d="m 17634.96,16836.61 c 3.16,-0.55 6.28,-1.41 9.4,-2.21 -2.81,-0.36 -5.65,-0.54 -8.47,-0.54 -7.25,0 -14.46,1.16 -21.35,3.41 2.49,0.22 5.03,0.34 7.53,0.34 4.31,0 8.64,-0.34 12.89,-1 z"
   id="path70"
   inkscape:connector-curvature="0" />
  <path
   class="fil5"
   d="m 17698.48,16858.29 c 2.16,4.11 3.88,8.45 6.29,12.43 3.39,5.57 8.05,10.28 13.59,13.74 4,1.95 7.7,4.53 10.9,7.63 2.68,4.06 4.11,8.82 4.11,13.69 0,1.69 -0.18,3.4 -0.53,5.07 -0.63,8.34 -3.13,16.46 -7.32,23.71 -4.11,6.91 -10.84,11.88 -18.66,13.78 4.37,10.33 6.62,21.47 6.62,32.69 0,46.36 -37.6,83.96 -83.96,83.96 -4.68,0 -9.38,-0.4 -14,-1.18 -2.42,1.59 -5.94,2.58 -8.48,3.98 -10.53,5.38 -20.62,11.79 -29.98,19.01 -4.77,3.88 -9.07,8.34 -12.78,13.25 0.51,0.54 1.26,0.82 1.7,1.41 2.49,3.77 4.13,8.05 4.76,12.52 -0.38,5.87 -0.6,11.87 -0.6,17.76 0,12.15 0.87,24.34 2.54,36.36 -0.11,8.08 -1.29,16.17 -3.5,23.96 0.05,0.4 0.07,0.81 0.07,1.22 0,2.73 -0.97,5.37 -2.74,7.45 -1.13,3.24 -2.36,6.43 -3.7,9.6 0.51,0.53 1.01,1.08 1.52,1.57 3.65,3.57 5.73,8.5 5.73,13.63 0,1.31 -0.14,2.62 -0.41,3.9 -0.83,2.53 -1.42,5.14 -1.72,7.78 0.32,3.23 1.28,6.38 2.8,9.25 0.12,0.3 0.13,0.64 0.25,0.94 12.19,-1.89 24.39,-3.74 36.65,-5.12 6.04,-0.69 12.15,-1.11 18.19,-1.2 -0.45,-1.23 -0.71,-2.54 -0.76,-3.87 0.3,-2.64 0.88,-5.25 1.73,-7.77 0.26,-1.29 0.4,-2.6 0.4,-3.91 0,-5.13 -2.07,-10.06 -5.74,-13.64 -0.5,-0.48 -1,-1.04 -1.51,-1.57 1.35,-3.16 2.58,-6.35 3.7,-9.58 1.77,-2.09 2.74,-4.73 2.74,-7.46 0,-0.41 -0.02,-0.82 -0.06,-1.22 2.2,-7.79 3.38,-15.88 3.48,-23.98 -1.67,-12 -2.53,-24.19 -2.53,-36.34 0,-5.89 0.22,-11.89 0.61,-17.75 -0.64,-4.48 -2.28,-8.76 -4.77,-12.52 -0.45,-0.6 -1.19,-0.88 -1.7,-1.41 3.71,-4.92 8,-9.38 12.78,-13.26 9.35,-7.22 19.44,-13.63 29.98,-19.01 2.53,-1.39 6.06,-2.38 8.48,-3.98 3.68,0.62 7.46,1.01 11.2,1.13 0.17,0 0.36,0 0.53,0 47.2,0 85.47,-38.27 85.47,-85.48 0,-10.64 -1.99,-21.21 -5.86,-31.12 7.81,-1.9 14.54,-6.87 18.66,-13.77 4.18,-7.26 6.69,-15.38 7.32,-23.73 0.35,-1.67 0.53,-3.37 0.53,-5.07 0,-4.87 -1.43,-9.62 -4.11,-13.68 -3.2,-3.1 -6.89,-5.68 -10.9,-7.63 -5.53,-3.46 -10.2,-8.17 -13.58,-13.76 -2.41,-3.97 -4.13,-8.32 -6.3,-12.43 -7.33,-15.52 -22.69,-25.69 -39.83,-26.38 -7.95,1 -15.94,2.59 -23.7,4.72 -3.72,0.58 -7.52,0.89 -11.32,0.89 -0.62,0 -1.26,-0.02 -1.87,-0.03 8.3,5.01 15.08,12.22 19.59,20.81 z"
   id="path72"
   inkscape:connector-curvature="0" />
  <path
   class="fil5"
   d="m 17844.98,17745.58 c 0.94,0.86 1.86,1.76 2.82,2.59 -0.7,-1.02 -1.48,-2.01 -2.1,-3.07 z"
   id="path74"
   inkscape:connector-curvature="0" />
  <path
   class="fil5"
   d="m 18695.66,17587.3 c 0,201.76 -89.97,146.13 -200.93,146.13 -110.97,0 -200.93,55.63 -200.93,-146.13 0,-201.77 200.93,-584.53 200.93,-584.53 0,0 200.93,382.76 200.93,584.53 z"
   id="path76"
   inkscape:connector-curvature="0" />
  <path
   class="fil6"
   d="m 18586.06,17664.49 c 0,91.71 -40.89,66.43 -91.33,66.43 -50.44,0 -91.33,25.28 -91.33,-66.43 0,-91.71 91.33,-265.69 91.33,-265.69 0,0 91.33,173.99 91.33,265.69 z"
   id="path78"
   inkscape:connector-curvature="0" />
  <g
   id="g82">
   <path
   class="fil5"
   d="m 18746.58,17048.17 c 0,0 41.75,-43.41 40.91,-85.98 z m 0,0 z"
   id="path80"
   inkscape:connector-curvature="0" />
  </g>
  <g
   id="g86">
   <path
   class="fil5"
   d="m 18318.79,16686.49 c 0,0 -17.43,-57.64 -54.96,-77.75 z m 0,0 z"
   id="path84"
   inkscape:connector-curvature="0" />
  </g>
  <g
   id="g90">
   <path
   class="fil5"
   d="m 17899.83,15905.7 c 0,0 -17.43,-57.64 -54.96,-77.75 z m 0,0 z"
   id="path88"
   inkscape:connector-curvature="0" />
  </g>
  <g
   id="g94">
   <path
   class="fil5"
   d="m 18394.96,16953.11 c 0,0 -17.42,-57.65 -54.96,-77.76 z m 0,0 z"
   id="path92"
   inkscape:connector-curvature="0" />
  </g>
  <g
   id="g98">
   <path
   class="fil5"
   d="m 18337.83,16019.96 c 0,0 -17.42,-57.64 -54.96,-77.75 z m 0,0 z"
   id="path96"
   inkscape:connector-curvature="0" />
  </g>
  <g
   id="g102">
   <path
   class="fil5"
   d="m 18223.57,16362.75 c 0,0 -17.42,-57.65 -54.96,-77.76 z m 0,0 z"
   id="path100"
   inkscape:connector-curvature="0" />
  </g>
  <g
   id="g106">
   <path
   class="fil5"
   d="m 18708.49,17638.53 c 0,0 41.75,-43.41 40.91,-85.98 z m 0,0 z"
   id="path104"
   inkscape:connector-curvature="0" />
  </g>
  <g
   id="g110">
   <path
   class="fil5"
   d="m 18784.67,17314.79 c 0,0 41.75,-43.41 40.91,-85.99 z m 0,0 z"
   id="path108"
   inkscape:connector-curvature="0" />
  </g>
  <rect
   class="fil5"
   transform="matrix(0.682827,-0.227609,0.227609,0.682827,17806.1,17412.7)"
   width="669.34998"
   height="26.469999"
   id="rect112"
   x="0"
   y="0" />
  <path
   class="fil5"
   d="m 18230,17278.52 c 17.15,67.04 -11.65,51.03 -37.92,56.46 -26.27,5.44 -21.1,29.63 -57.21,-36.78 -24.98,-45.92 11.64,-51.03 37.91,-56.46 26.28,-5.44 45.51,-9.01 57.22,36.78 z"
   id="path114"
   inkscape:connector-curvature="0" />
  <circle
   class="moon fil1"
   cx="7144.6699"
   cy="10089.91"
   r="514.17999"
   id="circle116" />
  <g
   id="g186">
   <path
   class="bg fil7"
   d="m 15064.78,13764.93 c -1160.66,-894.64 -2775.4,-931.2 -3953.43,-59.51 -622.74,460.8 -1105.52,1165.8 -1017.68,2239.21 31.03,379.69 117.44,691.18 243.5,946.16 510.58,1033.69 2607.65,993.89 2724.12,993.74 75.45,-0.08 150.91,1.61 226.36,5.06 263.91,12.35 381.42,-209.57 639.63,-155.7 369.24,77.03 839.36,115.63 1259.38,-30.14 70.84,-24.85 140.71,-55.12 207.17,-90.43 230.83,-122.64 635.95,15.45 787.01,-275.49 113.52,-218.36 196.22,-492.15 236.03,-833.16 144.9,-1241.91 -578.97,-2143.81 -1352.09,-2739.74 z"
   id="path118"
   inkscape:connector-curvature="0" />
   <polygon
   class="fil8"
   points="14383.24,17893.33 15332.89,17893.33 15332.89,14226.61 15332.89,14081.52 15332.89,13732 14838.27,13732 14838.27,14081.52 14383.24,14081.52 "
   id="polygon120" />
   <polygon
   class="fil8"
   points="11751.9,16079.75 11534.28,16079.75 11534.28,17899.92 12543.28,17899.92 12543.28,16079.75 12332.24,16079.75 12332.24,15479.63 11751.9,15479.63 "
   id="polygon122" />
   <rect
   class="fil2"
   x="11646.38"
   y="17055.779"
   width="784.78003"
   height="850.72998"
   id="rect124" />
   <polygon
   class="fil6"
   points="11646.39,17055.78 11646.39,17906.51 11771.69,17906.51 11771.69,17055.78 "
   id="polygon126" />
   <polygon
   class="fil2"
   points="12886.21,13540.74 12543.28,13540.74 12543.28,17906.51 14383.24,17906.51 14383.24,13540.74 14046.9,13540.74 14046.9,13745.19 12886.21,13745.19 "
   id="polygon128" />
   <polygon
   class="fil6"
   points="14046.9,13540.75 14046.9,13745.19 14304.09,13745.19 14304.09,13540.75 "
   id="polygon130" />
   <polygon
   class="fil6"
   points="12543.28,13540.75 12543.28,17906.51 12800.48,17906.51 12800.48,13540.75 "
   id="polygon132" />
   <polygon
   class="fil2"
   points="11059.45,14787.17 10749.49,14787.17 10749.49,17906.51 11534.28,17906.51 11534.28,14787.17 11230.91,14787.17 11230.91,14622.3 11059.45,14622.3 "
   id="polygon134" />
   <polygon
   class="fil6"
   points="11059.45,14622.3 11059.45,14787.17 11151.78,14787.17 11151.78,14622.3 "
   id="polygon136" />
   <polygon
   class="fil6"
   points="10749.49,14787.17 10749.49,17906.51 10841.82,17906.51 10841.82,14787.17 "
   id="polygon138" />
   <polygon
   class="fil6"
   points="14046.9,15222.42 14046.9,17906.51 14304.09,17906.51 14304.09,15222.42 "
   id="polygon140" />
   <polygon
   class="fil6"
   points="11296.86,14787.17 11296.86,15360.92 11534.28,15360.92 11534.28,14787.17 "
   id="polygon142" />
   <rect
   class="fil5"
   x="12826.86"
   y="14094.71"
   width="369.31"
   height="158.28"
   id="rect144" />
   <rect
   class="fil5"
   x="13611.64"
   y="15723.63"
   width="369.31"
   height="158.28"
   id="rect146" />
   <rect
   class="fil5"
   x="12826.86"
   y="16864.529"
   width="369.31"
   height="158.28"
   id="rect148" />
   <rect
   class="fil5"
   x="10960.53"
   y="15499.41"
   width="369.31"
   height="158.28"
   id="rect150" />
   <rect
   class="fil5"
   x="11857.42"
   y="17148.109"
   width="369.31"
   height="158.28"
   id="rect152" />
   <polygon
   class="fil6"
   points="11725.52,16218.24 11725.52,16482.03 12358.62,16482.03 12358.62,16218.24 "
   id="polygon154" />
   <polygon
   class="fil6"
   points="14495.35,14384.88 14495.35,14648.68 15128.45,14648.68 15128.45,14384.88 "
   id="polygon156" />
   <polygon
   class="fil6"
   points="14495.35,14945.44 14495.35,15209.23 15128.45,15209.23 15128.45,14945.44 "
   id="polygon158" />
   <polygon
   class="fil6"
   points="14495.35,15506 14495.35,15769.79 15128.45,15769.79 15128.45,15506 "
   id="polygon160" />
   <polygon
   class="fil6"
   points="14495.35,16066.56 14495.35,16330.35 15128.45,16330.35 15128.45,16066.56 "
   id="polygon162" />
   <polygon
   class="fil6"
   points="14495.35,16627.12 14495.35,16890.91 15128.45,16890.91 15128.45,16627.12 "
   id="polygon164" />
   <polygon
   class="fil6"
   points="14495.35,17187.68 14495.35,17451.47 15128.45,17451.47 15128.45,17187.68 "
   id="polygon166" />
   <polygon
   class="fil2"
   points="15088.87,15578.54 14924,15578.54 14924,17906.51 15708.79,17906.51 15708.79,15578.54 15550.52,15578.54 15550.52,14859.71 15088.87,14859.71 "
   id="polygon168" />
   <polygon
   class="fil6"
   points="15088.88,14859.71 15088.88,15578.55 15233.96,15578.55 15233.96,14859.71 "
   id="polygon170" />
   <polygon
   class="fil6"
   points="14924.01,15578.55 14924.01,17906.51 15069.09,17906.51 15069.09,15578.55 "
   id="polygon172" />
   <polygon
   class="fil6"
   points="15319.7,16745.82 15319.7,16976.64 15708.79,16976.64 15708.79,16745.82 "
   id="polygon174" />
   <rect
   class="fil5"
   x="15332.89"
   y="16402.9"
   width="369.31"
   height="158.28"
   id="rect176" />
   <path
   class="fil3"
   d="m 16858.12,16562.68 c 0,587.54 -349.29,792.69 -780.15,792.69 -430.86,0 -780.14,-205.15 -780.14,-792.69 0,-587.54 780.14,-1334.98 780.14,-1334.98 0,0 780.15,747.44 780.15,1334.98 z"
   id="path178"
   inkscape:connector-curvature="0" />
   <polygon
   class="fil2"
   points="16058.79,16696.64 16062.39,16475.54 16291.56,16035.42 16063.33,16417.04 16063.33,16417.04 16069.8,16019.39 16315.19,15668.99 16070.81,15956.85 16074.85,15227.7 16049.48,16192.96 16051.57,16153.14 15802.07,15771.24 16047.57,16229.59 16024.32,16673.7 16023.62,16661.91 15736,16260.01 16022.76,16703.55 16019.85,16759.1 16019.32,16759.92 16019.57,16764.48 15960.59,17891.23 16039.39,17891.23 16048.84,17309.24 16334.9,16866.8 16049.56,17265.49 16057.54,16773.78 16390.06,16165.45 "
   id="polygon180" />
   <path
   class="fil3"
   d="m 11140.48,16569.04 c 0,587.54 -349.28,792.69 -780.15,792.69 -430.86,0 -780.14,-205.15 -780.14,-792.69 0,-587.54 780.14,-1334.98 780.14,-1334.98 0,0 780.15,747.44 780.15,1334.98 z"
   id="path182"
   inkscape:connector-curvature="0" />
   <polygon
   class="fil2"
   points="10341.16,16703 10344.75,16481.9 10573.91,16041.78 10345.7,16423.39 10345.7,16423.4 10352.16,16025.75 10597.56,15675.35 10353.18,15963.22 10357.21,15234.06 10331.84,16199.32 10333.93,16159.5 10084.42,15777.6 10329.92,16235.94 10306.68,16680.05 10305.99,16668.27 10018.36,16266.37 10305.12,16709.91 10302.21,16765.45 10301.69,16766.28 10301.92,16770.84 10242.94,17897.58 10321.75,17897.58 10331.2,17315.6 10617.26,16873.16 10331.91,17271.85 10339.9,16780.13 10672.42,16171.81 "
   id="polygon184" />
  </g>
  <g
   id="g220">
   <path
   class="fil9"
   d="m 13112.42,16368.74 c 0,0 25.32,56.6 -26.82,67.03 -52.13,10.43 61.07,62.56 61.07,62.56 l 87.89,-14.9 44.68,-34.25 c 0,0 -89.37,-53.63 -77.45,-95.33 11.91,-41.71 -89.37,14.89 -89.37,14.89 z"
   id="path188"
   inkscape:connector-curvature="0" />
   <path
   class="fil6"
   d="m 13112.42,16368.74 c 0,0 25.32,56.6 -26.82,67.03 -52.13,10.43 61.07,62.56 61.07,62.56 l 87.89,-14.9 44.68,-34.25 c 0,0 -89.37,-53.63 -77.45,-95.33 11.91,-41.71 -89.37,14.89 -89.37,14.89 z"
   id="path190"
   inkscape:connector-curvature="0" />
   <circle
   class="fil5"
   cx="13157.1"
   cy="16239.13"
   r="133.14999"
   id="circle192" />
   <path
   class="fil9"
   d="m 13385,16541.52 32.77,202.58 135.54,113.2 c 0,0 93.84,53.62 49.16,87.88 -44.69,34.26 -96.08,-58.83 -96.08,-58.83 0,0 -135.54,-49.16 -151.93,-113.21 -16.38,-64.04 -56.42,-176.55 -56.42,-176.55 z"
   id="path194"
   inkscape:connector-curvature="0" />
   <path
   class="fil9"
   d="m 12915.8,17168.61 c 0,0 19.36,184.7 14.9,198.11 -4.47,13.4 8.93,224.91 8.93,224.91 l 84.9,-19.36 c 0,0 12.67,-110.97 2.24,-219.7 0,0 31.28,-102.78 1.49,-162.36 -29.79,-59.58 -112.46,-21.6 -112.46,-21.6 z"
   id="path196"
   inkscape:connector-curvature="0" />
   <path
   class="fil9"
   d="m 13178.7,17239.36 c 0,0 43.19,128.1 70.01,154.91 0,0 39.47,189.91 79.69,197.36 40.21,7.45 75.96,-34.26 75.96,-34.26 0,0 -46.17,-171.29 -74.47,-198.1 l -34.26,-140.02 z"
   id="path198"
   inkscape:connector-curvature="0" />
   <path
   class="fil0"
   d="m 13034.96,17554.39 h -104.26 l 11.91,123.63 c 0,0 7.45,113.21 -4.47,131.08 -11.91,17.88 -22.34,101.3 19.37,98.33 41.7,-2.98 61.07,-23.85 61.07,-32.79 0,-8.94 4.47,-111.71 14.89,-129.59 10.43,-17.87 10.43,-58.09 -7.45,-64.05 -17.87,-5.95 8.94,-126.61 8.94,-126.61 z"
   id="path200"
   inkscape:connector-curvature="0" />
   <path
   class="fil0"
   d="m 13306.05,17579.72 59.58,105.75 c 0,0 -10.42,31.28 2.98,55.11 13.41,23.84 16.39,68.52 16.39,86.4 0,17.87 20.85,86.4 67.03,80.44 46.17,-5.96 26.81,-62.57 26.81,-62.57 l -35.75,-142.99 -38.73,-160.87 z"
   id="path202"
   inkscape:connector-curvature="0" />
   <polygon
   class="fil9"
   points="12950.06,16961.57 13020.07,16605.57 12972.4,16593.66 12956.02,16697.92 12847.28,16936.25 "
   id="polygon204" />
   <circle
   class="fil9"
   cx="13156.36"
   cy="16302.46"
   r="98.309998"
   id="circle206" />
   <path
   class="fil0"
   d="m 13322.44,16465.56 -55.57,-24.45 c 0,0 -82.96,40.83 -181.26,-5.34 l -77.46,14.89 c 0,0 0,129.59 -13.4,140.02 -13.41,10.43 -29.79,53.62 -20.86,78.94 8.94,25.33 23.83,95.33 -2.98,108.74 -26.81,13.4 -116.18,55.11 -141.5,102.77 -25.32,47.67 -172.78,13.41 -178.74,74.48 -5.96,61.07 95.33,131.08 61.07,195.13 -34.26,64.04 -50.65,77.45 49.15,84.9 99.8,7.45 199.6,-68.52 283.01,-8.94 83.41,59.58 187.68,80.44 227.89,46.18 40.22,-34.26 90.87,-107.25 157.89,-105.76 67.03,1.49 120.65,-8.94 111.72,-52.13 -8.94,-43.2 37.23,-20.86 -8.94,-77.46 -46.17,-56.6 -180.23,-81.92 -199.59,-137.03 -19.37,-55.11 -107.25,-77.46 -107.25,-77.46 0,0 -14.89,-20.85 8.94,-34.25 23.83,-13.41 87.88,-323.23 87.88,-323.23 z"
   id="path208"
   inkscape:connector-curvature="0" />
   <path
   class="fil0"
   d="m 13029,16464.07 -20.85,-13.41 c 0,0 -99.8,56.61 -90.86,86.4 8.94,29.79 16.38,20.85 13.4,46.17 -2.98,25.32 -16.38,26.81 5.96,32.77 22.35,5.96 28.3,-8.94 28.3,11.92 0,20.85 37.24,14.89 37.24,14.89 z"
   id="path210"
   inkscape:connector-curvature="0" />
   <path
   class="fil0"
   d="m 13304.56,16473.01 17.88,-7.45 c 0,0 81.92,61.07 72.98,117.67 -8.93,56.6 -47.66,-1.49 -53.62,13.41 -5.96,14.89 -25.32,14.89 -26.81,38.72 -1.49,23.84 17.87,28.3 -1.49,32.77 -19.36,4.47 -58.09,-101.28 -58.09,-101.28 z"
   id="path212"
   inkscape:connector-curvature="0" />
   <rect
   class="fil5"
   x="13064.01"
   y="16180.32"
   width="184.7"
   height="105.76"
   id="rect214" />
   <circle
   class="fil5"
   cx="13110.18"
   cy="16102.79"
   r="43.200001"
   id="circle216" />
   <circle
   class="fil5"
   cx="13217.41"
   cy="16105.77"
   r="43.200001"
   id="circle218" />
  </g>
  <polygon
   class="moonlight fil4"
   points="11298.49,13238.78 11294.76,13239.72 11128.38,13088.45 11120.34,13086.11 11129,13082.81 9359.48,11455.86 9359.48,11455.86 7650.57,9884.58 6779.8,10346.46 6708.57,10362.23 7752.11,11937.15 11701.46,17897.83 16365.64,17897.83 11714.02,13620.86 11714,13620.84 "
   id="polygon222" />
  <g
   id="g256">
   <path
   class="tune1 fil3"
   d="m 12760.05,15887.54 c -1.37,-1.19 -3.17,-1.74 -4.99,-1.52 l -196.13,25.38 c -3.16,0.41 -5.52,3.09 -5.52,6.27 v 38.07 26.65 164.71 c -10.99,-12.59 -28.13,-20.72 -47.44,-20.72 -33.2,0 -60.11,23.92 -60.11,53.43 0,29.5 26.91,53.42 60.11,53.42 33.19,0 60.1,-23.92 60.1,-53.42 0,-2.1 -0.17,-4.17 -0.43,-6.21 0.25,-0.68 0.43,-1.4 0.43,-2.17 v -183.49 l 183.48,-23.74 v 119.63 c -11,-12.58 -28.14,-20.71 -47.45,-20.71 -33.2,0 -60.11,23.92 -60.11,53.42 0,29.5 26.91,53.42 60.11,53.42 33.19,0 60.1,-23.92 60.1,-53.42 0,-0.58 -0.08,-1.15 -0.09,-1.72 0.01,-0.17 0.09,-0.32 0.09,-0.49 v -157.33 -26.64 -38.06 c 0,-1.83 -0.78,-3.56 -2.15,-4.76 z"
   id="path224"
   inkscape:connector-curvature="0" />
   <g
   id="g226">
   </g>
   <g
   id="g228">
   </g>
   <g
   id="g230">
   </g>
   <g
   id="g232">
   </g>
   <g
   id="g234">
   </g>
   <g
   id="g236">
   </g>
   <g
   id="g238">
   </g>
   <g
   id="g240">
   </g>
   <g
   id="g242">
   </g>
   <g
   id="g244">
   </g>
   <g
   id="g246">
   </g>
   <g
   id="g248">
   </g>
   <g
   id="g250">
   </g>
   <g
   id="g252">
   </g>
   <g
   id="g254">
   </g>
  </g>
  <path
   class="tune2 fil3"
   d="m 13508.64,15695.54 c 1.37,-1.2 3.17,-1.74 5,-1.52 l 196.12,25.37 c 3.16,0.41 5.52,3.1 5.52,6.28 v 38.07 26.64 164.72 c 10.99,-12.59 28.13,-20.72 47.44,-20.72 33.2,0 60.11,23.92 60.11,53.42 0,29.5 -26.91,53.42 -60.11,53.42 -33.19,0 -60.1,-23.92 -60.1,-53.42 0,-2.1 0.17,-4.16 0.44,-6.2 -0.26,-0.69 -0.44,-1.4 -0.44,-2.17 v -183.49 l -183.47,-23.75 v 119.64 c 10.99,-12.59 28.13,-20.72 47.45,-20.72 33.19,0 60.1,23.92 60.1,53.43 0,29.5 -26.91,53.42 -60.1,53.42 -33.2,0 -60.11,-23.92 -60.11,-53.42 0,-0.59 0.08,-1.15 0.1,-1.73 -0.02,-0.17 -0.1,-0.31 -0.1,-0.48 v -157.34 -26.64 -38.06 c 0,-1.82 0.79,-3.55 2.15,-4.75 z"
   id="path258"
   inkscape:connector-curvature="0" />
  <path
   class="tune3 fil3"
   d="m 12849.94,15226.4 c 1.36,-1.2 3.17,-1.74 4.99,-1.53 l 196.13,25.38 c 3.16,0.41 5.52,3.09 5.52,6.28 v 38.06 26.65 164.72 c 10.98,-12.59 28.12,-20.72 47.44,-20.72 33.2,0 60.1,23.92 60.1,53.42 0,29.5 -26.9,53.42 -60.1,53.42 -33.2,0 -60.1,-23.92 -60.1,-53.42 0,-2.1 0.17,-4.16 0.43,-6.21 -0.25,-0.68 -0.43,-1.39 -0.43,-2.17 v -183.48 l -183.48,-23.75 v 119.63 c 11,-12.58 28.14,-20.71 47.45,-20.71 33.2,0 60.1,23.92 60.1,53.42 0,29.51 -26.9,53.43 -60.1,53.43 -33.2,0 -60.1,-23.92 -60.1,-53.43 0,-0.58 0.07,-1.14 0.09,-1.72 -0.01,-0.17 -0.09,-0.31 -0.09,-0.48 v -157.34 -26.64 -38.06 c 0,-1.82 0.78,-3.56 2.15,-4.75 z"
   id="path260"
   inkscape:connector-curvature="0" />
  <path
   class="tune4 fil3"
   d="m 13770.06,15008.93 c -1.37,-1.2 -3.17,-1.74 -5,-1.53 l -196.12,25.38 c -3.16,0.41 -5.52,3.1 -5.52,6.28 v 38.07 26.64 164.72 c -10.99,-12.59 -28.13,-20.72 -47.44,-20.72 -33.2,0 -60.11,23.92 -60.11,53.42 0,29.5 26.91,53.42 60.11,53.42 33.19,0 60.1,-23.92 60.1,-53.42 0,-2.1 -0.17,-4.16 -0.44,-6.2 0.26,-0.69 0.44,-1.4 0.44,-2.17 v -183.49 l 183.47,-23.75 v 119.64 c -10.99,-12.59 -28.13,-20.72 -47.45,-20.72 -33.19,0 -60.1,23.92 -60.1,53.42 0,29.51 26.91,53.43 60.1,53.43 33.2,0 60.11,-23.92 60.11,-53.43 0,-0.58 -0.08,-1.14 -0.1,-1.72 0.01,-0.17 0.1,-0.31 0.1,-0.48 v -157.34 -26.64 -38.06 c 0,-1.82 -0.79,-3.55 -2.15,-4.75 z"
   id="path262"
   inkscape:connector-curvature="0" />
 </g>
</svg>