<?xml version="1.0" encoding="utf-8"?>
<!-- Generator: Adobe Illustrator 22.0.1, SVG Export Plug-In . SVG Version: 6.00 Build 0)  -->
<svg version="1.1" id="Layer_1" xmlns="http://www.w3.org/2000/svg" xmlns:xlink="http://www.w3.org/1999/xlink" x="0px" y="0px"
	 viewBox="0 0 2794.4 2351.9" style="enable-background:new 0 0 2794.4 2351.9;" xml:space="preserve">
<style type="text/css">
	.st0{fill:url(#SVGID_1_);}
	.st1{fill:url(#SVGID_2_);}
	.st2{fill:url(#SVGID_3_);}
	.st3{fill:url(#SVGID_4_);}
	.st4{fill:url(#SVGID_5_);}
	.st5{fill:url(#SVGID_6_);}
	.st6{fill:url(#SVGID_7_);}
	.st7{fill:url(#SVGID_8_);}
	.st8{fill:url(#SVGID_9_);}
	.st9{fill:url(#SVGID_10_);}
	.st10{fill:url(#SVGID_11_);}
	.st11{fill:url(#SVGID_12_);}
	.st12{fill:url(#SVGID_13_);}
	.st13{fill:url(#SVGID_14_);}
</style>
<title>Asset 11</title>
<g>
	
		<linearGradient id="SVGID_1_" gradientUnits="userSpaceOnUse" x1="1710.4597" y1="1741.2863" x2="1158.1082" y2="0.3493" gradientTransform="matrix(1 0 0 1 0 1272)">
		<stop  offset="0" style="stop-color:#000000"/>
		<stop  offset="7.000000e-02" style="stop-color:#001B20"/>
		<stop  offset="0.14" style="stop-color:#002F37"/>
		<stop  offset="0.19" style="stop-color:#003640"/>
		<stop  offset="0.43" style="stop-color:#195331"/>
		<stop  offset="0.97" style="stop-color:#579D0B"/>
		<stop  offset="1" style="stop-color:#5BA109"/>
	</linearGradient>
	<path class="st0" d="M330.4,2191.5c88.4-37.5,201.7-52.3,300-24.6c70.7,19.9,129,61.4,150.9,111.8c10.3,23.7,12.8,48.6,18.2,73.1
		h79.1c-15.2-55.4-46.5-133.6,38.5-228.3c139.7-155.8,454.3-110,646.7-32.3c97.2,39.2,182.1,91.1,256.9,149.2
		c44.3-23.8,97.2-40.1,157.6-41.7c99.2-49.5,210.9-87.6,329.4-109.1c102.1-18.5,221.3-32.9,319.3,2.7c51,18.5,93.1,50.7,121.8,87
		c14.1-2.3,28.5-3.9,43.4-4.6l-3.8-330.7l-457,121.1c-47.8,12.7-94.8,26.5-141.2,41.4c-104.4,33.4-383.4,100.5-681.4-15.5
		c-377.6-147-424.1-57-681.1-9s-413.9-114-569.3-216s0-264,0-264C406.6,1352,0,1118,0,1118v1071.1
		C94.4,2248.6,111.8,2284.2,330.4,2191.5z"/>
	
		<linearGradient id="SVGID_2_" gradientUnits="userSpaceOnUse" x1="1557.2004" y1="1678.2042" x2="1018.2418" y2="-20.5197" gradientTransform="matrix(1 0 0 1 0 1272)">
		<stop  offset="0" style="stop-color:#000000"/>
		<stop  offset="7.000000e-02" style="stop-color:#001B20"/>
		<stop  offset="0.14" style="stop-color:#002F37"/>
		<stop  offset="0.19" style="stop-color:#003640"/>
		<stop  offset="0.43" style="stop-color:#195331"/>
		<stop  offset="0.97" style="stop-color:#579D0B"/>
		<stop  offset="1" style="stop-color:#5BA109"/>
	</linearGradient>
	<path class="st1" d="M1820.7,2240.3c-74.8-58.1-159.9-110-256.9-149.2c-192.4-77.7-507-123.5-646.7,32.3
		c-85,94.8-53.6,173-38.5,228.3h817.9C1722.5,2312.5,1764.6,2270.4,1820.7,2240.3z"/>
	
		<linearGradient id="SVGID_3_" gradientUnits="userSpaceOnUse" x1="1575.9575" y1="1589.7955" x2="1239.9342" y2="749.7371" gradientTransform="matrix(1 0 0 1 0 1272)">
		<stop  offset="0" style="stop-color:#000000"/>
		<stop  offset="7.000000e-02" style="stop-color:#001B20"/>
		<stop  offset="0.14" style="stop-color:#002F37"/>
		<stop  offset="0.19" style="stop-color:#003640"/>
		<stop  offset="0.43" style="stop-color:#195331"/>
		<stop  offset="0.97" style="stop-color:#579D0B"/>
		<stop  offset="1" style="stop-color:#5BA109"/>
	</linearGradient>
	<path class="st2" d="M1820.7,2240.3c-74.8-58.1-159.9-110-256.9-149.2c-192.4-77.7-507-123.5-646.7,32.3
		c-85,94.8-53.6,173-38.5,228.3h817.9C1722.5,2312.5,1764.6,2270.4,1820.7,2240.3z"/>
	
		<linearGradient id="SVGID_4_" gradientUnits="userSpaceOnUse" x1="2521.406" y1="1414.4344" x2="2002.5631" y2="-220.8877" gradientTransform="matrix(1 0 0 1 0 1272)">
		<stop  offset="0" style="stop-color:#000000"/>
		<stop  offset="7.000000e-02" style="stop-color:#001B20"/>
		<stop  offset="0.14" style="stop-color:#002F37"/>
		<stop  offset="0.19" style="stop-color:#003640"/>
		<stop  offset="0.43" style="stop-color:#195331"/>
		<stop  offset="0.97" style="stop-color:#579D0B"/>
		<stop  offset="1" style="stop-color:#5BA109"/>
	</linearGradient>
	<path class="st3" d="M2221.1,2267.1c213,122.2,331.4-55.4,527.7-88c-28.8-36.2-70.9-68.5-121.8-87c-98-35.6-217.3-21.2-319.3-2.7
		c-118.6,21.5-230.3,59.7-329.4,109.1C2049.5,2196.8,2131.3,2215.6,2221.1,2267.1z"/>
	
		<linearGradient id="SVGID_5_" gradientUnits="userSpaceOnUse" x1="2511.4583" y1="1286.6448" x2="2175.3" y2="446.2494" gradientTransform="matrix(1 0 0 1 0 1272)">
		<stop  offset="0" style="stop-color:#000000"/>
		<stop  offset="7.000000e-02" style="stop-color:#001B20"/>
		<stop  offset="0.14" style="stop-color:#002F37"/>
		<stop  offset="0.19" style="stop-color:#003640"/>
		<stop  offset="0.43" style="stop-color:#195331"/>
		<stop  offset="0.97" style="stop-color:#579D0B"/>
		<stop  offset="1" style="stop-color:#5BA109"/>
	</linearGradient>
	<path class="st4" d="M2221.1,2267.1c213,122.2,331.4-55.4,527.7-88c-28.8-36.2-70.9-68.5-121.8-87c-98-35.6-217.3-21.2-319.3-2.7
		c-118.6,21.5-230.3,59.7-329.4,109.1C2049.5,2196.8,2131.3,2215.6,2221.1,2267.1z"/>
	
		<linearGradient id="SVGID_6_" gradientUnits="userSpaceOnUse" x1="682.1129" y1="1960.2081" x2="97.3095" y2="116.9876" gradientTransform="matrix(1 0 0 1 0 1272)">
		<stop  offset="0" style="stop-color:#000000"/>
		<stop  offset="7.000000e-02" style="stop-color:#001B20"/>
		<stop  offset="0.14" style="stop-color:#002F37"/>
		<stop  offset="0.19" style="stop-color:#003640"/>
		<stop  offset="0.43" style="stop-color:#195331"/>
		<stop  offset="0.97" style="stop-color:#579D0B"/>
		<stop  offset="1" style="stop-color:#5BA109"/>
	</linearGradient>
	<path class="st5" d="M630.4,2166.9c-98.3-27.7-211.6-12.9-300,24.6c-218.6,92.7-236,57.1-330.2-2.6v162.9h799.5
		c-5.4-24.5-7.8-49.4-18.2-73.1C759.4,2228.3,701.1,2186.8,630.4,2166.9z"/>
	
		<linearGradient id="SVGID_7_" gradientUnits="userSpaceOnUse" x1="-179.337" y1="2080.0098" x2="663.3047" y2="506.4017" gradientTransform="matrix(1 0 0 1 0 1272)">
		<stop  offset="0" style="stop-color:#000000"/>
		<stop  offset="7.000000e-02" style="stop-color:#001B20"/>
		<stop  offset="0.14" style="stop-color:#002F37"/>
		<stop  offset="0.19" style="stop-color:#003640"/>
		<stop  offset="0.43" style="stop-color:#195331"/>
		<stop  offset="0.97" style="stop-color:#579D0B"/>
		<stop  offset="1" style="stop-color:#5BA109"/>
	</linearGradient>
	<path class="st6" d="M630.4,2166.9c-98.3-27.7-211.6-12.9-300,24.6c-218.6,92.7-236,57.1-330.2-2.6v162.9h799.5
		c-5.4-24.5-7.8-49.4-18.2-73.1C759.4,2228.3,701.1,2186.8,630.4,2166.9z"/>
	
		<linearGradient id="SVGID_8_" gradientUnits="userSpaceOnUse" x1="2891.5847" y1="1302.498" x2="2406.021" y2="-227.9329" gradientTransform="matrix(1 0 0 1 0 1272)">
		<stop  offset="0" style="stop-color:#000000"/>
		<stop  offset="7.000000e-02" style="stop-color:#001B20"/>
		<stop  offset="0.14" style="stop-color:#002F37"/>
		<stop  offset="0.19" style="stop-color:#003640"/>
		<stop  offset="0.43" style="stop-color:#195331"/>
		<stop  offset="0.97" style="stop-color:#579D0B"/>
		<stop  offset="1" style="stop-color:#5BA109"/>
	</linearGradient>
	<path class="st7" d="M2779.9,2231.7c15.5,39.1,13.7,79.6,13.4,120.1h1.2l-2-177.3c-15,0.7-29.3,2.3-43.4,4.6
		C2762.3,2196.1,2772.8,2214,2779.9,2231.7z"/>
	
		<linearGradient id="SVGID_9_" gradientUnits="userSpaceOnUse" x1="1953.0793" y1="2522.1479" x2="2616.5342" y2="1283.1656" gradientTransform="matrix(1 0 0 1 0 1272)">
		<stop  offset="0" style="stop-color:#000000"/>
		<stop  offset="7.000000e-02" style="stop-color:#001B20"/>
		<stop  offset="0.14" style="stop-color:#002F37"/>
		<stop  offset="0.19" style="stop-color:#003640"/>
		<stop  offset="0.43" style="stop-color:#195331"/>
		<stop  offset="0.97" style="stop-color:#579D0B"/>
		<stop  offset="1" style="stop-color:#5BA109"/>
	</linearGradient>
	<path class="st8" d="M2779.9,2231.7c15.5,39.1,13.7,79.6,13.4,120.1h1.2l-2-177.3c-15,0.7-29.3,2.3-43.4,4.6
		C2762.3,2196.1,2772.8,2214,2779.9,2231.7z"/>
	
		<linearGradient id="SVGID_10_" gradientUnits="userSpaceOnUse" x1="2051.9465" y1="1428.0763" x2="1615.2406" y2="51.6385" gradientTransform="matrix(1 0 0 1 0 1272)">
		<stop  offset="0" style="stop-color:#000000"/>
		<stop  offset="7.000000e-02" style="stop-color:#001B20"/>
		<stop  offset="0.14" style="stop-color:#002F37"/>
		<stop  offset="0.19" style="stop-color:#003640"/>
		<stop  offset="0.43" style="stop-color:#195331"/>
		<stop  offset="0.97" style="stop-color:#579D0B"/>
		<stop  offset="1" style="stop-color:#5BA109"/>
	</linearGradient>
	<path class="st9" d="M1975.2,2200.1c1-0.5,2-1,3-1.5c-60.3,1.6-113.3,17.9-157.6,41.7c12.1,9.4,23.8,18.9,35.4,28.6
		C1893.6,2244.2,1933.4,2221.2,1975.2,2200.1z"/>
	
		<linearGradient id="SVGID_11_" gradientUnits="userSpaceOnUse" x1="1070.542" y1="2495.4238" x2="1851.7942" y2="1036.4587" gradientTransform="matrix(1 0 0 1 0 1272)">
		<stop  offset="0" style="stop-color:#000000"/>
		<stop  offset="7.000000e-02" style="stop-color:#001B20"/>
		<stop  offset="0.14" style="stop-color:#002F37"/>
		<stop  offset="0.19" style="stop-color:#003640"/>
		<stop  offset="0.43" style="stop-color:#195331"/>
		<stop  offset="0.97" style="stop-color:#579D0B"/>
		<stop  offset="1" style="stop-color:#5BA109"/>
	</linearGradient>
	<path class="st10" d="M1975.2,2200.1c1-0.5,2-1,3-1.5c-60.3,1.6-113.3,17.9-157.6,41.7c12.1,9.4,23.8,18.9,35.4,28.6
		C1893.6,2244.2,1933.4,2221.2,1975.2,2200.1z"/>
	
		<linearGradient id="SVGID_12_" gradientUnits="userSpaceOnUse" x1="2397.0037" y1="1519.6268" x2="1796.0219" y2="-374.5862" gradientTransform="matrix(1 0 0 1 0 1272)">
		<stop  offset="0" style="stop-color:#000000"/>
		<stop  offset="7.000000e-02" style="stop-color:#001B20"/>
		<stop  offset="0.14" style="stop-color:#002F37"/>
		<stop  offset="0.19" style="stop-color:#003640"/>
		<stop  offset="0.43" style="stop-color:#195331"/>
		<stop  offset="0.97" style="stop-color:#579D0B"/>
		<stop  offset="1" style="stop-color:#5BA109"/>
	</linearGradient>
	<path class="st11" d="M1696.7,2351.8h1096.4c0.4-40.4,2.2-81-13.4-120.1c-7-17.7-17.6-35.6-31.1-52.6
		c-196.3,32.6-314.7,210.2-527.7,88c-89.9-51.5-171.5-70.4-243-68.5c-1,0.5-2,1-3,1.5c-41.8,21.1-81.6,44.1-119.1,68.8
		c-11.5-9.7-23.4-19.2-35.4-28.6C1764.6,2270.4,1722.5,2312.5,1696.7,2351.8z"/>
	
		<linearGradient id="SVGID_13_" gradientUnits="userSpaceOnUse" x1="2378.0781" y1="1369.4624" x2="1998.1085" y2="419.5375" gradientTransform="matrix(1 0 0 1 0 1272)">
		<stop  offset="0" style="stop-color:#000000"/>
		<stop  offset="7.000000e-02" style="stop-color:#001B20"/>
		<stop  offset="0.14" style="stop-color:#002F37"/>
		<stop  offset="0.19" style="stop-color:#003640"/>
		<stop  offset="0.43" style="stop-color:#195331"/>
		<stop  offset="0.97" style="stop-color:#579D0B"/>
		<stop  offset="1" style="stop-color:#5BA109"/>
	</linearGradient>
	<path class="st12" d="M1696.7,2351.8h1096.4c0.4-40.4,2.2-81-13.4-120.1c-7-17.7-17.6-35.6-31.1-52.6
		c-196.3,32.6-314.7,210.2-527.7,88c-89.9-51.5-171.5-70.4-243-68.5c-1,0.5-2,1-3,1.5c-41.8,21.1-81.6,44.1-119.1,68.8
		c-11.5-9.7-23.4-19.2-35.4-28.6C1764.6,2270.4,1722.5,2312.5,1696.7,2351.8z"/>
	
		<linearGradient id="SVGID_14_" gradientUnits="userSpaceOnUse" x1="1308.9009" y1="2827.6982" x2="2180.6814" y2="1199.6742" gradientTransform="matrix(1 0 0 1 0 1272)">
		<stop  offset="0" style="stop-color:#000000"/>
		<stop  offset="7.000000e-02" style="stop-color:#001B20"/>
		<stop  offset="0.14" style="stop-color:#002F37"/>
		<stop  offset="0.19" style="stop-color:#003640"/>
		<stop  offset="0.43" style="stop-color:#195331"/>
		<stop  offset="0.97" style="stop-color:#579D0B"/>
		<stop  offset="1" style="stop-color:#5BA109"/>
	</linearGradient>
	<path class="st13" d="M1696.7,2351.8h1096.4c0.4-40.4,2.2-81-13.4-120.1c-7-17.7-17.6-35.6-31.1-52.6
		c-196.3,32.6-314.7,210.2-527.7,88c-89.9-51.5-171.5-70.4-243-68.5c-1,0.5-2,1-3,1.5c-41.8,21.1-81.6,44.1-119.1,68.8
		c-11.5-9.7-23.4-19.2-35.4-28.6C1764.6,2270.4,1722.5,2312.5,1696.7,2351.8z"/>
</g>
</svg>
