<?xml version="1.0" encoding="utf-8"?>
<!-- Generator: Adobe Illustrator 22.0.1, SVG Export Plug-In . SVG Version: 6.00 Build 0)  -->
<svg version="1.1" id="Layer_1" xmlns="http://www.w3.org/2000/svg" xmlns:xlink="http://www.w3.org/1999/xlink" x="0px" y="0px"
	 viewBox="0 0 2546.9 1597.5" style="enable-background:new 0 0 2546.9 1597.5;" xml:space="preserve">
<style type="text/css">
	.st0{fill:none;}
	.st1{clip-path:url(#SVGID_2_);}
	.st2{fill:url(#SVGID_3_);}
	.st3{fill:url(#SVGID_4_);}
	.st4{fill:url(#SVGID_5_);}
	.st5{fill:url(#SVGID_6_);}
	.st6{fill:url(#SVGID_7_);}
	.st7{fill:url(#SVGID_8_);}
	.st8{fill:url(#SVGID_9_);}
	.st9{fill:url(#SVGID_10_);}
	.st10{fill:url(#SVGID_11_);}
	.st11{fill:url(#SVGID_12_);}
	.st12{fill:url(#SVGID_13_);}
	.st13{fill:url(#SVGID_14_);}
</style>
<title>Asset 12</title>
<polygon class="st0" points="0,0 1921,0 2401,1080 0,1080 "/>
<g>
	<defs>
		<polygon id="SVGID_1_" points="0,0 1920,0 2400,1080 0,1080 		"/>
	</defs>
	<clipPath id="SVGID_2_">
		<use xlink:href="#SVGID_1_"  style="overflow:visible;"/>
	</clipPath>
	<g class="st1">
		
			<linearGradient id="SVGID_3_" gradientUnits="userSpaceOnUse" x1="-118.9938" y1="853.23" x2="13.9353" y2="853.23" gradientTransform="matrix(1 0 0 -1 0 1598)">
			<stop  offset="0" style="stop-color:#000000"/>
			<stop  offset="0.26" style="stop-color:#001519"/>
			<stop  offset="0.59" style="stop-color:#003640"/>
			<stop  offset="0.66" style="stop-color:#053C3D"/>
			<stop  offset="0.75" style="stop-color:#134D34"/>
			<stop  offset="0.85" style="stop-color:#2B6926"/>
			<stop  offset="0.96" style="stop-color:#4C8F12"/>
			<stop  offset="1" style="stop-color:#5BA109"/>
		</linearGradient>
		<path class="st2" d="M7.7,683.3c-3-22.5-7.8-58.1-29.8-85.8c-34.4-43.2-96.4-51-96.4-51s-6.5,62.4,28.1,105.4
			c19,23.5,58.4,40.5,80.5,47.5c9.4,3,15.8,11.8,15.7,21.8C3.6,871.2-19.6,943-19.6,943l22.2-2.6C21.6,778.1,11.9,714.6,7.7,683.3z"
			/>
		
			<linearGradient id="SVGID_4_" gradientUnits="userSpaceOnUse" x1="32.0784" y1="796.123" x2="200.2184" y2="1026.2731" gradientTransform="matrix(1 0 0 -1 0 1598)">
			<stop  offset="0" style="stop-color:#000000"/>
			<stop  offset="0.26" style="stop-color:#001519"/>
			<stop  offset="0.59" style="stop-color:#003640"/>
			<stop  offset="0.66" style="stop-color:#053C3D"/>
			<stop  offset="0.75" style="stop-color:#134D34"/>
			<stop  offset="0.85" style="stop-color:#2B6926"/>
			<stop  offset="0.96" style="stop-color:#4C8F12"/>
			<stop  offset="1" style="stop-color:#5BA109"/>
		</linearGradient>
		<path class="st3" d="M70.8,658c5.9-18.5,15.3-47.9,38-68c35.5-31.3,89-28.6,89-28.6s-3.8,53.6-39.5,84.7
			c-19.5,17-55.4,25.4-75.1,28.1c-8.4,1.1-15.1,7.6-16.5,16c-20.7,127-11.9,191-11.9,191l-18.3-5.5C44.8,735.9,62.6,683.7,70.8,658z
			"/>
		
			<linearGradient id="SVGID_5_" gradientUnits="userSpaceOnUse" x1="18.7174" y1="945.14" x2="178.0799" y2="945.14" gradientTransform="matrix(1 0 0 -1 0 1598)">
			<stop  offset="0" style="stop-color:#000000"/>
			<stop  offset="0.26" style="stop-color:#001519"/>
			<stop  offset="0.59" style="stop-color:#003640"/>
			<stop  offset="0.66" style="stop-color:#053C3D"/>
			<stop  offset="0.75" style="stop-color:#134D34"/>
			<stop  offset="0.85" style="stop-color:#2B6926"/>
			<stop  offset="0.96" style="stop-color:#4C8F12"/>
			<stop  offset="1" style="stop-color:#5BA109"/>
		</linearGradient>
		<path class="st4" d="M40.3,560.5c4.9-22.4,12.5-57.9,36.8-83.9c38-40.7,101-43.6,101-43.6s1.6,63.3-36.6,103.7
			c-20.9,22.1-62,36-84.8,41.4c-9.7,2.3-16.8,10.7-17.5,20.6c-9.8,151,2.8,274,2.8,274l-22.1-4.3C13.7,703.6,33.6,591.6,40.3,560.5z
			"/>
		
			<linearGradient id="SVGID_6_" gradientUnits="userSpaceOnUse" x1="-77.35" y1="785.001" x2="-2.3504" y2="785.001" gradientTransform="matrix(1 0 0 -1 0 1598)">
			<stop  offset="0" style="stop-color:#000000"/>
			<stop  offset="0.26" style="stop-color:#001519"/>
			<stop  offset="0.59" style="stop-color:#003640"/>
			<stop  offset="0.66" style="stop-color:#053C3D"/>
			<stop  offset="0.75" style="stop-color:#134D34"/>
			<stop  offset="0.85" style="stop-color:#2B6926"/>
			<stop  offset="0.96" style="stop-color:#4C8F12"/>
			<stop  offset="1" style="stop-color:#5BA109"/>
		</linearGradient>
		<path class="st5" d="M-7.3,799.2c-1.9-11.4-6.3-22.1-13-31.5c-3.2-4.4-7-8.4-11.4-11.6c-19.1-13.7-45.7-9.3-45.7-9.3
			s4.5,26.5,23.6,40.2c11.2,8,25,9.8,34.5,9.9c5.7,0,10.4,4.7,10.3,10.4c0,0,0,0.1,0,0.1c-0.7,30.7-6.8,72.3-6.8,72.3l12-2
			C-0.1,848.6-4.3,816.3-7.3,799.2z"/>
		
			<linearGradient id="SVGID_7_" gradientUnits="userSpaceOnUse" x1="48.7973" y1="784.2938" x2="127.7573" y2="836.3438" gradientTransform="matrix(1 0 0 -1 0 1598)">
			<stop  offset="0" style="stop-color:#000000"/>
			<stop  offset="0.26" style="stop-color:#001519"/>
			<stop  offset="0.59" style="stop-color:#003640"/>
			<stop  offset="0.66" style="stop-color:#053C3D"/>
			<stop  offset="0.75" style="stop-color:#134D34"/>
			<stop  offset="0.85" style="stop-color:#2B6926"/>
			<stop  offset="0.96" style="stop-color:#4C8F12"/>
			<stop  offset="1" style="stop-color:#5BA109"/>
		</linearGradient>
		<path class="st6" d="M109,705.7c0,0-24.8,10.5-33.7,32.2c-4.9,12-2.4,30.5-1.1,37.5c0.3,2,0.4,3.9,0.2,5.9l-9.3,81.2H80
			c-2.7-23.1-3.1-46.5-1.1-69.7c0.5-5.9,3.5-11.2,8.3-14.6c7.5-5.4,18.9-15,23.3-25.9C119.3,730.5,109,705.7,109,705.7z"/>
		
			<linearGradient id="SVGID_8_" gradientUnits="userSpaceOnUse" x1="32.2412" y1="808.84" x2="29.8512" y2="600.16" gradientTransform="matrix(1 0 0 -1 0 1598)">
			<stop  offset="0" style="stop-color:#000000"/>
			<stop  offset="0.26" style="stop-color:#001519"/>
			<stop  offset="0.59" style="stop-color:#003640"/>
			<stop  offset="0.66" style="stop-color:#053C3D"/>
			<stop  offset="0.75" style="stop-color:#134D34"/>
			<stop  offset="0.85" style="stop-color:#2B6926"/>
			<stop  offset="0.96" style="stop-color:#4C8F12"/>
			<stop  offset="1" style="stop-color:#5BA109"/>
		</linearGradient>
		<path class="st7" d="M1.5,996.7h58.9c1.9,0,3.8-0.4,5.5-1.3c23.6-12.8,38.4-37.5,38.4-64.4v-56.8c0-6.4-5.2-11.7-11.7-11.7H-30.7
			c-6.4,0-11.6,5.2-11.7,11.7V931c0,26.9,14.7,51.6,38.4,64.3C-2.3,996.3-0.4,996.7,1.5,996.7z"/>
		
			<linearGradient id="SVGID_9_" gradientUnits="userSpaceOnUse" x1="30.94" y1="648.19" x2="30.94" y2="728.49" gradientTransform="matrix(1 0 0 -1 0 1598)">
			<stop  offset="0" style="stop-color:#000000"/>
			<stop  offset="0.26" style="stop-color:#001519"/>
			<stop  offset="0.59" style="stop-color:#003640"/>
			<stop  offset="0.66" style="stop-color:#053C3D"/>
			<stop  offset="0.75" style="stop-color:#134D34"/>
			<stop  offset="0.85" style="stop-color:#2B6926"/>
			<stop  offset="0.96" style="stop-color:#4C8F12"/>
			<stop  offset="1" style="stop-color:#5BA109"/>
		</linearGradient>
		<rect x="-42.3" y="895.6" class="st8" width="146.5" height="34.8"/>
		
			<linearGradient id="SVGID_10_" gradientUnits="userSpaceOnUse" x1="-42.33" y1="698.18" x2="104.21" y2="698.18" gradientTransform="matrix(1 0 0 -1 0 1598)">
			<stop  offset="0" style="stop-color:#000000"/>
			<stop  offset="0.26" style="stop-color:#001519"/>
			<stop  offset="0.59" style="stop-color:#003640"/>
			<stop  offset="0.66" style="stop-color:#053C3D"/>
			<stop  offset="0.75" style="stop-color:#134D34"/>
			<stop  offset="0.85" style="stop-color:#2B6926"/>
			<stop  offset="0.96" style="stop-color:#4C8F12"/>
			<stop  offset="1" style="stop-color:#5BA109"/>
		</linearGradient>
		<rect x="-42.3" y="895.6" class="st9" width="146.5" height="8.4"/>
	</g>
</g>
<g>
	
		<linearGradient id="SVGID_11_" gradientUnits="userSpaceOnUse" x1="2906.5239" y1="386.1738" x2="2078.5242" y2="694.1739" gradientTransform="matrix(1 0 0 -1 0 1598)">
		<stop  offset="0" style="stop-color:#000000"/>
		<stop  offset="0.18" style="stop-color:#001519"/>
		<stop  offset="0.41" style="stop-color:#003640"/>
		<stop  offset="0.43" style="stop-color:#043A3E"/>
		<stop  offset="0.61" style="stop-color:#296627"/>
		<stop  offset="0.77" style="stop-color:#448617"/>
		<stop  offset="0.91" style="stop-color:#559A0D"/>
		<stop  offset="1" style="stop-color:#5BA109"/>
	</linearGradient>
	<path class="st10" d="M2478.4,1325c-56.9-22.1-133.8-93.4-51.4-191.7s-94.8-140.9-35.3-258.9c41.3-81.9,111.2-62.9,140.3-23
		c7.2,9.9,12.6,19.1,17,27.3V658.7c0-24.7-20-44.7-44.7-44.7c-5.5,0-10.9,1-16,3c-75.2,29-193,95.1-190.2,224
		c2.1,97.3-49.2,152.7-136,127c-130.5-38.6-232.5,30.1-192,160c22.2,71,83.3,94.7,245,80c77.2-7,108.3,64.6,106.1,141.6
		c-1.6,54.6,30,105.1,80.7,125.6c22.5,9.1,48.3,12.4,76,3.6C2471.1,1385.6,2566.6,1359.3,2478.4,1325z"/>
	
		<linearGradient id="SVGID_12_" gradientUnits="userSpaceOnUse" x1="2947.9268" y1="-21.874" x2="2151.6367" y2="133.8561" gradientTransform="matrix(0.9957 9.254437e-02 9.254437e-02 -0.9957 -0.5013 1322.9888)">
		<stop  offset="0" style="stop-color:#000000"/>
		<stop  offset="7.000000e-02" style="stop-color:#001B20"/>
		<stop  offset="0.14" style="stop-color:#002F37"/>
		<stop  offset="0.19" style="stop-color:#003640"/>
		<stop  offset="0.43" style="stop-color:#195331"/>
		<stop  offset="0.97" style="stop-color:#579D0B"/>
		<stop  offset="1" style="stop-color:#5BA109"/>
	</linearGradient>
	<path class="st11" d="M2477.8,1478.8c0.5,7.2,1.6,14.8,3.5,22.8c9.1,39.4,35,64.5,67.7,79.1V1429
		C2524.4,1456.1,2500.4,1471.6,2477.8,1478.8z"/>
	
		<linearGradient id="SVGID_13_" gradientUnits="userSpaceOnUse" x1="2875.4282" y1="302.5787" x2="2047.4283" y2="610.5788" gradientTransform="matrix(1 0 0 -1 0 1598)">
		<stop  offset="0" style="stop-color:#000000"/>
		<stop  offset="0.18" style="stop-color:#001519"/>
		<stop  offset="0.41" style="stop-color:#003640"/>
		<stop  offset="0.43" style="stop-color:#043A3E"/>
		<stop  offset="0.61" style="stop-color:#296627"/>
		<stop  offset="0.77" style="stop-color:#448617"/>
		<stop  offset="0.91" style="stop-color:#559A0D"/>
		<stop  offset="1" style="stop-color:#5BA109"/>
	</linearGradient>
	<path class="st12" d="M2549,1429V878.8c-4.5-8.2-9.8-17.4-17-27.3c-29.2-40-99.1-59-140.3,23c-59.4,118,117.7,160.7,35.3,258.9
		s-5.5,169.5,51.4,191.7c88.3,34.3-7.3,60.7-0.6,153.8C2500.4,1471.6,2524.4,1456.1,2549,1429z"/>
	
		<linearGradient id="SVGID_14_" gradientUnits="userSpaceOnUse" x1="3009.7795" y1="294.3957" x2="2213.4895" y2="450.1258" gradientTransform="matrix(0.9957 9.254437e-02 9.254437e-02 -0.9957 -0.5013 1322.9888)">
		<stop  offset="0" style="stop-color:#000000"/>
		<stop  offset="7.000000e-02" style="stop-color:#001B20"/>
		<stop  offset="0.14" style="stop-color:#002F37"/>
		<stop  offset="0.19" style="stop-color:#003640"/>
		<stop  offset="0.43" style="stop-color:#195331"/>
		<stop  offset="0.97" style="stop-color:#579D0B"/>
		<stop  offset="1" style="stop-color:#5BA109"/>
	</linearGradient>
	<path class="st13" d="M2549,1429V878.8c-4.5-8.2-9.8-17.4-17-27.3c-29.2-40-99.1-59-140.3,23c-59.4,118,117.7,160.7,35.3,258.9
		s-5.5,169.5,51.4,191.7c88.3,34.3-7.3,60.7-0.6,153.8C2500.4,1471.6,2524.4,1456.1,2549,1429z"/>
</g>
</svg>
