<svg xmlns="http://www.w3.org/2000/svg" xmlns:xlink="http://www.w3.org/1999/xlink" viewBox="0 0 1920 1080"><defs><style>.a{fill:none;}.b{fill:url(#a);}.c{fill:url(#b);}.d{fill:url(#c);}.e{fill:url(#d);}.f{fill:url(#e);}.g{fill:url(#f);}.h{fill:url(#g);}.i{fill:url(#h);}</style><linearGradient id="a" x1="1403.92" y1="-217.89" x2="2673.04" y2="1201.25" gradientTransform="matrix(1, 0, 0, -1, -852.2, 887.17)" gradientUnits="userSpaceOnUse"><stop offset="0"/><stop offset="0.26" stop-color="#001519"/><stop offset="0.59" stop-color="#003640"/><stop offset="0.66" stop-color="#053c3d"/><stop offset="0.75" stop-color="#134d34"/><stop offset="0.85" stop-color="#2b6926"/><stop offset="0.96" stop-color="#4c8f12"/><stop offset="1" stop-color="#5ba109"/></linearGradient><linearGradient id="b" x1="1545.71" y1="-344.7" x2="2814.83" y2="1074.44" xlink:href="#a"/><linearGradient id="c" x1="2116.81" y1="-270.41" x2="2330.04" y2="789.27" xlink:href="#a"/><linearGradient id="d" x1="1340.79" y1="-161.44" x2="2609.91" y2="1257.7" xlink:href="#a"/><linearGradient id="e" x1="1684.19" y1="-475.52" x2="1892.38" y2="559.13" gradientTransform="matrix(1, 0, 0, -1, -852.2, 887.17)" gradientUnits="userSpaceOnUse"><stop offset="0"/><stop offset="0.07" stop-color="#001b20"/><stop offset="0.14" stop-color="#002f37"/><stop offset="0.19" stop-color="#003640"/><stop offset="0.43" stop-color="#195331"/><stop offset="0.97" stop-color="#579d0b"/><stop offset="1" stop-color="#5ba109"/></linearGradient><linearGradient id="f" x1="1635.06" y1="-424.6" x2="2904.18" y2="994.54" xlink:href="#a"/><linearGradient id="g" x1="2153.39" y1="-277.77" x2="2366.62" y2="781.91" xlink:href="#a"/><linearGradient id="h" x1="2096.89" y1="-558.56" x2="2305.08" y2="476.09" xlink:href="#e"/></defs><title>Asset 2</title><path class="a" d="M1815.41,962.05c-296,118-404.53-118.91-412.45-270.44C1392.52,492,1292.48,609.7,1131,595.7c-37.31-3.24-77.9-13.52-121.42-36.37q-10.51-5.52-21.25-12C796.81,430.74,837.75,173.35,926.82,0H0V1080H1920V942.87C1890.19,940.43,1855.92,945.9,1815.41,962.05Z"/><path class="b" d="M988.35,547.3q10.74,6.53,21.25,12C970.1,490.49,875.88,434,895.46,328.19c-4.79-16.95-7.19-36.16-6.53-58.19,4.54-152.63,123.31-173.14,195.45-133.42,102.2,56.26,94.19,119.68,238.1,7.12,48.86-38.22,114.64-58.5,175.67-41.22,43.89,12.44,82.46,44.35,100.37,86.31,10,23.35,13.51,48.87,21.14,73.07s20.68,48.47,43,60.45c21.55,11.53,47.87,9.58,71.52,3.39,56.87-14.9,106-52.81,164.43-62.62a203.32,203.32,0,0,1,21.39-2.41V0H926.82C837.75,173.35,796.81,430.74,988.35,547.3Z"/><path class="c" d="M1734.18,325.7c-23.65,6.19-50,8.14-71.52-3.39-22.32-12-35.37-36.25-43-60.45s-11.14-49.72-21.14-73.07c-17.91-42-56.48-73.87-100.37-86.31-61-17.28-126.81,3-175.67,41.22-143.91,112.56-135.9,49.14-238.1-7.12C1012.24,96.86,893.47,117.37,888.93,270c-.66,22,1.74,41.24,6.53,58.19a195.53,195.53,0,0,1,10.43-35.86C958.53,158.17,1070.59,177.76,1122,236c72.88,82.53,45.57,136.33,209.28,82.14,55.57-18.4,120.48-15.47,169.2,19.32,35,25,59.15,65.65,61.69,108.64,1.42,23.91-3.55,47.72-4.48,71.65s2.94,49.65,19,67.42c15.47,17.11,39.48,23.75,62.46,25.78,55.27,4.87,111-13.15,166-3.28,42.69,7.66,87.75,31.39,114.85,66.37V260.67a203.32,203.32,0,0,0-21.39,2.41C1840.18,272.89,1791.05,310.8,1734.18,325.7Z"/><path class="d" d="M1734.18,325.7c-23.65,6.19-50,8.14-71.52-3.39-22.32-12-35.37-36.25-43-60.45s-11.14-49.72-21.14-73.07c-17.91-42-56.48-73.87-100.37-86.31-61-17.28-126.81,3-175.67,41.22-143.91,112.56-135.9,49.14-238.1-7.12C1012.24,96.86,893.47,117.37,888.93,270c-.66,22,1.74,41.24,6.53,58.19a195.53,195.53,0,0,1,10.43-35.86C958.53,158.17,1070.59,177.76,1122,236c72.88,82.53,45.57,136.33,209.28,82.14,55.57-18.4,120.48-15.47,169.2,19.32,35,25,59.15,65.65,61.69,108.64,1.42,23.91-3.55,47.72-4.48,71.65s2.94,49.65,19,67.42c15.47,17.11,39.48,23.75,62.46,25.78,55.27,4.87,111-13.15,166-3.28,42.69,7.66,87.75,31.39,114.85,66.37V260.67a203.32,203.32,0,0,0-21.39,2.41C1840.18,272.89,1791.05,310.8,1734.18,325.7Z"/><path class="e" d="M895.46,328.19C875.88,434,970.1,490.49,1009.6,559.33c43.52,22.85,84.11,33.13,121.42,36.37C1138.18,453.71,935,468.43,895.46,328.19Z"/><path class="f" d="M895.46,328.19C875.88,434,970.1,490.49,1009.6,559.33c43.52,22.85,84.11,33.13,121.42,36.37C1138.18,453.71,935,468.43,895.46,328.19Z"/><path class="g" d="M1805.15,607.67c-55-9.87-110.73,8.15-166,3.28-23-2-47-8.67-62.46-25.78-16.06-17.77-19.93-43.49-19-67.42s5.9-47.74,4.48-71.65c-2.54-43-26.69-83.64-61.69-108.64-48.72-34.79-113.63-37.72-169.2-19.32-163.71,54.19-136.4.39-209.28-82.14-51.41-58.24-163.47-77.83-216.11,56.33a195.53,195.53,0,0,0-10.43,35.86C935,468.43,1138.18,453.71,1131,595.7c161.46,14,261.5-103.74,271.94,95.91,7.92,151.53,116.46,388.46,412.45,270.44,40.51-16.15,74.78-21.62,104.59-19.18V674C1892.9,639.06,1847.84,615.33,1805.15,607.67Z"/><path class="h" d="M1805.15,607.67c-55-9.87-110.73,8.15-166,3.28-23-2-47-8.67-62.46-25.78-16.06-17.77-19.93-43.49-19-67.42s5.9-47.74,4.48-71.65c-2.54-43-26.69-83.64-61.69-108.64-48.72-34.79-113.63-37.72-169.2-19.32-163.71,54.19-136.4.39-209.28-82.14-51.41-58.24-163.47-77.83-216.11,56.33a195.53,195.53,0,0,0-10.43,35.86C935,468.43,1138.18,453.71,1131,595.7c161.46,14,261.5-103.74,271.94,95.91,7.92,151.53,116.46,388.46,412.45,270.44,40.51-16.15,74.78-21.62,104.59-19.18V674C1892.9,639.06,1847.84,615.33,1805.15,607.67Z"/><path class="i" d="M1805.15,607.67c-55-9.87-110.73,8.15-166,3.28-23-2-47-8.67-62.46-25.78-16.06-17.77-19.93-43.49-19-67.42s5.9-47.74,4.48-71.65c-2.54-43-26.69-83.64-61.69-108.64-48.72-34.79-113.63-37.72-169.2-19.32-163.71,54.19-136.4.39-209.28-82.14-51.41-58.24-163.47-77.83-216.11,56.33a195.53,195.53,0,0,0-10.43,35.86C935,468.43,1138.18,453.71,1131,595.7c161.46,14,261.5-103.74,271.94,95.91,7.92,151.53,116.46,388.46,412.45,270.44,40.51-16.15,74.78-21.62,104.59-19.18V674C1892.9,639.06,1847.84,615.33,1805.15,607.67Z"/></svg>