<?xml version="1.0" encoding="utf-8"?>
<!-- Generator: Adobe Illustrator 22.0.1, SVG Export Plug-In . SVG Version: 6.00 Build 0)  -->
<svg version="1.1" id="Layer_1" xmlns="http://www.w3.org/2000/svg" xmlns:xlink="http://www.w3.org/1999/xlink" x="0px" y="0px"
	 viewBox="0 0 2052.3 640.8" style="enable-background:new 0 0 2052.3 640.8;" xml:space="preserve">
<style type="text/css">
	.st0{clip-path:url(#SVGID_2_);}
	.st1{fill:url(#SVGID_3_);}
	.st2{fill:url(#SVGID_4_);}
	.st3{fill:url(#SVGID_5_);}
	.st4{fill:url(#SVGID_6_);}
	.st5{fill:url(#SVGID_7_);}
	.st6{fill:url(#SVGID_8_);}
	.st7{fill:url(#SVGID_9_);}
	.st8{fill:url(#SVGID_10_);}
	.st9{fill:url(#SVGID_11_);}
</style>
<title>Asset 7</title>
<g>
	<defs>
		<rect id="SVGID_1_" x="130.9" y="-390.7" width="1921" height="1080"/>
	</defs>
	<clipPath id="SVGID_2_">
		<use xlink:href="#SVGID_1_"  style="overflow:visible;"/>
	</clipPath>
	<g class="st0">
		
			<linearGradient id="SVGID_3_" gradientUnits="userSpaceOnUse" x1="1022.2796" y1="-392.6683" x2="1089.0596" y2="-321.1083" gradientTransform="matrix(-1 -1.000000e-02 1.000000e-02 -1 3084.01 208.35)">
			<stop  offset="0" style="stop-color:#000000"/>
			<stop  offset="0.26" style="stop-color:#001519"/>
			<stop  offset="0.59" style="stop-color:#003640"/>
			<stop  offset="0.66" style="stop-color:#053C3D"/>
			<stop  offset="0.75" style="stop-color:#134D34"/>
			<stop  offset="0.85" style="stop-color:#2B6926"/>
			<stop  offset="0.96" style="stop-color:#4C8F12"/>
			<stop  offset="1" style="stop-color:#5BA109"/>
		</linearGradient>
		<path class="st1" d="M2064.2,590.2c18.8-12-5.3-48.6-49-52.1c0,0-4.7,19.3-0.4,36.4C2018.5,589.1,2037.9,607,2064.2,590.2z"/>
		
			<linearGradient id="SVGID_4_" gradientUnits="userSpaceOnUse" x1="2216.8447" y1="-422.1151" x2="2054.8247" y2="-174.0751" gradientTransform="matrix(1 0 0 -1 -1 204)">
			<stop  offset="0" style="stop-color:#000000"/>
			<stop  offset="0.26" style="stop-color:#001519"/>
			<stop  offset="0.59" style="stop-color:#003640"/>
			<stop  offset="0.66" style="stop-color:#053C3D"/>
			<stop  offset="0.75" style="stop-color:#134D34"/>
			<stop  offset="0.85" style="stop-color:#2B6926"/>
			<stop  offset="0.96" style="stop-color:#4C8F12"/>
			<stop  offset="1" style="stop-color:#5BA109"/>
		</linearGradient>
		<path class="st2" d="M2152.3,501c74.4-29.2,14.9-174.6-136.7-217.2c0,0-29.7,64.6-26.4,127.8
			C1992.1,465.6,2048.1,541.8,2152.3,501z"/>
		
			<linearGradient id="SVGID_5_" gradientUnits="userSpaceOnUse" x1="1693.1035" y1="-87.1899" x2="2100.1035" y2="28.8101" gradientTransform="matrix(1 0 0 -1 -1 204)">
			<stop  offset="0" style="stop-color:#000000"/>
			<stop  offset="0.26" style="stop-color:#001519"/>
			<stop  offset="0.59" style="stop-color:#003640"/>
			<stop  offset="0.66" style="stop-color:#053C3D"/>
			<stop  offset="0.75" style="stop-color:#134D34"/>
			<stop  offset="0.85" style="stop-color:#2B6926"/>
			<stop  offset="0.96" style="stop-color:#4C8F12"/>
			<stop  offset="1" style="stop-color:#5BA109"/>
		</linearGradient>
		<path class="st3" d="M2074.2,365c86.5-26.5,58.9-168.5-64.3-261.8c-3-2.3-8,8.1-8,8.1s-9.5-20.6-13.8-23.4
			c-25.5-16.6-52.9-30.2-81.5-40.6c0,0-14.3,25.7-27.7,63.4c-1.4,3.9,12.2,22.5,10.9,26.6c0,0-16.3-10.5-17-8.4
			c-8.8,28.2-16,61-16.8,94c-0.1,3.2,13.5,21,13.7,24.4s-13-7.5-12.5-3.9C1867.2,316.9,1937.5,406.9,2074.2,365z"/>
		
			<linearGradient id="SVGID_6_" gradientUnits="userSpaceOnUse" x1="853.2059" y1="-444.0913" x2="1150.0659" y2="97.1487" gradientTransform="matrix(-1 0 0 -1 3012.21 204)">
			<stop  offset="0" style="stop-color:#000000"/>
			<stop  offset="0.26" style="stop-color:#001519"/>
			<stop  offset="0.59" style="stop-color:#003640"/>
			<stop  offset="0.66" style="stop-color:#053C3D"/>
			<stop  offset="0.75" style="stop-color:#134D34"/>
			<stop  offset="0.85" style="stop-color:#2B6926"/>
			<stop  offset="0.96" style="stop-color:#4C8F12"/>
			<stop  offset="1" style="stop-color:#5BA109"/>
		</linearGradient>
		<path class="st4" d="M1925.7,74.3c3.9,5.4,7.7,11,11.2,16.8c3.8,5.5,7.2,11.3,10.7,17s6.8,11.5,10,17.4c3.2,5.9,6.6,11.6,9.4,17.7
			c6.1,11.9,12.4,23.6,17.8,35.8c2.7,6.1,5.7,12,8.5,18l7.7,18.4l7.7,18.4l6.9,18.7l6.9,18.6c2.3,6.2,4,12.6,6.1,18.9
			s4,12.6,6.1,18.9l3.1,9.4c1,3.2,1.7,6.4,2.6,9.6l10.1,38.5c3.1,12.9,5.6,25.9,8.5,38.9c1.3,6.5,2.9,12.9,4,19.5
			c1.1,6.5,1.9,13.1,3,19.7c2.1,13.1,4.5,26.2,6.3,39.4c1.2,13.2,2.7,26.5,4.2,39.7l2.3,19.9l1,20l2.5,40
			c1.6,26.8,0.6,53.6,2.1,80.6l1.5,0.1l2.3-40.3l1.2-20.2c0.4-6.7,0.9-13.4,0.6-20.2l-0.3-40.4l-0.2-20.2l-1.5-20.2l-3-40.3
			c-1.5-13.4-3.6-26.7-5.4-40l-2.8-20c-1.1-6.7-2.6-13.2-3.9-19.8c-2.8-13.2-5.2-26.4-8.2-39.6c-12.9-52.4-30.7-103.4-53.2-152.4
			c-22.8-48.8-49.8-95.9-84.8-137.1L1925.7,74.3z"/>
		
			<linearGradient id="SVGID_7_" gradientUnits="userSpaceOnUse" x1="1102.2219" y1="-282.0472" x2="1344.1719" y2="-22.7772" gradientTransform="matrix(-1 5.000000e-02 -5.000000e-02 -1 3082.1799 132.17)">
			<stop  offset="0" style="stop-color:#000000"/>
			<stop  offset="0.26" style="stop-color:#001519"/>
			<stop  offset="0.59" style="stop-color:#003640"/>
			<stop  offset="0.66" style="stop-color:#053C3D"/>
			<stop  offset="0.75" style="stop-color:#134D34"/>
			<stop  offset="0.85" style="stop-color:#2B6926"/>
			<stop  offset="0.96" style="stop-color:#4C8F12"/>
			<stop  offset="1" style="stop-color:#5BA109"/>
		</linearGradient>
		<path class="st5" d="M2013.4,462.3c24.7-17.9,26.5-47.1,10.7-76.8c-1.3-2.5-5.6,9.2-7.2,6.8c-2-3.2-1.4-20.5-3.8-23.7
			c-17.8-23.5-46.3-45.9-82.7-61.7c-1.6-0.7-0.9,11-2.5,10.3s-5.9-13.8-7.7-14.5c-30.5-11.6-62.7-17.8-95.3-18.3
			c-3,19-4.4,38.1-4.1,57.3c0,1.8,8.1,5.5,8.1,5.5c0,1.7-7.9,3.3-7.8,5c0.8,20.2,3.6,42.6,10.3,63.8c0.6,1.8,25.5,4.2,25.5,4.2
			c0.7,1.8-22,5.1-21.2,6.9C1858.3,476.1,1928.3,523.9,2013.4,462.3z"/>
		
			<linearGradient id="SVGID_8_" gradientUnits="userSpaceOnUse" x1="883.6472" y1="-432.5593" x2="1208.3271" y2="-136.0694" gradientTransform="matrix(-1 0 0 -1 3012.21 204)">
			<stop  offset="0" style="stop-color:#000000"/>
			<stop  offset="0.26" style="stop-color:#001519"/>
			<stop  offset="0.59" style="stop-color:#003640"/>
			<stop  offset="0.66" style="stop-color:#053C3D"/>
			<stop  offset="0.75" style="stop-color:#134D34"/>
			<stop  offset="0.85" style="stop-color:#2B6926"/>
			<stop  offset="0.96" style="stop-color:#4C8F12"/>
			<stop  offset="1" style="stop-color:#5BA109"/>
		</linearGradient>
		<path class="st6" d="M1844.2,298.4c16,10.8,31.1,23,45,36.4l10.5,9.8l10,10.3c6.8,6.7,12.9,14.1,19.2,21.4
			c24.5,29.3,46.4,60.7,65.4,93.9l13.8,25.2c2.4,4.2,4.5,8.4,6.4,12.8l6.1,13l6.2,13c1,2.2,2.1,4.3,3.1,6.5l2.7,6.7
			c3.5,8.9,7.2,17.8,11,26.7c4,8.8,6.9,18,10.1,27.1l9.5,27.4c6.1,18.4,11,37.1,17.4,55.6l1-0.2c-4.3-18.9-8.3-38-13-56.8l-8.3-28
			c-2.8-9.3-5.3-18.7-8.9-27.8l-10.2-27.3l-2.5-6.8c-0.9-2.3-2-4.4-3-6.7l-6-13.3l-6-13.3c-1.9-4.5-4-8.9-6.4-13.1l-13.8-25.7
			c-19.6-33.6-42.2-65.5-68.6-94.2c-6.7-7.1-13.2-14.3-20.4-20.8l-10.6-10l-11.2-9.4c-15-12.3-30.8-23.9-48.1-33L1844.2,298.4z"/>
		
			<linearGradient id="SVGID_9_" gradientUnits="userSpaceOnUse" x1="1054.2612" y1="-86.0529" x2="1090.5613" y2="-19.8829" gradientTransform="matrix(-1 0 0 -1 3012.21 204)">
			<stop  offset="0" style="stop-color:#000000"/>
			<stop  offset="0.26" style="stop-color:#001519"/>
			<stop  offset="0.59" style="stop-color:#003640"/>
			<stop  offset="0.66" style="stop-color:#053C3D"/>
			<stop  offset="0.75" style="stop-color:#134D34"/>
			<stop  offset="0.85" style="stop-color:#2B6926"/>
			<stop  offset="0.96" style="stop-color:#4C8F12"/>
			<stop  offset="1" style="stop-color:#5BA109"/>
		</linearGradient>
		<path class="st7" d="M1994.1,265.9c-7.8-6-16.3-10.1-25.1-13.4c-4.3-1.8-8.8-3-13.3-4.4c-4.5-1.2-9.1-2.1-13.6-3.1
			c-9.2-1.6-18.6-2.4-28-2.2c-9.4,0.3-19,1.6-28.2,5.2v1c18.3-0.2,36.5,2.3,54.4,5.7c18,3.1,35.9,7.2,53.5,12.2L1994.1,265.9z"/>
		
			<linearGradient id="SVGID_10_" gradientUnits="userSpaceOnUse" x1="1864.7426" y1="28.4423" x2="1950.0825" y2="11.7724" gradientTransform="matrix(1 0 0 -1 -1 204)">
			<stop  offset="0" style="stop-color:#000000"/>
			<stop  offset="0.26" style="stop-color:#001519"/>
			<stop  offset="0.59" style="stop-color:#003640"/>
			<stop  offset="0.66" style="stop-color:#053C3D"/>
			<stop  offset="0.75" style="stop-color:#134D34"/>
			<stop  offset="0.85" style="stop-color:#2B6926"/>
			<stop  offset="0.96" style="stop-color:#4C8F12"/>
			<stop  offset="1" style="stop-color:#5BA109"/>
		</linearGradient>
		<path class="st8" d="M1977,205.9c-5.4-6-11.7-11-18.8-15c-3.4-2-6.9-3.8-10.4-5.4c-3.6-1.6-7.3-2.8-10.9-4.2
			c-7.5-2.4-15.2-4-23.1-4.7c-7.9-0.6-16.1-0.4-24.1,2.2l-0.1,1c15.1,2,29.8,6.1,44.2,10.9c14.5,4.6,28.8,10,42.8,16.1L1977,205.9z"
			/>
		
			<linearGradient id="SVGID_11_" gradientUnits="userSpaceOnUse" x1="987.4084" y1="18.1612" x2="997.0485" y2="61.3612" gradientTransform="matrix(-1 0 0 -1 3012.21 204)">
			<stop  offset="0" style="stop-color:#000000"/>
			<stop  offset="0.26" style="stop-color:#001519"/>
			<stop  offset="0.59" style="stop-color:#003640"/>
			<stop  offset="0.66" style="stop-color:#053C3D"/>
			<stop  offset="0.75" style="stop-color:#134D34"/>
			<stop  offset="0.85" style="stop-color:#2B6926"/>
			<stop  offset="0.96" style="stop-color:#4C8F12"/>
			<stop  offset="1" style="stop-color:#5BA109"/>
		</linearGradient>
		<path class="st9" d="M2016.9,187.6c1.4-3.8,2.4-7.8,2.9-11.8c0.6-3.7,0.9-7.3,1.3-10.8c0.2-3.5,0.5-6.8,0.9-10.1
			c0.4-3.7,1.2-7.3,2.5-10.8l-0.4-0.6c-3.2,2.4-5.7,5.6-7.1,9.3c-1.5,3.7-2.4,7.5-2.7,11.5c-0.4,7.8,0.2,15.7,1.9,23.4L2016.9,187.6
			z"/>
	</g>
</g>
<image style="overflow:visible;enable-background:new    ;" width="1286" height="811" xlink:href="CD172CB7.png"  transform="matrix(-0.37 0 0 0.37 473.84 342)">
</image>
</svg>
