<svg xmlns="http://www.w3.org/2000/svg" xmlns:xlink="http://www.w3.org/1999/xlink" viewBox="0 0 627.81 603.44"><defs><style>.a{fill:url(#a);}.b{fill:#115b33;}.c{fill:#111;}.d{fill:#e88858;}.e{fill:#f4b373;}.f{fill:#ffaf84;}.g{fill:url(#b);}.h{fill:url(#c);}.i{fill:url(#d);}.j{fill:#fef2eb;}.k{fill:#c1a76e;}.l{fill:url(#e);}.m{fill:#1e1e1e;}.n{fill:url(#f);}.o{fill:url(#g);}.p{fill:url(#h);}.q{fill:url(#i);}.r{fill:url(#j);}.s{fill:url(#k);}.t{fill:#b4d7dc;}</style><linearGradient id="a" x1="340.58" y1="-143.54" x2="527.07" y2="236.62" gradientTransform="matrix(1, -0.01, 0.01, 1, -3.13, 3.31)" gradientUnits="userSpaceOnUse"><stop offset="0"/><stop offset="0.26" stop-color="#001519"/><stop offset="0.59" stop-color="#003640"/><stop offset="0.66" stop-color="#053c3d"/><stop offset="0.75" stop-color="#134d34"/><stop offset="0.85" stop-color="#2b6926"/><stop offset="0.96" stop-color="#4c8f12"/><stop offset="1" stop-color="#5ba109"/></linearGradient><linearGradient id="b" x1="217.63" y1="321.46" x2="380.06" y2="321.46" gradientUnits="userSpaceOnUse"><stop offset="0" stop-color="#fbb03b"/><stop offset="1" stop-color="#fcee21"/></linearGradient><linearGradient id="c" x1="375.03" y1="135.91" x2="279.54" y2="223.33" gradientUnits="userSpaceOnUse"><stop offset="0" stop-color="#ff664f"/><stop offset="1" stop-color="#9e005d"/></linearGradient><linearGradient id="d" x1="358.43" y1="117.79" x2="262.95" y2="205.2" xlink:href="#c"/><linearGradient id="e" x1="370.81" y1="131.31" x2="275.33" y2="218.73" xlink:href="#c"/><linearGradient id="f" x1="382.41" y1="143.97" x2="286.92" y2="231.39" xlink:href="#c"/><linearGradient id="g" x1="365.63" y1="125.65" x2="270.15" y2="213.07" xlink:href="#c"/><linearGradient id="h" x1="-91.55" y1="556.87" x2="88.66" y2="536.69" gradientTransform="matrix(1, 0, 0, 1, 0, 0)" xlink:href="#a"/><linearGradient id="i" x1="544.05" y1="555.46" x2="627.81" y2="555.46" gradientTransform="matrix(1, 0, 0, 1, 0, 0)" xlink:href="#a"/><linearGradient id="j" x1="78.04" y1="520.39" x2="165.39" y2="520.39" xlink:href="#a"/><linearGradient id="k" x1="480.34" y1="525.43" x2="567.8" y2="525.43" gradientTransform="matrix(1, 0, 0, 1, 0, 0)" xlink:href="#a"/></defs><title>Asset 8</title><path class="a" d="M570.53,275.68c-1.4-14.42-9.67-28.06-8.08-42.46,3.12-28.17,41.52-43.83,41.27-72.18-.19-21.76-23.05-35.7-32.73-55.19-11-22.22-4.23-50.54-16.68-72-11.92-20.56-37.5-28.27-60.94-32.18C479.18-.71,463-1.83,452,7.4c-14.75,12.35-12.08,35.14-16.17,53.94-5.24,24.12-22.81,43.27-37,63.49s-25.62,46-16.74,69c6.15,16,20.88,27.08,29.29,42,8.66,15.35,10.07,33.6,15.13,50.48,5.5,18.34,16.13,35.91,32.6,45.67C492,351.51,574.85,320.4,570.53,275.68Z"/><path class="b" d="M501.35,520.42a2.87,2.87,0,0,1-2.91-2.84L492.11,68.73A2.88,2.88,0,0,1,495,65.81h0a2.88,2.88,0,0,1,2.92,2.84L504.2,517.5a2.88,2.88,0,0,1-2.84,2.92Z"/><path class="b" d="M495.55,177.39l-58.38-47.14a2.89,2.89,0,0,1,3.63-4.49L495,169.55l55.13-58.34a2.88,2.88,0,1,1,4.19,4Z"/><path class="b" d="M496.68,264,434.3,212.94a2.88,2.88,0,0,1,3.66-4.46L496,256l62.62-73.6a2.89,2.89,0,0,1,4.4,3.74Z"/><path class="c" d="M322.36,429.63l-7.25-.09.08-6.58-192.14-4,2.7-109.26,7.25.18-2.53,102,184.81,3.85,1.36-108.88,188.13-2.24L511.34,427l-188.9-3.93Zm.17-13.77,181.16,3.77-5.78-107.72L323.8,314Z"/><polygon class="d" points="80.78 299 559.49 301.38 565.59 388.38 72.68 384.15 80.78 299"/><rect class="e" x="318.48" y="78.55" width="1.74" height="482.78" transform="translate(-2.79 637.07) rotate(-89.6)"/><rect class="e" x="316.75" y="102.87" width="1.74" height="482.78" transform="translate(-28.83 659.49) rotate(-89.6)"/><rect class="e" x="317.04" y="127.17" width="1.74" height="482.78" transform="translate(-52.84 683.91) rotate(-89.6)"/><path class="f" d="M286.94,232.69s2.68,21.71,2.06,23.64c-.22.68-11.81.15-11.81.15s7.71,33.86,18.64,35.55,29.67-4.6,30.23-8.85,1.82-25.5,1.82-25.5a70.82,70.82,0,0,1-9.12-1.71c-1.22-.29-4.37-35.73-4.37-35.73Z"/><path class="g" d="M269.46,255.52c-5.72-.13-11.42-1.35-16.74.79-9.15,3.7-14.59,13.3-17.14,22.84s-2.94,19.56-5.73,29c-1.69,5.75-4.25,11.21-6.29,16.84a99.28,99.28,0,0,0-5.91,31.39c-.11,4.71.21,9.74,2.95,13.57a12.5,12.5,0,0,0,8,5c6.24,1.05,12.14-2.71,17.53-6,10.27-6.31,21.59-11.66,33.64-12.15,12.4-.5,24.36,4.18,35.89,8.8,12.18,4.89,25.32,10.66,31.39,22.29,2.7-2.46,2.47-6.75,1.59-10.29s-2.18-7.3-.91-10.73a16.51,16.51,0,0,0,31.86-.85c1.75-7.18-1.4-14.5-3.08-21.7-3.66-15.6-.39-31.9-.6-47.93a94,94,0,0,0-1.46-11.53,28.3,28.3,0,0,0-20.87-22.71c-10.36-2.65-22.87-5.75-31.46-5.4a48.92,48.92,0,0,1-6.6,13.28C312,275,304.71,283.14,299.2,280.6c-1.86-.86-6.13-5.48-7.44-7-4-4.72-7-17.29-7.55-17.39C281.23,255.61,274.3,255.63,269.46,255.52Z"/><path class="h" d="M327.88,212.45a29.71,29.71,0,1,1-22-35.81A29.71,29.71,0,0,1,327.88,212.45Z"/><path class="i" d="M316.36,177a18.42,18.42,0,1,1-13.63-22.2A18.42,18.42,0,0,1,316.36,177Z"/><path class="j" d="M247.12,296.87s30.29,3.74,34.91,3.94,15.4,1.87,16.48,6c.51,0,10.44-5.76,21.95-7.44s26.07-6.46,26.07-6.46l3.69,4.41-43.14,18.87-7.39,4.19s-10.55-3.46-11.32-3.45-46.25-9.19-46.25-9.19l-.3-4.1Z"/><path class="f" d="M273.21,209.21c-1.06,6.82.15,13.81,2,20.47,1.62,5.88,14.37,31.71,31.19,27.48,16.66-4.19,21.05-38.27,18.57-49.54-2.38-10.79-12.75-25.27-25.22-24.78C286.72,183.36,275.08,197.17,273.21,209.21Z"/><path class="f" d="M272.14,213.6a3.37,3.37,0,0,0-3.42.11c-1.25.92-1.41,2.7-1.33,4.25a29.3,29.3,0,0,0,3.79,13c1,1.74,2.6,3.59,4.59,3.31s3.13-2.8,3.41-4.94C279.89,223.92,277.59,216.3,272.14,213.6Z"/><path class="k" d="M242.86,301.62l45.92,9.48a3.1,3.1,0,0,1,2.23,1.69c.67,1.5,2.4,3.7,6.84,3.47a7.72,7.72,0,0,0,7.2-4.67,3.07,3.07,0,0,1,2-1.76l43.21-12.55a3.06,3.06,0,0,1,3.91,3l-1.85,57.14a3,3,0,0,1-2.23,2.84c-8.88,2.42-42.15,11.48-42.82,11.49s-50.8-8.62-62.36-10.61a3,3,0,0,1-2.51-2.83l-3.16-53.55A3.06,3.06,0,0,1,242.86,301.62Z"/><path class="l" d="M299.34,216c-9.35,5.34-19.89,8.21-30.44,10.35l1.24-11.27c.58-5.31,1.22-10.79,3.89-15.41a29,29,0,0,1,6-7c5.64-5,12.42-11.71,19.92-12.36,6.45-.55,20.24,5.72,19.79,14S305.77,212.38,299.34,216Z"/><path class="f" d="M235.75,319a2.35,2.35,0,0,0-1.32.16,2.14,2.14,0,0,0-.82,1.37,10.72,10.72,0,0,0-.33,2.82,2.1,2.1,0,0,0,.36,1.37,2.28,2.28,0,0,0,1,.57c3.49,1.2,7.27,1.09,11,1a5.27,5.27,0,0,0,1.81-.28,3,3,0,0,0,1.61-3.48C248,318.36,239,319.21,235.75,319Z"/><path class="f" d="M224.33,348.57a10.33,10.33,0,0,0-1.85,7.35,18.9,18.9,0,0,0,2.57,7.28,5.38,5.38,0,0,0,1.84,2.16,5.76,5.76,0,0,0,2.5.57c2.33.19,4.78.35,6.9-.65a9.93,9.93,0,0,0,4.44-4.9,18.37,18.37,0,0,0-1-17.42,5,5,0,0,0-2-2C233.79,339.18,226.41,345.84,224.33,348.57Z"/><path class="f" d="M232.49,325.63a4.11,4.11,0,0,0-2.7,4.05,14.82,14.82,0,0,1,.54,2.33c0,1.19-1,2.28-.72,3.43a11.73,11.73,0,0,0,.85,1.7c.5,1.19,0,2.52-.17,3.8a6.91,6.91,0,0,0,8.42,7.59c2.42-.56,4.42-2.38,6.86-2.81a18.6,18.6,0,0,1,4.53.11,20.33,20.33,0,0,0,11.73-2.76c.9-.53,1.86-1.33,1.79-2.37s-1.39-1.8-2.5-2.16a76,76,0,0,0-19.37-3.63,1.35,1.35,0,0,1,.57-2,3.89,3.89,0,0,1,2.32-.18l9.3,1.2c1.8.24,4.15.16,4.77-1.54a2.76,2.76,0,0,0-1.22-3.05,8.19,8.19,0,0,0-3.33-1.09l-12-2.06c-1.59-.27-3.25-.84-4.81-1.06C235.59,324.92,234.15,325.61,232.49,325.63Z"/><path class="f" d="M348.09,314.59a4.39,4.39,0,0,0-2.51,1.32c-1.09,1.42-.07,3.66,1.54,4.46s3.53.58,5.31.34a32,32,0,0,0,5.15-1c1.47-.45,3.1-1.44,3.12-3C360.8,311.4,350.56,314,348.09,314.59Z"/><path class="m" d="M368,503.68a43,43,0,0,0,6.19,7.87c5.64,5.73,10.71,5.15,18.75,4.89a29.86,29.86,0,0,0,9.19-1.29c2.92-1,5.62-3.16,6.62-6.11,1.36-4-.8-8.52-4-11.37s-7.18-4.49-10.9-6.55c-5.88-3.26-12.4-6.44-16.65-11.64-3.59-4.4-8.23-10.8-13.9-11.22-6-.46-11.86,6.36-10.2,12,1,3.36,5.89,7.25,7.56,10.55C362.83,495,365.76,499.52,368,503.68Z"/><polygon class="c" points="528.36 531.11 507.51 423.33 118.71 420.45 102.29 522.8 95.41 521.7 112.78 413.43 513.27 416.41 535.2 529.79 528.36 531.11"/><polygon class="c" points="591.13 571.58 566.65 429.48 78.34 429.57 51.41 556.16 44.6 554.71 72.7 422.6 572.52 422.51 597.99 570.39 591.13 571.58"/><path class="f" d="M341.94,324.47a8.46,8.46,0,0,0-3.46.78,2.91,2.91,0,0,0-1.61,2.93,2.87,2.87,0,0,0,2,2,8.35,8.35,0,0,0,2.91.23c4.86-.22,9.72-.66,14.54-1.33a3.57,3.57,0,0,0,2.41-1c2.11-2.65-2.63-4.43-4.48-4.6C350.33,323.11,345.86,324.14,341.94,324.47Z"/><path class="d" d="M58.94,400.71l.38,31.38,523.09-2.76s13.62-26.9,9-26.85S58.94,400.71,58.94,400.71Z"/><path class="f" d="M333.61,332.91c-1.51.1-3.38.49-3.74,2s1.17,2.71,2.61,3.16a17.66,17.66,0,0,0,5.33.57c5.29,0,10.59-.12,15.87-.41a9.38,9.38,0,0,0,3.16-.55,3.26,3.26,0,0,0,2.06-2.29c1-5.41-8-3.58-10.58-3.41Z"/><path class="f" d="M354.21,354.59c-.47,2.84-.95,5.75-.4,8.58s2.35,5.6,5.09,6.46c2.23.7,4.66.06,6.82-.84,3.09-1.3,6.14-3.35,7.34-6.48,1.27-3.35.14-7.16-1.64-10.27s-4.17-5.85-5.72-9.08c-.93-1.94-1.57-4.07-3-5.67s-4.07-2.43-5.74-1.08c-1.2,1-1.48,2.69-1.46,4.23A74.86,74.86,0,0,1,354.21,354.59Z"/><path class="f" d="M342.85,340.57c-1.57.12-3.5.53-3.9,2.06a2.61,2.61,0,0,0,1.47,2.76,7.05,7.05,0,0,0,3.29.57,60.5,60.5,0,0,0,11-1,3.42,3.42,0,0,0,2.6-1.41,2.29,2.29,0,0,0-.93-2.75C353.29,338.69,346.29,340.31,342.85,340.57Z"/><path class="m" d="M347,387.86s7.1,14.3-1.8,17.47-23.59-8.4-23.59-8.4-20.76-28.09-19.74-28.61,9.67-2.67,9.67-2.67l16.9,4.39S341.37,367.92,347,387.86Z"/><path class="f" d="M282.88,505.2l1,42.65s2.81,6.77,7.78,5.35,10.73-51.41,10.73-51.41Z"/><path class="m" d="M272.25,376.94s-5.3,10.47-4.11,34.51c1.28,25.73,11,102.19,11,102.19L303,518.58S315.26,405.11,315.08,390,304.38,344.61,272.25,376.94Z"/><path class="f" d="M363.38,489.66c3.05,4.93,6.35,9.88,11,13.33s11,5.2,16.37,3.06a6.92,6.92,0,0,0,3.17-2.26c1.49-2.11,1-5.13-.51-7.24s-3.69-3.57-5.79-5.07a81,81,0,0,1-29.79-40.72,20,20,0,0,0-2.46-5.77,5.87,5.87,0,0,0-5.37-2.66,6,6,0,0,0-2.77,1.34c-7.72,6.1-1.29,13.47,1.9,20.06A292.45,292.45,0,0,0,363.38,489.66Z"/><path class="f" d="M359.87,326.48a12.68,12.68,0,0,1,3,4.73,48.23,48.23,0,0,1,3.57,13.86,8.77,8.77,0,0,1-.27,4.05c-1,2.53-4.09,3.8-6.72,3.16a8.8,8.8,0,0,1-5.73-5.31,18.81,18.81,0,0,1-1.12-8c.09-2.7.42-5.4.31-8.1a13.31,13.31,0,0,1,.06-3.34C353.71,324,357.69,324.52,359.87,326.48Z"/><path class="m" d="M253.36,351.61s-21.31,14.77-21.21,23.48-1,32.73,9.45,34.8c11,2.16,27,.77,27,.77s-2-19.72,6.09-24.46a129.84,129.84,0,0,1,15.59-7.74l53.3,79.28,16.22-10.18s-15.29-50.58-19.48-61-17.37-43.93-26.69-46.73S289.09,328.53,253.36,351.61Z"/><path class="f" d="M353.74,324.3a5.68,5.68,0,0,0,4.21,3.35,1.88,1.88,0,0,0,1,0c.73-.32.88-1.27.92-2.07q.19-4.29.27-8.61a2,2,0,0,0-.08-.72c-.25-.71-1.16-.91-1.91-.88-1.52.07-5,1.06-5.39,2.85a102.72,102.72,0,0,0,1,6.13Z"/><path class="n" d="M316.74,206.07c1.83,5.21,4.33,10.5,8.84,13.69,2-4.09,3.94-8.29,4.79-12.77s.55-9.33-1.73-13.27a19.43,19.43,0,0,0-3.83-4.6,27.39,27.39,0,0,0-7.87-5.15c-5.57-2.36-6.71,3.55-5.1,7.42C313.82,196.16,315,201.15,316.74,206.07Z"/><path class="o" d="M268.76,203.25a20.68,20.68,0,0,0-1.11,6.92c.13,3.56,1.59,6.93,3,10.19.68,1.57,1.66,3.36,3.36,3.54a4.7,4.7,0,0,0,2.72-.85,52.87,52.87,0,0,0,14.74-12.43c3.88-4.75,7-10.49,7-16.62,0-8.18-6.59-16.32-14.42-10.95A38.83,38.83,0,0,0,268.76,203.25Z"/><path class="f" d="M327.68,212a3.37,3.37,0,0,1,3.43,0c1.27.88,1.47,2.66,1.43,4.21a29.37,29.37,0,0,1-3.48,13.12c-.95,1.76-2.51,3.65-4.51,3.42s-3.19-2.73-3.52-4.86C320.18,222.53,322.3,214.86,327.68,212Z"/><path class="f" d="M279.35,566.41c-1,3.61-2.13,7.34-1.44,11a5.68,5.68,0,0,0,2.43,4,7.6,7.6,0,0,0,3.24.72l6.26.43c3.51.24,7.38.38,10.14-1.8,2.41-1.92,3.35-5.23,3.2-8.31s-1.25-6-2.22-8.94A132.91,132.91,0,0,1,295.32,539c-.45-3.43-.87-7.13-3.19-9.71-8.07-9-8.31,5.75-8.49,9.75A126.09,126.09,0,0,1,279.35,566.41Z"/><path class="m" d="M296.81,579.21a8.19,8.19,0,0,0,3-2.18c2-2.51,1.53-6.13.95-9.29q-1-5.61-2.08-11.22c6.21,7.66,7.29,18.24,7,28.1-.06,2.31-.28,4.84-1.92,6.47s-4.16,1.85-6.46,2c-4.15.22-8.36.41-12.42-.47s-8-3-10.32-6.42a15.47,15.47,0,0,1-2.08-10.41,33.54,33.54,0,0,1,3.36-10.25A55.47,55.47,0,0,1,282,555c1.29,6.39-5.44,12.78-3.26,19C281.06,580.72,291.28,581.8,296.81,579.21Z"/><path class="p" d="M15.65,543.72c.88-4.26-.09-8.65-.38-13s.3-9.16,3.49-12.11c1.53-1.42,3.84-2.26,5.72-1.37s2.66,3,3.3,5Q30,529,32.23,535.86c2.85-1.39,2.44-5.66,4.34-8.2,2.56-3.4,8.42-2.1,10.87,1.38s2.48,8.06,2.41,12.32a24.87,24.87,0,0,1,13.53-10.1,23.94,23.94,0,0,1,4.71,19.31c1.32-4.37,8-4.91,11.31-1.77s3.93,8.18,3.68,12.74a3.76,3.76,0,0,1-.83,2.59,3.91,3.91,0,0,1-3,.69c-20.69-.9-47.19,2.38-67.12-3-6.78-1.83-13.9-5.45-11.75-14C2.81,538.27,16.42,542.13,15.65,543.72Z"/><path class="q" d="M559.05,559.39c.49-4.32-.86-8.61-1.54-12.9s-.52-9.15,2.4-12.38c1.4-1.54,3.62-2.58,5.58-1.87s2.92,2.77,3.72,4.65l5.65,13.2c2.71-1.64,1.93-5.86,3.6-8.55,2.24-3.62,8.19-2.84,10.94.41s3.19,7.8,3.5,12a24.87,24.87,0,0,1,12.58-11.26,23.9,23.9,0,0,1,6.41,18.81c.92-4.47,7.52-5.6,11.1-2.78s4.64,7.8,4.81,12.37a3.81,3.81,0,0,1-.6,2.66,4,4,0,0,1-2.92,1c-20.68.94-46.79,6.57-67.11,3-6.92-1.22-14.34-4.19-12.95-12.87C545.77,555.11,559.67,557.74,559.05,559.39Z"/><path class="r" d="M86.84,515.18a9.46,9.46,0,0,1,11,2.05c-.1-3.88,4.53-6.57,8.31-5.72s6.56,4.11,8.4,7.52c.61,1.13,1.24,2.39,2.43,2.88a4.49,4.49,0,0,0,3.44-.39c5.88-2.63,11.71-9,17.41-6,3.22,1.69,4.76,6,8.3,6.86,2,.47,4-.29,5.91-.82a16.37,16.37,0,0,1,10.6.24c3.32,1.41,6,4.69,5.9,8.3C163.32,533,157,533,151,532.92q-27.65-.37-55.26-1.64C87.47,530.9,73.05,522.23,86.84,515.18Z"/><path class="s" d="M486.07,518.46a9.48,9.48,0,0,1,11,2c-.1-3.88,4.53-6.57,8.31-5.72s6.56,4.11,8.4,7.52c.61,1.13,1.24,2.39,2.43,2.88a4.49,4.49,0,0,0,3.44-.39c5.88-2.62,11.71-9,17.4-6,3.23,1.7,4.77,6,8.31,6.86,2,.47,4-.29,5.91-.82a16.37,16.37,0,0,1,10.6.24c3.32,1.41,6,4.7,5.9,8.3-5.25,2.9-11.55,2.93-17.55,2.85q-27.63-.37-55.25-1.64C486.69,534.18,472.28,525.51,486.07,518.46Z"/><path class="t" d="M180.91,603.44H449.77a4,4,0,0,0,4-4h0a4,4,0,0,0-4-4H180.91a4,4,0,0,0-4,4h0A4,4,0,0,0,180.91,603.44Z"/></svg>