<svg xmlns="http://www.w3.org/2000/svg" xmlns:xlink="http://www.w3.org/1999/xlink" viewBox="0 0 848.88 874.74"><defs><style>.a,.c,.l,.s{fill:none;}.b{fill:#4c8e25;}.c{stroke:#bbceff;stroke-width:0.92px;}.c,.l,.q,.r,.s{stroke-miterlimit:10;}.d,.f{fill:#fff;}.d,.e,.n{opacity:0.5;}.e{fill:#7bcaff;}.g{fill:#406d23;}.h{fill:#ffc550;}.i{fill:#edf4fc;}.j{fill:#f2bbd2;}.k{fill:#aaa4f7;}.l{stroke:#ffc550;stroke-width:1.01px;}.m{fill:#ff3369;}.o{fill:#ffaf84;}.p{fill:url(#a);}.q,.r,.s{stroke:#ccae02;stroke-width:3px;}.q{fill:url(#b);}.r{fill:url(#c);}.t{fill:url(#d);}.u{fill:url(#e);}.v{fill:url(#f);}.w{fill:#c1a76e;}.x{fill:url(#g);}.y{fill:#1e1e1e;}.z{fill:#659944;opacity:0.76;}</style><linearGradient id="a" x1="307.52" y1="328.13" x2="34.52" y2="790.13" gradientUnits="userSpaceOnUse"><stop offset="0" stop-color="#ff664f"/><stop offset="1" stop-color="#9e005d"/></linearGradient><linearGradient id="b" x1="327.7" y1="404.81" x2="194.37" y2="353.48" gradientUnits="userSpaceOnUse"><stop offset="0" stop-color="#fbb03b"/><stop offset="1" stop-color="#fcee21"/></linearGradient><linearGradient id="c" x1="230.9" y1="395.03" x2="320.9" y2="324.03" gradientUnits="userSpaceOnUse"><stop offset="0" stop-color="#fbb03b"/><stop offset="0.74" stop-color="#fcde28"/><stop offset="1" stop-color="#fcee21"/></linearGradient><linearGradient id="d" x1="286.14" y1="569.21" x2="364.47" y2="613.55" xlink:href="#a"/><linearGradient id="e" x1="218.05" y1="537.04" x2="341.16" y2="537.04" xlink:href="#a"/><linearGradient id="f" x1="254.12" y1="849.85" x2="295.67" y2="813.5" gradientUnits="userSpaceOnUse"><stop offset="0" stop-color="#9b6632"/><stop offset="0.26" stop-color="#a97745"/><stop offset="0.73" stop-color="#be9262"/><stop offset="1" stop-color="#c69c6d"/></linearGradient><linearGradient id="g" x1="308.89" y1="860.58" x2="347.39" y2="812.58" xlink:href="#f"/></defs><title>Asset 3</title><line class="a" x1="239.88" y1="558.53" x2="235.16" y2="564.9"/><polygon class="b" points="740.61 51.57 740.61 674.76 14.34 618.91 14.34 130.91 740.61 51.57"/><path class="c" d="M334.6,562.32,62.8,548.92c-3.31-.17-6-3.77-6-8V487c0-4.28,2.68-7.69,6-7.61l271.8,6.32c4,.09,7.3,4,7.3,8.75V554.1C341.9,558.84,338.63,562.52,334.6,562.32Z"/><polygon class="d" points="127.33 512.25 84.05 510.75 84.05 500.04 127.33 501.37 127.33 512.25"/><polygon class="d" points="180.51 514.1 135.53 512.54 135.53 501.63 180.51 503.01 180.51 514.1"/><polygon class="d" points="157.84 532.87 84.05 529.79 84.05 519.08 157.84 521.87 157.84 532.87"/><polygon class="d" points="243.93 536.47 166.67 533.24 166.67 522.2 243.93 525.13 243.93 536.47"/><polygon class="e" points="382.5 600.66 69.77 581.48 69.77 183.84 382.5 156.57 382.5 600.66"/><path class="f" d="M153.51,412.83a26,26,0,0,1-12.74-3.05c-3.5-2-5.42-4.73-5.42-7.64V389.91a.71.71,0,0,1,.71-.72H171a.65.65,0,0,1,.65.65V402c.08,3-1.84,5.75-5.41,7.81A26,26,0,0,1,153.51,412.83Zm-17.17-22.66v12c0,2.55,1.75,5,4.93,6.79,6.75,3.9,17.74,3.9,24.5,0,3.25-1.87,5-4.34,4.92-6.94V390.17Z"/><path class="f" d="M153.51,400.56a26,26,0,0,1-12.74-3c-3.5-2-5.42-4.73-5.42-7.64s1.92-5.62,5.42-7.63c7-4.06,18.45-4.06,25.48,0h0c3.49,2,5.42,4.73,5.42,7.63s-1.93,5.62-5.42,7.64A26,26,0,0,1,153.51,400.56Zm0-20.39a25,25,0,0,0-12.25,2.93c-3.18,1.83-4.93,4.24-4.93,6.78s1.75,5,4.93,6.79c6.76,3.9,17.75,3.9,24.5,0,3.18-1.83,4.93-4.24,4.93-6.79s-1.75-4.95-4.93-6.78A25.08,25.08,0,0,0,153.51,380.17Z"/><polygon class="f" points="151.71 400.08 151.71 411.9 155.89 412.35 162.73 410.85 167.63 408.27 171.17 404.07 170.98 391.39 168.34 395.82 163.93 398.65 157.57 399.81 151.71 400.08 151.71 400.08"/><path class="f" d="M153.51,396.79a21.21,21.21,0,0,1-10.39-2.49c-2.86-1.65-4.44-3.88-4.44-6.28V345h29.66v42.88c.07,2.45-1.51,4.73-4.44,6.42A21.15,21.15,0,0,1,153.51,396.79ZM139.67,346v42c0,2,1.4,4,4,5.43,5.45,3.15,14.33,3.15,19.79,0,2.61-1.5,4-3.47,4-5.55V346Z"/><polygon class="f" points="151.71 351.44 151.71 396.24 159.55 395.54 165.63 392.53 167.85 388.84 167.85 345.49 151.71 345.49 151.71 351.44"/><path class="f" d="M197.73,399a10.21,10.21,0,0,1-5-1.27l-43.39-25a3.94,3.94,0,0,1-2.3-3.33V366.4l14.88-.52,37.9-21.68c2.32-1.35,6.24-1.19,8.92.35l34,19.59,11.71-1.56v3.36a3,3,0,0,1-1.68,2.8L201.65,398A8.14,8.14,0,0,1,197.73,399ZM148,367.35v2a3,3,0,0,0,1.8,2.48l43.39,25c2.35,1.36,5.91,1.51,7.94.35l51.08-29.29a2.06,2.06,0,0,0,1.19-1.94v-2.24l-10.93,1.45-.14-.09L208.25,345.4c-2.36-1.36-5.92-1.52-7.94-.35l-38.12,21.8h-.12Z"/><path class="f" d="M197.72,396a10.22,10.22,0,0,1-5-1.27l-43.38-25a4,4,0,0,1-2.31-3.18,3,3,0,0,1,1.7-2.54l51.08-29.29c2.33-1.35,6.25-1.2,8.92.35l43.38,25a4,4,0,0,1,2.32,3.18,3,3,0,0,1-1.71,2.54h0l-51.08,29.29A8,8,0,0,1,197.72,396Zm6-61.24a6.9,6.9,0,0,0-3.41.79l-51.08,29.29a2,2,0,0,0-1.21,1.69,3,3,0,0,0,1.82,2.32l43.38,25c2.36,1.36,5.92,1.52,7.94.35L252.22,365a2,2,0,0,0,1.21-1.69,3,3,0,0,0-1.82-2.33l-43.38-25A9.32,9.32,0,0,0,203.7,334.8Z"/><polygon class="f" points="197.87 398.65 197.87 395.54 200.63 395.05 205.36 392.49 207.51 393.96 203.09 396.66 201.4 397.6 197.87 398.65"/><path class="f" d="M284.55,413.8a26.06,26.06,0,0,1-12.74-3c-3.49-2-5.42-4.73-5.42-7.64V390.89a.72.72,0,0,1,.72-.72h34.93a.66.66,0,0,1,.66.65V403c.08,3-1.84,5.75-5.42,7.81A26,26,0,0,1,284.55,413.8Zm-17.17-22.65v12c0,2.55,1.75,5,4.93,6.79,6.75,3.9,17.74,3.9,24.49,0,3.25-1.87,5-4.34,4.92-6.94V391.15Z"/><path class="f" d="M284.55,401.54a26.06,26.06,0,0,1-12.74-3c-3.49-2-5.42-4.73-5.42-7.64s1.93-5.62,5.42-7.64c7-4.05,18.46-4.05,25.48,0h0c3.5,2,5.42,4.74,5.42,7.64s-1.92,5.62-5.42,7.64A26,26,0,0,1,284.55,401.54Zm0-20.39a25,25,0,0,0-12.24,2.92c-3.18,1.84-4.93,4.25-4.93,6.79s1.75,5,4.93,6.79c6.75,3.9,17.74,3.9,24.49,0,3.18-1.83,4.93-4.25,4.93-6.79s-1.75-4.95-4.93-6.79A25,25,0,0,0,284.55,381.15Z"/><polygon class="f" points="282.76 401.06 282.76 412.88 286.93 413.32 293.77 411.83 298.68 409.25 302.22 405.05 302.03 392.37 299.39 396.8 294.98 399.63 288.61 400.79 282.76 401.06 282.76 401.06"/><path class="f" d="M284.56,397.76a21.17,21.17,0,0,1-10.39-2.48c-2.87-1.65-4.45-3.88-4.45-6.28V346h29.66v42.88c.06,2.45-1.51,4.73-4.44,6.42A21.2,21.2,0,0,1,284.56,397.76ZM270.71,347v42c0,2,1.41,4,4,5.43,5.46,3.15,14.34,3.15,19.8,0,2.6-1.5,4-3.47,4-5.55V347Z"/><polygon class="f" points="282.76 352.42 282.76 397.22 290.59 396.51 296.68 393.5 298.9 389.82 298.9 346.47 282.76 346.47 282.76 352.42"/><path class="f" d="M219,451.16a26,26,0,0,1-12.74-3c-3.49-2-5.42-4.73-5.42-7.64V428.24a.72.72,0,0,1,.72-.72h34.93a.66.66,0,0,1,.65.66V440.3c.08,3-1.84,5.76-5.41,7.82A26,26,0,0,1,219,451.16Zm-17.17-22.65v12c0,2.54,1.75,4.95,4.93,6.79,6.76,3.9,17.74,3.9,24.5,0,3.25-1.88,5-4.34,4.92-6.94V428.51Z"/><path class="f" d="M219,438.9a26,26,0,0,1-12.74-3c-3.49-2-5.42-4.73-5.42-7.64s1.92-5.62,5.42-7.64c7-4.06,18.45-4.06,25.48,0h0c3.5,2,5.42,4.73,5.42,7.64s-1.93,5.62-5.42,7.64A26,26,0,0,1,219,438.9Zm0-20.39a25,25,0,0,0-12.25,2.92c-3.18,1.84-4.93,4.25-4.93,6.79s1.75,4.95,4.93,6.79c6.76,3.9,17.75,3.9,24.5,0,3.18-1.84,4.93-4.25,4.93-6.79s-1.75-5-4.93-6.79A25,25,0,0,0,219,418.51Z"/><polygon class="f" points="217.24 438.42 217.24 450.24 221.42 450.68 228.26 449.18 233.16 446.61 236.71 442.41 236.51 429.73 233.88 434.15 229.46 436.99 223.1 438.15 217.24 438.42 217.24 438.42"/><path class="f" d="M219,435.12a21.25,21.25,0,0,1-10.38-2.48c-2.87-1.65-4.45-3.88-4.45-6.28v-43h29.66v42.89c.07,2.45-1.51,4.73-4.44,6.42A21.26,21.26,0,0,1,219,435.12ZM205.2,384.31v42.05c0,2,1.41,4,4,5.43,5.45,3.15,14.33,3.15,19.79,0,2.61-1.51,4-3.48,3.95-5.55V384.31Z"/><polygon class="f" points="217.24 389.78 217.24 434.57 225.08 433.87 231.16 430.86 233.38 427.18 233.38 383.82 217.24 383.82 217.24 389.78"/><path class="f" d="M219.37,399.13a13,13,0,0,1-6.32-1.57l-80.3-46.36c-1.86-1.08-2.87-2.54-2.86-4.13v-7.81h18.86l65.08-37.57c2.89-1.66,7.92-1.46,11.23.45L293.4,341.6l14.79-1.78v7.49a3.75,3.75,0,0,1-2.08,3.44L224.28,398A10,10,0,0,1,219.37,399.13Zm-88.51-58.88,0,6.82c0,1.23.83,2.39,2.37,3.28l80.29,46.36c3,1.75,7.63,2,10.25.44l81.84-47.25a2.78,2.78,0,0,0,1.59-2.58v-6.39l-14,1.68-.14-.08L224.56,303c-3-1.76-7.63-2-10.25-.45L149,340.25Z"/><path class="f" d="M219.35,391.87A13,13,0,0,1,213,390.3l-80.3-46.36c-1.82-1.05-2.87-2.49-2.87-3.93a3.69,3.69,0,0,1,2.1-3.12l81.84-47.25c2.88-1.66,7.92-1.46,11.23.45l80.3,46.36c1.82,1.05,2.87,2.48,2.87,3.93a3.69,3.69,0,0,1-2.1,3.12l-81.84,47.24A10,10,0,0,1,219.35,391.87Zm-.64-102.39a9,9,0,0,0-4.42,1l-81.84,47.25a2.75,2.75,0,0,0-1.61,2.27c0,1.08.87,2.21,2.38,3.08l80.3,46.36c3,1.75,7.63,1.95,10.25.44l81.83-47.24a2.77,2.77,0,0,0,1.62-2.27c0-1.09-.87-2.21-2.39-3.08l-80.29-46.36A12,12,0,0,0,218.71,289.48Z"/><polygon class="f" points="223.72 390.44 219.04 391.63 219.04 398.65 224.46 397.33 306.74 349.85 307.69 347.74 307.91 341.66 223.72 390.44"/><path class="f" d="M236.18,374a13,13,0,0,1-6.32-1.58l-55.23-31.86c-1.86-1.07-2.88-2.54-2.86-4.13l0-4.56,18.87-.45,48.27-27.61c2.88-1.66,7.91-1.47,11.22.44l43.29,25L308.2,328v4.13a3.75,3.75,0,0,1-2.08,3.45l-65,37.29A10,10,0,0,1,236.18,374Zm-63.44-41.59v4c0,1.22.83,2.38,2.37,3.27l55.23,31.86c3,1.76,7.64,2,10.25.45l65-37.29a2.79,2.79,0,0,0,1.59-2.58v-3.59l-14,1.67-.14-.08-43.43-25.05c-3-1.75-7.63-1.95-10.24-.44l-48.5,27.75Z"/><path class="f" d="M236.16,369.56a13,13,0,0,1-6.32-1.57l-55.23-31.86c-1.83-1.06-2.88-2.49-2.88-3.93a3.67,3.67,0,0,1,2.11-3.12l65-37.29c2.88-1.66,7.91-1.46,11.22.45l55.24,31.85c1.82,1.06,2.87,2.49,2.87,3.94a3.68,3.68,0,0,1-2.1,3.11h0l-65,37.29A10,10,0,0,1,236.16,369.56Zm7.61-77.93a9,9,0,0,0-4.41,1l-65,37.29a2.75,2.75,0,0,0-1.61,2.27c0,1.08.87,2.2,2.38,3.08l55.23,31.86c3,1.75,7.64,1.95,10.25.44l65-37.29a2.75,2.75,0,0,0,1.61-2.26c0-1.09-.87-2.21-2.39-3.08L249.6,293.09A11.93,11.93,0,0,0,243.77,291.63Z"/><polygon class="f" points="235.75 369.08 235.75 373.55 239.98 373.06 306.95 334.32 307.71 332.17 307.91 328.8 302.38 332.86 240.82 368.01 235.75 369.08"/><path class="f" d="M237.41,411.09l-.36-.21L224.9,389.49l-20.21-20.15v-.48l17.54-10,25.64,14.71A14.29,14.29,0,0,1,255,385.93v15.19ZM206,369.25l19.74,19.69,11.87,20.91,16.38-9.3V385.93a13.32,13.32,0,0,0-6.59-11.48L222.23,360Z"/><path class="f" d="M237.41,411.09l-12.54-7.16V390.7L204.69,379V368.86l.49-.28,25.64,14.71a14.28,14.28,0,0,1,7.08,12.33v15.19Zm-11.56-7.73,11.07,6.32V395.62a13.32,13.32,0,0,0-6.59-11.48L205.67,370v8.47l20.18,11.67Z"/><polygon class="f" points="237.57 395.21 254.46 385.34 254.46 400.83 237.41 410.52 237.57 395.21"/><polygon class="f" points="236.97 392.89 254.14 383 252.21 378.46 235.38 388.53 236.97 392.89"/><path class="f" d="M329.56,381.92a1.49,1.49,0,0,0-1.51.13,4.17,4.17,0,0,0-1.91,3.31,1.48,1.48,0,0,0,.64,1.36,1.2,1.2,0,0,0,.59.15,1.92,1.92,0,0,0,.92-.27,4.18,4.18,0,0,0,1.91-3.31A1.49,1.49,0,0,0,329.56,381.92Z"/><path class="f" d="M327.05,392.74h-.11c-1-.05-1.6-.81-1.62-2a6.52,6.52,0,0,1,.86-3.38,6.32,6.32,0,0,1,2-2.13l.37-.24,0,.41v2l-.12.06a2.44,2.44,0,0,0-1,2.28c0,.45.21.46.32.47a2.3,2.3,0,0,0,1.57-1,2.74,2.74,0,0,0,.49-1,2.09,2.09,0,0,1,.85-1.25.79.79,0,0,1,.89,0,1,1,0,0,1,.27,1.06,6.85,6.85,0,0,1-1.27,2.62,6.65,6.65,0,0,1-1.85,1.65h0A3.39,3.39,0,0,1,327.05,392.74Zm1-6.92a5.87,5.87,0,0,0-1.5,1.73,6,6,0,0,0-.8,3.14c0,.57.18,1.53,1.17,1.58a2.71,2.71,0,0,0,1.49-.44,6,6,0,0,0,1.71-1.53,6.3,6.3,0,0,0,1.19-2.44c.08-.32,0-.51-.08-.57s-.22,0-.37.06a1.59,1.59,0,0,0-.65,1,2.9,2.9,0,0,1-.57,1.17,2.72,2.72,0,0,1-2,1.17c-.23,0-.76-.13-.77-.93a3,3,0,0,1,1.14-2.61v-1.29Z"/><path class="f" d="M328.91,387.63a1.2,1.2,0,0,1-.59-.15,1.5,1.5,0,0,1-.64-1.37,4.18,4.18,0,0,1,1.91-3.31,1.33,1.33,0,0,1,2.15,1.24,4.17,4.17,0,0,1-1.91,3.31A1.83,1.83,0,0,1,328.91,387.63Zm1.6-4.64a1.42,1.42,0,0,0-.68.22,3.7,3.7,0,0,0-1.68,2.9,1,1,0,0,0,.41,1,1,1,0,0,0,1-.12,3.72,3.72,0,0,0,1.68-2.91,1.06,1.06,0,0,0-.41-1A.68.68,0,0,0,330.51,383Z"/><path class="f" d="M329.21,385.79l-2.76-1.48a.89.89,0,0,1-.48-.65l-1.2-5.1.19-.11,5.29-.89.44,3.73Zm-3.88-6.93,1.09,4.7a.45.45,0,0,0,.24.33l2.53,1.36,1-4-.37-3.16Z"/><path class="f" d="M329.82,375.64l-5.05,2.92.07.27,2.77,1.48,1.13,4.84a.87.87,0,0,0,.86.74,1.35,1.35,0,0,0,.66-.2,2.88,2.88,0,0,0,1.27-1.86l1.34-6.56Zm-4.3,3,4.31-2.48,2.29,1.22-4.31,2.49Z"/><path class="f" d="M332.84,373.09a1.45,1.45,0,0,0-.6-1.32h0l-2.59-1.38a1.49,1.49,0,0,0-.25-.13l-.16-.06a1.19,1.19,0,0,0-.89.17l-2,1.16a3.52,3.52,0,0,0-1.5,2.85v1.94l3,1.61.15-.08h0l4.87-2.81Zm-7.57,1.28a3.15,3.15,0,0,1,1.27-2.45l2-1.16a.76.76,0,0,1,.52-.12h0l.05,0,.17.09,1.91,1-.15.07-2,1.16a3.53,3.53,0,0,0-1.51,2.86v1.4L325.27,376Z"/><rect class="f" x="328.21" y="360.78" width="0.75" height="10.98"/><path class="f" d="M332.83,358.7a1.47,1.47,0,0,0-.59-1.33h0L329.62,356a1.65,1.65,0,0,0-.26-.14l-.15-.06a1.28,1.28,0,0,0-.89.17l-2,1.16A3.53,3.53,0,0,0,324.8,360v1.94l3,1.61.15-.09h0l4.86-2.81ZM325.27,360a3.12,3.12,0,0,1,1.27-2.45l2-1.16a.78.78,0,0,1,.53-.12h0l.05,0a.68.68,0,0,1,.17.09l1.9,1-.14.07-2,1.16a3.54,3.54,0,0,0-1.5,2.85v1.41l-2.31-1.23Z"/><path class="f" d="M304.84,335.21,301,337.32l-1,.57-.5.28-6.35,3.73,7.15,4.35,13.89,3.7,23.83,13.59,4.39-2.6V357.1ZM300,339v5.89l-4.94-3m42.46,20.21-22.9-13.06L301,345.42V339l12.49,7.16L337.56,360Zm3.43-4.73-2.94,1.74-36.52-20.95,3.3-1.84"/><circle class="b" cx="315.43" cy="331.29" r="1.69"/><path class="f" d="M316.5,333.39a1.14,1.14,0,0,1-2.27,0c0-.63.57-.9,1.2-.9S316.5,332.76,316.5,333.39Z"/><path class="f" d="M315.43,333.47a2.18,2.18,0,1,1,2.17-2.18A2.19,2.19,0,0,1,315.43,333.47Zm1.19-2.18a1.2,1.2,0,0,0-2.39,0"/><rect class="f" x="314.87" y="333.98" width="0.98" height="10.75"/><path class="f" d="M125.33,346.29V348l-3.44-1.92L99.06,359.55v3.55l4.06,2.4,10.23-5.91,12-3.19.68-.18.31-.17,10-5.49Zm-22.7,17.78-2.58-1.53V360.7l2.58,1.52Zm-2.11-4.23,21.39-12.65,2.92,1.63-12.11,7-9.6,5.54Z"/><path class="f" d="M104.1,353.76a1.14,1.14,0,1,1-2.27,0c0-.63.56-.9,1.19-.9S104.1,353.13,104.1,353.76Z"/><path class="f" d="M103,353.85a2.18,2.18,0,1,1,2.18-2.18A2.19,2.19,0,0,1,103,353.85Zm0-3.38a1.2,1.2,0,1,0,1.2,1.2A1.19,1.19,0,0,0,103,350.47Z"/><rect class="f" x="102.47" y="354.36" width="0.98" height="5.83"/><path class="f" d="M172.23,324.88a9.56,9.56,0,0,1-4.7-1.13,3.58,3.58,0,0,1-2.09-3V296.29H179v24.4a3.54,3.54,0,0,1-2.09,3.06A9.61,9.61,0,0,1,172.23,324.88Zm-5.81-27.61v23.49a2.66,2.66,0,0,0,1.6,2.14,9.32,9.32,0,0,0,8.42,0,2.61,2.61,0,0,0,1.59-2.19V297.27Z"/><path class="f" d="M172.22,301a9.61,9.61,0,0,1-4.7-1.12,3.19,3.19,0,0,1,0-6,10.38,10.38,0,0,1,9.4,0h0a3.19,3.19,0,0,1,0,6A9.55,9.55,0,0,1,172.22,301Zm0-7.27a8.62,8.62,0,0,0-4.21,1,2.24,2.24,0,0,0,0,4.29,9.32,9.32,0,0,0,8.42,0,2.24,2.24,0,0,0,0-4.29A8.6,8.6,0,0,0,172.22,293.7Z"/><path class="f" d="M172.22,297.79a12,12,0,0,1-5.85-1.39c-1.66-1-2.57-2.26-2.57-3.67v-5.87l16.85.07v5.72c0,1.44-.87,2.77-2.56,3.75A12,12,0,0,1,172.22,297.79Zm-7.44-9.94v4.88a3.51,3.51,0,0,0,2.08,2.82,11.93,11.93,0,0,0,10.73,0c1.37-.79,2.1-1.82,2.07-2.88v-4.76Z"/><path class="f" d="M172.22,292.29a12,12,0,0,1-5.85-1.4,4.39,4.39,0,0,1-2.57-3.66c0-1.41.91-2.71,2.57-3.67a13,13,0,0,1,11.71,0c1.66,1,2.57,2.26,2.57,3.67a4.39,4.39,0,0,1-2.57,3.66A12,12,0,0,1,172.22,292.29Zm0-9.16a11,11,0,0,0-5.36,1.28,2.94,2.94,0,0,0,0,5.63,11.86,11.86,0,0,0,10.73,0,2.94,2.94,0,0,0,0-5.63A11,11,0,0,0,172.22,283.13Z"/><path class="f" d="M172.22,289.6a5.68,5.68,0,0,1-2.81-.69A2.24,2.24,0,0,1,168.1,287a2.27,2.27,0,0,1,1.31-1.91,6.15,6.15,0,0,1,5.63,0h0a2.29,2.29,0,0,1,1.31,1.91,2.26,2.26,0,0,1-1.31,1.91A5.69,5.69,0,0,1,172.22,289.6Zm0-4.2a4.71,4.71,0,0,0-2.32.55,1.09,1.09,0,0,0,0,2.11,5.21,5.21,0,0,0,4.65,0,1.09,1.09,0,0,0,0-2.11A4.72,4.72,0,0,0,172.22,285.4Z"/><polygon class="f" points="172.62 292.05 172.62 297.56 177.25 296.3 180.16 293.99 180.04 288.61 176.88 290.94 172.62 292.05"/><polygon class="f" points="172.62 300.49 172.62 324.39 177.41 322.88 178.53 321.32 178.31 297.8 176.35 299.6 172.62 300.49"/><path class="f" d="M159.05,249.09a1.5,1.5,0,0,0-1.5.13,4.17,4.17,0,0,0-1.91,3.31,1.48,1.48,0,0,0,.64,1.37,1.14,1.14,0,0,0,.58.15,1.81,1.81,0,0,0,.92-.28,4.17,4.17,0,0,0,1.91-3.31A1.48,1.48,0,0,0,159.05,249.09Z"/><path class="a" d="M158.07,259.21a3.06,3.06,0,0,1-1.62.47c-.87,0-1.38-.7-1.4-1.81a6.29,6.29,0,0,1,.83-3.26,5.87,5.87,0,0,1,1.94-2.07v1.87a2.66,2.66,0,0,0-1.14,2.48c0,.44.19.68.54.7a2.54,2.54,0,0,0,1.77-1.07,2.9,2.9,0,0,0,.53-1.09,1.82,1.82,0,0,1,.75-1.1h0c.56-.35,1,0,.8.76a6.47,6.47,0,0,1-1.23,2.53A6.23,6.23,0,0,1,158.07,259.21Z"/><path class="f" d="M156.54,259.92h-.11c-1-.05-1.59-.82-1.61-2.05a6.36,6.36,0,0,1,.86-3.38,6.11,6.11,0,0,1,2-2.12l.36-.24,0,.41v2l-.11.07a2.42,2.42,0,0,0-1,2.28c0,.44.22.46.33.46a2.29,2.29,0,0,0,1.57-1,2.53,2.53,0,0,0,.48-1,2,2,0,0,1,.86-1.25.79.79,0,0,1,.89,0,1,1,0,0,1,.26,1.06,6.78,6.78,0,0,1-1.27,2.62,6.38,6.38,0,0,1-1.85,1.65h0A3.38,3.38,0,0,1,156.54,259.92Zm1-6.93a5.79,5.79,0,0,0-1.49,1.73,6,6,0,0,0-.8,3.14c0,.57.17,1.54,1.17,1.59A2.82,2.82,0,0,0,158,259a6.29,6.29,0,0,0,1.71-1.53,6.44,6.44,0,0,0,1.19-2.44c.07-.33,0-.51-.09-.57s-.21,0-.37.06a1.6,1.6,0,0,0-.64.95,3.08,3.08,0,0,1-.57,1.18,2.72,2.72,0,0,1-2,1.16c-.22,0-.75-.13-.77-.93a2.93,2.93,0,0,1,1.15-2.61V253Z"/><path class="a" d="M161,251.22a4,4,0,0,1-1.8,3.1c-1,.58-1.79.11-1.79-1a4,4,0,0,1,1.79-3.11C160.19,249.61,161,250.07,161,251.22Z"/><path class="f" d="M158.4,254.81a1.15,1.15,0,0,1-.58-.16,1.47,1.47,0,0,1-.65-1.36,4.15,4.15,0,0,1,1.92-3.31,1.48,1.48,0,0,1,1.5-.13,1.5,1.5,0,0,1,.64,1.37,4.18,4.18,0,0,1-1.91,3.31A1.91,1.91,0,0,1,158.4,254.81Zm1.6-4.64a1.43,1.43,0,0,0-.68.21,3.74,3.74,0,0,0-1.68,2.91.87.87,0,0,0,1.45.83,3.71,3.71,0,0,0,1.67-2.9,1,1,0,0,0-.41-1A.68.68,0,0,0,160,250.17Z"/><path class="a" d="M158.91,245.11h0l-4.38.74,1.16,4.94a.7.7,0,0,0,.36.49h0l2.79,1.49,1.11-4.32-.41-3.45Z"/><path class="f" d="M158.7,253l-2.76-1.48a.92.92,0,0,1-.48-.65l-1.19-5.11.18-.11,5.29-.89.45,3.73ZM154.82,246l1.1,4.69a.49.49,0,0,0,.23.34l2.54,1.35,1-4-.38-3.16Z"/><polygon class="a" points="154.53 245.85 157.31 247.33 162.1 244.57 159.32 243.08 154.53 245.85"/><path class="f" d="M159.32,242.82l-5,2.91.06.27,2.78,1.49,1.13,4.83a.9.9,0,0,0,.51.67.84.84,0,0,0,.35.07,1.3,1.3,0,0,0,.65-.19A3,3,0,0,0,161,251l1.33-6.56Zm-4.3,3,4.3-2.49,2.29,1.23-4.3,2.48Z"/><path class="a" d="M159,237.76a3,3,0,0,0-.3-.16h0a1,1,0,0,0-.74.13l-2,1.17a3.32,3.32,0,0,0-1.39,2.64v1.8l2.78,1.49,4.32-5.68Z"/><path class="f" d="M162.33,240.27a1.46,1.46,0,0,0-.6-1.33h0l-2.6-1.37a1.23,1.23,0,0,0-.25-.14l-.15-.06a1.22,1.22,0,0,0-.89.17l-2,1.16a3.54,3.54,0,0,0-1.5,2.85v2l3,1.61.15-.09h0l4.86-2.81Zm-7.56,1.27A3.12,3.12,0,0,1,156,239.1l2-1.16a.85.85,0,0,1,.53-.13h0l0,0a.6.6,0,0,1,.18.09l1.9,1-.15.07-2,1.16a3.52,3.52,0,0,0-1.5,2.85v1.41l-2.31-1.24Z"/><rect class="f" x="157.7" y="210.27" width="0.75" height="28.66"/><path class="a" d="M159,205.68a1.73,1.73,0,0,0-.3-.16h0a1,1,0,0,0-.74.14l-2,1.16a3.31,3.31,0,0,0-1.39,2.65v1.8l2.78,1.48,4.31-5.67Z"/><path class="f" d="M162.33,208.19a1.47,1.47,0,0,0-.6-1.33h0l-2.59-1.37a1.23,1.23,0,0,0-.25-.14l-.15-.06a1.31,1.31,0,0,0-.9.17l-2,1.16a3.54,3.54,0,0,0-1.5,2.86v1.94l3,1.61.16-.09h0l4.86-2.81Zm-7.56,1.28A3.12,3.12,0,0,1,156,207l2-1.16a.76.76,0,0,1,.52-.12h0l0,0a.76.76,0,0,1,.18.09l1.9,1-.15.07-2,1.16a3.52,3.52,0,0,0-1.51,2.85v1.41l-2.3-1.23Z"/><polygon class="a" points="167.82 205.76 160.01 205.28 149.8 199.38 149.8 202.94 195.1 229.11 195.1 225.56 195.1 221.53 167.82 205.76"/><polygon class="a" points="149.8 199.38 156.02 195.75 166.23 201.65 160.01 205.28 149.8 199.38"/><polygon class="a" points="167.82 205.76 174.04 202.13 166.23 201.65 160.01 205.28 167.82 205.76"/><polygon class="a" points="174.04 202.13 201.32 217.9 195.1 221.53 167.82 205.76 174.04 202.13"/><path class="f" d="M202.3,217.89,175,202.13l-.83-.48-7.81-.49-10.36-6-6.71,3.92v4.12L195.59,230v-8.15Zm-2,0L195.1,221l-26.3-15.2,2-1.17L174,202.7Zm-30.61-13.82-2,1.18-6.05-.37,4.63-2.71.06,0,6.05.37ZM156,196.32l9.23,5.33-.3.18L160,204.71l-9.23-5.33Zm38.59,31.94-44.32-25.61v-2.42l9.58,5.53.26,0,7.55.46,26.93,15.57Z"/><path class="f" d="M199.08,198.54l-6.73,4.06v65.86l7.2-8,6.5-5.59V202.6Zm0,1.14,5.49,3.2-3.07,1.77L199.2,206l-5.39-3.12Zm-.38,60.2-5.38,6V203.73l5.38,3.11Z"/><path class="f" d="M205.5,219.93l-6.79,4.1v7.58l11.42,6.6,6.85-4V229.8Zm4.14,16.86L199.69,231v-5.66l9.95,8.54Zm-8.37-11.35L200,224.38l5.35-3.24L215.64,230l-1.68,1-3.78,2.18Z"/><path class="f" d="M130.31,351.11c-8.26,0-16.53-1.81-22.82-5.44s-9.6-8.37-9.59-13.48v-5.81h1.55a20.81,20.81,0,0,1,8-7.64c12.59-7.27,33.06-7.27,45.64,0a20.71,20.71,0,0,1,8.09,7.72h1.51v6.06c-.14,5-3.53,9.64-9.59,13.14C146.84,349.3,138.58,351.11,130.31,351.11ZM98.88,327.37v4.82c0,4.75,3.22,9.23,9.1,12.63,12.32,7.1,32.35,7.1,44.66,0,5.94-3.43,9.17-8,9.1-12.77v-.5h0v-4.1h-1.13l-.13-.27a19.55,19.55,0,0,0-7.85-7.58c-12.31-7.11-32.35-7.11-44.66,0a19.66,19.66,0,0,0-7.8,7.51l-.14.26Z"/><path class="f" d="M130.31,345.84c-8.26,0-16.53-1.82-22.82-5.45s-9.6-8.35-9.6-13.46,3.41-9.89,9.6-13.46c12.59-7.26,33.06-7.26,45.64,0h0c6.19,3.57,9.6,8.35,9.6,13.46s-3.41,9.89-9.6,13.46S138.58,345.84,130.31,345.84Zm0-36.85c-8.09,0-16.17,1.78-22.33,5.33-5.87,3.39-9.1,7.87-9.1,12.61s3.23,9.22,9.1,12.61c12.31,7.11,32.35,7.11,44.66,0,5.87-3.39,9.11-7.87,9.11-12.61s-3.24-9.22-9.11-12.61C146.49,310.77,138.4,309,130.31,309Z"/><path class="f" d="M130.36,342.58c-6.8,0-13.61-1.5-18.79-4.49s-7.92-6.9-7.92-11.13,2.81-8.18,7.93-11.13c10.36-6,27.21-6,37.57,0h0c5.12,2.95,7.93,6.9,7.93,11.13s-2.81,8.18-7.93,11.13S137.17,342.58,130.36,342.58Zm0-30.27c-6.62,0-13.25,1.46-18.29,4.37-4.8,2.77-7.44,6.42-7.44,10.28s2.64,7.51,7.44,10.28c10.09,5.83,26.5,5.83,36.59,0,4.8-2.77,7.44-6.42,7.44-10.28s-2.64-7.51-7.44-10.28h0C143.62,313.77,137,312.31,130.36,312.31Z"/><path class="f" d="M130.7,309.66a2.18,2.18,0,1,1,2.18-2.18A2.19,2.19,0,0,1,130.7,309.66Zm0-3.38a1.2,1.2,0,1,0,1.2,1.2A1.2,1.2,0,0,0,130.7,306.28Z"/><path class="f" d="M101.33,328.18a2.18,2.18,0,1,1,2.18-2.18A2.18,2.18,0,0,1,101.33,328.18Zm0-3.38a1.2,1.2,0,1,0,1.2,1.2A1.19,1.19,0,0,0,101.33,324.8Z"/><path class="f" d="M109.4,315.33a2.18,2.18,0,1,1,2.18-2.18A2.18,2.18,0,0,1,109.4,315.33Zm0-3.37a1.2,1.2,0,1,0,1.2,1.19A1.19,1.19,0,0,0,109.4,312Z"/><path class="f" d="M109.45,338.63a2.18,2.18,0,1,1,2.18-2.18A2.19,2.19,0,0,1,109.45,338.63Zm0-3.38a1.2,1.2,0,1,0,0,2.39,1.2,1.2,0,0,0,0-2.39Z"/><path class="f" d="M151.37,338.63a2.18,2.18,0,1,1,2.17-2.18A2.18,2.18,0,0,1,151.37,338.63Zm0-3.38a1.2,1.2,0,1,0,0,2.39,1.2,1.2,0,0,0,0-2.39Z"/><path class="f" d="M159.44,328.21a2.18,2.18,0,1,1,2.18-2.18A2.18,2.18,0,0,1,159.44,328.21Zm0-3.38a1.2,1.2,0,1,0,1.2,1.2A1.2,1.2,0,0,0,159.44,324.83Z"/><path class="f" d="M130.7,343.35a2.18,2.18,0,1,1,2.18-2.18A2.19,2.19,0,0,1,130.7,343.35Zm0-3.38a1.2,1.2,0,1,0,1.2,1.2A1.2,1.2,0,0,0,130.7,340Z"/><polygon class="f" points="135.33 344.87 135.33 350.64 147.04 347.75 154.46 344.53 159.09 340.19 162.24 334.81 162.6 328.62 158.57 335.87 151.37 340.79 142.18 344.27 135.33 344.87"/><polygon class="f" points="129.86 345.36 129.86 350.64 121.04 349.85 121.04 344.57 129.86 345.36"/><path class="f" d="M118,323.7l6.83,3.94,7.9-4.56-6.83-3.94,2.13-1.23,16.32,9.42-2.13,1.23-7.65-4.42-7.9,4.56,7.65,4.42-2.1,1.21-16.32-9.42Z"/><path class="f" d="M225.12,268.49l-31.8-10.41,35.43-20.29c.31-.19.65-.39,1-.57l.29-.16h0a15.25,15.25,0,0,1,14.44.46l16.85,9.72v.52Zm-29.4-10.66L225,267.42l34.81-19.91L244,238.38a14.08,14.08,0,0,0-13.68-.35l-.1.06a10.14,10.14,0,0,0-1,.55Z"/><path class="f" d="M260.81,246.94l-35.74,20.45L208.76,258a15.33,15.33,0,0,0-23,13.27v41.32L195.1,318l8.18-4.69L225.07,326l36.23-20.73,0-58Zm-36.23,77.64-21.3-12.38-8.17,4.68L186.75,312V271.25a14.35,14.35,0,0,1,21.52-12.42l16.31,9.41Z"/><path class="f" d="M225,262.47a1.85,1.85,0,0,1-.95-.25l-4.84-2.9a1,1,0,0,1-.54-.86v-5l5.51-2.16a1.71,1.71,0,0,1,1.34-.12l.88.46h0l2.85,1.7,2,.31v5a.88.88,0,0,1-.45.78l-5.07,2.87A1.47,1.47,0,0,1,225,262.47Zm-5.35-8.66v4.65l4.9,2.92a.84.84,0,0,0,.72.05l5-2.84v-4.38l-1.26.17-3.63-2.17a1,1,0,0,0-.41-.11Z"/><path class="f" d="M225,257.47a1.86,1.86,0,0,1-.95-.26l-4.84-2.89a1,1,0,0,1-.54-.84.85.85,0,0,1,.45-.74l5.07-2.87a1.82,1.82,0,0,1,1.72.06l4.84,2.9a1,1,0,0,1,.54.84.87.87,0,0,1-.45.74h0l-5.06,2.85A1.5,1.5,0,0,1,225,257.47Zm-5.24-4,4.79,2.87a.85.85,0,0,0,.72.06l4.93-2.79-4.8-2.86a.85.85,0,0,0-.72-.06Z"/><polygon class="f" points="224.95 256.8 224.95 262.11 230.83 258.63 231.03 253.91 224.95 256.8"/><path class="f" d="M203.1,279.92c0,2.9-2,4.08-4.58,2.62a10.11,10.11,0,0,1-4.58-7.91c0-2.79,2.05-4,4.58-2.5A10.05,10.05,0,0,1,203.1,279.92Zm-.93-.54a8,8,0,0,0-3.65-6.22c-2-1.17-3.65-.22-3.65,2a8,8,0,0,0,3.65,6.33C200.55,282.68,202.17,281.73,202.17,279.38Z"/><path class="f" d="M204.91,286.12a.75.75,0,0,1-.39-.69v-9.24c0-.3.13-.38.39-.23l.11.06a.76.76,0,0,1,.4.69V286c0,.3-.14.38-.4.23Z"/><path class="f" d="M207.78,287.77a.74.74,0,0,1-.39-.68v-9.25c0-.3.13-.37.39-.22l.11.06a.75.75,0,0,1,.4.68v8.71l3.66,2.11a.77.77,0,0,1,.39.68V290c0,.3-.14.38-.39.23Z"/><path class="f" d="M202,333.17h0a2.45,2.45,0,0,1-2.45-2.46V311.22a13.41,13.41,0,0,1,6.66-11.58l5.26-3.05a2.46,2.46,0,0,1,3.36.89h0a2.46,2.46,0,0,1-.89,3.36l-5.26,3.05a8.49,8.49,0,0,0-4.22,7.33v19.49A2.46,2.46,0,0,1,202,333.17Z"/><path class="f" d="M167.63,359.07h-1v-3.53a3.5,3.5,0,0,0-1.54-2.67l-5.51-3.18a.79.79,0,0,0-.77-.12.81.81,0,0,0-.28.73v3.52h-1V350.3a1.57,1.57,0,0,1,2.52-1.46L165.6,352a4.44,4.44,0,0,1,2,3.52Z"/><path class="f" d="M182,367.11h-1v-3.52a3.47,3.47,0,0,0-1.54-2.68L174,357.73a.82.82,0,0,0-.77-.12.81.81,0,0,0-.28.73v3.52h-1v-3.52a1.58,1.58,0,0,1,2.53-1.46l5.5,3.18a4.45,4.45,0,0,1,2,3.53Z"/><path class="f" d="M196.38,375.3h-1v-3.52a3.48,3.48,0,0,0-1.55-2.68l-5.5-3.18a.62.62,0,0,0-1,.61v3.52h-1v-3.52a1.58,1.58,0,0,1,2.53-1.46l5.5,3.18a4.43,4.43,0,0,1,2,3.53Z"/><path class="f" d="M189.51,379.07a1.24,1.24,0,0,0-1.68-.45l-1.59.93a4.53,4.53,0,0,0-2.26,3.92v2.92a1.23,1.23,0,0,0,2.45,0v-2.92a2.09,2.09,0,0,1,1-1.8l1.59-.92A1.23,1.23,0,0,0,189.51,379.07Z"/><path class="f" d="M260.57,346.83a5.84,5.84,0,0,1-2.94-.77l-18.76-11.23a2.48,2.48,0,0,1-1.39-2.13l0-19.3,21.15-7.22,11.57-7a5.56,5.56,0,0,1,5.27.21l13.37,8,6.77-.28v19.24a2,2,0,0,1-1,1.81l-31.66,18.17A4.62,4.62,0,0,1,260.57,346.83Zm-22.12-33.19V332.7a1.57,1.57,0,0,0,.92,1.29l18.75,11.22a4.65,4.65,0,0,0,4.26.21L294,327.26a1,1,0,0,0,.57-1V307.52l-6,.83-13.67-8.16a4.62,4.62,0,0,0-4.25-.2L259,307.1Z"/><path class="f" d="M260.56,327.44a5.85,5.85,0,0,1-2.94-.78l-18.76-11.22a2.52,2.52,0,0,1-1.4-2,2,2,0,0,1,1.06-1.66l31.66-18.17a5.6,5.6,0,0,1,5.26.21L294.19,305a2.51,2.51,0,0,1,1.4,2,2,2,0,0,1-1.06,1.66h0l-31.65,18.16A4.52,4.52,0,0,1,260.56,327.44ZM272.48,294a3.6,3.6,0,0,0-1.8.42L239,312.58a1,1,0,0,0-.58.82,1.63,1.63,0,0,0,.93,1.2l18.75,11.22a4.64,4.64,0,0,0,4.26.2L294,307.87a1.07,1.07,0,0,0,.58-.82,1.63,1.63,0,0,0-.93-1.2l-18.75-11.22A4.83,4.83,0,0,0,272.48,294Z"/><polygon class="f" points="260.31 326.94 260.31 346.33 262.37 345.98 294.98 326.94 295.54 307.46 261.79 327.21 260.31 326.94"/><path class="f" d="M226.88,356.72a3.57,3.57,0,0,1-1.79-.47l-10.68-6.4a1.59,1.59,0,0,1-.9-1.4v-11l12.17-4.31,6.57-4a3.41,3.41,0,0,1,3.23.12l7.55,4.51,4,.05v11a1.36,1.36,0,0,1-.7,1.22l-18,10.35A2.82,2.82,0,0,1,226.88,356.72Zm-12.4-19v10.71c0,.26.26.45.42.55l10.69,6.39a2.43,2.43,0,0,0,2.2.12l18-10.35a.38.38,0,0,0,.22-.36V334.35l-3.25.45L235,330.11a2.45,2.45,0,0,0-2.21-.12L226,334.07Z"/><path class="f" d="M226.87,345.66a3.51,3.51,0,0,1-1.78-.47L214.4,338.8a1.65,1.65,0,0,1-.9-1.34,1.32,1.32,0,0,1,.7-1.13L232.25,326a3.43,3.43,0,0,1,3.21.12l10.69,6.4a1.63,1.63,0,0,1,.9,1.34,1.33,1.33,0,0,1-.71,1.13h0l-18,10.35A2.85,2.85,0,0,1,226.87,345.66Zm6.79-19.05a1.8,1.8,0,0,0-.91.21L214.7,337.17c-.08.05-.22.16-.22.29s.11.31.43.5l10.68,6.39a2.45,2.45,0,0,0,2.21.12l18-10.35c.09-.05.23-.16.23-.29s-.12-.31-.43-.5L235,326.94A2.53,2.53,0,0,0,233.66,326.61Z"/><polygon class="f" points="226.79 345.17 226.79 356.1 228.92 355.73 246.48 345.17 246.81 334.13 226.79 345.17"/><path class="f" d="M259.42,318.71a9.61,9.61,0,0,1-4.7-1.12,3.61,3.61,0,0,1-2.09-3V276.24h13.58v38.29a3.56,3.56,0,0,1-2.08,3.06A9.62,9.62,0,0,1,259.42,318.71Zm-5.8-41.49v37.37a2.69,2.69,0,0,0,1.6,2.15,9.32,9.32,0,0,0,8.42,0,2.64,2.64,0,0,0,1.6-2.19V277.22Z"/><path class="f" d="M259.42,280.92a9.61,9.61,0,0,1-4.7-1.12,3.19,3.19,0,0,1,0-6,10.38,10.38,0,0,1,9.4,0h0a3.19,3.19,0,0,1,0,6A9.58,9.58,0,0,1,259.42,280.92Zm0-7.27a8.62,8.62,0,0,0-4.21,1,2.24,2.24,0,0,0,0,4.29,9.32,9.32,0,0,0,8.42,0,2.24,2.24,0,0,0,0-4.29A8.6,8.6,0,0,0,259.42,273.65Z"/><path class="f" d="M259.42,277.74a12,12,0,0,1-5.85-1.39c-1.66-1-2.57-2.26-2.57-3.67v-5.87l16.85.07v5.72c0,1.44-.87,2.77-2.56,3.75A12,12,0,0,1,259.42,277.74ZM252,267.8v4.88a3.51,3.51,0,0,0,2.08,2.82,11.93,11.93,0,0,0,10.73,0c1.36-.79,2.1-1.82,2.07-2.88v-4.76Z"/><path class="f" d="M259.42,272.24a12,12,0,0,1-5.85-1.4,4.39,4.39,0,0,1-2.57-3.66c0-1.41.91-2.71,2.57-3.67a13,13,0,0,1,11.71,0c1.65,1,2.57,2.26,2.57,3.67a4.41,4.41,0,0,1-2.57,3.66A12,12,0,0,1,259.42,272.24Zm0-9.16a11,11,0,0,0-5.36,1.28,2.94,2.94,0,0,0,0,5.63,11.86,11.86,0,0,0,10.73,0,2.95,2.95,0,0,0,0-5.63A11,11,0,0,0,259.42,263.08Z"/><path class="f" d="M259.42,269.55a5.68,5.68,0,0,1-2.81-.69A2.24,2.24,0,0,1,255.3,267a2.27,2.27,0,0,1,1.31-1.91,6.15,6.15,0,0,1,5.63,0h0a2.29,2.29,0,0,1,1.31,1.91,2.26,2.26,0,0,1-1.31,1.91A5.69,5.69,0,0,1,259.42,269.55Zm0-4.2a4.71,4.71,0,0,0-2.32.55,1.09,1.09,0,0,0,0,2.11,5.21,5.21,0,0,0,4.65,0,1.09,1.09,0,0,0,0-2.11A4.72,4.72,0,0,0,259.42,265.35Z"/><polygon class="f" points="259.82 272 259.82 277.51 264.45 276.25 267.36 273.94 267.24 268.56 264.08 270.88 259.82 272"/><polygon class="f" points="259.82 280.44 259.82 318.23 264.61 316.71 265.72 315.16 265.51 277.75 263.55 279.55 259.82 280.44"/><path class="f" d="M276.06,309.59a9.58,9.58,0,0,1-4.7-1.13,3.58,3.58,0,0,1-2.09-3V289.71h13.58V305.4a3.54,3.54,0,0,1-2.09,3.06A9.61,9.61,0,0,1,276.06,309.59Zm-5.81-18.9v14.78a2.67,2.67,0,0,0,1.6,2.14,9.32,9.32,0,0,0,8.42,0,2.66,2.66,0,0,0,1.6-2.19V290.69Z"/><path class="f" d="M276.06,294.39a9.58,9.58,0,0,1-4.7-1.12,3.19,3.19,0,0,1,0-6,10.38,10.38,0,0,1,9.4,0h0a3.19,3.19,0,0,1,0,6A9.61,9.61,0,0,1,276.06,294.39Zm0-7.27a8.6,8.6,0,0,0-4.21,1,2.24,2.24,0,0,0,0,4.29,9.32,9.32,0,0,0,8.42,0,2.24,2.24,0,0,0,0-4.29A8.62,8.62,0,0,0,276.06,287.12Z"/><path class="f" d="M276.06,291.21a12,12,0,0,1-5.86-1.39c-1.65-1-2.57-2.26-2.57-3.67v-5.87l16.85.07v5.72c0,1.44-.87,2.77-2.57,3.75A12,12,0,0,1,276.06,291.21Zm-7.44-9.94v4.88a3.49,3.49,0,0,0,2.07,2.82,11.93,11.93,0,0,0,10.73,0c1.37-.79,2.11-1.82,2.08-2.88v-4.76Z"/><path class="f" d="M276.06,285.71a12,12,0,0,1-5.86-1.4c-1.65-1-2.57-2.26-2.57-3.66s.92-2.71,2.57-3.67a13,13,0,0,1,11.71,0c1.66,1,2.57,2.26,2.57,3.67s-.91,2.7-2.57,3.66A12,12,0,0,1,276.06,285.71Zm0-9.16a11,11,0,0,0-5.37,1.28,2.95,2.95,0,0,0,0,5.63,11.86,11.86,0,0,0,10.73,0,2.94,2.94,0,0,0,0-5.63A11,11,0,0,0,276.06,276.55Z"/><path class="f" d="M276.06,283a5.69,5.69,0,0,1-2.82-.69,2.26,2.26,0,0,1-1.31-1.91,2.29,2.29,0,0,1,1.31-1.91,6.15,6.15,0,0,1,5.63,0h0a2.27,2.27,0,0,1,1.31,1.91,2.24,2.24,0,0,1-1.31,1.91A5.68,5.68,0,0,1,276.06,283Zm0-4.2a4.72,4.72,0,0,0-2.33.55,1.09,1.09,0,0,0,0,2.11,5.21,5.21,0,0,0,4.65,0,1.09,1.09,0,0,0,0-2.11A4.71,4.71,0,0,0,276.06,278.82Z"/><polygon class="f" points="276.45 285.47 276.45 290.98 281.08 289.72 283.99 287.41 283.87 282.03 280.72 284.35 276.45 285.47"/><polygon class="f" points="276.45 293.91 276.45 309.1 281.25 307.59 282.36 306.03 282.14 291.21 280.18 293.02 276.45 293.91"/><path class="f" d="M246.64,314.37a2.38,2.38,0,0,1-2.35-2.39V296.84a6.15,6.15,0,0,0-3-5.27l-4-2.37a2.43,2.43,0,0,1-.85-3.26,2.37,2.37,0,0,1,1.45-1.12,2.29,2.29,0,0,1,1.77.25l4,2.37a11,11,0,0,1,5.3,9.41V312A2.38,2.38,0,0,1,246.64,314.37Zm-8.13-28.66a1.41,1.41,0,0,0-1.2.71,1.45,1.45,0,0,0,.51,1.95l4,2.37a7.1,7.1,0,0,1,3.45,6.1V312a1.38,1.38,0,1,0,2.76,0V296.85a10,10,0,0,0-4.83-8.58l-4-2.36A1.32,1.32,0,0,0,238.51,285.71Z"/><polygon class="e" points="714.8 658.93 0 606.94 0 170.1 714.8 102.33 714.8 658.93"/><polygon class="g" points="848.88 552.62 466.16 537.63 466.16 46.21 848.88 0 848.88 552.62"/><path class="h" d="M634.47,351.76c45.77,18.29,101.59,7,140.87-34.58a147.43,147.43,0,0,0,37.19-71L746,235.12c-6.58,31.59-33.22,56.07-64.48,57.42a59.12,59.12,0,0,1-23.79-3.77Z"/><path class="i" d="M587.37,306.3c1,1,1.94,1.95,2.94,2.9l42.15-50.12c-12.22-11.62-19.8-28.56-19.8-47.84,0-36.88,28.08-69.15,63.43-72.15,25.65-2.17,48.19,11.62,59.08,33.66L796,137.29a122.47,122.47,0,0,0-26.07-34.84c-52.42-48.77-134.14-39.83-182.51,17C540.37,174.69,540.41,257.13,587.37,306.3Z"/><path class="j" d="M742.12,203a73.26,73.26,0,0,1-1.55,14.93L807.08,229c6.73-31.32,3-63.9-11.13-91.68l-60.78,35.46A67.42,67.42,0,0,1,742.12,203Z"/><path class="k" d="M590.31,309.2A116.38,116.38,0,0,0,629,334.53l23.28-63a58.69,58.69,0,0,1-19.84-12.47Z"/><polygon class="j" points="652.08 377.39 652.08 625.14 646.3 624.77 646.3 377.46 652.08 377.39"/><polygon class="i" points="415.66 532.7 415.66 610.07 410.69 609.75 410.69 532.51 415.66 532.7"/><polygon class="k" points="529.42 449.24 529.42 617.32 524.07 616.98 524.07 449.19 529.42 449.24"/><path class="l" d="M783.19,569.6c-68.31-3.08-68.31-158.67-133.92-158.54-63.07.11-63.07,149.68-123.74,147-58.42-2.62-58.42-146.62-114.7-146.51"/><polygon class="m" points="562.6 371.08 562.6 358.31 586.19 357.87 586.19 370.73 562.6 371.08"/><polygon class="m" points="521.67 371.68 521.67 359.07 544.66 358.64 544.66 371.34 521.67 371.68"/><polygon class="m" points="481.79 372.26 481.79 359.81 504.2 359.39 504.2 371.93 481.79 372.26"/><path class="i" d="M497.18,140.49c7.32-3.9,16-3,22,3.07a21.11,21.11,0,0,1,5.56,10.76l-10,3.25c-1-5-5.12-8.51-10-8.09a9.81,9.81,0,0,0-3.78,1.13Z"/><path class="h" d="M490.37,146.09c.16-.19.32-.38.49-.56l6.88,7.6a12.92,12.92,0,0,0-3.22,8.54c0,6.24,4.55,10.94,10.18,10.5a11.3,11.3,0,0,0,9.19-7.07l9.18,4.27a25.13,25.13,0,0,1-3.91,6.33c-8,9.46-20.89,10.42-28.79,2.22S482.52,155.54,490.37,146.09Z"/><path class="h" d="M515,160a12.54,12.54,0,0,0-.24-2.41l10-3.25a25.4,25.4,0,0,1-1.65,15.05l-9.18-4.27A12.72,12.72,0,0,0,515,160Z"/><path class="j" d="M490.86,145.53a22.48,22.48,0,0,1,6.32-5l3.74,10.12a11.31,11.31,0,0,0-3.18,2.52Z"/><path class="j" d="M523.53,306c-3.16,8.21-10.42,14.09-18.82,14.35a18.14,18.14,0,0,1-11-3.23l5.44-9.63a9.59,9.59,0,0,0,12.75-2,12.07,12.07,0,0,0,2.18-3.63Z"/><path class="k" d="M525.2,296.91c0,.25,0,.51,0,.76H515a11.64,11.64,0,0,0-3-8.3c-4-4.27-10.47-4-14.44.59a12.5,12.5,0,0,0-2.44,11.73l-9.52,3.95a24.35,24.35,0,0,1-1.06-7.18c0-12.4,9-22.87,20.22-23.38S525.2,284.35,525.2,296.91Z"/><path class="i" d="M497.49,306a10.53,10.53,0,0,0,1.7,1.47l-5.44,9.63a21.21,21.21,0,0,1-8.21-11.43l9.52-3.95A11,11,0,0,0,497.49,306Z"/><path class="h" d="M525.18,297.67a25,25,0,0,1-1.65,8.29l-9.41-4.13a12.62,12.62,0,0,0,.83-4.15Z"/><path class="k" d="M496.68,250.47c-7.19-3.06-12.2-10.73-12.2-20a25.32,25.32,0,0,1,3.18-12.33l8.47,5.5c-2.53,4.55-2.07,10.41,1.37,14a9.51,9.51,0,0,0,3.17,2.22Z"/><path class="j" d="M504.7,251.88H504l.34-11.27a10.27,10.27,0,0,0,7.57-3.76c4-4.68,4-11.88,0-16.08a9.16,9.16,0,0,0-10.52-2.05l-3.24-10.44a18.86,18.86,0,0,1,6.53-1.64c11.27-.77,20.49,8.81,20.49,21.37S516,251.28,504.7,251.88Z"/><path class="h" d="M497.5,221.69a12.22,12.22,0,0,0-1.37,2l-8.47-5.5a22.71,22.71,0,0,1,10.52-9.87l3.24,10.44A10.67,10.67,0,0,0,497.5,221.69Z"/><path class="i" d="M504,251.89a17.85,17.85,0,0,1-7.35-1.42l4-10.55a8.89,8.89,0,0,0,3.7.7Z"/><g class="n"><path d="M191.36,434.83c-1.88,5.3-2.61,10.24.52,15.25,2.77,4.44,7.3,7,12.07,8.83,1.8.69,2.58-2.21.8-2.89-4-1.54-7.94-3.71-10.28-7.46-2.67-4.27-1.8-8.46-.22-12.93.65-1.82-2.25-2.61-2.89-.8Z"/></g><g class="n"><path d="M242.74,432.62a21.27,21.27,0,0,1,1.1,14.36,1.51,1.51,0,0,0,2.9.8,24.69,24.69,0,0,0-1.4-16.67c-.79-1.76-3.37-.24-2.6,1.51Z"/></g><g class="n"><path d="M249.58,432.28a15.4,15.4,0,0,1,1.66,5.58c.19,1.9,3.19,1.92,3,0a19.15,19.15,0,0,0-2.07-7.09c-.88-1.72-3.47-.2-2.59,1.51Z"/></g><g class="n"><path d="M175.06,401.28a20.52,20.52,0,0,1-1.9,5c-.91,1.7,1.68,3.22,2.59,1.51a23.49,23.49,0,0,0,2.2-5.74c.46-1.87-2.44-2.67-2.89-.8Z"/></g><g class="n"><path d="M130.49,400.12c-.88,4.48-.56,9.1,3.36,12,1.55,1.15,3.05-1.45,1.51-2.59-2.7-2-2.56-5.65-2-8.61.37-1.88-2.52-2.69-2.9-.8Z"/></g><g class="n"><path d="M126.24,395.34a24.2,24.2,0,0,0,4,27c1.29,1.44,3.41-.69,2.13-2.13a21,21,0,0,1-3.5-23.38c.81-1.74-1.78-3.27-2.59-1.52Z"/></g><g class="n"><path d="M261.59,390.27a12.07,12.07,0,0,0-1.48,5.51c-.05,1.93,2.95,1.93,3,0a8.75,8.75,0,0,1,1.07-4c.92-1.69-1.67-3.21-2.59-1.51Z"/></g><g class="n"><path d="M272.41,417.15c10,4.11,21.43,5.93,30.66-1.12,7.88-6,10.42-16.86,4.72-25.26-1.08-1.59-3.68-.09-2.59,1.52,5.54,8.16,1.95,18.29-6.3,22.91s-17.44,2.44-25.69-.94c-1.79-.73-2.56,2.17-.8,2.89Z"/></g><path class="o" d="M305.3,382.31l11.25,20.79a4.36,4.36,0,0,1-1.42,5.69l-1.94,1.3s1.74,28-17.49,38.47v9.53l-4.82,13.44-35.4-3.74V452.05l-1.75-5.24-5.24-29.73Z"/><path class="p" d="M227.5,415.33s10.5,29.73,26.23,33.23l9.75-1.22a4.62,4.62,0,0,0,4-4.8l-1.3-27.3a8.53,8.53,0,0,1,8.08-9,8.1,8.1,0,0,1,5.06,1.61,2.09,2.09,0,0,0,3.24-1.18l2.19-8.49-43.3-5.54Z"/><path class="q" d="M217.73,411.56c10.93,4.42,36.92,8.79,78-20.71,0,0,59.45-49,5.25-36.72H295.7S256,319.4,224.88,360.92a32.38,32.38,0,0,0-4.34,8c-2.57,6.8-7.22,20.5-8.46,33.31A9.1,9.1,0,0,0,217.73,411.56Z"/><path class="r" d="M227.81,405.06c10.49.15,41.08-2.45,71.93-33.95a2.16,2.16,0,0,0,.26-2.72,62.44,62.44,0,0,0-17.84-17.56c-13.34-8.29-30.7-5.89-41.81,5.22-8.49,8.49-17.27,22.73-16.55,45.05A4.09,4.09,0,0,0,227.81,405.06Z"/><path class="s" d="M301,369.87l4.65-3.5a2.33,2.33,0,0,0,.12-3.64l-11-9.4"/><path class="o" d="M389.88,627.57c-.2,9.13-4.31,23.09-15.5,25.58-14.23,3.16-38.48-30.88-43-37.4l20.52-19.15s13.73,21.57,13.73,19.83,3.5-3.5,3.5-3.5c7-3.5,8.74,8.74,8.74,8.74l4.39-.73A6.55,6.55,0,0,1,389.88,627.57Z"/><path class="t" d="M356.62,592.21l-4.71,4.39-20.52,19.15-.57.53a.37.37,0,0,1-.32.1h0a24.28,24.28,0,0,1-10.43-7l21.12-28.49a.36.36,0,0,0,.52.29l2.74-1.37a.38.38,0,0,1,.43.07l11.78,11.78A.39.39,0,0,1,356.62,592.21Z"/><path class="u" d="M330.47,616.37c-1-.29-5.63-1.68-12.5-4.2-22.27-8.13-68-28-88.72-60.44C208.93,520,220.89,491,229,477.51a13.36,13.36,0,0,1,9.59-6.39,12.73,12.73,0,0,1,1.86-.13,12.93,12.93,0,0,1,2.62.26.35.35,0,0,0,.34-.1l5-5,.05-.06a.37.37,0,0,0,0-.11,6.66,6.66,0,0,1,8.34-4.79c23,6.64,33.4,1.89,37.76-2a6.2,6.2,0,0,1,.95-.69,5.69,5.69,0,0,1,6.7.73,47.51,47.51,0,0,1,9.11,12,.57.57,0,0,1,0,.14v.1l-.74,3.72c1.28-.55,3.62-.37,7.76,1.4,7.83,3.35,14.23,13.15,17.82,19.77a27.56,27.56,0,0,1,3.3,12.53l1.6,72a0,0,0,0,0,0,0L320,609.39A24.28,24.28,0,0,0,330.47,616.37Z"/><path class="v" d="M245.74,829.75s19.23,7,33.22,3.5l3.92-3.72-.42,23-7,5.25L259.73,856,251,850.73l-3.49-5.24-1.75-7Z"/><path class="w" d="M245.74,829.75s-3.5,22.73,12.24,28,24.48,1.75,24.48,1.75v-7s-21,3.5-28-1.75S245.74,829.75,245.74,829.75Z"/><path class="x" d="M284.88,836.53l42.29-13.77v3.09a5.23,5.23,0,0,0,5.59,5.22c7.45-.5,20.06-1.08,23.12.46,4,2,9.76,7,8,14s-36.72,19.23-36.72,19.23L302.69,870l-17.48-8.74Z"/><path class="w" d="M285.21,861.23a6.74,6.74,0,0,1,2.74,1.13c2.45,1.74,9.13,5.47,20,4.11,14-1.75,55.95-24.48,55.95-24.48s5.25,14-40.21,29.73c0,0-21.8,7.78-36-1.62a5.58,5.58,0,0,1-2.46-4.65v-4.22Z"/><path class="y" d="M330.67,616.43l-3.5,206.33s-6.06,28.79-35.1,20.08a11.61,11.61,0,0,1-8-9.16l-.65-3.92a4.4,4.4,0,0,1-.62,1.93c-1.82,3.18-9,8.23-37.09-1.85h0l-.85-.31-15.63-277.8s-5-59.73,9.31-80.61c.38-.55.77-1.08,1.18-1.58l8.72-3.48h0s-8.74,36.72-7,43.71S278.21,522,288.7,518.5c0,0,12.22-36.65,22.71-47.18l0,0,7,5.25s-35,50.71-10.49,69.94c0,0-3.5,24.48-1.75,35,0,0,4.09,17.42,13.85,27.94a24.28,24.28,0,0,0,10.43,7h0Z"/><path class="z" d="M401.71,387.53H339.93a6.09,6.09,0,0,0-6.1,6.09V427a6.1,6.1,0,0,0,6.1,6.1h3.32v15.27l15.28-15.27h43.18a6.1,6.1,0,0,0,6.1-6.1V393.62A6.09,6.09,0,0,0,401.71,387.53Z"/><path class="f" d="M348.6,420.22h14.58a2,2,0,0,1,2,2h0a2,2,0,0,1-2,2H348.6a2,2,0,0,1-2-2h0A2,2,0,0,1,348.6,420.22Z"/><path class="f" d="M348.6,410h26.86a2,2,0,0,1,2,2h0a2,2,0,0,1-2,2H348.6a2,2,0,0,1-2-2h0A2,2,0,0,1,348.6,410Z"/><path class="f" d="M348.6,400.12h46.17a2,2,0,0,1,2,2h0a2,2,0,0,1-2,2H348.6a2,2,0,0,1-2-2h0A2,2,0,0,1,348.6,400.12Z"/></svg>